<svg width="16" height="16" viewBox="0 0 16 16" fill="none" xmlns="http://www.w3.org/2000/svg">
<path d="M2.66663 13.3332V11.9998H4.49996L4.23329 11.7665C3.65551 11.2554 3.24996 10.6721 3.01663 10.0165C2.78329 9.36095 2.66663 8.69984 2.66663 8.03317C2.66663 6.79984 3.03607 5.70261 3.77496 4.7415C4.51385 3.78039 5.47774 3.14428 6.66663 2.83317V4.23317C5.86663 4.52206 5.22218 5.01373 4.73329 5.70817C4.2444 6.40261 3.99996 7.17761 3.99996 8.03317C3.99996 8.53317 4.0944 9.01928 4.28329 9.4915C4.47218 9.96373 4.76663 10.3998 5.16663 10.7998L5.33329 10.9665V9.33317H6.66663V13.3332H2.66663ZM9.33329 13.1665V11.7665C10.1333 11.4776 10.7777 10.9859 11.2666 10.2915C11.7555 9.59706 12 8.82206 12 7.9665C12 7.4665 11.9055 6.98039 11.7166 6.50817C11.5277 6.03595 11.2333 5.59984 10.8333 5.19984L10.6666 5.03317V6.6665H9.33329V2.6665H13.3333V3.99984H11.5L11.7666 4.23317C12.3111 4.77761 12.7083 5.36928 12.9583 6.00817C13.2083 6.64706 13.3333 7.29984 13.3333 7.9665C13.3333 9.19984 12.9638 10.2971 12.225 11.2582C11.4861 12.2193 10.5222 12.8554 9.33329 13.1665Z" fill="#165500"/>
</svg>
