<svg width="74" height="74" viewBox="0 0 74 74" fill="none" xmlns="http://www.w3.org/2000/svg">
<path d="M59.8986 65.5227C53.5921 70.8274 45.6449 73.9997 37.0008 73.9997C28.3566 73.9997 20.4104 70.8274 14.1029 65.5227C11.0319 62.9404 8.34672 59.8571 6.16699 56.378C9.16703 53.5567 15.04 51.4122 18.0662 49.9675C19.9517 49.0668 22.0847 48.5229 23.2133 47.6081L28.3594 42.2954L25.7864 34.6243C22.649 33.6655 21.1915 25.7725 23.2133 25.5755C22.564 21.7844 21.9343 16.7027 22.6649 13.0326C23.4357 7.43894 29.5497 3.08301 36.9812 3.08301C44.0931 3.08301 49.9969 7.07303 51.1667 12.3177C52.1468 16.0208 51.4778 21.5315 50.7845 25.5745C52.8064 25.7715 51.4021 33.6435 48.2629 34.6033L45.6384 42.2934L50.7864 47.6061C51.9132 48.5209 54.0462 49.0658 55.9325 49.9655C58.9606 51.4102 64.8336 53.5557 67.8337 56.377C65.6539 59.8581 62.9688 62.9414 59.8986 65.5227Z" fill="#9DACD4"/>
</svg>
