<svg width="16" height="16" viewBox="0 0 16 16" fill="none" xmlns="http://www.w3.org/2000/svg">
<g clip-path="url(#clip0_2949_8773)">
<path fill-rule="evenodd" clip-rule="evenodd" d="M2.46325 4.06189H9.95751C10.0574 4.06189 10.1382 3.99311 10.1382 3.90904V3.73284C10.1382 3.64878 10.0574 3.58 9.95751 3.58H2.46325C2.3634 3.58 2.28213 3.64878 2.28213 3.73284V3.90904C2.28213 3.99311 2.3634 4.06189 2.46325 4.06189ZM13.1801 9.64544C12.6232 9.93967 12.293 10.4555 12.2447 11.0003L8.9683 12.7295C8.4268 12.4914 7.76965 12.4935 7.21003 12.7898C6.88262 12.9626 6.63323 13.2123 6.47347 13.4997L6.46 13.5069L6.46976 13.5065C6.35551 13.7141 6.28817 13.9417 6.27238 14.1739L7.39069 13.5834C7.68606 13.4275 8.06688 13.5209 8.23732 13.7905L8.65761 14.4554C8.82805 14.7255 8.72542 15.0736 8.43051 15.229L7.3122 15.8196C7.85789 16.0671 8.52433 16.0688 9.0923 15.7695C9.64728 15.477 9.97655 14.9645 10.0267 14.4215L13.311 12.6884C13.8507 12.9236 14.5046 12.9197 15.0619 12.6255C15.6299 12.3262 15.9619 11.7976 16 11.2414L14.8817 11.832C14.5859 11.9878 14.205 11.894 14.0355 11.6248L13.6148 10.9599C13.4453 10.6895 13.547 10.3417 13.8414 10.1859L14.9597 9.59534C14.415 9.34782 13.7481 9.34612 13.1801 9.64544ZM6.14281 8.32078C7.71996 8.32078 9.00732 6.64244 9.08023 4.53571H3.20725C3.27923 6.64244 4.56659 8.32078 6.14281 8.32078ZM8.77186 7.47503C10.3992 7.61047 11.7399 8.67402 12.1542 10.0794C12.0943 10.2271 12.0571 10.3817 12.0437 10.5387L8.76721 12.268C8.22571 12.0298 7.56856 12.0324 7.00894 12.3283C6.51109 12.5911 6.19389 13.0306 6.09822 13.5108C3.99814 13.5035 2.04621 13.0047 0.417974 12.1534C0.152329 12.0141 0 11.7738 0 11.4936V10.9969C0 9.15761 1.54836 7.63934 3.51422 7.47503C4.11703 8.43117 5.07001 9.04849 6.14327 9.04849C7.21653 9.04849 8.16951 8.43117 8.77186 7.47503ZM8.05434 0.579117L7.80773 1.87237C7.76779 2.07871 7.5537 2.21669 7.32799 2.18103C7.10322 2.14494 6.95135 1.94836 6.99036 1.74245L7.28898 0.183416C6.956 0.0645355 6.60026 0 6.23058 0C5.83397 0 5.45315 0.073876 5.09927 0.210164L5.3886 1.72249C5.42761 1.92841 5.27714 2.12541 5.05097 2.16108C4.82573 2.19674 4.61117 2.05875 4.57169 1.85284L4.33763 0.628368C3.58063 1.18498 3.04563 2.0664 2.90677 3.08622H9.55393C9.41043 2.03625 8.84802 1.13234 8.05434 0.579117Z" fill="#9DACD4"/>
</g>
<defs>
<clipPath id="clip0_2949_8773">
<rect width="16" height="16" fill="white"/>
</clipPath>
</defs>
</svg>
