<svg width="24" height="24" viewBox="0 0 24 24" fill="none" xmlns="http://www.w3.org/2000/svg">
<path d="M5.86842 10.9L11.9474 1L18.0263 10.9H5.86842ZM18.0263 23C16.6447 23 15.4704 22.5187 14.5033 21.5562C13.5362 20.5938 13.0526 19.425 13.0526 18.05C13.0526 16.675 13.5362 15.5063 14.5033 14.5437C15.4704 13.5813 16.6447 13.1 18.0263 13.1C19.4079 13.1 20.5822 13.5813 21.5493 14.5437C22.5164 15.5063 23 16.675 23 18.05C23 19.425 22.5164 20.5938 21.5493 21.5562C20.5822 22.5187 19.4079 23 18.0263 23ZM2 22.45V13.65H10.8421V22.45H2Z" fill="#0B1527"/>
</svg>
