<svg width="151" height="149" viewBox="0 0 151 149" fill="none" xmlns="http://www.w3.org/2000/svg">
<g opacity="0.2" clip-path="url(#clip0_3725_1335)">
<path d="M202.097 149H201.998C198.045 144.001 194.168 138.884 190.304 133.783C177.553 116.95 164.941 100.301 150.171 88.7115C116.116 61.9894 70.5632 62.1771 -14.6859 149H-14.7937C70.5305 62.0839 116.127 61.901 150.221 88.6529C164.998 100.248 177.613 116.901 190.368 133.739C194.243 138.854 198.131 143.987 202.097 149ZM205.455 149H205.353C200.309 143.154 195.365 137.084 190.428 131.021C176.724 114.193 163.063 97.4195 147.406 85.6427C110.685 58.0237 62.9542 57.9013 -22.1528 149H-22.2582C62.9196 57.8081 110.695 57.9351 147.454 85.5833C163.12 97.3661 176.783 114.143 190.49 130.975C195.44 137.054 200.397 143.14 205.455 149ZM209.41 149H209.304C203.092 142.381 196.995 135.384 190.885 128.372C176.147 111.459 161.33 94.4541 144.638 82.4568C105.136 54.066 55.1071 53.7338 -29.277 149H-29.3807C55.0699 53.6403 105.143 53.9766 144.685 82.3961C161.384 94.3983 176.204 111.406 190.945 128.323C197.071 135.353 203.183 142.368 209.41 149ZM213.967 149H213.857C206.425 141.7 199.096 133.804 191.715 125.853C175.834 108.745 159.711 91.3759 141.797 79.1156C99.4165 50.1125 46.9865 49.7224 -36.0458 149H-36.1465C46.9469 49.6295 99.4219 50.0234 141.842 79.0542C159.763 91.3186 175.889 108.691 191.773 125.803C199.171 133.773 206.517 141.686 213.967 149ZM217 147.054V147.159C209.001 139.772 201.034 131.683 192.967 123.49C175.797 106.055 158.17 88.155 138.797 75.5811C93.4693 46.1627 38.5626 45.9218 -42.4439 149H-42.5423C38.5207 45.8294 93.4724 46.0735 138.84 75.5183C158.221 88.097 175.852 106 193.024 123.438C201.072 131.611 209.02 139.682 217 147.054ZM217 142.156V142.26C209.646 135.679 202.235 128.556 194.699 121.314C176.062 103.402 156.668 84.763 135.536 71.816C87.2253 42.2171 29.8138 42.3894 -48.4563 149H-48.5525C29.7693 42.2978 87.2261 42.128 135.578 71.752C156.717 84.7031 176.114 103.345 194.755 121.26C202.271 128.484 209.665 135.59 217 142.156ZM217 137.245V137.348C210.445 131.655 203.781 125.57 196.986 119.364C176.662 100.803 155.163 81.1701 131.901 67.7886C80.6093 38.2824 20.7313 39.1851 -54.066 149H-54.1596C20.6841 39.0949 80.6078 38.1935 131.941 67.7236C155.211 81.1097 176.713 100.746 197.04 119.309C203.817 125.498 210.463 131.567 217 137.245ZM217 132.323V132.423C211.427 127.722 205.734 122.761 199.919 117.695C177.66 98.2992 153.621 77.3536 127.768 63.4767C73.5428 34.3717 11.3211 36.368 -59.254 149H-59.3454C11.2713 36.2791 73.5385 34.2831 127.806 63.4106C153.667 77.2915 177.709 98.2401 199.972 117.639C205.768 122.689 211.444 127.635 217 132.323ZM217 127.389V127.489C212.636 123.908 208.174 120.182 203.62 116.379C179.156 95.9513 152.022 73.2931 123.008 58.8715C65.9506 30.5102 1.61678 34.0166 -63.9867 149H-64.0764C1.56358 33.9282 65.9438 30.4216 123.044 58.8043C152.066 73.2299 179.204 95.8915 203.671 116.322C208.208 120.11 212.652 123.821 217 127.389ZM217 122.446V122.544C214.134 120.254 211.217 117.914 208.25 115.522C181.319 93.8657 150.369 68.9763 117.494 53.9798C58.1743 26.9196 -7.42104 32.087 -67 146.577V146.407C-7.41227 31.9949 58.1937 26.8448 117.528 53.9113C150.412 68.9124 181.366 93.805 208.3 115.465C211.249 117.836 214.149 120.163 217 122.446ZM217 117.493V117.59C216.019 116.826 215.03 116.057 214.035 115.281C184.434 92.2225 148.718 64.4 111.102 48.8267C50.8371 23.8759 -14.3068 30.3888 -67 138.312V138.134C-14.2942 30.2981 50.8573 23.8016 111.133 48.7571C148.758 64.3345 184.479 92.1605 214.084 115.222C215.063 115.984 216.035 116.741 217 117.493ZM217 112.531V112.628C185.333 88.585 145.303 58.8647 103.721 43.4574C43.0737 20.9856 -20.8761 28.9781 -67 129.443V129.258C-20.8583 28.8881 43.0951 20.9125 103.749 43.3867C145.321 58.7907 185.337 88.4923 217 112.531ZM217 107.561V107.657C183.6 82.9044 139.858 52.4632 95.257 37.9383C34.9284 18.2917 -26.9751 27.7847 -67 119.864V119.669C-26.9521 27.6933 34.9515 18.2194 95.2817 37.8665C139.874 52.3883 183.602 82.812 217 107.561ZM217 102.585V102.68C178.337 74.6897 124.519 39.8657 72.2995 29.1079C17.7518 17.8707 -35.0474 32.9109 -67 109.441V109.24C-35.0224 32.8152 17.7725 17.7976 72.3158 29.0339C124.529 39.7901 178.335 74.5965 217 102.585ZM217 97.6018V97.6958C177.597 69.8098 121.187 35.5939 67.4412 25.2395C13.1334 14.7767 -38.4491 28.6871 -67 98.1255V97.9232C-38.4182 28.5923 13.1573 14.7041 67.4567 25.1653C121.195 35.5184 177.593 69.7173 217 97.6018ZM217 92.6118V92.7053C176.963 64.9872 118.137 31.4807 62.9789 21.4427C41.4738 17.5291 20.5269 17.1834 1.47061 22.1398C-17.584 27.0956 -34.7492 37.3534 -48.6936 54.6468C-55.6531 63.2778 -61.81 73.6623 -67 86.0144V85.8136C-61.8226 73.5307 -55.6871 63.1963 -48.7557 54.6002C-34.8 37.2929 -17.6202 27.0268 1.45004 22.0666C20.5185 17.1072 41.4772 17.4529 62.9932 21.3684C118.144 31.4048 176.958 64.8956 217 92.6118ZM217 87.6153V87.7077C174.303 58.7732 108.918 24.0553 50.063 16.3563C29.8756 13.7154 10.457 14.2536 -7.01287 19.2947C-24.4805 24.3354 -40.0008 33.8786 -52.3938 49.248C-57.9189 56.1001 -62.8221 64.111 -67 73.3963V73.2051C-62.8354 63.9818 -57.9529 56.0189 -52.4557 49.2014C-40.0521 33.8188 -24.5184 24.2674 -7.03508 19.2221C10.4457 14.1777 29.8753 13.6391 50.0734 16.2812C108.922 23.9797 174.294 58.6816 217 87.6153ZM217 82.6126V82.7047C185.972 62.1099 142.307 38.8608 97.8958 24.5982C64.7118 13.9411 31.1127 8.3017 2.06168 12.537C-26.9835 16.7713 -51.4828 30.8779 -66.4749 59.7122C-66.6514 60.0516 -66.8265 60.3932 -67 60.7371V60.5648C-66.8493 60.2681 -66.6976 59.9727 -66.5451 59.6786C-51.5398 30.8188 -27.0196 16.7001 2.05019 12.4621C31.1141 8.22505 64.7256 13.8661 97.9206 24.5267C142.318 38.785 185.969 62.0221 217 82.6126ZM217 77.6058V77.6968C183.834 56.1234 135.521 31.9483 87.3287 18.3242C54.5168 9.04845 21.7625 4.66418 -6.11198 9.32372C-31.8186 13.6206 -53.3751 25.6106 -67 48.5504V48.3984C-53.3588 25.5112 -31.8118 13.5426 -6.12518 9.24917C21.7622 4.58753 54.5283 8.97286 87.3506 18.2517C135.53 31.8719 183.829 56.0359 217 77.6058ZM217 72.5933V72.6843C181.631 50.1258 128.275 25.0734 76.2583 12.2877C43.9859 4.35509 12.2318 1.1446 -14.3849 6.18254C-36.2398 10.3191 -54.6296 20.0192 -67 37.2314V37.0984C-54.6181 19.9247 -36.237 10.2414 -14.3998 6.10799C12.2292 1.06786 43.9951 4.279 76.2778 12.2142C128.281 24.9967 181.624 50.0383 217 72.5933ZM217 67.577V67.667C179.404 44.1432 120.667 18.2985 64.8817 6.54096C33.2888 -0.117693 2.64477 -2.25807 -22.6708 3.10071C-40.6636 6.90941 -55.963 14.5085 -67 26.9651V26.848C-55.9563 14.4182 -40.6646 6.8319 -22.6874 3.02674C2.63992 -2.33472 33.2953 -0.194056 64.8982 6.4667C120.671 18.2219 179.395 44.0556 217 67.577ZM-6.99937 149C77.9398 66.4261 121.479 65.8769 153.038 91.6392C167.043 103.072 178.687 119.682 190.545 136.599C193.446 140.738 196.361 144.895 199.326 149H199.23C196.276 144.909 193.371 140.766 190.48 136.641C178.624 119.729 166.984 103.123 152.988 91.6969C121.466 65.9652 77.9704 66.519 -6.88922 149H-6.99937Z" fill="#9DACD4" stroke="#9DACD4" stroke-width="0.6"/>
</g>
<defs>
<clipPath id="clip0_3725_1335">
<rect width="284" height="149" fill="white" transform="translate(-67)"/>
</clipPath>
</defs>
</svg>
