<svg width="24" height="24" viewBox="0 0 24 24" fill="none" xmlns="http://www.w3.org/2000/svg">
<path d="M5.86842 10.9L11.9474 1L18.0263 10.9H5.86842ZM18.0263 23C16.6447 23 15.4704 22.5187 14.5033 21.5562C13.5362 20.5938 13.0526 19.425 13.0526 18.05C13.0526 16.675 13.5362 15.5063 14.5033 14.5437C15.4704 13.5813 16.6447 13.1 18.0263 13.1C19.4079 13.1 20.5822 13.5813 21.5493 14.5437C22.5164 15.5063 23 16.675 23 18.05C23 19.425 22.5164 20.5938 21.5493 21.5562C20.5822 22.5187 19.4079 23 18.0263 23ZM2 22.45V13.65H10.8421V22.45H2ZM18.0263 20.8C18.8 20.8 19.4539 20.5342 19.9882 20.0025C20.5224 19.4708 20.7895 18.82 20.7895 18.05C20.7895 17.28 20.5224 16.6292 19.9882 16.0975C19.4539 15.5658 18.8 15.3 18.0263 15.3C17.2526 15.3 16.5987 15.5658 16.0645 16.0975C15.5303 16.6292 15.2632 17.28 15.2632 18.05C15.2632 18.82 15.5303 19.4708 16.0645 20.0025C16.5987 20.5342 17.2526 20.8 18.0263 20.8ZM4.21053 20.25H8.63158V15.85H4.21053V20.25ZM9.79211 8.7H14.1026L11.9474 5.235L9.79211 8.7Z" fill="#0B1527"/>
</svg>
