<svg width="41" height="41" viewBox="0 0 41 41" fill="none" xmlns="http://www.w3.org/2000/svg">
<path fill-rule="evenodd" clip-rule="evenodd" d="M28.8281 34.4637H29.0767C29.634 34.4637 30.1638 34.2397 30.5283 33.8493C30.8935 33.4589 31.0581 32.9408 30.9793 32.4292L29.554 23.1739H11.446L10.0207 32.4292C9.94186 32.9408 10.1065 33.4589 10.4717 33.8493C10.8362 34.2397 11.366 34.4637 11.9233 34.4637H12.1719V30.8985C12.1719 30.5705 12.4589 30.3043 12.8125 30.3043C13.1661 30.3043 13.4531 30.5705 13.4531 30.8985V34.4637H16.0156V30.8985C16.0156 30.5705 16.3026 30.3043 16.6562 30.3043C17.0099 30.3043 17.2969 30.5705 17.2969 30.8985V34.4637H19.8594V30.8985C19.8594 30.5705 20.1464 30.3043 20.5 30.3043C20.8536 30.3043 21.1406 30.5705 21.1406 30.8985V34.4637H23.7031V30.8985C23.7031 30.5705 23.9901 30.3043 24.3438 30.3043C24.6974 30.3043 24.9844 30.5705 24.9844 30.8985V34.4637H27.5469V30.8985C27.5469 30.5705 27.8339 30.3043 28.1875 30.3043C28.5411 30.3043 28.8281 30.5705 28.8281 30.8985V34.4637ZM35.2344 31.4927C35.9416 31.4927 36.5156 32.0251 36.5156 32.6811C36.5156 33.3371 35.9416 33.8695 35.2344 33.8695C34.5271 33.8695 33.9531 33.3371 33.9531 32.6811C33.9531 32.0251 34.5271 31.4927 35.2344 31.4927ZM6.40625 31.4927C7.1135 31.4927 7.6875 32.0251 7.6875 32.6811C7.6875 33.3371 7.1135 33.8695 6.40625 33.8695C5.699 33.8695 5.125 33.3371 5.125 32.6811C5.125 32.0251 5.699 31.4927 6.40625 31.4927ZM33.9531 25.5507C34.6604 25.5507 35.2344 26.0831 35.2344 26.7391C35.2344 27.3951 34.6604 27.9275 33.9531 27.9275C33.2459 27.9275 32.6719 27.3951 32.6719 26.7391C32.6719 26.0831 33.2459 25.5507 33.9531 25.5507ZM5.76562 24.3623C6.47287 24.3623 7.04688 24.8947 7.04688 25.5507C7.04688 26.2067 6.47287 26.7391 5.76562 26.7391C5.05838 26.7391 4.48438 26.2067 4.48438 25.5507C4.48438 24.8947 5.05838 24.3623 5.76562 24.3623ZM36.3965 20.0912C36.7052 20.3764 36.9391 20.7382 37.0595 21.1566C37.426 22.4234 36.6136 23.7277 35.2478 24.0676C34.3875 24.2815 33.5111 24.0622 32.889 23.5536C32.6238 23.3367 32.5982 22.9612 32.832 22.7152C33.0659 22.4686 33.4707 22.4448 33.736 22.6617C34.0473 22.9166 34.4855 23.0265 34.916 22.9196C35.5995 22.7496 36.005 22.0978 35.8225 21.4644C35.7373 21.1702 35.5406 20.932 35.2856 20.7775C35.0127 20.6117 34.9173 20.2819 35.0646 20.0115C35.2017 19.7596 35.244 19.4619 35.1588 19.1684C35.0672 18.8516 35.2703 18.5254 35.6117 18.4405C35.9532 18.3555 36.3049 18.5439 36.3965 18.8606C36.5175 19.2789 36.5099 19.7008 36.3965 20.0912ZM30.1094 19.6087H10.8906C10.537 19.6087 10.25 19.8749 10.25 20.2029V21.3913C10.25 21.7193 10.537 21.9855 10.8906 21.9855H30.1094C30.463 21.9855 30.75 21.7193 30.75 21.3913V20.2029C30.75 19.8749 30.463 19.6087 30.1094 19.6087ZM6.38319 15.4279C6.4165 15.3096 6.4607 15.1943 6.51388 15.0832C6.64328 14.8152 6.82586 14.5615 7.05264 14.3565C8.84383 12.7415 11.8548 14.281 11.3698 16.5141C11.3 16.8355 10.9624 17.0441 10.6158 16.9793C10.2692 16.9145 10.0444 16.6014 10.1142 16.2799C10.357 15.1611 8.84319 14.3999 7.94631 15.2086C7.8342 15.3096 7.74708 15.4362 7.68366 15.5681C7.62216 15.6958 7.58756 15.8373 7.57987 15.9769C7.5613 16.2793 7.3012 16.5206 6.97512 16.5378C6.00137 16.5871 5.48055 17.6151 5.95077 18.34C6.13334 18.6211 6.03533 18.9865 5.73231 19.1559C5.4293 19.3252 5.03531 19.2343 4.85338 18.9533C4.00006 17.6395 4.77906 15.8289 6.38319 15.4279ZM22.4219 16.6376H18.5781V18.4203H22.4219V16.6376ZM22.4219 5.34661C22.4219 4.36261 21.5622 3.56519 20.5013 3.56519H20.4987C19.4378 3.56519 18.5781 4.36261 18.5781 5.34661V15.4492H22.4219V5.34661Z" fill="#0B1527"/>
</svg>
