<svg width="20" height="20" viewBox="0 0 20 20" fill="none" xmlns="http://www.w3.org/2000/svg">
<path d="M3.3335 18.3332V13.0301C3.3335 11.9822 3.69461 11.0889 4.41683 10.3502C5.13905 9.61158 6.01251 9.24226 7.0372 9.24226H7.77794V3.18166C7.77794 2.76499 7.923 2.4083 8.21313 2.11158C8.50325 1.81486 8.85201 1.6665 9.25942 1.6665H10.7409C11.1483 1.6665 11.4971 1.81486 11.7872 2.11158C12.0773 2.4083 12.2224 2.76499 12.2224 3.18166V9.24226H12.9631C13.9878 9.24226 14.8613 9.61158 15.5835 10.3502C16.3057 11.0889 16.6668 11.9822 16.6668 13.0301V18.3332H3.3335ZM4.81498 16.818H6.29646V14.5453C6.29646 14.3306 6.36745 14.1507 6.50942 14.0055C6.6514 13.8603 6.82732 13.7877 7.0372 13.7877C7.24708 13.7877 7.423 13.8603 7.56498 14.0055C7.70695 14.1507 7.77794 14.3306 7.77794 14.5453V16.818H9.25942V14.5453C9.25942 14.3306 9.33041 14.1507 9.47238 14.0055C9.61436 13.8603 9.79029 13.7877 10.0002 13.7877C10.21 13.7877 10.386 13.8603 10.5279 14.0055C10.6699 14.1507 10.7409 14.3306 10.7409 14.5453V16.818H12.2224V14.5453C12.2224 14.3306 12.2934 14.1507 12.4353 14.0055C12.5773 13.8603 12.7532 13.7877 12.9631 13.7877C13.173 13.7877 13.3489 13.8603 13.4909 14.0055C13.6329 14.1507 13.7039 14.3306 13.7039 14.5453V16.818H15.1853V13.0301C15.1853 12.3988 14.9693 11.8622 14.5372 11.4203C14.1051 10.9784 13.5804 10.7574 12.9631 10.7574H7.0372C6.41992 10.7574 5.89522 10.9784 5.46313 11.4203C5.03103 11.8622 4.81498 12.3988 4.81498 13.0301V16.818ZM10.7409 9.24226V3.18166H9.25942V9.24226H10.7409Z" fill="#0B1527"/>
</svg>
