<svg width="95" height="16" viewBox="0 0 95 16" fill="none" xmlns="http://www.w3.org/2000/svg">
<path d="M0.409091 12V0.363636H1.81818V5.54545H8.02273V0.363636H9.43182V12H8.02273V6.79545H1.81818V12H0.409091ZM14.3192 12.2045C13.7662 12.2045 13.2643 12.1004 12.8135 11.892C12.3628 11.6799 12.0048 11.375 11.7397 10.9773C11.4745 10.5758 11.3419 10.0909 11.3419 9.52273C11.3419 9.02273 11.4404 8.61742 11.6374 8.30682C11.8344 7.99242 12.0976 7.74621 12.4272 7.56818C12.7567 7.39015 13.1203 7.25758 13.5181 7.17045C13.9196 7.07955 14.323 7.00758 14.7283 6.95455C15.2586 6.88636 15.6885 6.83523 16.0181 6.80114C16.3514 6.76326 16.5938 6.70076 16.7453 6.61364C16.9006 6.52652 16.9783 6.375 16.9783 6.15909V6.11364C16.9783 5.55303 16.8249 5.11742 16.5181 4.80682C16.215 4.49621 15.7548 4.34091 15.1374 4.34091C14.4972 4.34091 13.9953 4.48106 13.6317 4.76136C13.2681 5.04167 13.0124 5.34091 12.8647 5.65909L11.5919 5.20455C11.8192 4.67424 12.1222 4.26136 12.501 3.96591C12.8836 3.66667 13.3003 3.45833 13.751 3.34091C14.2056 3.2197 14.6525 3.15909 15.0919 3.15909C15.3722 3.15909 15.6942 3.19318 16.0578 3.26136C16.4253 3.32576 16.7794 3.46023 17.1203 3.66477C17.465 3.86932 17.751 4.17803 17.9783 4.59091C18.2056 5.00379 18.3192 5.55682 18.3192 6.25V12H16.9783V10.8182H16.9101C16.8192 11.0076 16.6677 11.2102 16.4556 11.4261C16.2434 11.642 15.9613 11.8258 15.609 11.9773C15.2567 12.1288 14.8268 12.2045 14.3192 12.2045ZM14.5238 11C15.0541 11 15.501 10.8958 15.8647 10.6875C16.2321 10.4792 16.5086 10.2102 16.6942 9.88068C16.8836 9.55114 16.9783 9.20455 16.9783 8.84091V7.61364C16.9215 7.68182 16.7965 7.74432 16.6033 7.80114C16.4139 7.85417 16.1942 7.90151 15.9442 7.94318C15.698 7.98106 15.4575 8.01515 15.2226 8.04545C14.9916 8.07197 14.8041 8.0947 14.6601 8.11364C14.3116 8.15909 13.9859 8.23295 13.6828 8.33523C13.3836 8.43371 13.1412 8.58333 12.9556 8.78409C12.7738 8.98106 12.6828 9.25 12.6828 9.59091C12.6828 10.0568 12.8552 10.4091 13.1999 10.6477C13.5484 10.8826 13.9897 11 14.5238 11ZM20.6285 12V0.363636H21.9694V4.65909H22.083C22.1815 4.50758 22.3179 4.31439 22.4921 4.07955C22.6701 3.84091 22.9239 3.62879 23.2535 3.44318C23.5868 3.25379 24.0376 3.15909 24.6057 3.15909C25.3406 3.15909 25.9883 3.3428 26.5489 3.71023C27.1095 4.07765 27.547 4.59848 27.8614 5.27273C28.1758 5.94697 28.333 6.74242 28.333 7.65909C28.333 8.58333 28.1758 9.38447 27.8614 10.0625C27.547 10.7367 27.1114 11.2595 26.5546 11.6307C25.9978 11.9981 25.3557 12.1818 24.6285 12.1818C24.0679 12.1818 23.619 12.089 23.2819 11.9034C22.9448 11.714 22.6853 11.5 22.5035 11.2614C22.3216 11.0189 22.1815 10.8182 22.083 10.6591H21.9239V12H20.6285ZM21.9466 7.63636C21.9466 8.29545 22.0432 8.87689 22.2364 9.38068C22.4296 9.88068 22.7118 10.2727 23.083 10.5568C23.4542 10.8371 23.9088 10.9773 24.4466 10.9773C25.0073 10.9773 25.4751 10.8295 25.8501 10.5341C26.2288 10.2348 26.5129 9.83333 26.7023 9.32955C26.8955 8.82197 26.9921 8.25758 26.9921 7.63636C26.9921 7.02273 26.8974 6.4697 26.708 5.97727C26.5224 5.48106 26.2402 5.08902 25.8614 4.80114C25.4864 4.50947 25.0148 4.36364 24.4466 4.36364C23.9012 4.36364 23.4429 4.50189 23.0716 4.77841C22.7004 5.05114 22.4201 5.43371 22.2307 5.92614C22.0413 6.41477 21.9466 6.98485 21.9466 7.63636ZM32.6323 12.2045C32.0793 12.2045 31.5774 12.1004 31.1266 11.892C30.6759 11.6799 30.3179 11.375 30.0528 10.9773C29.7876 10.5758 29.6551 10.0909 29.6551 9.52273C29.6551 9.02273 29.7535 8.61742 29.9505 8.30682C30.1475 7.99242 30.4107 7.74621 30.7403 7.56818C31.0698 7.39015 31.4335 7.25758 31.8312 7.17045C32.2327 7.07955 32.6361 7.00758 33.0414 6.95455C33.5717 6.88636 34.0016 6.83523 34.3312 6.80114C34.6645 6.76326 34.907 6.70076 35.0585 6.61364C35.2138 6.52652 35.2914 6.375 35.2914 6.15909V6.11364C35.2914 5.55303 35.138 5.11742 34.8312 4.80682C34.5282 4.49621 34.0679 4.34091 33.4505 4.34091C32.8104 4.34091 32.3085 4.48106 31.9448 4.76136C31.5812 5.04167 31.3255 5.34091 31.1778 5.65909L29.9051 5.20455C30.1323 4.67424 30.4354 4.26136 30.8141 3.96591C31.1967 3.66667 31.6134 3.45833 32.0641 3.34091C32.5187 3.2197 32.9657 3.15909 33.4051 3.15909C33.6854 3.15909 34.0073 3.19318 34.371 3.26136C34.7384 3.32576 35.0926 3.46023 35.4335 3.66477C35.7782 3.86932 36.0641 4.17803 36.2914 4.59091C36.5187 5.00379 36.6323 5.55682 36.6323 6.25V12H35.2914V10.8182H35.2232C35.1323 11.0076 34.9808 11.2102 34.7687 11.4261C34.5566 11.642 34.2744 11.8258 33.9221 11.9773C33.5698 12.1288 33.1399 12.2045 32.6323 12.2045ZM32.8369 11C33.3672 11 33.8141 10.8958 34.1778 10.6875C34.5452 10.4792 34.8217 10.2102 35.0073 9.88068C35.1967 9.55114 35.2914 9.20455 35.2914 8.84091V7.61364C35.2346 7.68182 35.1096 7.74432 34.9164 7.80114C34.727 7.85417 34.5073 7.90151 34.2573 7.94318C34.0111 7.98106 33.7706 8.01515 33.5357 8.04545C33.3047 8.07197 33.1172 8.0947 32.9732 8.11364C32.6248 8.15909 32.299 8.23295 31.996 8.33523C31.6967 8.43371 31.4543 8.58333 31.2687 8.78409C31.0869 8.98106 30.996 9.25 30.996 9.59091C30.996 10.0568 31.1683 10.4091 31.513 10.6477C31.8615 10.8826 32.3028 11 32.8369 11ZM38.7598 12V3.27273H40.0552V4.59091H40.1461C40.3052 4.15909 40.5931 3.80871 41.0098 3.53977C41.4264 3.27083 41.8961 3.13636 42.4189 3.13636C42.5173 3.13636 42.6405 3.13826 42.7882 3.14205C42.9359 3.14583 43.0477 3.15152 43.1234 3.15909V4.52273C43.078 4.51136 42.9738 4.49432 42.8109 4.47159C42.6518 4.44508 42.4833 4.43182 42.3052 4.43182C41.881 4.43182 41.5022 4.52083 41.1689 4.69886C40.8393 4.87311 40.578 5.11553 40.3848 5.42614C40.1954 5.73295 40.1007 6.08333 40.1007 6.47727V12H38.7598ZM45.7338 0.363636V12H44.3929V0.363636H45.7338ZM50.438 12.2045C49.8849 12.2045 49.383 12.1004 48.9323 11.892C48.4815 11.6799 48.1236 11.375 47.8584 10.9773C47.5933 10.5758 47.4607 10.0909 47.4607 9.52273C47.4607 9.02273 47.5592 8.61742 47.7561 8.30682C47.9531 7.99242 48.2164 7.74621 48.5459 7.56818C48.8755 7.39015 49.2391 7.25758 49.6368 7.17045C50.0383 7.07955 50.4417 7.00758 50.847 6.95455C51.3774 6.88636 51.8073 6.83523 52.1368 6.80114C52.4702 6.76326 52.7126 6.70076 52.8641 6.61364C53.0194 6.52652 53.097 6.375 53.097 6.15909V6.11364C53.097 5.55303 52.9436 5.11742 52.6368 4.80682C52.3338 4.49621 51.8736 4.34091 51.2561 4.34091C50.616 4.34091 50.1141 4.48106 49.7505 4.76136C49.3868 5.04167 49.1311 5.34091 48.9834 5.65909L47.7107 5.20455C47.938 4.67424 48.241 4.26136 48.6198 3.96591C49.0024 3.66667 49.419 3.45833 49.8698 3.34091C50.3243 3.2197 50.7713 3.15909 51.2107 3.15909C51.491 3.15909 51.813 3.19318 52.1766 3.26136C52.544 3.32576 52.8982 3.46023 53.2391 3.66477C53.5838 3.86932 53.8698 4.17803 54.097 4.59091C54.3243 5.00379 54.438 5.55682 54.438 6.25V12H53.097V10.8182H53.0289C52.938 11.0076 52.7864 11.2102 52.5743 11.4261C52.3622 11.642 52.08 11.8258 51.7277 11.9773C51.3755 12.1288 50.9455 12.2045 50.438 12.2045ZM50.6425 11C51.1728 11 51.6198 10.8958 51.9834 10.6875C52.3508 10.4792 52.6274 10.2102 52.813 9.88068C53.0024 9.55114 53.097 9.20455 53.097 8.84091V7.61364C53.0402 7.68182 52.9152 7.74432 52.722 7.80114C52.5327 7.85417 52.313 7.90151 52.063 7.94318C51.8167 7.98106 51.5762 8.01515 51.3414 8.04545C51.1103 8.07197 50.9228 8.0947 50.7789 8.11364C50.4304 8.15909 50.1046 8.23295 49.8016 8.33523C49.5024 8.43371 49.2599 8.58333 49.0743 8.78409C48.8925 8.98106 48.8016 9.25 48.8016 9.59091C48.8016 10.0568 48.9739 10.4091 49.3186 10.6477C49.6671 10.8826 50.1084 11 50.6425 11ZM62.7472 5.22727L61.5427 5.56818C61.4669 5.36742 61.3552 5.17235 61.2074 4.98295C61.0635 4.78977 60.8665 4.63068 60.6165 4.50568C60.3665 4.38068 60.0465 4.31818 59.6563 4.31818C59.1222 4.31818 58.6771 4.44129 58.3211 4.6875C57.9688 4.92992 57.7927 5.23864 57.7927 5.61364C57.7927 5.94697 57.9139 6.21023 58.1563 6.40341C58.3987 6.59659 58.7775 6.75758 59.2927 6.88636L60.5881 7.20455C61.3684 7.39394 61.9499 7.68371 62.3324 8.07386C62.715 8.46023 62.9063 8.95833 62.9063 9.56818C62.9063 10.0682 62.7624 10.5152 62.4745 10.9091C62.1904 11.303 61.7927 11.6136 61.2813 11.8409C60.7699 12.0682 60.1752 12.1818 59.4972 12.1818C58.6071 12.1818 57.8703 11.9886 57.287 11.6023C56.7037 11.2159 56.3343 10.6515 56.179 9.90909L57.4518 9.59091C57.573 10.0606 57.8021 10.4129 58.1393 10.6477C58.4802 10.8826 58.9252 11 59.4745 11C60.0995 11 60.5957 10.8674 60.9631 10.6023C61.3343 10.3333 61.5199 10.0114 61.5199 9.63636C61.5199 9.33333 61.4139 9.07955 61.2018 8.875C60.9896 8.66667 60.6639 8.51136 60.2245 8.40909L58.7699 8.06818C57.9707 7.87879 57.3836 7.58523 57.0086 7.1875C56.6374 6.78598 56.4518 6.28409 56.4518 5.68182C56.4518 5.18939 56.59 4.75379 56.8665 4.375C57.1468 3.99621 57.5275 3.69886 58.0086 3.48295C58.4934 3.26705 59.0427 3.15909 59.6563 3.15909C60.5199 3.15909 61.198 3.34848 61.6904 3.72727C62.1866 4.10606 62.5389 4.60606 62.7472 5.22727ZM58.9972 11.9545H60.1109L60.0199 12.4091C60.3154 12.4545 60.5862 12.5777 60.8324 12.7784C61.0787 12.983 61.2018 13.3068 61.2018 13.75C61.2018 14.2386 60.9991 14.6364 60.5938 14.9432C60.1923 15.2538 59.5995 15.4091 58.8154 15.4091L58.7699 14.5227C59.1222 14.5227 59.4139 14.4659 59.6449 14.3523C59.8798 14.2424 59.9972 14.0568 59.9972 13.7955C59.9972 13.5341 59.9006 13.3561 59.7074 13.2614C59.5143 13.1667 59.2018 13.1023 58.7699 13.0682L58.9972 11.9545ZM64.6048 12V3.27273H65.9002V4.63636H66.0139C66.1957 4.17045 66.4892 3.80871 66.8945 3.55114C67.2999 3.28977 67.7866 3.15909 68.3548 3.15909C68.9305 3.15909 69.4097 3.28977 69.7923 3.55114C70.1786 3.80871 70.4798 4.17045 70.6957 4.63636H70.7866C71.0101 4.18561 71.3453 3.82765 71.7923 3.5625C72.2392 3.29356 72.7752 3.15909 73.4002 3.15909C74.1805 3.15909 74.8188 3.40341 75.315 3.89205C75.8112 4.37689 76.0593 5.13258 76.0593 6.15909V12H74.7184V6.15909C74.7184 5.51515 74.5423 5.05492 74.19 4.77841C73.8377 4.50189 73.423 4.36364 72.9457 4.36364C72.332 4.36364 71.8567 4.54924 71.5195 4.92045C71.1824 5.28788 71.0139 5.75379 71.0139 6.31818V12H69.6502V6.02273C69.6502 5.52652 69.4892 5.12689 69.1673 4.82386C68.8453 4.51705 68.4305 4.36364 67.923 4.36364C67.5745 4.36364 67.2487 4.45644 66.9457 4.64205C66.6464 4.82765 66.404 5.08523 66.2184 5.41477C66.0366 5.74053 65.9457 6.11742 65.9457 6.54545V12H64.6048ZM80.7592 12.2045C80.2062 12.2045 79.7043 12.1004 79.2535 11.892C78.8028 11.6799 78.4448 11.375 78.1797 10.9773C77.9145 10.5758 77.7819 10.0909 77.7819 9.52273C77.7819 9.02273 77.8804 8.61742 78.0774 8.30682C78.2744 7.99242 78.5376 7.74621 78.8672 7.56818C79.1967 7.39015 79.5603 7.25758 79.9581 7.17045C80.3596 7.07955 80.763 7.00758 81.1683 6.95455C81.6986 6.88636 82.1285 6.83523 82.4581 6.80114C82.7914 6.76326 83.0338 6.70076 83.1853 6.61364C83.3406 6.52652 83.4183 6.375 83.4183 6.15909V6.11364C83.4183 5.55303 83.2649 5.11742 82.9581 4.80682C82.655 4.49621 82.1948 4.34091 81.5774 4.34091C80.9372 4.34091 80.4353 4.48106 80.0717 4.76136C79.7081 5.04167 79.4524 5.34091 79.3047 5.65909L78.0319 5.20455C78.2592 4.67424 78.5622 4.26136 78.941 3.96591C79.3236 3.66667 79.7403 3.45833 80.191 3.34091C80.6456 3.2197 81.0925 3.15909 81.5319 3.15909C81.8122 3.15909 82.1342 3.19318 82.4978 3.26136C82.8653 3.32576 83.2194 3.46023 83.5603 3.66477C83.905 3.86932 84.191 4.17803 84.4183 4.59091C84.6456 5.00379 84.7592 5.55682 84.7592 6.25V12H83.4183V10.8182H83.3501C83.2592 11.0076 83.1077 11.2102 82.8956 11.4261C82.6834 11.642 82.4013 11.8258 82.049 11.9773C81.6967 12.1288 81.2668 12.2045 80.7592 12.2045ZM80.9638 11C81.4941 11 81.941 10.8958 82.3047 10.6875C82.6721 10.4792 82.9486 10.2102 83.1342 9.88068C83.3236 9.55114 83.4183 9.20455 83.4183 8.84091V7.61364C83.3615 7.68182 83.2365 7.74432 83.0433 7.80114C82.8539 7.85417 82.6342 7.90151 82.3842 7.94318C82.138 7.98106 81.8975 8.01515 81.6626 8.04545C81.4316 8.07197 81.2441 8.0947 81.1001 8.11364C80.7516 8.15909 80.4259 8.23295 80.1228 8.33523C79.8236 8.43371 79.5812 8.58333 79.3956 8.78409C79.2138 8.98106 79.1228 9.25 79.1228 9.59091C79.1228 10.0568 79.2952 10.4091 79.6399 10.6477C79.9884 10.8826 80.4297 11 80.9638 11ZM88.1367 8.81818L88.1139 7.15909H88.3867L92.2048 3.27273H93.8639L89.7957 7.38636H89.6821L88.1367 8.81818ZM86.8867 12V0.363636H88.2276V12H86.8867ZM92.4321 12L89.023 7.68182L89.9776 6.75L94.1367 12H92.4321Z" fill="#0B1527"/>
</svg>
