<svg width="36" height="32" viewBox="0 0 36 32" fill="none" xmlns="http://www.w3.org/2000/svg">
<path d="M0 0H4C19.0849 0 26.6274 0 31.3137 4.68629C36 9.37258 36 16.9151 36 32H32C16.9151 32 9.37258 32 4.68629 27.3137C0 22.6274 0 15.0849 0 0Z" fill="#E7EFFF"/>
<path d="M14.6667 22C14.3 22 13.9861 21.8694 13.725 21.6083C13.4639 21.3472 13.3334 21.0333 13.3334 20.6667V12H12.6667V10.6667H16V10H20V10.6667H23.3334V12H22.6667V20.6667C22.6667 21.0333 22.5361 21.3472 22.275 21.6083C22.0139 21.8694 21.7 22 21.3334 22H14.6667ZM21.3334 12H14.6667V20.6667H21.3334V12ZM16 19.3333H17.3334V13.3333H16V19.3333ZM18.6667 19.3333H20V13.3333H18.6667V19.3333Z" fill="#F00A0A"/>
</svg>
