<svg width="41" height="41" viewBox="0 0 41 41" fill="none" xmlns="http://www.w3.org/2000/svg">
<path d="M39.5663 33.1037H39.3094V30.9603C39.3094 29.862 38.5524 28.9719 37.6165 28.9719H30.3358L30.1018 28.5999C30.1018 28.5556 27.5327 24.4724 28.7255 20.8941C29.2249 19.4343 29.4501 17.9 29.3907 16.3637V16.222C29.3441 15.5505 29.1893 14.8901 28.932 14.2646C28.2713 12.6614 26.9639 11.5144 25.3903 11.3063C25.0618 11.2647 24.7305 11.2469 24.3993 11.2531V10.487H25.0416C25.1521 10.4758 25.2535 10.423 25.3239 10.3401C25.3943 10.2572 25.4281 10.1509 25.4178 10.0441C25.4246 9.95026 25.4003 9.85672 25.3483 9.77709C25.2963 9.69745 25.2194 9.63588 25.1288 9.60129V7.43571C25.2194 7.40112 25.2963 7.33955 25.3483 7.25991C25.4003 7.18028 25.4246 7.08674 25.4178 6.99286C25.4281 6.88611 25.3943 6.77976 25.3239 6.69686C25.2535 6.61396 25.1521 6.56119 25.0416 6.55H24.3993V6.08943H24.1883V5H23.9727V6.08943H23.7616V6.56329H23.1194C23.0085 6.5745 22.9067 6.6271 22.8355 6.70986C22.7644 6.79261 22.7296 6.89895 22.7386 7.00614C22.7317 7.10003 22.7561 7.19357 22.8081 7.2732C22.86 7.35283 22.9369 7.41441 23.0276 7.449V7.573V7.59957C22.968 7.64829 22.8946 7.73686 22.7844 7.82986C22.4709 8.10026 22.1296 8.33915 21.766 8.54286C21.2305 8.85829 20.6445 9.08576 20.0318 9.216C19.2507 9.37297 18.4492 9.41329 17.6554 9.33557C16.7104 9.24347 15.7765 9.06554 14.8661 8.80414C13.8843 8.54286 12.8658 8.21514 11.8015 7.87414C10.723 7.50052 9.61745 7.20448 8.49374 6.98843C7.91896 6.88655 7.33259 6.85974 6.75041 6.90871C6.14506 6.96071 5.56371 7.162 5.06213 7.49329C4.80376 7.67265 4.56407 7.87585 4.34645 8.1C4.1259 8.33149 3.9278 8.58202 3.75464 8.84843C3.37553 9.40871 3.11658 10.0366 2.99308 10.6951C2.87401 11.3607 2.85547 12.0394 2.93803 12.7101C2.97473 13.0069 3.02519 13.3036 3.08483 13.5959C2.99385 13.6542 2.91992 13.7341 2.87011 13.8279C2.82031 13.9218 2.7963 14.0264 2.80039 14.1317C2.78225 14.2762 2.82424 14.4217 2.91714 14.5362C3.01004 14.6508 3.14625 14.7251 3.29587 14.7429H3.36009C3.71349 15.8633 4.14416 16.9596 4.64924 18.0244C4.85569 18.4673 5.06672 18.9101 5.27317 19.353V22.5416C5.25905 22.7033 5.31121 22.8639 5.41843 22.989C5.52565 23.114 5.67939 23.1935 5.84663 23.2103H6.76417V25.1456C6.76364 25.2005 6.78383 25.2537 6.82098 25.2952C6.85813 25.3368 6.9097 25.3639 6.96603 25.3714H7.02109L7.10825 27.94L7.19542 25.3714H7.25047C7.31216 25.3647 7.36871 25.3351 7.40811 25.2888C7.44752 25.2425 7.46667 25.1831 7.46151 25.1234V24.6186H7.5762C7.66336 24.902 7.73677 25.1721 7.78723 25.4201C7.8921 25.8708 7.94594 26.3311 7.9478 26.793C7.95439 26.9154 7.95439 27.0381 7.9478 27.1606C7.9478 27.0809 7.97533 26.9569 7.98909 26.793C8.00429 26.326 7.9596 25.8589 7.85605 25.4024C7.80558 25.1589 7.73677 24.8931 7.65419 24.6186H7.723C7.723 24.654 7.75053 24.685 7.78265 24.685H7.92486C7.93043 24.7399 7.94906 24.7929 7.97929 24.8398C8.00953 24.8866 8.05056 24.9261 8.0992 24.9551C8.25518 25.0437 8.42034 24.9551 8.42034 24.7647C8.42043 24.6825 8.39128 24.6028 8.33776 24.5389C8.32697 24.5256 8.3211 24.5092 8.3211 24.4924C8.3211 24.4755 8.32697 24.4591 8.33776 24.4459C8.39063 24.3816 8.4197 24.3021 8.42034 24.22C8.42034 24.0119 8.25059 23.9366 8.0992 24.0296C8.05167 24.0598 8.01149 24.0996 7.9814 24.1462C7.9513 24.1929 7.93202 24.2452 7.92486 24.2997H7.79641C7.77896 24.3008 7.76262 24.3083 7.75069 24.3207C7.73876 24.333 7.73214 24.3493 7.73218 24.3661H7.58996C7.55326 24.2643 7.51656 24.1536 7.47986 24.0429V23.1571H8.20013C8.53142 23.1193 8.8352 22.9606 9.04927 22.7137C9.26334 22.4667 9.37151 22.15 9.35164 21.8286V20.5886C9.30999 20.0754 9.40736 19.5606 9.63418 19.0947C9.86101 18.6288 10.2095 18.228 10.6454 17.9314C11.0743 17.6607 11.5572 17.4797 12.063 17.4C12.8658 17.3424 13.6136 17.3159 14.3064 17.3159C18.0545 17.3159 20.2704 18.0643 21.4999 18.7507C22.0343 19.0978 22.4556 19.5842 22.7147 20.1534C22.9738 20.7226 23.06 21.3512 22.9634 21.9659C22.6376 24.5477 20.9631 27.723 20.5594 28.4714L24.9131 28.9763H3.38303C2.46549 28.9763 1.69017 29.862 1.69017 30.9647V33.1081H1.43326C1.30915 33.1216 1.19514 33.1805 1.11486 33.2729C1.03458 33.3652 0.994169 33.4838 1.00201 33.6041V35.4907C0.990433 35.6132 1.02913 35.7352 1.10978 35.8305C1.19043 35.9257 1.30658 35.9866 1.43326 36H39.5709C39.6972 35.9866 39.8129 35.9256 39.8928 35.8302C39.9728 35.7348 40.0104 35.6128 39.9975 35.4907V33.6041C40.0078 33.4828 39.9684 33.3625 39.8877 33.2689C39.8071 33.1754 39.6917 33.1161 39.5663 33.1037ZM27.7759 13.618C28.4597 14.5274 28.8217 15.6253 28.8081 16.749C28.8193 18.0215 28.6211 19.2876 28.2209 20.5C27.8503 21.6613 27.7271 22.883 27.8585 24.0916C28.0051 25.2834 28.3009 26.4537 28.7393 27.5769C27.8218 25.5884 27.2621 23.2369 27.8218 21.0049C27.9594 20.438 28.1612 19.8977 28.2805 19.3309C28.4225 18.7201 28.516 18.0998 28.5604 17.4753C28.6789 16.3202 28.4512 15.1566 27.9043 14.1229C27.6472 13.6705 27.2941 13.2758 26.8679 12.9644C26.4418 12.653 25.9523 12.4321 25.4316 12.316C25.8928 12.3701 26.3381 12.5133 26.7408 12.737C27.1436 12.9607 27.4956 13.2603 27.7759 13.618ZM23.4221 7.54643H24.0782H24.7434H25.0416H23.1239H23.4221ZM23.4221 8.12657L24.0782 8.1H23.4221H23.1239L23.4221 8.12657ZM23.4221 8.32143H24.7434H24.0782H23.4221ZM23.4221 8.51629H24.7434L24.0782 8.54286H23.4221H23.1239L23.4221 8.51629ZM23.4221 9.49057H24.0782H24.7434H23.4221ZM3.29587 14.4683C3.21232 14.4572 3.13632 14.4158 3.08344 14.3524C3.03056 14.289 3.00479 14.2084 3.01143 14.1273C3.01034 14.0775 3.01952 14.0279 3.03842 13.9816C3.05732 13.9352 3.08557 13.8929 3.12153 13.8571C3.16741 14.0564 3.22246 14.2601 3.29587 14.4683ZM3.2087 13.7996C3.23488 13.7836 3.26492 13.7744 3.29587 13.773C3.38315 13.782 3.4633 13.8236 3.51907 13.8891C3.57484 13.9545 3.60177 14.0385 3.59407 14.1229C3.59856 14.1953 3.57865 14.2673 3.53731 14.3279C3.49596 14.3886 3.43541 14.4347 3.36468 14.4594C3.29587 14.2424 3.24081 14.021 3.19494 13.7996H3.2087ZM5.26858 19.1714C5.08507 18.7861 4.89698 18.392 4.71347 17.9846C4.2159 16.9319 3.78987 15.849 3.43809 14.7429H5.27317L5.26858 19.1714ZM5.98426 20.8144C5.98426 21.306 5.94756 21.7976 5.92462 22.2847C5.8971 21.709 5.87416 21.1377 5.8604 20.562C5.8971 20.6329 5.94297 20.717 5.98426 20.7967V20.8144ZM5.98426 20.0439C5.98426 20.2476 5.98426 20.4513 5.98426 20.6506L5.85122 20.376C5.76864 17.7189 5.7824 15.0927 5.85122 12.4577C5.85122 11.7093 5.89251 10.9609 5.92921 10.2124C6.08061 13.4674 6.08061 16.7534 6.00261 20.0261L5.98426 20.0439ZM6.42927 7.39143V9.20714H5.84204C5.67566 9.22397 5.52265 9.30279 5.41555 9.42685C5.30845 9.55091 5.25572 9.71042 5.26858 9.87143V14.3487H3.75464C3.77981 14.2773 3.79373 14.2027 3.79593 14.1273C3.80904 13.984 3.76434 13.8414 3.67118 13.7292C3.57801 13.617 3.44356 13.5438 3.29587 13.525C3.24421 13.5256 3.19303 13.5345 3.14447 13.5516C3.08942 13.2681 3.03896 12.9891 3.00684 12.7013C2.92276 12.0411 2.93977 11.3726 3.05731 10.7173C3.2368 9.76343 3.70447 8.8821 4.4015 8.18414C4.6139 7.96243 4.84908 7.76212 5.10342 7.58629C5.57491 7.28041 6.11668 7.09038 6.6816 7.03271H6.65866C6.58609 7.06148 6.52482 7.11168 6.48362 7.17611C6.44241 7.24055 6.42339 7.31592 6.42927 7.39143ZM6.8651 7.92286C6.86635 7.93973 6.86413 7.95668 6.85858 7.97272C6.85302 7.98876 6.84423 8.00359 6.83272 8.01635C6.82121 8.0291 6.80721 8.03954 6.79151 8.04706C6.77581 8.05457 6.75872 8.05902 6.74124 8.06014C6.70719 8.05575 6.67608 8.03923 6.65401 8.01383C6.63194 7.98843 6.62051 7.95598 6.62196 7.92286V7.40914C6.61845 7.39183 6.61897 7.37398 6.62346 7.35687C6.62794 7.33977 6.6363 7.32384 6.64792 7.31022C6.65954 7.2966 6.67414 7.28563 6.69067 7.2781C6.7072 7.27057 6.72525 7.26667 6.74353 7.26667C6.76181 7.26667 6.77986 7.27057 6.79639 7.2781C6.81292 7.28563 6.82752 7.2966 6.83914 7.31022C6.85076 7.32384 6.85911 7.33977 6.8636 7.35687C6.86809 7.37398 6.8686 7.39183 6.8651 7.40914V7.92286ZM7.49821 24.375H7.46151V24.2643C7.47581 24.3005 7.48807 24.3375 7.49821 24.375ZM7.06238 9.20714V7.39143C7.07042 7.30504 7.04406 7.21894 6.98866 7.15066C6.93326 7.08237 6.85298 7.03703 6.76417 7.02386C7.3405 6.97866 7.92048 7.00695 8.48915 7.108C9.60859 7.3231 10.7097 7.61918 11.7831 7.99371C12.8383 8.33029 13.8659 8.67129 14.8431 8.937C15.7592 9.1965 16.6972 9.3773 17.6462 9.47729C18.4478 9.55818 19.2575 9.51633 20.0456 9.35329C20.6687 9.22212 21.2654 8.99323 21.8119 8.67571C22.1757 8.46074 22.5155 8.20992 22.8257 7.92729L23.023 7.72357V9.61014C22.9323 9.64473 22.8554 9.70631 22.8035 9.78594C22.7515 9.86557 22.7272 9.95912 22.734 10.053C22.7249 10.1595 22.7591 10.2652 22.8293 10.3479C22.8995 10.4305 23.0002 10.4836 23.1102 10.4959H23.7525V11.2886C23.2597 11.3271 22.7723 11.4146 22.2981 11.5499C22.2385 11.5499 16.0589 13.401 12.1226 12.595C9.54432 12.1123 8.74606 10.6376 8.52127 10.0264C8.45337 9.8004 8.31457 9.60025 8.12395 9.45353C7.93334 9.3068 7.7003 9.22073 7.45692 9.20714H7.06238ZM12.5676 13.525C11.2197 13.4097 9.95036 12.8625 8.96169 11.9706C8.43712 11.462 8.04963 10.837 7.83311 10.1504C9.02133 12.7721 11.962 13.3301 14.2559 13.4364C14.8202 13.4674 15.3891 13.4586 15.9579 13.4674C14.83 13.6216 13.6867 13.6409 12.5539 13.525H12.5676ZM24.1378 18.3964C24.8451 18.3481 25.5327 18.15 26.1518 17.8163C26.7391 17.4753 27.3905 16.8287 27.2942 15.974C27.1978 15.1193 26.3858 14.5613 25.7756 14.3C25.005 13.9892 24.16 13.8911 23.335 14.0166C22.5324 14.1127 21.7904 14.4779 21.2384 15.0484C22.2523 13.7199 24.1516 13.4719 25.56 13.9191C25.9727 14.0252 26.3551 14.2202 26.6785 14.4894C27.0019 14.7586 27.2579 15.0951 27.4272 15.4736C27.5586 15.8739 27.5548 16.3041 27.4162 16.7022C27.2777 17.1002 27.0116 17.4454 26.6565 17.6879C25.9238 18.2001 25.0259 18.4435 24.1241 18.3743L24.1378 18.3964ZM33.8041 33.1613C31.0301 33.1967 28.253 33.2144 25.4728 33.2144C22.5092 33.2144 19.5501 33.2144 16.5956 33.2144C13.843 33.2144 11.0537 33.2144 8.28271 33.1701L2.77746 33.1037H2.67653L7.19542 33.0461C9.97251 33.0107 12.7496 32.993 15.5267 32.993C18.4873 32.993 21.4464 32.993 24.4039 32.993C27.1795 32.993 29.9459 32.993 32.7214 33.0417C34.5565 33.0417 36.3916 33.0653 38.2267 33.1126L33.8041 33.1613Z" fill="#0B1527"/>
</svg>
