<svg width="222" height="186" viewBox="0 0 222 186" fill="none" xmlns="http://www.w3.org/2000/svg">
<path d="M109.656 155.807C170.217 155.807 219.311 120.928 219.311 77.9033C219.311 34.8785 170.217 0 109.656 0C49.0946 0 0 34.8785 0 77.9033C0 120.928 49.0946 155.807 109.656 155.807Z" fill="#F5F5FF"/>
<path d="M140.4 48.0042C140.4 48.0042 138.727 57.6846 126.533 70.145C126.533 70.145 125.186 68.4827 127.517 61.5962C129.849 54.7096 139.705 45.6594 140.4 48.0042Z" fill="#9DACD4"/>
<path d="M140.4 48.0039C140.4 48.0039 129.428 55.8259 126.533 70.1447C126.533 70.1447 125.972 75.0554 127.66 79.3099" stroke="#0B1527" stroke-miterlimit="10" stroke-linecap="round"/>
<path d="M110.908 55.824C110.908 55.824 113.986 53.4992 108.691 47.6932C103.66 42.1778 98.3342 37.2322 87.9241 35.4199C87.9241 35.4199 91.0659 49.4729 97.8492 52.8225C101.905 54.8308 106.379 55.8591 110.908 55.824Z" fill="#9DACD4"/>
<path d="M85.6408 66.1566C85.6408 66.1566 96.5018 68.5178 114.922 62.3914C114.922 62.3914 113.78 60.4936 105.549 59.8552C97.3182 59.217 83.4969 64.5796 85.6408 66.1566Z" fill="#9DACD4"/>
<path d="M85.6407 66.1567C85.6407 66.1567 98.6714 59.2816 114.922 62.3915C114.922 62.3915 116.594 62.8083 118.296 65.0743" stroke="#0B1527" stroke-miterlimit="10" stroke-linecap="round"/>
<path d="M94.643 75.9647C94.643 75.9647 106.265 83.5897 124.686 77.4633C123.41 75.4424 121.677 73.7477 119.626 72.5152C117.574 71.2827 115.261 70.5467 112.873 70.3663C104.642 69.728 92.4992 74.3877 94.643 75.9647Z" fill="#9DACD4"/>
<path d="M94.6427 75.9638C94.6427 75.9638 107.17 70.1385 124.685 77.4624C126.171 78.2162 127.459 79.305 128.447 80.6422" stroke="#0B1527" stroke-miterlimit="10" stroke-linecap="round"/>
<path d="M133.984 38.8378C133.984 38.8378 137.414 38.4282 129.044 46.1454C121.14 53.4324 122.145 53.4893 122.145 53.4893C122.145 53.4893 125.143 42.5852 133.984 38.8378Z" fill="#0B1527"/>
<path d="M116.394 57.1805C116.394 57.1805 118.956 58.1652 123.577 53.9388C128.198 49.7123 129.92 40.2936 133.984 38.8379C133.984 38.8379 123.79 42.12 116.394 57.1805Z" fill="#9DACD4"/>
<path d="M133.196 89.5422C127.206 77.4208 119.719 66.0935 110.908 55.824C110.908 55.824 108.491 52.669 100.093 44.4902C91.6952 36.3114 87.9241 35.4199 87.9241 35.4199" stroke="#0B1527" stroke-miterlimit="10" stroke-linecap="round"/>
<path d="M132.78 39.3398C132.78 39.3398 123.08 43.5585 116.395 57.1809C114.775 60.481 116.713 63.0928 118.296 65.0751" stroke="#0B1527" stroke-miterlimit="10" stroke-linecap="round"/>
<path d="M221.237 152.267C221.237 152.267 213.129 158.23 194.448 153.853C194.448 153.853 194.497 150.867 201.202 147.995C207.906 145.122 222.296 149.501 221.237 152.267Z" fill="#9DACD4"/>
<path d="M220.657 151.724C220.657 151.724 207.862 147.462 194.531 153.531C194.531 153.531 190.213 155.961 187.748 159.821" stroke="#0B1527" stroke-miterlimit="10" stroke-linecap="round"/>
<path d="M194.204 139.149C194.204 139.149 197.899 140.268 199.507 132.587C201.035 125.291 201.926 118.09 197.287 108.627C197.287 108.627 187.716 119.411 188.976 126.85C189.726 131.302 191.517 135.515 194.204 139.149Z" fill="#9DACD4"/>
<path d="M221.683 142.027C221.683 142.027 224.534 143.971 213.136 144.282C202.373 144.576 203.091 145.279 203.091 145.279C203.091 145.279 212.554 139.043 221.683 142.027Z" fill="#0B1527"/>
<path d="M196.325 144.282C196.325 144.282 197.602 146.705 203.872 146.558C210.142 146.412 217.663 140.456 221.683 142.029C221.683 142.029 211.843 137.806 196.325 144.282Z" fill="#9DACD4"/>
<path d="M179.896 176.924C186.227 164.976 191.033 152.286 194.204 139.149C194.204 139.149 195.348 135.347 197.062 123.77C198.776 112.193 197.287 108.627 197.287 108.627" stroke="#0B1527" stroke-miterlimit="10" stroke-linecap="round"/>
<path d="M220.446 141.615C220.446 141.615 210.359 138.421 196.326 144.282C192.926 145.701 191.961 147.943 190.524 152.1" stroke="#0B1527" stroke-miterlimit="10" stroke-linecap="round"/>
<path d="M92.0319 83.329C89.408 83.329 86.8673 82.4113 84.8526 80.7358L79.2625 76.0869C77.3547 74.4526 74.9288 73.5426 72.4132 73.5176H44.6699C43.4609 73.5176 42.3015 73.9962 41.4466 74.8482C40.5917 75.7002 40.1115 76.8558 40.1115 78.0607V178.161C40.1115 180.24 40.9402 182.234 42.4154 183.704C43.8905 185.174 45.8913 186 47.9775 186H186.276C187.08 186 187.875 185.843 188.618 185.536C189.36 185.23 190.034 184.781 190.603 184.214C191.171 183.648 191.621 182.976 191.929 182.236C192.236 181.496 192.395 180.703 192.395 179.903V89.4267C192.395 88.6259 192.236 87.833 191.929 87.0932C191.621 86.3534 191.171 85.6812 190.603 85.115C190.034 84.5487 189.36 84.0996 188.618 83.7931C187.875 83.4867 187.08 83.329 186.276 83.329H92.0319Z" fill="#F00A0A"/>
<path d="M192.394 180.413C192.394 180.413 182.982 162.818 182.041 160.797L156.318 108.57C156.001 107.89 155.496 107.314 154.862 106.911C154.228 106.508 153.492 106.294 152.74 106.294H57.152C53.6769 106.294 48.6508 104.478 45.9827 102.26L42.1255 99.0517C40.2176 97.4174 37.7918 96.5075 35.2761 96.4824H8.87404C8.22554 96.4824 7.58704 96.6418 7.01507 96.9464C6.4431 97.2509 5.95529 97.6914 5.59483 98.2286C5.23437 98.7659 5.01238 99.3835 4.9485 100.027C4.88463 100.67 4.98084 101.319 5.22863 101.916L37.1547 178.873C38.0298 180.982 39.5132 182.785 41.417 184.054C43.3209 185.323 45.5597 186 47.8499 186H190.668C191.13 185.995 191.573 185.813 191.906 185.493C192.239 185.173 192.436 184.738 192.458 184.278L192.394 180.413Z" fill="#FF8484"/>
<path d="M153.514 111.26L191.259 184.386" stroke="#0B1527" stroke-linejoin="round"/>
<path d="M137.961 123.861H105.447C105.013 123.862 104.585 123.755 104.203 123.549C103.821 123.343 103.496 123.045 103.259 122.682C103.012 122.295 102.874 121.849 102.86 121.39C102.847 120.931 102.958 120.477 103.182 120.076C103.406 119.675 103.735 119.342 104.134 119.112C104.533 118.882 104.986 118.764 105.447 118.771H137.961C138.395 118.77 138.823 118.877 139.205 119.083C139.587 119.289 139.912 119.587 140.149 119.949C140.396 120.337 140.534 120.783 140.547 121.242C140.561 121.701 140.45 122.155 140.226 122.556C140.001 122.957 139.672 123.29 139.274 123.519C138.875 123.749 138.421 123.867 137.961 123.861Z" stroke="#0B1527" stroke-linejoin="round"/>
<path d="M46.4151 35.9055C49.9704 36.0034 53.4183 37.1411 56.3298 39.177C59.2412 41.213 61.4877 44.0572 62.7897 47.3558C64.0917 50.6544 64.3916 54.2618 63.6523 57.729C62.9129 61.1963 61.1668 64.3702 58.6313 66.856C58.3704 67.1104 58.175 67.4238 58.0618 67.7696C57.9485 68.1154 57.9207 68.4834 57.9808 68.8422L59.3241 76.7638L51.0599 71.9648C50.5903 71.6889 50.0354 71.5941 49.5004 71.6986C46.9952 72.2032 44.4112 72.1745 41.9178 71.6144C39.4244 71.0543 37.0779 69.9753 35.0322 68.4483C32.9864 66.9213 31.2875 64.9806 30.0468 62.7535C28.8062 60.5264 28.0517 58.0631 27.8329 55.5251C27.6142 52.9872 27.936 50.4318 28.7774 48.0264C29.6187 45.621 30.9606 43.42 32.7151 41.5676C34.4695 39.7152 36.597 38.2532 38.958 37.2774C41.3189 36.3016 43.8602 35.8341 46.4151 35.9055Z" fill="#E7EFFF"/>
<path d="M45.0807 60.2352L45.0297 55.913C45.626 55.7722 46.2063 55.5708 46.7614 55.3119C47.2528 55.084 47.714 54.7962 48.1343 54.4551C48.5163 54.144 48.8494 53.7776 49.1225 53.3682C49.3864 52.9697 49.5897 52.5345 49.7257 52.0767C49.8643 51.6032 49.9334 51.1122 49.9309 50.619C49.9328 49.8938 49.7471 49.1802 49.3917 48.5474C49.0287 47.8955 48.4971 47.3524 47.8522 46.9746C47.1275 46.559 46.3017 46.3509 45.4658 46.3735C44.4855 46.37 43.526 46.6547 42.7072 47.192C41.7616 47.8741 41.0782 48.8576 40.7698 49.9796L40.3079 49.6726C40.6323 48.5272 41.3269 47.5204 42.2839 46.8084C43.2006 46.1455 44.3076 45.7956 45.4401 45.8109C46.3661 45.7906 47.2815 46.011 48.0961 46.4503C48.8353 46.8556 49.4513 47.452 49.8794 48.1766C50.3114 48.9178 50.5333 49.762 50.5212 50.619C50.5261 51.2743 50.4086 51.9247 50.1747 52.5371C49.9441 53.1333 49.6144 53.6866 49.1994 54.1738C48.7631 54.6831 48.2475 55.1191 47.6724 55.4653C47.0435 55.8445 46.3598 56.1249 45.6453 56.2966L45.5942 60.2352H45.0807ZM44.7729 63.4575C44.7653 63.2588 44.8289 63.0639 44.9523 62.9077C45.0164 62.84 45.0935 62.7859 45.1791 62.7484C45.2646 62.711 45.3568 62.6911 45.4502 62.6899C45.5436 62.6887 45.6362 62.7063 45.7227 62.7415C45.8092 62.7767 45.8876 62.8288 45.9535 62.8949C46.0646 63.0608 46.1185 63.2583 46.1072 63.4575C46.1109 63.6497 46.0525 63.8381 45.9406 63.9947C45.883 64.0715 45.807 64.1328 45.7196 64.173C45.6322 64.2132 45.5361 64.231 45.4401 64.2249C45.3464 64.2316 45.2525 64.2166 45.1656 64.1811C45.0788 64.1456 45.0014 64.0905 44.9395 64.0201C44.82 63.8576 44.7611 63.6586 44.7729 63.4575Z" fill="#0B1527"/>
</svg>
