<svg width="22" height="16" viewBox="0 0 22 16" fill="none" xmlns="http://www.w3.org/2000/svg">
<g id="Flag_of_Turkmenistan">
<g clip-path="url(#clip0_3425_3407)">
<path id="rect2" d="M22 0H0V16H22V0Z" fill="#00843D"/>
<g id="g14">
<path id="crescent" d="M10.9222 1.77441C11.5724 2.07896 12.0279 2.78377 12.0279 3.60449C12.0279 4.7038 11.2107 5.59529 10.2031 5.59529C9.75192 5.59529 9.33905 5.41651 9.02051 5.12049C9.21757 5.21268 9.43289 5.26838 9.65974 5.27918C10.6665 5.32713 11.5185 4.47539 11.5625 3.37713C11.588 2.7395 11.3355 2.15879 10.9222 1.77441Z" fill="white"/>
<path id="star" d="M9.18173 3.23815L9.38848 2.54395L8.84717 2.97299H9.51628L8.97496 2.54395L9.18173 3.23815Z" fill="white"/>
<path id="use6" d="M9.18173 2.21374L9.38848 1.51953L8.84717 1.94857H9.51628L8.97496 1.51953L9.18173 2.21374Z" fill="white"/>
<path id="use8" d="M10.109 2.73815L10.3157 2.04395L9.77441 2.47299H10.4435L9.9022 2.04395L10.109 2.73815Z" fill="white"/>
<path id="use10" d="M8.25448 3.73718L8.46124 3.04297L7.91992 3.47201H8.58903L8.04771 3.04297L8.25448 3.73718Z" fill="white"/>
<path id="use12" d="M9.18173 4.26159L9.38848 3.56738L8.84717 3.99642H9.51628L8.97496 3.56738L9.18173 4.26159Z" fill="white"/>
</g>
<path id="rect16" d="M6.60014 0H2.64014V16H6.60014V0Z" fill="#D22630"/>
<g id="ornm">
<path id="path18" d="M2.64014 -1.05664V-0.899859L2.86283 -0.67246L2.78773 -0.596189L2.94698 -0.435172L2.87707 -0.365962V-0.466245H2.74112V-0.346188L3.04797 -0.0326283H3.20334L3.22017 -0.142798H3.13083L3.22794 -0.241668L3.47135 -0.000142694L3.22794 0.242795L3.13083 0.143925H3.22017L3.20334 0.0323431H3.04797L2.74112 0.345906V0.465962H2.87707V0.36568L2.94698 0.434889L2.78773 0.595906L2.86283 0.673587L2.64014 0.899576V1.05636L3.0169 0.673587L2.9418 0.595906L3.09976 0.434889L2.96381 0.296471L3.05445 0.206075L3.22794 0.381217L3.60859 -0.000137925L3.22794 -0.381493L3.05445 -0.204939L2.96381 -0.296747L3.09976 -0.435165L2.9418 -0.596182L3.0169 -0.672453L2.64014 -1.05664ZM2.64014 -0.295339V0.295055L2.72818 0.197598V0.0831928H2.8214L2.89649 -0.000140548L2.8214 -0.0820614H2.72818V-0.197881L2.64014 -0.295339ZM3.28232 -0.0862998L3.26937 -0.00579131L3.28232 0.0761296L3.36259 -0.00579131L3.28232 -0.0862998Z" fill="#383739"/>
<path id="path20" d="M2.64017 -1.04004V-0.915744L2.8784 -0.672806L2.8033 -0.596535L2.96256 -0.435518L2.86675 -0.33806V-0.455292H2.75151V-0.350772L3.05319 -0.0442762H3.19302L3.20726 -0.131847H3.10368L3.22797 -0.258966L3.48692 -0.000490904L3.22797 0.257984L3.10368 0.132278H3.20726L3.19298 0.0432948H3.05315L2.75148 0.349791V0.45431H2.86671V0.337079L2.96252 0.434536L2.80327 0.595553L2.87837 0.673235L2.64014 0.914762V1.03906L3.00136 0.673235L2.92627 0.595554L3.08422 0.434537L2.94828 0.296118L3.05445 0.188774L3.22794 0.365327L3.59176 -0.000491142L3.22794 -0.36631L3.05445 -0.189756L2.94828 -0.297101L3.08422 -0.435519L2.92627 -0.596536L3.00136 -0.672807L2.64014 -1.04004L2.64017 -1.04004ZM2.64017 -0.278736V0.27776L2.71786 0.193014V0.0701343H2.81755L2.88228 -0.000487447L2.81755 -0.0711091H2.71786V-0.19399L2.64017 -0.278736ZM3.29012 -0.0640472L3.28106 -0.00613749L3.29012 0.0517721L3.34709 -0.00613749L3.29012 -0.0640472Z" fill="#FFC72C"/>
</g>
<g id="use23">
<path id="path18_2" d="M2.64014 1.85547V2.01225L2.86283 2.23965L2.78773 2.31592L2.94698 2.47694L2.87707 2.54615V2.44586H2.74112V2.56592L3.04797 2.87948H3.20334L3.22017 2.76931H3.13083L3.22794 2.67044L3.47135 2.91197L3.22794 3.1549L3.13083 3.05603H3.22017L3.20334 2.94445H3.04797L2.74112 3.25802V3.37807H2.87707V3.27779L2.94698 3.347L2.78773 3.50802L2.86283 3.5857L2.64014 3.81169V3.96847L3.0169 3.5857L2.9418 3.50802L3.09976 3.347L2.96381 3.20858L3.05445 3.11818L3.22794 3.29333L3.60859 2.91197L3.22794 2.53062L3.05445 2.70717L2.96381 2.61536L3.09976 2.47694L2.9418 2.31593L3.0169 2.23966L2.64014 1.85547ZM2.64014 2.61677V3.20716L2.72818 3.10971V2.9953H2.8214L2.89649 2.91197L2.8214 2.83005H2.72818V2.71423L2.64014 2.61677ZM3.28232 2.82581L3.26937 2.90632L3.28232 2.98824L3.36259 2.90632L3.28232 2.82581Z" fill="#383739"/>
<path id="path20_2" d="M2.64017 1.87207V1.99637L2.8784 2.2393L2.8033 2.31557L2.96256 2.47659L2.86675 2.57405V2.45682H2.75151V2.56134L3.05319 2.86783H3.19302L3.20726 2.78026H3.10368L3.22797 2.65314L3.48692 2.91162L3.22797 3.17009L3.10368 3.04439H3.20726L3.19298 2.9554H3.05315L2.75148 3.2619V3.36642H2.86671V3.24919L2.96252 3.34665L2.80327 3.50766L2.87837 3.58534L2.64014 3.82687V3.95117L3.00136 3.58534L2.92627 3.50766L3.08422 3.34665L2.94828 3.20823L3.05445 3.10088L3.22794 3.27744L3.59176 2.91162L3.22794 2.5458L3.05445 2.72235L2.94828 2.61501L3.08422 2.47659L2.92627 2.31557L3.00136 2.2393L2.64014 1.87207L2.64017 1.87207ZM2.64017 2.63337V3.18987L2.71786 3.10512V2.98224H2.81755L2.88228 2.91162L2.81755 2.841H2.71786V2.71812L2.64017 2.63337ZM3.29012 2.84806L3.28106 2.90597L3.29012 2.96388L3.34709 2.90597L3.29012 2.84806Z" fill="#FFC72C"/>
</g>
<g id="use25">
<path id="path18_3" d="M2.64014 4.86328V5.02006L2.86283 5.24746L2.78773 5.32373L2.94698 5.48475L2.87707 5.55396V5.45368H2.74112V5.57373L3.04797 5.88729H3.20334L3.22017 5.77712H3.13083L3.22794 5.67825L3.47135 5.91978L3.22794 6.16272L3.13083 6.06385H3.22017L3.20334 5.95227H3.04797L2.74112 6.26583V6.38588H2.87707V6.2856L2.94698 6.35481L2.78773 6.51583L2.86283 6.59351L2.64014 6.8195V6.97628L3.0169 6.59351L2.9418 6.51583L3.09976 6.35481L2.96381 6.21639L3.05445 6.126L3.22794 6.30114L3.60859 5.91978L3.22794 5.53843L3.05445 5.71498L2.96381 5.62317L3.09976 5.48476L2.9418 5.32374L3.0169 5.24747L2.64014 4.86328ZM2.64014 5.62458V6.21498L2.72818 6.11752V6.00311H2.8214L2.89649 5.91978L2.8214 5.83786H2.72818V5.72204L2.64014 5.62458ZM3.28232 5.83362L3.26937 5.91413L3.28232 5.99605L3.36259 5.91413L3.28232 5.83362Z" fill="#383739"/>
<path id="path20_3" d="M2.64017 4.87988V5.00418L2.8784 5.24712L2.8033 5.32339L2.96256 5.4844L2.86675 5.58186V5.46463H2.75151V5.56915L3.05319 5.87565H3.19302L3.20726 5.78808H3.10368L3.22797 5.66096L3.48692 5.91943L3.22797 6.17791L3.10368 6.0522H3.20726L3.19298 5.96322H3.05315L2.75148 6.26971V6.37423H2.86671V6.257L2.96252 6.35446L2.80327 6.51548L2.87837 6.59316L2.64014 6.83468V6.95898L3.00136 6.59316L2.92627 6.51548L3.08422 6.35446L2.94828 6.21604L3.05445 6.1087L3.22794 6.28525L3.59176 5.91943L3.22794 5.55361L3.05445 5.73017L2.94828 5.62282L3.08422 5.4844L2.92627 5.32339L3.00136 5.24711L2.64014 4.87988L2.64017 4.87988ZM2.64017 5.64119V6.19768L2.71786 6.11294V5.99006H2.81755L2.88228 5.91943L2.81755 5.84881H2.71786V5.72593L2.64017 5.64119ZM3.29012 5.85587L3.28106 5.91378L3.29012 5.97169L3.34709 5.91378L3.29012 5.85587Z" fill="#FFC72C"/>
</g>
<g id="use27">
<path id="path18_4" d="M2.64014 7.87109V8.02788L2.86283 8.25527L2.78773 8.33155L2.94698 8.49256L2.87707 8.56177V8.46149H2.74112V8.58155L3.04797 8.89511H3.20334L3.22017 8.78494H3.13083L3.22794 8.68607L3.47135 8.92759L3.22794 9.17053L3.13083 9.07166H3.22017L3.20334 8.96008H3.04797L2.74112 9.27364V9.3937H2.87707V9.29341L2.94698 9.36262L2.78773 9.52364L2.86283 9.60132L2.64014 9.82731V9.98409L3.0169 9.60132L2.9418 9.52364L3.09976 9.36262L2.96381 9.22421L3.05445 9.13381L3.22794 9.30895L3.60859 8.9276L3.22794 8.54624L3.05445 8.7228L2.96381 8.63099L3.09976 8.49257L2.9418 8.33155L3.0169 8.25528L2.64014 7.87109ZM2.64014 8.6324V9.22279L2.72818 9.12533V9.01093H2.8214L2.89649 8.92759L2.8214 8.84567H2.72818V8.72985L2.64014 8.6324ZM3.28232 8.84143L3.26937 8.92194L3.28232 9.00386L3.36259 8.92194L3.28232 8.84143Z" fill="#383739"/>
<path id="path20_4" d="M2.64017 7.8877V8.01199L2.8784 8.25493L2.8033 8.3312L2.96256 8.49222L2.86675 8.58967V8.47244H2.75151V8.57696L3.05319 8.88346H3.19302L3.20726 8.79589H3.10368L3.22797 8.66877L3.48692 8.92724L3.22797 9.18572L3.10368 9.06001H3.20726L3.19298 8.97103H3.05315L2.75148 9.27753V9.38204H2.86671V9.26481L2.96252 9.36227L2.80327 9.52329L2.87837 9.60097L2.64014 9.8425V9.96679L3.00136 9.60097L2.92627 9.52329L3.08422 9.36227L2.94828 9.22385L3.05445 9.11651L3.22794 9.29306L3.59176 8.92724L3.22794 8.56142L3.05445 8.73798L2.94828 8.63063L3.08422 8.49222L2.92627 8.3312L3.00136 8.25493L2.64014 7.8877L2.64017 7.8877ZM2.64017 8.649V9.20549L2.71786 9.12075V8.99787H2.81755L2.88228 8.92725L2.81755 8.85663H2.71786V8.73374L2.64017 8.649ZM3.29012 8.86369L3.28106 8.9216L3.29012 8.97951L3.34709 8.9216L3.29012 8.86369Z" fill="#FFC72C"/>
</g>
<g id="use29">
<path id="path18_5" d="M2.64014 10.8799V11.0367L2.86283 11.2641L2.78773 11.3403L2.94698 11.5014L2.87707 11.5706V11.4703H2.74112V11.5903L3.04797 11.9039H3.20334L3.22017 11.7937H3.13083L3.22794 11.6949L3.47135 11.9364L3.22794 12.1793L3.13083 12.0804H3.22017L3.20334 11.9689H3.04797L2.74112 12.2824V12.4025H2.87707V12.3022L2.94698 12.3714L2.78773 12.5324L2.86283 12.6101L2.64014 12.8361V12.9929L3.0169 12.6101L2.9418 12.5324L3.09976 12.3714L2.96381 12.233L3.05445 12.1426L3.22794 12.3177L3.60859 11.9364L3.22794 11.555L3.05445 11.7316L2.96381 11.6398L3.09976 11.5014L2.9418 11.3403L3.0169 11.2641L2.64014 10.8799ZM2.64014 11.6412V12.2316L2.72818 12.1341V12.0197H2.8214L2.89649 11.9364L2.8214 11.8545H2.72818V11.7386L2.64014 11.6412ZM3.28232 11.8502L3.26937 11.9307L3.28232 12.0127L3.36259 11.9307L3.28232 11.8502Z" fill="#383739"/>
<path id="path20_5" d="M2.64017 10.8965V11.0208L2.8784 11.2637L2.8033 11.34L2.96256 11.501L2.86675 11.5985V11.4812H2.75151V11.5858L3.05319 11.8922H3.19302L3.20726 11.8047H3.10368L3.22797 11.6776L3.48692 11.936L3.22797 12.1945L3.10368 12.0688H3.20726L3.19298 11.9798H3.05315L2.75148 12.2863V12.3908H2.86671V12.2736L2.96252 12.3711L2.80327 12.5321L2.87837 12.6098L2.64014 12.8513V12.9756L3.00136 12.6098L2.92627 12.5321L3.08422 12.3711L2.94828 12.2326L3.05445 12.1253L3.22794 12.3019L3.59176 11.936L3.22794 11.5702L3.05445 11.7468L2.94828 11.6394L3.08422 11.501L2.92627 11.34L3.00136 11.2637L2.64014 10.8965L2.64017 10.8965ZM2.64017 11.6578V12.2143L2.71786 12.1295V12.0067H2.81755L2.88228 11.936L2.81755 11.8654H2.71786V11.7425L2.64017 11.6578ZM3.29012 11.8725L3.28106 11.9304L3.29012 11.9883L3.34709 11.9304L3.29012 11.8725Z" fill="#FFC72C"/>
</g>
<g id="use32">
<g id="g1693">
<path id="path1689" d="M6.6001 -1.05664V-0.899859L6.3774 -0.67246L6.4525 -0.596189L6.29325 -0.435172L6.36316 -0.365962V-0.466245H6.49911V-0.346188L6.19226 -0.0326283H6.03689L6.02006 -0.142798H6.1094L6.0123 -0.241668L5.76889 -0.000142694L6.0123 0.242795L6.1094 0.143925H6.02006L6.03689 0.0323431H6.19226L6.49911 0.345906V0.465962H6.36316V0.36568L6.29325 0.434889L6.4525 0.595906L6.3774 0.673587L6.6001 0.899576V1.05636L6.22334 0.673587L6.29843 0.595906L6.14047 0.434889L6.27642 0.296471L6.18579 0.206075L6.0123 0.381217L5.63164 -0.000137925L6.0123 -0.381493L6.18579 -0.204939L6.27642 -0.296747L6.14047 -0.435165L6.29843 -0.596182L6.22334 -0.672453L6.6001 -1.05664ZM6.6001 -0.295339V0.295055L6.51206 0.197598V0.0831928H6.41884L6.34375 -0.000140548L6.41884 -0.0820614H6.51206V-0.197881L6.6001 -0.295339ZM5.95791 -0.0862998L5.97086 -0.00579131L5.95791 0.0761296L5.87764 -0.00579131L5.95791 -0.0862998Z" fill="#383739"/>
<path id="path1691" d="M6.60006 -1.04004V-0.915744L6.36183 -0.672806L6.43693 -0.596535L6.27768 -0.435518L6.37349 -0.33806V-0.455292H6.48872V-0.350772L6.18705 -0.0442762H6.04722L6.03298 -0.131847H6.13655L6.01226 -0.258966L5.75331 -0.000490904L6.01226 0.257984L6.13655 0.132278H6.03298L6.04725 0.0432948H6.18708L6.48876 0.349791V0.45431H6.37352V0.337079L6.27771 0.434536L6.43697 0.595553L6.36187 0.673235L6.6001 0.914762V1.03906L6.23887 0.673235L6.31397 0.595554L6.15601 0.434537L6.29196 0.296118L6.18579 0.188774L6.0123 0.365327L5.64848 -0.000491142L6.0123 -0.36631L6.18579 -0.189756L6.29196 -0.297101L6.15601 -0.435519L6.31397 -0.596536L6.23887 -0.672807L6.6001 -1.04004L6.60006 -1.04004ZM6.60006 -0.278736V0.27776L6.52238 0.193014V0.0701343H6.42269L6.35795 -0.000487447L6.42269 -0.0711091H6.52238V-0.19399L6.60006 -0.278736ZM5.95011 -0.0640472L5.95917 -0.00613749L5.95011 0.0517721L5.89315 -0.00613749L5.95011 -0.0640472Z" fill="#FFC72C"/>
</g>
<g id="use1695">
<path id="path18_6" d="M6.6001 1.85547V2.01225L6.3774 2.23965L6.4525 2.31592L6.29325 2.47694L6.36316 2.54615V2.44586H6.49911V2.56592L6.19226 2.87948H6.03689L6.02006 2.76931H6.1094L6.0123 2.67044L5.76889 2.91197L6.0123 3.1549L6.1094 3.05603H6.02006L6.03689 2.94445H6.19226L6.49911 3.25802V3.37807H6.36316V3.27779L6.29325 3.347L6.4525 3.50802L6.3774 3.5857L6.6001 3.81169V3.96847L6.22334 3.5857L6.29843 3.50802L6.14047 3.347L6.27642 3.20858L6.18579 3.11818L6.0123 3.29333L5.63164 2.91197L6.0123 2.53062L6.18579 2.70717L6.27642 2.61536L6.14047 2.47694L6.29843 2.31593L6.22334 2.23966L6.6001 1.85547ZM6.6001 2.61677V3.20716L6.51206 3.10971V2.9953H6.41884L6.34375 2.91197L6.41884 2.83005H6.51206V2.71423L6.6001 2.61677ZM5.95791 2.82581L5.97086 2.90632L5.95791 2.98824L5.87764 2.90632L5.95791 2.82581Z" fill="#383739"/>
<path id="path20_6" d="M6.60006 1.87207V1.99637L6.36183 2.2393L6.43693 2.31557L6.27768 2.47659L6.37349 2.57405V2.45682H6.48872V2.56134L6.18705 2.86783H6.04722L6.03298 2.78026H6.13655L6.01226 2.65314L5.75331 2.91162L6.01226 3.17009L6.13655 3.04439H6.03298L6.04725 2.9554H6.18708L6.48876 3.2619V3.36642H6.37352V3.24919L6.27771 3.34665L6.43697 3.50766L6.36187 3.58534L6.6001 3.82687V3.95117L6.23887 3.58534L6.31397 3.50766L6.15601 3.34665L6.29196 3.20823L6.18579 3.10088L6.0123 3.27744L5.64848 2.91162L6.0123 2.5458L6.18579 2.72235L6.29196 2.61501L6.15601 2.47659L6.31397 2.31557L6.23887 2.2393L6.6001 1.87207L6.60006 1.87207ZM6.60006 2.63337V3.18987L6.52238 3.10512V2.98224H6.42269L6.35795 2.91162L6.42269 2.841H6.52238V2.71812L6.60006 2.63337ZM5.95011 2.84806L5.95917 2.90597L5.95011 2.96388L5.89315 2.90597L5.95011 2.84806Z" fill="#FFC72C"/>
</g>
<g id="use1697">
<path id="path18_7" d="M6.6001 4.86328V5.02006L6.3774 5.24746L6.4525 5.32373L6.29325 5.48475L6.36316 5.55396V5.45368H6.49911V5.57373L6.19226 5.88729H6.03689L6.02006 5.77712H6.1094L6.0123 5.67825L5.76889 5.91978L6.0123 6.16272L6.1094 6.06385H6.02006L6.03689 5.95227H6.19226L6.49911 6.26583V6.38588H6.36316V6.2856L6.29325 6.35481L6.4525 6.51583L6.3774 6.59351L6.6001 6.8195V6.97628L6.22334 6.59351L6.29843 6.51583L6.14047 6.35481L6.27642 6.21639L6.18579 6.126L6.0123 6.30114L5.63164 5.91978L6.0123 5.53843L6.18579 5.71498L6.27642 5.62317L6.14047 5.48476L6.29843 5.32374L6.22334 5.24747L6.6001 4.86328ZM6.6001 5.62458V6.21498L6.51206 6.11752V6.00311H6.41884L6.34375 5.91978L6.41884 5.83786H6.51206V5.72204L6.6001 5.62458ZM5.95791 5.83362L5.97086 5.91413L5.95791 5.99605L5.87764 5.91413L5.95791 5.83362Z" fill="#383739"/>
<path id="path20_7" d="M6.60006 4.87988V5.00418L6.36183 5.24712L6.43693 5.32339L6.27768 5.4844L6.37349 5.58186V5.46463H6.48872V5.56915L6.18705 5.87565H6.04722L6.03298 5.78808H6.13655L6.01226 5.66096L5.75331 5.91943L6.01226 6.17791L6.13655 6.0522H6.03298L6.04725 5.96322H6.18708L6.48876 6.26971V6.37423H6.37352V6.257L6.27771 6.35446L6.43697 6.51548L6.36187 6.59316L6.6001 6.83468V6.95898L6.23887 6.59316L6.31397 6.51548L6.15601 6.35446L6.29196 6.21604L6.18579 6.1087L6.0123 6.28525L5.64848 5.91943L6.0123 5.55361L6.18579 5.73017L6.29196 5.62282L6.15601 5.4844L6.31397 5.32339L6.23887 5.24711L6.6001 4.87988L6.60006 4.87988ZM6.60006 5.64119V6.19768L6.52238 6.11294V5.99006H6.42269L6.35795 5.91943L6.42269 5.84881H6.52238V5.72593L6.60006 5.64119ZM5.95011 5.85587L5.95917 5.91378L5.95011 5.97169L5.89315 5.91378L5.95011 5.85587Z" fill="#FFC72C"/>
</g>
<g id="use1699">
<path id="path18_8" d="M6.6001 7.87109V8.02788L6.3774 8.25527L6.4525 8.33155L6.29325 8.49256L6.36316 8.56177V8.46149H6.49911V8.58155L6.19226 8.89511H6.03689L6.02006 8.78494H6.1094L6.0123 8.68607L5.76889 8.92759L6.0123 9.17053L6.1094 9.07166H6.02006L6.03689 8.96008H6.19226L6.49911 9.27364V9.3937H6.36316V9.29341L6.29325 9.36262L6.4525 9.52364L6.3774 9.60132L6.6001 9.82731V9.98409L6.22334 9.60132L6.29843 9.52364L6.14047 9.36262L6.27642 9.22421L6.18579 9.13381L6.0123 9.30895L5.63164 8.9276L6.0123 8.54624L6.18579 8.7228L6.27642 8.63099L6.14047 8.49257L6.29843 8.33155L6.22334 8.25528L6.6001 7.87109ZM6.6001 8.6324V9.22279L6.51206 9.12533V9.01093H6.41884L6.34375 8.92759L6.41884 8.84567H6.51206V8.72985L6.6001 8.6324ZM5.95791 8.84143L5.97086 8.92194L5.95791 9.00386L5.87764 8.92194L5.95791 8.84143Z" fill="#383739"/>
<path id="path20_8" d="M6.60006 7.8877V8.01199L6.36183 8.25493L6.43693 8.3312L6.27768 8.49222L6.37349 8.58967V8.47244H6.48872V8.57696L6.18705 8.88346H6.04722L6.03298 8.79589H6.13655L6.01226 8.66877L5.75331 8.92724L6.01226 9.18572L6.13655 9.06001H6.03298L6.04725 8.97103H6.18708L6.48876 9.27753V9.38204H6.37352V9.26481L6.27771 9.36227L6.43697 9.52329L6.36187 9.60097L6.6001 9.8425V9.96679L6.23887 9.60097L6.31397 9.52329L6.15601 9.36227L6.29196 9.22385L6.18579 9.11651L6.0123 9.29306L5.64848 8.92724L6.0123 8.56142L6.18579 8.73798L6.29196 8.63063L6.15601 8.49222L6.31397 8.3312L6.23887 8.25493L6.6001 7.8877L6.60006 7.8877ZM6.60006 8.649V9.20549L6.52238 9.12075V8.99787H6.42269L6.35795 8.92725L6.42269 8.85663H6.52238V8.73374L6.60006 8.649ZM5.95011 8.86369L5.95917 8.9216L5.95011 8.97951L5.89315 8.9216L5.95011 8.86369Z" fill="#FFC72C"/>
</g>
<g id="use1701">
<path id="path18_9" d="M6.6001 10.8789V11.0357L6.3774 11.2631L6.4525 11.3394L6.29325 11.5004L6.36316 11.5696V11.4693H6.49911V11.5894L6.19226 11.9029H6.03689L6.02006 11.7927H6.1094L6.0123 11.6939L5.76889 11.9354L6.0123 12.1783L6.1094 12.0795H6.02006L6.03689 11.9679H6.19226L6.49911 12.2815V12.4015H6.36316V12.3012L6.29325 12.3704L6.4525 12.5315L6.3774 12.6091L6.6001 12.8351V12.9919L6.22334 12.6091L6.29843 12.5315L6.14047 12.3704L6.27642 12.232L6.18579 12.1416L6.0123 12.3168L5.63164 11.9354L6.0123 11.5541L6.18579 11.7306L6.27642 11.6388L6.14047 11.5004L6.29843 11.3394L6.22334 11.2631L6.6001 10.8789ZM6.6001 11.6402V12.2306L6.51206 12.1331V12.0187H6.41884L6.34375 11.9354L6.41884 11.8535H6.51206V11.7377L6.6001 11.6402ZM5.95791 11.8492L5.97086 11.9298L5.95791 12.0117L5.87764 11.9298L5.95791 11.8492Z" fill="#383739"/>
<path id="path20_9" d="M6.60006 10.8955V11.0198L6.36183 11.2627L6.43693 11.339L6.27768 11.5L6.37349 11.5975V11.4803H6.48872V11.5848L6.18705 11.8913H6.04722L6.03298 11.8037H6.13655L6.01226 11.6766L5.75331 11.9351L6.01226 12.1935L6.13655 12.0678H6.03298L6.04725 11.9788H6.18708L6.48876 12.2853V12.3899H6.37352V12.2726L6.27771 12.3701L6.43697 12.5311L6.36187 12.6088L6.6001 12.8503V12.9746L6.23887 12.6088L6.31397 12.5311L6.15601 12.3701L6.29196 12.2317L6.18579 12.1243L6.0123 12.3009L5.64848 11.9351L6.0123 11.5692L6.18579 11.7458L6.29196 11.6384L6.15601 11.5L6.31397 11.339L6.23887 11.2627L6.6001 10.8955L6.60006 10.8955ZM6.60006 11.6568V12.2133L6.52238 12.1286V12.0057H6.42269L6.35795 11.9351L6.42269 11.8644H6.52238V11.7416L6.60006 11.6568ZM5.95011 11.8715L5.95917 11.9294L5.95011 11.9873L5.89315 11.9294L5.95011 11.8715Z" fill="#FFC72C"/>
</g>
</g>
<path id="branch" d="M2.96117 14.1553C2.98071 14.2462 3.04693 14.3147 3.06271 14.409C3.0943 14.3107 3.12343 14.2284 3.10168 14.1209C3.08612 14.044 3.02684 13.9892 3.01997 13.9102C2.95534 13.9735 2.94142 14.0635 2.96117 14.1553ZM2.94479 14.536C2.99962 14.618 3.07582 14.6809 3.15998 14.7228C3.14341 14.651 3.1745 14.5969 3.20901 14.5399C3.25059 14.4713 3.27086 14.4039 3.23697 14.3248C3.22117 14.3659 3.19995 14.4 3.17504 14.4352C3.13821 14.49 3.114 14.5387 3.10832 14.609C3.06573 14.5746 3.04702 14.5232 3.02424 14.4734C2.98952 14.4021 2.9335 14.3425 2.86914 14.3036C2.88624 14.3835 2.89941 14.4681 2.94479 14.536ZM3.25226 14.7804C3.24054 14.826 3.23044 14.8711 3.2327 14.9187C3.19647 14.8761 3.14836 14.8441 3.10545 14.8098C3.047 14.7582 2.97888 14.7219 2.93109 14.6562C2.93822 14.7528 2.97613 14.8316 3.04812 14.8904C3.12421 14.9525 3.21598 14.9859 3.29092 15.0512C3.2797 14.9633 3.3093 14.8929 3.33454 14.8121C3.35558 14.7349 3.33522 14.6565 3.28723 14.5977C3.28795 14.6629 3.26909 14.7189 3.25226 14.7804ZM3.42303 15.0773C3.43879 15.144 3.48259 15.1982 3.51249 15.2577C3.43186 15.2304 3.36071 15.1827 3.28781 15.1378C3.20099 15.0862 3.10671 15.0534 3.02811 14.9853C3.06723 15.1433 3.16417 15.2349 3.306 15.2816C3.40298 15.3135 3.4847 15.2976 3.60237 15.3495C3.58888 15.2626 3.5651 15.1688 3.52744 15.0904C3.49821 15.0338 3.46579 14.9779 3.44774 14.9155C3.42159 14.9667 3.40921 15.0189 3.42303 15.0773ZM3.71975 15.3191C3.74751 15.3709 3.78416 15.4146 3.82962 15.4491C3.71514 15.457 3.62302 15.3779 3.51142 15.3744C3.44249 15.3723 3.37705 15.3957 3.30675 15.3887C3.39017 15.4501 3.47751 15.5037 3.57908 15.518C3.71111 15.5366 3.83287 15.5004 3.97853 15.5146C3.91046 15.4622 3.8764 15.392 3.83397 15.3166C3.77872 15.2224 3.72658 15.1553 3.61912 15.1401C3.66225 15.193 3.68736 15.2585 3.71975 15.3191ZM4.12629 15.5263C3.92463 15.5637 3.73138 15.6121 3.52541 15.6143C3.75596 15.702 3.97319 15.7179 4.20184 15.6274C4.32541 15.5784 4.42015 15.5522 4.51348 15.5595C4.64986 15.5702 4.81561 15.6289 4.99905 15.84L5.07115 15.777C4.80824 15.5215 4.46425 15.4636 4.12631 15.5263L4.12629 15.5263Z" fill="#FFC72C"/>
<path id="path37" d="M3.13518 1.87584L2.81787 1.66357V1.1533L3.13518 0.941024V0.671024L3.43504 0.474032H3.67461L4.13044 0.194336H5.10903L5.56486 0.474032H5.80443L6.10429 0.671024V0.941024L6.4216 1.1533L6.42159 1.66357L6.10429 1.87584V2.14584L5.80443 2.34283H5.56486L5.10903 2.62253H4.13044L3.67461 2.34283H3.43504L3.13518 2.14584V1.87584Z" fill="#383739"/>
<path id="path39" d="M4.13289 0.206055L3.67715 0.485716H3.43892L3.14631 0.677806V0.947579L2.8291 1.15944V1.65662L3.14631 1.86848V2.13967L3.43762 2.33176H3.67715L4.13289 2.61142H5.10653L5.56227 2.33176H5.80179L6.0944 2.13967V1.86848L6.41161 1.65662V1.15944L6.0944 0.947579V0.677806L5.80179 0.485716H5.56227L5.10653 0.206055H4.13289ZM4.16008 0.309162H5.08063L5.53637 0.588823H5.7746L5.996 0.734304V1.00408L6.3145 1.21594V1.60012L5.996 1.81199V2.08176L5.7746 2.22724H5.53637L5.08063 2.5069H4.16008L3.70434 2.22724H3.46611L3.24342 2.08176V1.81199L2.92621 1.60012V1.21594L3.24342 1.00408V0.734304L3.46611 0.588823H3.70434L4.16008 0.309162Z" fill="#00843D"/>
<path id="path41" d="M4.61467 1.41387V0.320312H4.1623L3.70645 0.600009H3.46881L3.25382 0.741241V1.01058L2.93652 1.22284V1.40246L4.62516 1.40244V2.49603H5.07753L5.53337 2.21633H5.77103L5.98599 2.0751V1.80577L6.30331 1.5935V1.41388L4.61467 1.41387Z" fill="#FFC72C"/>
<path id="path43" d="M2.93654 1.41388L2.93652 1.5935L3.25384 1.80577V2.0751L3.46881 2.21633H3.70646L4.1623 2.49603H4.61468V1.40244L6.30332 1.40246V1.22284L5.98601 1.01058V0.741241L5.77104 0.600009H5.53338L5.07754 0.320312H4.62518V1.41387L2.93654 1.41388Z" fill="white"/>
<g id="carp1h">
<g id="carp1q">
<path id="path45" d="M3.62841 0.700518L3.5503 0.621094L3.4729 0.673158L3.55115 0.752742L3.45068 0.820646H3.66992L3.85886 1.01506L3.9193 0.94543L3.7356 0.75639V0.62807L3.62841 0.700518Z" fill="#383739"/>
<path id="path47" d="M3.99853 0.665362L3.92042 0.585938L3.84302 0.638002L3.92127 0.717586L3.8208 0.785489H4.04004L4.22897 0.979906L4.28941 0.910274L4.10572 0.721234V0.592914L3.99853 0.665362Z" fill="#383739"/>
<path id="path49" d="M3.60154 0.928057L3.52343 0.848633L3.44605 0.900697L3.52428 0.980281L3.42383 1.04818H3.64306L3.83199 1.2426L3.89243 1.17297L3.70873 0.983929V0.855609L3.60154 0.928057Z" fill="#383739"/>
<path id="path51" d="M4.62004 0.308594H4.42221L4.31869 0.417426H4.11689L3.96777 0.501858L4.00255 0.59429L4.13553 0.518098H4.19377L4.39767 0.775346L4.62004 0.627618L4.62004 0.308594Z" fill="#383739"/>
<path id="path53" d="M3.54935 0.634766L3.61954 0.706142L3.56073 0.745886L3.49043 0.674398L3.54935 0.634766ZM3.72548 0.647966V0.760686L3.90484 0.945261L3.85879 0.998317L3.67444 0.808606H3.48779L3.72548 0.647966Z" fill="#D22630"/>
<path id="path55" d="M3.91898 0.600586L3.98917 0.671962L3.93036 0.711706L3.86008 0.640218L3.91898 0.600586ZM4.09511 0.613786V0.726506L4.27447 0.911081L4.22842 0.964137L4.04407 0.774442H3.85742L4.09511 0.613786Z" fill="#D22630"/>
<path id="path57" d="M3.52202 0.863281L3.5922 0.934657L3.53339 0.974401L3.4631 0.902913L3.52202 0.863281ZM3.69814 0.876481V0.989201L3.8775 1.17378L3.83146 1.22683L3.64711 1.03714H3.46045L3.69814 0.876481Z" fill="#D22630"/>
<path id="path59" d="M4.61468 0.320312H4.42631L4.32279 0.429144H4.11932L3.98096 0.507481L4.00772 0.578649L4.1328 0.507001H4.19843L4.39966 0.760889L4.61468 0.618057L4.61468 0.320312Z" fill="#D22630"/>
</g>
<g id="use62">
<path id="path45_2" d="M3.62841 2.11491L3.5503 2.19434L3.4729 2.14227L3.55115 2.06269L3.45068 1.99478H3.66992L3.85886 1.80037L3.9193 1.87L3.7356 2.05904V2.18736L3.62841 2.11491Z" fill="#383739"/>
<path id="path47_2" d="M3.99853 2.15007L3.92042 2.22949L3.84302 2.17743L3.92127 2.09784L3.8208 2.02994H4.04004L4.22897 1.83552L4.28941 1.90516L4.10572 2.0942V2.22252L3.99853 2.15007Z" fill="#383739"/>
<path id="path49_2" d="M3.60154 1.88737L3.52343 1.9668L3.44605 1.91473L3.52428 1.83515L3.42383 1.76724H3.64306L3.83199 1.57283L3.89243 1.64246L3.70873 1.8315V1.95982L3.60154 1.88737Z" fill="#383739"/>
<path id="path51_2" d="M4.62004 2.50684H4.42221L4.31869 2.398H4.11689L3.96777 2.31357L4.00255 2.22114L4.13553 2.29733H4.19377L4.39767 2.04008L4.62004 2.18781L4.62004 2.50684Z" fill="#383739"/>
<path id="path53_2" d="M3.54935 2.18066L3.61954 2.10929L3.56073 2.06954L3.49043 2.14103L3.54935 2.18066ZM3.72548 2.16746V2.05474L3.90484 1.87017L3.85879 1.81711L3.67444 2.00682H3.48779L3.72548 2.16746Z" fill="#D22630"/>
<path id="path55_2" d="M3.91898 2.21484L3.98917 2.14347L3.93036 2.10372L3.86008 2.17521L3.91898 2.21484ZM4.09511 2.20164V2.08892L4.27447 1.90435L4.22842 1.85129L4.04407 2.04099H3.85742L4.09511 2.20164Z" fill="#D22630"/>
<path id="path57_2" d="M3.52202 1.95215L3.5922 1.88077L3.53339 1.84103L3.4631 1.91252L3.52202 1.95215ZM3.69814 1.93895V1.82623L3.8775 1.64165L3.83146 1.5886L3.64711 1.77829H3.46045L3.69814 1.93895Z" fill="#D22630"/>
<path id="path59_2" d="M4.61468 2.49512H4.42631L4.32279 2.38629H4.11932L3.98096 2.30795L4.00772 2.23678L4.1328 2.30843H4.19843L4.39966 2.05454L4.61468 2.19737L4.61468 2.49512Z" fill="#D22630"/>
</g>
<path id="path64" d="M3.49694 1.05896L3.40261 1.02051L3.40036 1.02222L3.27856 1.11441V1.1392L3.0835 1.4083L3.27856 1.6774V1.7022L3.40261 1.79609L3.49694 1.75764L3.43937 1.71606V1.63694L3.46225 1.60708H3.56446V1.20952H3.46225L3.43937 1.17966V1.10054L3.49694 1.05896Z" fill="#383739"/>
<path id="path66" d="M3.28887 1.12028L3.40392 1.0332L3.47388 1.06172L3.42873 1.09432V1.18372L3.45719 1.22084H3.55381V1.59559H3.45719L3.42873 1.63271V1.7221L3.47388 1.75471L3.40392 1.78322L3.28887 1.69615L3.28889 1.67335L3.09668 1.40821L3.28889 1.14306L3.28887 1.12028Z" fill="#D22630"/>
</g>
<g id="use69">
<g id="carp1q_2">
<path id="path45_3" d="M5.61133 0.700518L5.68945 0.621094L5.76684 0.673158L5.6886 0.752742L5.78906 0.820646H5.56983L5.38089 1.01506L5.32045 0.94543L5.50415 0.75639V0.62807L5.61133 0.700518Z" fill="#383739"/>
<path id="path47_3" d="M5.24121 0.665362L5.31933 0.585938L5.39673 0.638002L5.31848 0.717586L5.41895 0.785489H5.19971L5.01077 0.979906L4.95033 0.910274L5.13403 0.721234V0.592914L5.24121 0.665362Z" fill="#383739"/>
<path id="path49_3" d="M5.6382 0.928057L5.71632 0.848633L5.7937 0.900697L5.71547 0.980281L5.81592 1.04818H5.59668L5.40776 1.2426L5.34732 1.17297L5.53102 0.983929V0.855609L5.6382 0.928057Z" fill="#383739"/>
<path id="path51_3" d="M4.61971 0.308594H4.81754L4.92106 0.417426H5.12286L5.27197 0.501858L5.2372 0.59429L5.10422 0.518098H5.04597L4.84208 0.775346L4.6197 0.627618L4.61971 0.308594Z" fill="#383739"/>
<path id="path53_3" d="M5.6904 0.634766L5.6202 0.706142L5.67902 0.745886L5.74931 0.674398L5.6904 0.634766ZM5.51427 0.647966V0.760686L5.33491 0.945261L5.38096 0.998317L5.56531 0.808606H5.75195L5.51427 0.647966Z" fill="#D22630"/>
<path id="path55_3" d="M5.32077 0.600586L5.25057 0.671962L5.30939 0.711706L5.37967 0.640218L5.32077 0.600586ZM5.14464 0.613786V0.726506L4.96528 0.911081L5.01133 0.964137L5.19568 0.774442H5.38232L5.14464 0.613786Z" fill="#D22630"/>
<path id="path57_3" d="M5.71773 0.863281L5.64755 0.934657L5.70636 0.974401L5.77664 0.902913L5.71773 0.863281ZM5.54161 0.876481V0.989201L5.36225 1.17378L5.40829 1.22683L5.59263 1.03714H5.7793L5.54161 0.876481Z" fill="#D22630"/>
<path id="path59_3" d="M4.62507 0.320312H4.81344L4.91695 0.429144H5.12042L5.25879 0.507481L5.23202 0.578649L5.10694 0.507001H5.04131L4.84008 0.760889L4.62507 0.618057L4.62507 0.320312Z" fill="#D22630"/>
</g>
<g id="use62_2">
<path id="path45_4" d="M5.61133 2.11491L5.68945 2.19434L5.76684 2.14227L5.6886 2.06269L5.78906 1.99478H5.56983L5.38089 1.80037L5.32045 1.87L5.50415 2.05904V2.18736L5.61133 2.11491Z" fill="#383739"/>
<path id="path47_4" d="M5.24121 2.15007L5.31933 2.22949L5.39673 2.17743L5.31848 2.09784L5.41895 2.02994H5.19971L5.01077 1.83552L4.95033 1.90516L5.13403 2.0942V2.22252L5.24121 2.15007Z" fill="#383739"/>
<path id="path49_4" d="M5.6382 1.88737L5.71632 1.9668L5.7937 1.91473L5.71547 1.83515L5.81592 1.76724H5.59668L5.40776 1.57283L5.34732 1.64246L5.53102 1.8315V1.95982L5.6382 1.88737Z" fill="#383739"/>
<path id="path51_4" d="M4.61971 2.50684H4.81754L4.92106 2.398H5.12286L5.27197 2.31357L5.2372 2.22114L5.10422 2.29733H5.04597L4.84208 2.04008L4.6197 2.18781L4.61971 2.50684Z" fill="#383739"/>
<path id="path53_4" d="M5.6904 2.18066L5.6202 2.10929L5.67902 2.06954L5.74931 2.14103L5.6904 2.18066ZM5.51427 2.16746V2.05474L5.33491 1.87017L5.38096 1.81711L5.56531 2.00682H5.75195L5.51427 2.16746Z" fill="#D22630"/>
<path id="path55_4" d="M5.32077 2.21484L5.25057 2.14347L5.30939 2.10372L5.37967 2.17521L5.32077 2.21484ZM5.14464 2.20164V2.08892L4.96528 1.90435L5.01133 1.85129L5.19568 2.04099H5.38232L5.14464 2.20164Z" fill="#D22630"/>
<path id="path57_4" d="M5.71773 1.95215L5.64755 1.88077L5.70636 1.84103L5.77664 1.91252L5.71773 1.95215ZM5.54161 1.93895V1.82623L5.36225 1.64165L5.40829 1.5886L5.59263 1.77829H5.7793L5.54161 1.93895Z" fill="#D22630"/>
<path id="path59_4" d="M4.62507 2.49512H4.81344L4.91695 2.38629H5.12042L5.25879 2.30795L5.23202 2.23678L5.10694 2.30843H5.04131L4.84008 2.05454L4.62507 2.19737L4.62507 2.49512Z" fill="#D22630"/>
</g>
<path id="path64_2" d="M5.74281 1.05896L5.83713 1.02051L5.83939 1.02222L5.96118 1.11441V1.1392L6.15625 1.4083L5.96118 1.6774V1.7022L5.83713 1.79609L5.74281 1.75764L5.80038 1.71606V1.63694L5.7775 1.60708H5.67529V1.20952H5.7775L5.80038 1.17966V1.10054L5.74281 1.05896Z" fill="#383739"/>
<path id="path66_2" d="M5.95087 1.12028L5.83583 1.0332L5.76587 1.06172L5.81101 1.09432V1.18372L5.78256 1.22084H5.68594V1.59559H5.78256L5.81101 1.63271V1.7221L5.76587 1.75471L5.83583 1.78322L5.95087 1.69615L5.95086 1.67335L6.14307 1.40821L5.95086 1.14306L5.95087 1.12028Z" fill="#D22630"/>
</g>
<path id="path71" d="M3.32964 1.63375L3.27653 1.58362V1.55946L3.1626 1.40786L3.27654 1.25624V1.2321L3.32965 1.18197L3.42504 1.26659L3.36998 1.26613L3.45134 1.35621H3.63724L3.78344 1.23149V0.902578H4.14909L4.57375 0.61829V0.54373L4.50881 0.496514H4.48823L4.41751 0.548146L4.40655 0.586658L4.35123 0.504258L4.45875 0.405714H4.47594L4.59728 0.308594H4.64302L4.76434 0.405714H4.78155L4.88907 0.504258L4.83375 0.586658L4.82279 0.548146L4.75207 0.496514H4.73149L4.66655 0.54373V0.61829L5.09121 0.902578H5.45686V1.23149L5.60306 1.35621H5.78896L5.87032 1.26613L5.81526 1.26659L5.91065 1.18197L5.96376 1.2321V1.25624L6.0777 1.40786L5.96376 1.55946V1.58362L5.91065 1.63375L5.81526 1.54912L5.87032 1.54959L5.78896 1.45949H5.60306L5.45686 1.58423V1.91314H5.09121L4.66655 2.19743V2.27199L4.73149 2.3192H4.75207L4.82279 2.26757L4.83375 2.22906L4.88907 2.31144L4.78155 2.41H4.76434L4.64302 2.50712H4.59728L4.47594 2.41H4.45875L4.35121 2.31144L4.40655 2.22906L4.41751 2.26757L4.48822 2.3192H4.50879L4.57375 2.27199V2.19743L4.14909 1.91314H3.78344V1.58423L3.63723 1.45949H3.45134L3.36998 1.54959L3.42504 1.54912L3.32964 1.63375Z" fill="#383739"/>
<path id="path73" d="M4.62515 2.32838L4.67163 2.36714L4.62515 2.40591V2.32838ZM4.47741 2.39889H4.47913L4.60047 2.49602H4.61464V2.42025L4.55098 2.36714L4.61465 2.31404V2.1717L4.16025 1.8675H3.82434V1.56183L3.6509 1.41386H3.38931L3.32356 1.49497L3.25781 1.41386L3.18018 1.41388L3.28674 1.55567V1.5787L3.32895 1.6187L3.39677 1.5611L3.35697 1.56143V1.54703L3.44567 1.44839H3.64059L3.79367 1.57898V1.90204H4.15181L4.58397 2.19135V2.27839L4.51172 2.33092H4.48478L4.40835 2.27511L4.40247 2.25441L4.3652 2.3099L4.46232 2.39889L4.47741 2.39889ZM3.32362 1.33862L3.37539 1.40246H3.27183L3.32362 1.33862ZM4.61466 0.410425L4.56822 0.449193L4.61466 0.487944V0.410425ZM5.86444 1.41388L5.91621 1.47772L5.96799 1.41388H5.86444ZM4.76067 0.417432L4.63933 0.320312H4.62517V0.396056L4.68885 0.449193L4.62515 0.502329V0.644632L5.07955 0.94884H5.41546V1.2545L5.5889 1.40247H5.85045L5.91621 1.32138L5.98198 1.40246H6.05962L5.95306 1.26066V1.23764L5.91085 1.19764L5.84303 1.25524L5.88283 1.25489V1.2693L5.79413 1.36793H5.59921L5.44615 1.23734V0.914296H5.08799L4.65583 0.624984V0.537928L4.72808 0.485416H4.75502L4.83145 0.541224L4.83733 0.561928L4.8746 0.50644L4.77748 0.417432L4.76067 0.417432Z" fill="#FFC72C"/>
<path id="path75" d="M4.61463 2.4059L4.56819 2.36714L4.61463 2.32839V2.4059ZM3.37536 1.41388L3.32359 1.47772L3.27181 1.41388H3.37536ZM4.76236 2.39889H4.76064L4.6393 2.49602H4.62514V2.47618V2.42028L4.68882 2.36714L4.62512 2.31401V2.1717L5.07952 1.8675H5.41543V1.56183L5.58887 1.41386H5.85043L5.91618 1.49497L5.98194 1.41386L6.0596 1.41388L5.95303 1.55567V1.5787L5.91082 1.6187L5.843 1.5611L5.8828 1.56143V1.54703L5.7941 1.44839H5.59918L5.44612 1.57898V1.90204H5.08796L4.6558 2.19135V2.27839L4.72805 2.33092H4.75499L4.83142 2.27511L4.8373 2.25441L4.87457 2.3099L4.77745 2.39889L4.76236 2.39889ZM5.91618 1.33862L5.86441 1.40246H5.96797L5.91618 1.33862ZM4.47913 0.417433L4.60047 0.320312H4.61465V0.396056L4.55095 0.449193L4.61465 0.502329L4.61466 0.644633L4.16025 0.948841H3.82435V1.2545L3.6509 1.40247H3.38928L3.32353 1.32138L3.25776 1.40246H3.18018L3.28676 1.26066V1.23764L3.32897 1.19764L3.39677 1.25524L3.35697 1.25489V1.2693L3.44569 1.36793H3.64059L3.79367 1.23734V0.914297H4.15181L4.58398 0.624985V0.537928L4.51173 0.485416H4.48478L4.40835 0.541224L4.40247 0.561928L4.36521 0.50644L4.46234 0.417432L4.47913 0.417433ZM4.62512 0.487961L4.6716 0.449193L4.62512 0.410425V0.487961Z" fill="white"/>
<path id="path77" d="M4.61473 1.41407V0.658203L4.16328 0.960443H3.83488V1.26025L3.66797 1.40265L4.62522 1.40263V2.15851L5.07664 1.85628H5.40504V1.55648L5.57195 1.41408L4.61473 1.41407Z" fill="#00843D"/>
<path id="path79" d="M3.66797 1.41406L3.83489 1.55646V1.85627H4.16328L4.61475 2.15851V1.40262L5.57197 1.40264L5.40506 1.26024V0.960427H5.07666L4.62523 0.658203V1.41405L3.66797 1.41406Z" fill="#D22630"/>
<path id="path81" d="M4.13377 1.04134L4.05567 0.961914L3.97827 1.01396L4.05652 1.09355L3.95605 1.16145H4.17529L4.36423 1.35588L4.42467 1.28623L4.24097 1.09719V0.96889L4.13377 1.04134Z" fill="#383739"/>
<path id="path83" d="M5.10582 1.77451L5.18394 1.85393L5.26132 1.80187L5.18309 1.72228L5.28356 1.65439H5.0643L4.87538 1.45996L4.81494 1.52959L4.99864 1.71865V1.84695L5.10582 1.77451Z" fill="#383739"/>
<path id="path85" d="M4.13377 1.77451L4.05566 1.85393L3.97827 1.80187L4.05651 1.72228L3.95605 1.65439H4.17529L4.36421 1.45996L4.42465 1.52959L4.24095 1.71865V1.84695L4.13377 1.77451Z" fill="#383739"/>
<path id="path87" d="M5.10582 1.04134L5.18394 0.961914L5.26132 1.01396L5.18309 1.09355L5.28356 1.16145H5.0643L4.87538 1.35588L4.81494 1.28623L4.99864 1.09719V0.96889L5.10582 1.04134Z" fill="#383739"/>
<path id="path89" d="M5.18531 1.84007L5.11513 1.76869L5.17395 1.72895L5.24423 1.80044L5.18531 1.84007ZM5.0092 1.82687V1.71417L4.82984 1.52959L4.87589 1.47652L5.06024 1.66623H5.24689L5.0092 1.82687ZM4.05472 0.976562L4.12491 1.04794L4.06609 1.0877L3.9958 1.01621L4.05472 0.976562ZM4.23085 0.989778V1.10248L4.41021 1.28706L4.36416 1.34013L4.17981 1.15042H3.99316L4.23085 0.989778Z" fill="#D22630"/>
<path id="path91" d="M5.18533 0.976562L5.11515 1.04794L5.17396 1.0877L5.24424 1.01621L5.18533 0.976562ZM5.00921 0.989778V1.10248L4.82985 1.28706L4.87591 1.34013L5.06025 1.15042H5.2469L5.00921 0.989778ZM4.05473 1.84007L4.12491 1.76869L4.0661 1.72895L3.99582 1.80044L4.05473 1.84007ZM4.23085 1.82687V1.71417L4.41021 1.52959L4.36417 1.47652L4.17983 1.66623H3.99316L4.23085 1.82687Z" fill="#00843D"/>
<path id="path93" d="M5.10516 1.40862L4.61972 1.76156L4.13428 1.40862L4.61972 1.05566L5.10516 1.40862Z" fill="#383739"/>
<path id="path95" d="M4.61463 1.07324L4.16115 1.40295H5.07859L4.62511 1.07324V1.74409L5.07861 1.41438H4.16113L4.61463 1.74409V1.07324Z" fill="white"/>
<path id="path97" d="M4.7499 1.52924V1.62628H4.49029V1.52924H4.32227V1.28649H4.49029V1.18945H4.7499V1.28649H4.91791V1.52924H4.7499Z" fill="#383739"/>
<path id="path99" d="M4.50053 1.20117V1.29821H4.33252V1.40247H4.61462V1.20117L4.50053 1.20117ZM4.62511 1.40247H4.9072V1.29821H4.7392V1.20117H4.62511L4.62511 1.40247ZM4.33252 1.41389V1.51815H4.50053V1.61519H4.61462V1.41389L4.33252 1.41389ZM4.62511 1.61519H4.7392V1.51815H4.9072V1.41389H4.62511V1.61519Z" fill="#D22630"/>
<path id="path102" d="M5.44824 5.42926V5.27379H5.83906V5.11832H6.22988V3.71349H5.83906V3.55801H5.44824V3.40254H5.05741V3.24707H4.18274V3.40254H3.79191V3.55801H3.40108V3.71349H3.01025V5.11832H3.40108V5.27379H3.79191V5.42926H4.18274V5.58473H5.05741V5.42926H5.44824Z" fill="#383739"/>
<path id="path104" d="M4.19354 3.25879V3.41415H3.80252V3.56952H3.41152V3.72489H3.02051V5.10766H3.41152V5.26305H3.80252V5.41839H4.19354V5.57374H5.04674V5.41839H5.43776V5.26305H5.82879V5.10766H6.21978V3.72489H5.82879V3.56952H5.43776V3.41415H5.04674V3.25879H4.19354ZM4.29712 3.37178H4.94316V3.52715H5.33419V3.68252H5.72521V3.83788H6.1162V4.99466H5.72521V5.15005H5.33419V5.3054H4.94316V5.46074H4.29712V5.3054H3.9061V5.15005H3.5151V4.99466H3.12409V3.83788H3.5151V3.68252H3.9061V3.52715H4.29712V3.37178Z" fill="#FFC72C"/>
<path id="path106" d="M3.91643 5.2935V5.13801H3.5256V4.98256H3.13477V3.84921H3.5256V3.69374H3.91643V3.53827H4.30725V3.38281H4.93305V3.53827H5.32388V3.69374H5.71469V3.84921H6.10553V4.98256H5.71469V5.13801H5.32388V5.2935H4.93305V5.44896H4.30725V5.2935H3.91643Z" fill="#D22630"/>
<path id="path108" d="M4.00709 3.65419L3.90586 3.57072V3.73101L3.80893 3.79821L3.80868 3.69787L3.71571 3.78897L3.62274 3.69787L3.62249 3.79821L3.51507 3.72374V3.87235L3.42826 3.94091L3.42801 3.84979L3.32488 3.93128L3.22174 3.84979L3.2215 3.94091L3.12421 3.86408V4.31425H3.01025V4.51917H3.12421V4.96934L3.2215 4.89249L3.22174 4.98363L3.32488 4.90214L3.428 4.98363L3.42825 4.89249L3.51506 4.96105V5.10968L3.62248 5.03521L3.62273 5.13555L3.7157 5.04445L3.80867 5.13555L3.80892 5.03521L3.90585 5.1024V5.2627L4.00708 5.17923L4.0073 5.29118L4.10651 5.1944L4.20573 5.29118L4.20595 5.17923L4.29671 5.25406V5.42502L4.4324 5.29009V5.44865L4.62008 5.31702L4.80777 5.44865V5.29009L4.94346 5.42502V5.25406L5.03421 5.17923L5.03443 5.29118L5.13365 5.1944L5.23287 5.29118L5.23309 5.17923L5.33429 5.2627V5.1024L5.43125 5.03521L5.43149 5.13555L5.52448 5.04445L5.61745 5.13555L5.61769 5.03521L5.72513 5.10968V4.96105L5.81194 4.89249L5.81218 4.98363L5.91531 4.90214L6.01844 4.98363L6.01869 4.89249L6.11597 4.96933V4.51917H6.22993V4.31425H6.11597V3.86408L6.01869 3.94091L6.01844 3.84979L5.91531 3.93128L5.81217 3.84979L5.81195 3.94091L5.72514 3.87235V3.72374L5.6177 3.79821L5.61746 3.69787L5.52449 3.78897L5.4315 3.69787L5.43126 3.79821L5.3343 3.73099V3.57072L5.2331 3.65417L5.23288 3.54222L5.13366 3.63902L5.03443 3.54222L5.03422 3.65419L4.94347 3.57933V3.4084L4.80778 3.54333V3.38477L4.62009 3.5164L4.43241 3.38477V3.54333L4.29672 3.4084V3.57934L4.20596 3.65419L4.20574 3.54222L4.10652 3.63902L4.00731 3.54222L4.00709 3.65419Z" fill="#383739"/>
<g id="g118">
<path id="path110" d="M3.23171 3.96321L3.23195 3.87207L3.32466 3.94533L3.32778 3.94285L3.41737 3.87207L3.41761 3.96321L3.51485 3.88642V4.9469L3.41761 4.87012L3.41737 4.96125L3.32466 4.88799L3.23195 4.96125L3.23171 4.87012L3.13447 4.9469V4.50769H3.02051V4.32564H3.13447V3.88642L3.23171 3.96321Z" fill="#00843D"/>
<path id="path112" d="M4.01738 3.56738L4.10617 3.65401L4.19497 3.56738L4.19519 3.67677L4.29636 3.59333V5.2394L4.19519 5.15596L4.19497 5.26535L4.10617 5.17873L4.01738 5.26535L4.01719 5.15596L3.91602 5.2394V3.59333L4.01719 3.67677L4.01738 3.56738Z" fill="#00843D"/>
<path id="path114" d="M5.22232 3.56738L5.13353 3.65401L5.04474 3.56738L5.04452 3.67677L4.94336 3.59333V5.2394L5.04452 5.15596L5.04474 5.26535L5.13353 5.17873L5.22232 5.26535L5.22254 5.15596L5.32371 5.2394V3.59333L5.22254 3.67677L5.22232 3.56738Z" fill="#00843D"/>
<path id="path116" d="M6.00824 3.96321L6.008 3.87207L5.91529 3.94533L5.91215 3.94285L5.82257 3.87207L5.82232 3.96321L5.7251 3.88642V4.9469L5.82232 4.87012L5.82257 4.96125L5.91529 4.88799L6.008 4.96125L6.00824 4.87012L6.10547 4.9469V4.50769H6.21943V4.32564H6.10547V3.88642L6.00824 3.96321Z" fill="#00843D"/>
</g>
<g id="g126">
<path id="path120" d="M3.63301 3.72266L3.71557 3.80357L3.79813 3.72266L3.79837 3.81821L3.90575 3.74376V5.0881L3.79837 5.01366L3.79813 5.1092L3.71557 5.0283L3.63301 5.1092L3.63277 5.01366L3.52539 5.0881V3.74376L3.63277 3.81821L3.63301 3.72266Z" fill="#FFC72C"/>
<path id="path122" d="M4.44283 3.56878L4.30713 3.43385V5.39871L4.44283 5.26379V5.42729L4.62001 5.30302H4.62004L4.79723 5.42729V5.26379L4.93293 5.39871V3.43385L4.79723 3.56878V3.40527L4.62004 3.52955H4.62001L4.44283 3.40527V3.56878Z" fill="#FFC72C"/>
<path id="path124" d="M5.60673 3.72266L5.52417 3.80357L5.44159 3.72266L5.44137 3.81821L5.33398 3.74376V5.0881L5.44137 5.01366L5.44159 5.1092L5.52417 5.0283L5.60673 5.1092L5.60697 5.01366L5.71435 5.0881V3.74376L5.60697 3.81821L5.60673 3.72266Z" fill="#FFC72C"/>
</g>
<g id="carp2h">
<g id="carp2q">
<path id="path128" d="M3.28269 4.22336C3.29455 4.23642 3.30873 4.24302 3.32484 4.24302C3.34093 4.24302 3.35511 4.23642 3.36699 4.22336C3.40411 4.18256 3.40536 4.10877 3.40499 4.05566C3.40499 4.05566 3.36208 4.10514 3.35433 4.11406C3.34894 4.10389 3.32484 4.0585 3.32484 4.0585C3.32484 4.0585 3.30074 4.10389 3.29533 4.11406C3.28759 4.10514 3.24467 4.05566 3.24467 4.05566C3.2443 4.10877 3.24556 4.18256 3.28269 4.22336Z" fill="#383739"/>
<path id="path130" d="M3.69048 4.10906L3.65921 4.07498V4.00707L3.5874 4.07968L3.71576 4.21971L3.84413 4.07968L3.77232 4.00707V4.07498L3.74106 4.10906V3.98875L3.79643 3.9369L3.71576 3.86133L3.6351 3.9369L3.69048 3.98875V4.10906Z" fill="#383739"/>
<path id="path132" d="M4.08109 3.97429L4.04984 3.94019V3.87229L3.97803 3.9449L4.10639 4.08493L4.23475 3.9449L4.16294 3.87229V3.94019L4.13167 3.97429V3.85397L4.18706 3.80211L4.10639 3.72656L4.02572 3.80211L4.08109 3.85397V3.97429Z" fill="#383739"/>
<path id="path134" d="M3.32509 4.08105C3.3315 4.09312 3.35254 4.13278 3.35254 4.13278C3.35254 4.13278 3.3822 4.09857 3.39431 4.08464C3.39286 4.14461 3.38079 4.19198 3.3598 4.21504C3.34996 4.22585 3.33829 4.23134 3.32509 4.23134C3.31187 4.23134 3.3002 4.22585 3.29037 4.21505C3.26938 4.19198 3.25731 4.14461 3.25586 4.08464C3.26796 4.09859 3.29762 4.13278 3.29762 4.13278C3.30677 4.11553 3.31593 4.09829 3.32509 4.08105Z" fill="white"/>
<path id="path136" d="M4.12125 3.84832V4.00147L4.17346 3.94452V3.89806L4.21969 3.94481L4.10643 4.06836L3.99316 3.94481L4.03939 3.89806V3.94452L4.09161 4.00147V3.84832L4.04184 3.80171L4.10643 3.74121L4.17101 3.80171L4.12125 3.84832Z" fill="white"/>
<path id="path138" d="M3.73062 3.98406V4.13721L3.78284 4.08025V4.0338L3.82907 4.08054L3.7158 4.2041L3.60254 4.08054L3.64877 4.0338V4.08025L3.70098 4.13721V3.98406L3.65122 3.93745L3.7158 3.87695L3.78039 3.93745L3.73062 3.98406Z" fill="#D22630"/>
</g>
<g id="use141">
<path id="path128_2" d="M5.95755 4.22336C5.94568 4.23642 5.9315 4.24302 5.9154 4.24302C5.89931 4.24302 5.88512 4.23642 5.87324 4.22336C5.83612 4.18256 5.83488 4.10877 5.83524 4.05566C5.83524 4.05566 5.87816 4.10514 5.8859 4.11406C5.8913 4.10389 5.9154 4.0585 5.9154 4.0585C5.9154 4.0585 5.93949 4.10389 5.94491 4.11406C5.95265 4.10514 5.99556 4.05566 5.99556 4.05566C5.99593 4.10877 5.99467 4.18256 5.95755 4.22336Z" fill="#383739"/>
<path id="path130_2" d="M5.54975 4.10906L5.58102 4.07498V4.00707L5.65283 4.07968L5.52447 4.21971L5.39611 4.07968L5.46791 4.00707V4.07498L5.49917 4.10906V3.98875L5.4438 3.9369L5.52447 3.86133L5.60514 3.9369L5.54975 3.98875V4.10906Z" fill="#383739"/>
<path id="path132_2" d="M5.15914 3.97429L5.1904 3.94019V3.87229L5.26221 3.9449L5.13384 4.08493L5.00548 3.9449L5.07729 3.87229V3.94019L5.10856 3.97429V3.85397L5.05318 3.80211L5.13384 3.72656L5.21451 3.80211L5.15914 3.85397V3.97429Z" fill="#383739"/>
<path id="path134_2" d="M5.91515 4.08105C5.90874 4.09312 5.88769 4.13278 5.88769 4.13278C5.88769 4.13278 5.85804 4.09857 5.84592 4.08464C5.84737 4.14461 5.85944 4.19198 5.88043 4.21504C5.89027 4.22585 5.90195 4.23134 5.91515 4.23134C5.92836 4.23134 5.94004 4.22585 5.94986 4.21505C5.97085 4.19198 5.98292 4.14461 5.98438 4.08464C5.97228 4.09859 5.94262 4.13278 5.94262 4.13278C5.93347 4.11553 5.9243 4.09829 5.91515 4.08105Z" fill="white"/>
<path id="path136_2" d="M5.11899 3.84832V4.00147L5.06677 3.94452V3.89806L5.02054 3.94481L5.1338 4.06836L5.24707 3.94481L5.20084 3.89806V3.94452L5.14863 4.00147V3.84832L5.19839 3.80171L5.1338 3.74121L5.06922 3.80171L5.11899 3.84832Z" fill="white"/>
<path id="path138_2" d="M5.50961 3.98406V4.13721L5.4574 4.08025V4.0338L5.41117 4.08054L5.52444 4.2041L5.6377 4.08054L5.59147 4.0338V4.08025L5.53925 4.13721V3.98406L5.58902 3.93745L5.52444 3.87695L5.45985 3.93745L5.50961 3.98406Z" fill="#D22630"/>
</g>
<path id="path143" d="M4.77347 4.02546L4.73142 3.96207L4.83925 3.85348L4.73871 3.76337V3.8272L4.69666 3.86645V3.75066L4.79164 3.67429L4.61982 3.53613L4.448 3.67429L4.543 3.75066V3.86645L4.50095 3.8272V3.76337L4.40039 3.85348L4.50823 3.96207L4.46619 4.02546H4.77347Z" fill="#383739"/>
<path id="path145" d="M4.48686 4.01448L4.52232 3.96099L4.4165 3.85443L4.49061 3.788V3.83291L4.55362 3.89173V3.74533L4.46581 3.67473L4.61997 3.55078L4.77414 3.67473L4.68634 3.74533V3.89173L4.74933 3.83291V3.788L4.82346 3.85443L4.71764 3.96099L4.75312 4.01448H4.48686Z" fill="#D22630"/>
<path id="path147" d="M4.5415 3.67446L4.62001 3.73758L4.69854 3.67446L4.62001 3.61133L4.61691 3.61384L4.5415 3.67446Z" fill="#383739"/>
<path id="path149" d="M4.61993 3.625C4.62513 3.62916 4.67162 3.66655 4.6808 3.67393C4.67162 3.6813 4.62513 3.7187 4.61993 3.72286C4.61476 3.7187 4.56825 3.6813 4.55908 3.67393C4.56825 3.66655 4.61476 3.62916 4.61993 3.625Z" fill="#00843D"/>
</g>
<g id="use152">
<g id="carp2q_2">
<path id="path128_3" d="M3.28269 4.60965C3.29455 4.59659 3.30873 4.58998 3.32484 4.58998C3.34093 4.58998 3.35511 4.59659 3.36699 4.60965C3.40411 4.65045 3.40536 4.72424 3.40499 4.77734C3.40499 4.77734 3.36208 4.72787 3.35433 4.71894C3.34894 4.72912 3.32484 4.77451 3.32484 4.77451C3.32484 4.77451 3.30074 4.72912 3.29533 4.71894C3.28759 4.72787 3.24467 4.77734 3.24467 4.77734C3.2443 4.72424 3.24556 4.65045 3.28269 4.60965Z" fill="#383739"/>
<path id="path130_3" d="M3.69048 4.72395L3.65921 4.75803V4.82594L3.5874 4.75333L3.71576 4.6133L3.84413 4.75333L3.77232 4.82594V4.75803L3.74106 4.72395V4.84426L3.79643 4.89611L3.71576 4.97168L3.6351 4.89611L3.69048 4.84426V4.72395Z" fill="#383739"/>
<path id="path132_3" d="M4.08109 4.85872L4.04984 4.89281V4.96072L3.97803 4.88811L4.10639 4.74808L4.23475 4.88811L4.16294 4.96072V4.89281L4.13167 4.85872V4.97904L4.18706 5.03089L4.10639 5.10645L4.02572 5.03089L4.08109 4.97904V4.85872Z" fill="#383739"/>
<path id="path134_3" d="M3.32509 4.75195C3.3315 4.73989 3.35254 4.70023 3.35254 4.70023C3.35254 4.70023 3.3822 4.73443 3.39431 4.74837C3.39286 4.6884 3.38079 4.64103 3.3598 4.61797C3.34996 4.60715 3.33829 4.60167 3.32509 4.60167C3.31187 4.60167 3.3002 4.60715 3.29037 4.61795C3.26938 4.64103 3.25731 4.6884 3.25586 4.74837C3.26796 4.73442 3.29762 4.70023 3.29762 4.70023C3.30677 4.71747 3.31593 4.73472 3.32509 4.75195Z" fill="white"/>
<path id="path136_3" d="M4.12125 4.98469V4.83154L4.17346 4.88848V4.93495L4.21969 4.8882L4.10643 4.76464L3.99316 4.8882L4.03939 4.93495V4.88848L4.09161 4.83154V4.98469L4.04184 5.0313L4.10643 5.0918L4.17101 5.0313L4.12125 4.98469Z" fill="white"/>
<path id="path138_3" d="M3.73062 4.84895V4.6958L3.78284 4.75276V4.79921L3.82907 4.75247L3.7158 4.6289L3.60254 4.75247L3.64877 4.79921V4.75276L3.70098 4.6958V4.84895L3.65122 4.89556L3.7158 4.95605L3.78039 4.89556L3.73062 4.84895Z" fill="#D22630"/>
</g>
<g id="use141_2">
<path id="path128_4" d="M5.95755 4.60965C5.94568 4.59659 5.9315 4.58998 5.9154 4.58998C5.89931 4.58998 5.88512 4.59659 5.87324 4.60965C5.83612 4.65045 5.83488 4.72424 5.83524 4.77734C5.83524 4.77734 5.87816 4.72787 5.8859 4.71894C5.8913 4.72912 5.9154 4.77451 5.9154 4.77451C5.9154 4.77451 5.93949 4.72912 5.94491 4.71894C5.95265 4.72787 5.99556 4.77734 5.99556 4.77734C5.99593 4.72424 5.99467 4.65045 5.95755 4.60965Z" fill="#383739"/>
<path id="path130_4" d="M5.54975 4.72395L5.58102 4.75803V4.82594L5.65283 4.75333L5.52447 4.6133L5.39611 4.75333L5.46791 4.82594V4.75803L5.49917 4.72395V4.84426L5.4438 4.89611L5.52447 4.97168L5.60514 4.89611L5.54975 4.84426V4.72395Z" fill="#383739"/>
<path id="path132_4" d="M5.15914 4.85872L5.1904 4.89281V4.96072L5.26221 4.88811L5.13384 4.74808L5.00548 4.88811L5.07729 4.96072V4.89281L5.10856 4.85872V4.97904L5.05318 5.03089L5.13384 5.10645L5.21451 5.03089L5.15914 4.97904V4.85872Z" fill="#383739"/>
<path id="path134_4" d="M5.91515 4.75195C5.90874 4.73989 5.88769 4.70023 5.88769 4.70023C5.88769 4.70023 5.85804 4.73443 5.84592 4.74837C5.84737 4.6884 5.85944 4.64103 5.88043 4.61797C5.89027 4.60715 5.90195 4.60167 5.91515 4.60167C5.92836 4.60167 5.94004 4.60715 5.94986 4.61795C5.97085 4.64103 5.98292 4.6884 5.98438 4.74837C5.97228 4.73442 5.94262 4.70023 5.94262 4.70023C5.93347 4.71747 5.9243 4.73472 5.91515 4.75195Z" fill="white"/>
<path id="path136_4" d="M5.11899 4.98469V4.83154L5.06677 4.88848V4.93495L5.02054 4.8882L5.1338 4.76464L5.24707 4.8882L5.20084 4.93495V4.88848L5.14863 4.83154V4.98469L5.19839 5.0313L5.1338 5.0918L5.06922 5.0313L5.11899 4.98469Z" fill="white"/>
<path id="path138_4" d="M5.50961 4.84895V4.6958L5.4574 4.75276V4.79921L5.41117 4.75247L5.52444 4.6289L5.6377 4.75247L5.59147 4.79921V4.75276L5.53925 4.6958V4.84895L5.58902 4.89556L5.52444 4.95605L5.45985 4.89556L5.50961 4.84895Z" fill="#D22630"/>
</g>
<path id="path143_2" d="M4.77347 4.80755L4.73142 4.87094L4.83925 4.97953L4.73871 5.06964V5.0058L4.69666 4.96656V5.08235L4.79164 5.15872L4.61982 5.29688L4.448 5.15872L4.543 5.08235V4.96656L4.50095 5.0058V5.06964L4.40039 4.97953L4.50823 4.87094L4.46619 4.80755H4.77347Z" fill="#383739"/>
<path id="path145_2" d="M4.48686 4.81853L4.52232 4.87202L4.4165 4.97858L4.49061 5.04501V5.0001L4.55362 4.94128V5.08768L4.46581 5.15827L4.61997 5.28223L4.77414 5.15827L4.68634 5.08768V4.94128L4.74933 5.0001V5.04501L4.82346 4.97858L4.71764 4.87202L4.75312 4.81853H4.48686Z" fill="#D22630"/>
<path id="path147_2" d="M4.5415 5.15854L4.62001 5.09542L4.69854 5.15854L4.62001 5.22168L4.61691 5.21917L4.5415 5.15854Z" fill="#383739"/>
<path id="path149_2" d="M4.61993 5.20801C4.62513 5.20385 4.67162 5.16646 4.6808 5.15908C4.67162 5.1517 4.62513 5.11431 4.61993 5.11015C4.61476 5.11431 4.56825 5.1517 4.55908 5.15908C4.56825 5.16646 4.61476 5.20385 4.61993 5.20801Z" fill="#00843D"/>
</g>
<path id="path154" d="M6.01101 4.35076H5.83898V4.27596H5.31317L4.94713 4.01367H4.94558H4.29288L3.92686 4.27596H3.40103V4.35076H3.229V4.4819H3.40103V4.5567H3.92686L4.29288 4.819H4.94713L5.31317 4.5567H5.83898V4.4819H6.01101V4.35076Z" fill="#383739"/>
<path id="path156" d="M4.29575 4.02539L3.92935 4.28669H3.41146V4.36155H3.23926V4.47031H3.41146V4.54516H3.92935L4.29575 4.80788H4.94441L5.30952 4.54516H5.8287V4.47031H6.0009V4.36155H5.8287V4.28669H5.30952L4.94441 4.02539H4.29575ZM4.30352 4.06353H4.93535L5.27068 4.30364V4.34036H5.64486V4.4929H5.27068V4.52963L4.93535 4.76833H4.30352L3.96948 4.52963V4.4929H3.59401V4.34036H3.96948V4.30364L4.30352 4.06353Z" fill="#D22630"/>
<path id="path158" d="M4.93268 4.0752L5.25972 4.30942V4.35099H5.6345V4.48113H5.25972V4.52272L4.93268 4.75694H4.3068L3.97976 4.52272V4.48113H3.60498V4.35099H3.97976V4.30942L4.3068 4.0752H4.93268Z" fill="#D22630"/>
<g id="g176">
<path id="path160" d="M4.14453 4.54907L4.28614 4.66504L4.37929 4.58874L4.32514 4.54438L4.28614 4.57634L4.25284 4.54907L4.78611 4.1123H4.67781L4.14453 4.54907ZM4.45363 4.71976H4.56193L5.09521 4.28299L4.95362 4.16704L4.86046 4.24333L4.9146 4.28766L4.95362 4.25571L4.98691 4.28299L4.45363 4.71976ZM4.67781 4.71976H4.7861L4.25284 4.28299L4.28614 4.25571L4.32514 4.28766L4.37929 4.24333L4.28614 4.16704L4.14453 4.28299L4.67781 4.71976ZM4.98691 4.54907L4.95362 4.57634L4.9146 4.54438L4.86046 4.58874L4.95362 4.66504L5.09521 4.54907L4.56193 4.1123H4.45363L4.98691 4.54907Z" fill="#383739"/>
<path id="path162" d="M4.03711 4.41564L4.13228 4.4846L4.22745 4.41564L4.13228 4.34668L4.03711 4.41564Z" fill="#383739"/>
<path id="path164" d="M4.52441 4.41564L4.61959 4.4846L4.71476 4.41564L4.61959 4.34668L4.52441 4.41564Z" fill="#383739"/>
<path id="path166" d="M5.20255 4.41564L5.10738 4.4846L5.01221 4.41564L5.10738 4.34668L5.20255 4.41564Z" fill="#383739"/>
<path id="path168" d="M5.07739 4.54935L4.95325 4.65103L4.87753 4.58902L4.91424 4.55895L4.95325 4.5909L5.00399 4.54935L4.48467 4.12402H4.55808L5.07739 4.54935ZM4.75433 4.7086H4.68094L4.16162 4.28327L4.28577 4.18159L4.36147 4.24361L4.32477 4.27366L4.28577 4.2417L4.23503 4.28327L4.75433 4.7086ZM4.55808 4.7086H4.48467L5.00399 4.28327L4.95325 4.2417L4.91424 4.27366L4.87753 4.24361L4.95325 4.18159L5.07739 4.28327L4.55808 4.7086ZM4.68094 4.12402H4.75433L4.23503 4.54935L4.28577 4.5909L4.32477 4.55895L4.36147 4.58902L4.28577 4.65103L4.16162 4.54935L4.68094 4.12402Z" fill="#FFC72C"/>
<path id="path170" d="M4.13239 4.36035L4.20863 4.41558L4.13239 4.47082L4.05615 4.41558L4.13239 4.36035Z" fill="#00843D"/>
<path id="path172" d="M4.61968 4.36035L4.69592 4.41558L4.61968 4.47082L4.54346 4.41558L4.61968 4.36035Z" fill="#00843D"/>
<path id="path174" d="M5.107 4.36035L5.03076 4.41558L5.107 4.47082L5.18322 4.41558L5.107 4.36035Z" fill="#00843D"/>
</g>
<g id="g219">
<path id="path179" d="M2.94605 7.31087L2.90871 7.36849L2.97564 7.42433L2.90869 7.48018L2.94603 7.5378L3.02381 7.54765L3.09912 7.48417L3.2869 7.61429V7.50623L3.16872 7.42433L3.2869 7.34244V7.23438L3.09912 7.3645L3.02381 7.30103L2.94605 7.31087Z" fill="#383739"/>
<path id="path181" d="M2.94605 6.93489L2.90871 6.99253L2.97564 7.04837L2.90869 7.10421L2.94603 7.16184L3.02381 7.17168L3.09912 7.10819L3.2869 7.23833V7.13025L3.16872 7.04837L3.2869 6.96646V6.8584L3.09912 6.98853L3.02381 6.92505L2.94605 6.93489Z" fill="#383739"/>
<path id="path183" d="M2.94605 7.9128L2.90871 7.85518L2.97564 7.79934L2.90869 7.74349L2.94603 7.68587L3.02381 7.67603L3.09912 7.7395L3.2869 7.60938V7.71744L3.16872 7.79934L3.2869 7.88123V7.9893L3.09912 7.85917L3.02381 7.92266L2.94605 7.9128Z" fill="#383739"/>
<path id="path185" d="M6.29399 7.31087L6.33133 7.36849L6.2644 7.42433L6.33133 7.48018L6.29399 7.5378L6.21623 7.54765L6.14092 7.48417L5.95312 7.61429V7.50623L6.07132 7.42433L5.95312 7.34244V7.23438L6.14092 7.3645L6.21623 7.30103L6.29399 7.31087Z" fill="#383739"/>
<path id="path187" d="M6.29399 6.93489L6.33133 6.99253L6.2644 7.04837L6.33133 7.10421L6.29399 7.16184L6.21623 7.17168L6.14092 7.10819L5.95312 7.23833V7.13025L6.07132 7.04837L5.95312 6.96646V6.8584L6.14092 6.98853L6.21623 6.92505L6.29399 6.93489Z" fill="#383739"/>
<path id="path189" d="M6.29399 7.9128L6.33133 7.85518L6.2644 7.79934L6.33133 7.74349L6.29399 7.68587L6.21623 7.67603L6.14092 7.7395L5.95312 7.60938V7.71744L6.07132 7.79934L5.95312 7.88123V7.9893L6.14092 7.85917L6.21623 7.92266L6.29399 7.9128Z" fill="#383739"/>
<path id="path191" d="M5.54248 6.28613V6.44229H5.6466V6.5113H5.74888V6.38564H5.65766V6.28613H5.54248Z" fill="#383739"/>
<path id="path193" d="M5.84912 6.53223V6.68837H5.95314V6.75739H6.05553V6.63173H5.96431V6.53223H5.84912Z" fill="#383739"/>
<path id="path195" d="M3.69761 6.28613V6.44229H3.59347V6.5113H3.49121V6.38564H3.58242V6.28613H3.69761Z" fill="#383739"/>
<path id="path197" d="M5.54248 8.56208V8.40592H5.6466V8.33691H5.74888V8.46256H5.65766V8.56208H5.54248Z" fill="#383739"/>
<path id="path199" d="M3.69761 8.56208V8.40592H3.59347V8.33691H3.49121V8.46256H3.58242V8.56208H3.69761Z" fill="#383739"/>
<path id="path201" d="M5.84912 8.31599V8.15984H5.95314V8.09082H6.05553V8.21647H5.96431V8.31599H5.84912Z" fill="#383739"/>
<path id="path203" d="M3.39097 6.53223V6.68837H3.28693V6.75739H3.18457V6.63173H3.27578V6.53223H3.39097Z" fill="#383739"/>
<path id="path205" d="M3.39097 8.31599V8.15984H3.28693V8.09082H3.18457V8.21647H3.27578V8.31599H3.39097Z" fill="#383739"/>
<path id="path207" d="M5.00543 6.2824C4.99879 6.27536 4.92597 6.19824 4.92597 6.19824L4.84791 6.27714C4.84791 6.27714 4.90907 6.34189 4.91595 6.34919L4.82812 6.44219H4.95851L5.00543 6.3925L5.05235 6.44219H5.18272L5.0949 6.34919C5.10178 6.34189 5.16292 6.27714 5.16292 6.27714L5.08488 6.19824C5.05836 6.22626 5.0319 6.25434 5.00543 6.2824Z" fill="#383739"/>
<path id="path209" d="M4.62016 6.2824C4.61353 6.27536 4.54071 6.19824 4.54071 6.19824L4.46266 6.27714C4.46266 6.27714 4.5238 6.34189 4.5307 6.34919L4.44287 6.44219H4.57324L4.62016 6.3925L4.66708 6.44219H4.79745L4.70964 6.34919C4.71652 6.34189 4.77767 6.27714 4.77767 6.27714L4.69963 6.19824C4.67311 6.22626 4.64665 6.25434 4.62016 6.2824Z" fill="#383739"/>
<path id="path211" d="M4.23491 6.2824C4.24155 6.27536 4.31437 6.19824 4.31437 6.19824L4.39243 6.27714C4.39243 6.27714 4.33127 6.34189 4.32439 6.34919L4.41221 6.44219H4.28183L4.23491 6.3925L4.18799 6.44219H4.05762L4.14544 6.34919C4.13856 6.34189 4.0774 6.27714 4.0774 6.27714L4.15546 6.19824C4.18198 6.22626 4.20843 6.25434 4.23491 6.2824Z" fill="#383739"/>
<path id="path213" d="M5.00543 8.56604C4.99879 8.57307 4.92597 8.65019 4.92597 8.65019L4.84791 8.57129C4.84791 8.57129 4.90907 8.50655 4.91595 8.49926L4.82812 8.40625H4.95851L5.00543 8.45595L5.05235 8.40625H5.18272L5.0949 8.49926C5.10178 8.50655 5.16292 8.57129 5.16292 8.57129L5.08488 8.65019C5.05836 8.62217 5.0319 8.59409 5.00543 8.56604Z" fill="#383739"/>
<path id="path215" d="M4.62016 8.56604C4.61353 8.57307 4.54071 8.65019 4.54071 8.65019L4.46266 8.57129C4.46266 8.57129 4.5238 8.50655 4.5307 8.49926L4.44287 8.40625H4.57324L4.62016 8.45595L4.66708 8.40625H4.79745L4.70964 8.49926C4.71652 8.50655 4.77767 8.57129 4.77767 8.57129L4.69963 8.65019C4.67311 8.62217 4.64665 8.59409 4.62016 8.56604Z" fill="#383739"/>
<path id="path217" d="M4.23491 8.56604C4.24155 8.57307 4.31437 8.65019 4.31437 8.65019L4.39243 8.57129C4.39243 8.57129 4.33127 8.50655 4.32439 8.49926L4.41221 8.40625H4.28183L4.23491 8.45595L4.18799 8.40625H4.05762L4.14544 8.49926C4.13856 8.50655 4.0774 8.57129 4.0774 8.57129L4.15546 8.65019C4.18198 8.62217 4.20843 8.59409 4.23491 8.56604Z" fill="#383739"/>
</g>
<g id="g261">
<path id="path221" d="M3.2762 7.51223V7.5932L3.09829 7.46992L3.02055 7.53548L2.95166 7.52676L2.92285 7.48229L2.99266 7.42405L2.92285 7.36581L2.95167 7.32135L3.02055 7.31263L3.09829 7.37816L3.2762 7.25488V7.33586L3.14894 7.42405L3.2762 7.51223Z" fill="#00843D"/>
<path id="path223" d="M3.2762 7.13623V7.21723L3.09829 7.09395L3.02055 7.15948L2.95166 7.15076L2.92285 7.1063L2.99266 7.04806L2.92285 6.98983L2.95167 6.94537L3.02055 6.93663L3.09829 7.00217L3.2762 6.87891V6.95988L3.14894 7.04806L3.2762 7.13623Z" fill="#00843D"/>
<path id="path225" d="M3.2762 7.71086V7.62988L3.09829 7.75316L3.02055 7.68761L2.95166 7.69633L2.92285 7.7408L2.99266 7.79903L2.92285 7.85728L2.95167 7.90174L3.02055 7.91046L3.09829 7.84492L3.2762 7.9682V7.88723L3.14894 7.79903L3.2762 7.71086Z" fill="#00843D"/>
<path id="path227" d="M5.96338 7.51223V7.5932L6.14129 7.46992L6.21902 7.53548L6.28791 7.52676L6.31671 7.48229L6.2469 7.42405L6.31671 7.36581L6.28791 7.32135L6.21902 7.31263L6.14129 7.37816L5.96338 7.25488V7.33586L6.09063 7.42405L5.96338 7.51223Z" fill="#00843D"/>
<path id="path229" d="M5.96338 7.13623V7.21723L6.14129 7.09395L6.21902 7.15948L6.28791 7.15076L6.31671 7.1063L6.2469 7.04806L6.31671 6.98983L6.28791 6.94537L6.21902 6.93663L6.14129 7.00217L5.96338 6.87891V6.95988L6.09063 7.04806L5.96338 7.13623Z" fill="#00843D"/>
<path id="path231" d="M5.96338 7.71086V7.62988L6.14129 7.75316L6.21902 7.68761L6.28791 7.69633L6.31671 7.7408L6.2469 7.79903L6.31671 7.85728L6.28791 7.90174L6.21902 7.91046L6.14129 7.84492L5.96338 7.9682V7.88723L6.09063 7.79903L5.96338 7.71086Z" fill="#00843D"/>
<path id="path233" d="M5.64697 6.29688V6.3964H5.73818V6.4992H5.65687V6.43019H5.55273V6.29688H5.64697Z" fill="#00843D"/>
<path id="path235" d="M5.95361 6.54395V6.64345H6.04482V6.74627H5.96349V6.67726H5.85938V6.54395H5.95361Z" fill="#00843D"/>
<path id="path237" d="M3.59268 6.29688V6.3964H3.50146V6.4992H3.58279V6.43019H3.68691V6.29688H3.59268Z" fill="#00843D"/>
<path id="path239" d="M5.64697 8.55094V8.45143H5.73818V8.34863H5.65687V8.41764H5.55273V8.55094H5.64697Z" fill="#00843D"/>
<path id="path241" d="M3.59269 8.55094V8.45143H3.50146V8.34863H3.58279V8.41764H3.68692V8.55094H3.59269Z" fill="#00843D"/>
<path id="path243" d="M5.95361 8.30387V8.20436H6.04482V8.10156H5.96349V8.17057H5.85938V8.30387H5.95361Z" fill="#00843D"/>
<path id="path245" d="M3.28604 6.54395V6.64345H3.19482V6.74627H3.27615V6.67726H3.38027V6.54395H3.28604Z" fill="#00843D"/>
<path id="path247" d="M3.28605 8.30387V8.20436H3.19482V8.10156H3.27615V8.17057H3.38028V8.30387H3.28605Z" fill="#00843D"/>
<path id="path249" d="M4.92535 6.21387C4.93185 6.22075 5.00498 6.29819 5.00498 6.29819C5.00498 6.29819 5.07809 6.22075 5.08459 6.21387C5.09075 6.22008 5.14045 6.27031 5.14726 6.27719C5.14022 6.28463 5.0794 6.34905 5.0794 6.34905L5.15643 6.43064H5.05615L5.00498 6.37643L4.95379 6.43064H4.85352L4.93055 6.34905C4.93055 6.34905 4.86972 6.28463 4.86268 6.27719C4.86949 6.27031 4.91919 6.22008 4.92535 6.21387Z" fill="#00843D"/>
<path id="path251" d="M4.54011 6.21387C4.54661 6.22075 4.61972 6.29819 4.61972 6.29819C4.61972 6.29819 4.69284 6.22075 4.69935 6.21387C4.70551 6.22008 4.7552 6.27031 4.76201 6.27719C4.75498 6.28463 4.69416 6.34905 4.69416 6.34905L4.77119 6.43064H4.6709L4.61972 6.37643L4.56855 6.43064H4.46826L4.54529 6.34905C4.54529 6.34905 4.48447 6.28463 4.47744 6.27719C4.48425 6.27031 4.53395 6.22008 4.54011 6.21387Z" fill="#00843D"/>
<path id="path253" d="M4.31457 6.21387C4.30806 6.22075 4.23494 6.29819 4.23494 6.29819C4.23494 6.29819 4.16183 6.22075 4.15533 6.21387C4.14917 6.22008 4.09947 6.27031 4.09266 6.27719C4.0997 6.28463 4.16053 6.34905 4.16053 6.34905L4.0835 6.43064H4.18377L4.23494 6.37643L4.28613 6.43064H4.38641L4.30938 6.34905C4.30938 6.34905 4.3702 6.28463 4.37724 6.27719C4.37043 6.27031 4.32073 6.22008 4.31457 6.21387Z" fill="#00843D"/>
<path id="path255" d="M4.92535 8.63376C4.93185 8.62686 5.00498 8.54942 5.00498 8.54942C5.00498 8.54942 5.07809 8.62686 5.08459 8.63376C5.09075 8.62754 5.14045 8.5773 5.14726 8.57043C5.14022 8.56298 5.0794 8.49858 5.0794 8.49858L5.15643 8.41699H5.05615L5.00498 8.47118L4.95379 8.41699H4.85352L4.93055 8.49858C4.93055 8.49858 4.86972 8.56298 4.86268 8.57043C4.86949 8.5773 4.91919 8.62754 4.92535 8.63376Z" fill="#00843D"/>
<path id="path257" d="M4.54011 8.63376C4.54661 8.62686 4.61972 8.54942 4.61972 8.54942C4.61972 8.54942 4.69284 8.62686 4.69935 8.63376C4.70551 8.62754 4.7552 8.5773 4.76201 8.57043C4.75498 8.56298 4.69416 8.49858 4.69416 8.49858L4.77119 8.41699H4.6709L4.61972 8.47118L4.56855 8.41699H4.46826L4.54529 8.49858C4.54529 8.49858 4.48447 8.56298 4.47744 8.57043C4.48425 8.5773 4.53395 8.62754 4.54011 8.63376Z" fill="#00843D"/>
<path id="path259" d="M4.31457 8.63376C4.30806 8.62686 4.23494 8.54942 4.23494 8.54942C4.23494 8.54942 4.16183 8.62686 4.15533 8.63376C4.14917 8.62754 4.09947 8.5773 4.09266 8.57043C4.0997 8.56298 4.16053 8.49858 4.16053 8.49858L4.0835 8.41699H4.18377L4.23494 8.47118L4.28613 8.41699H4.38641L4.30938 8.49858C4.30938 8.49858 4.3702 8.56298 4.37724 8.57043C4.37043 8.5773 4.32073 8.62754 4.31457 8.63376Z" fill="#00843D"/>
</g>
<path id="path263" d="M3.58316 8.17102V8.41726H5.65693V8.17102H5.96373V6.6769H5.65693V6.43066H3.58316V6.6769H3.27637V8.17102H3.58316Z" fill="#383739"/>
<path id="path265" d="M3.59396 6.4424V6.68818H3.28711V8.15991H3.59396V8.40569H5.64609V8.15991H5.95297V6.68817H5.64609V6.44238L3.59396 6.4424ZM3.72602 6.53704H5.51405V6.77433L5.58784 6.83367H5.86622V8.01586H5.58655L5.51405 8.07376V8.31245H3.72602V8.07516L3.65222 8.01586H3.37256V6.83367H3.65093L3.72602 6.77433L3.72602 6.53704Z" fill="#FFC72C"/>
<path id="path267" d="M3.73645 6.54785V6.76539L4.00576 6.54785H3.73645ZM5.23314 6.54785L5.50244 6.76539V6.54785H5.23314ZM3.38428 6.84448V7.04787L3.63805 6.84448H3.38428ZM5.60088 6.84448L5.85593 7.04927V6.84448H5.60088ZM5.85593 7.79784L5.60088 8.00408H5.85593V7.79784ZM3.38428 7.79924V8.00407H3.63805L3.38428 7.79924ZM3.73644 8.08317V8.29926H4.00445L3.73644 8.08317ZM5.50243 8.08317L5.23445 8.29926H5.50243V8.08317Z" fill="#D22630"/>
<path id="path269" d="M5.21582 6.54785C5.21857 6.55006 5.85175 7.06024 5.85596 7.06363V7.7839C5.85175 7.78731 5.21857 8.29747 5.21582 8.29969H4.02392C4.02117 8.29747 3.388 7.78731 3.38379 7.7839V7.06363C3.388 7.06024 4.02117 6.55006 4.02392 6.54785H5.21582Z" fill="#00843D"/>
<path id="path271" d="M3.53649 7.86765L3.46289 7.77446L3.53199 7.68699L3.46289 7.59952L3.53199 7.51206L3.46289 7.42459L3.53199 7.33712L3.46289 7.24965L3.53197 7.16217L3.46289 7.0747L3.53649 6.98153H5.70377L5.77736 7.0747L5.70827 7.16217L5.77736 7.24965L5.70827 7.33712L5.77736 7.42459L5.70827 7.51206L5.77736 7.59952L5.70827 7.68699L5.77736 7.77446L5.70377 7.86765H3.53649ZM5.02627 6.66134L4.94085 6.58105L4.86065 6.65643L4.78049 6.58105L4.7003 6.65643L4.62012 6.58105L4.53994 6.65643L4.45975 6.58105L4.37959 6.65643L4.2994 6.58105L4.21399 6.66134V8.18782L4.2994 8.26813L4.37959 8.19275L4.45975 8.26811L4.53994 8.19273L4.62012 8.26811L4.7003 8.19273L4.78049 8.26811L4.86065 8.19275L4.94085 8.26813L5.02627 8.18782V6.66134Z" fill="#383739"/>
<g id="g283">
<path id="path273" d="M4.85545 6.66615L4.78051 6.5957L4.70557 6.66615V8.18215L4.78051 8.25258L4.85545 8.18215V6.66615Z" fill="#FFC72C"/>
<path id="path275" d="M4.53464 6.66615L4.4597 6.5957L4.38477 6.66615V8.18215L4.4597 8.25258L4.53464 8.18215V6.66615Z" fill="#FFC72C"/>
<path id="path277" d="M3.54113 7.8559L3.47656 7.77414L3.54113 7.69238H5.69881L5.76337 7.77414L5.69881 7.8559H3.54113Z" fill="#FFC72C"/>
<path id="path279" d="M5.6988 7.34277L5.76337 7.42453L5.6988 7.50628H3.54114L3.47656 7.42453L3.54114 7.34277H5.6988Z" fill="#FFC72C"/>
<path id="path281" d="M5.69881 7.15569L5.76337 7.07393L5.69881 6.99219H3.54113L3.47656 7.07393L3.54113 7.15569H5.69881Z" fill="#FFC72C"/>
</g>
<g id="g295">
<path id="path285" d="M5.0156 6.66615L4.94067 6.5957L4.86572 6.66615V8.18215L4.94067 8.25258L5.01558 8.18217L5.0156 6.66615Z" fill="#D22630"/>
<path id="path287" d="M4.37401 6.66615L4.29907 6.5957L4.22412 6.66615V8.18215L4.29907 8.25258L4.37401 8.18215V6.66615Z" fill="#D22630"/>
<path id="path289" d="M3.54114 7.6811L3.47656 7.59934L3.54114 7.51758H5.6988L5.76337 7.59934L5.6988 7.6811H3.54114Z" fill="#D22630"/>
<path id="path291" d="M3.54114 7.33051L3.47656 7.24875L3.54114 7.16699H5.6988L5.76337 7.24875L5.6988 7.33051H3.54114Z" fill="#D22630"/>
<path id="path293" d="M4.69481 8.18215L4.61987 8.25258L4.54492 8.18215V6.66615L4.61987 6.5957L4.69481 6.66615V8.18215Z" fill="#D22630"/>
</g>
<path id="path297" d="M5.34437 6.69531H3.8904V6.82128H3.70459V8.02621H3.8904V8.15216H5.3496V8.02621H5.53542V6.82128H5.3496V6.69531H5.34437Z" fill="#383739"/>
<path id="path299" d="M3.9008 6.70801V6.83375H3.71436V8.01594H3.9008V8.14164H4.05358L3.74932 7.8634V6.98625L4.05358 6.70801H3.9008ZM5.18648 6.70801L5.48943 6.98625V7.8634L5.18648 8.14163H5.33924V8.01594H5.5244V6.83375H5.33924V6.70801L5.18648 6.70801Z" fill="#D22630"/>
<g id="g327">
<path id="path301" d="M4.0705 6.70801C4.06763 6.71065 3.76345 6.98855 3.75977 6.99191V7.85772C3.76345 7.8611 4.06763 8.13898 4.0705 8.14162H5.16972C5.17261 8.13898 5.47548 7.86108 5.47916 7.85772V6.99191C5.47548 6.98855 5.17261 6.71065 5.16972 6.70801H4.0705ZM4.08604 6.75603H5.15289L5.43514 7.0145V7.83512L5.15289 8.09219H4.08604L3.80508 7.83512V7.0145L4.08604 6.75603Z" fill="#00843D"/>
<path id="path303" d="M4.36853 7.84766L4.41629 7.87017L4.42507 7.93102L4.36495 7.98871L4.45228 8.08082H4.36825L4.30818 8.01774L4.24809 8.08082H4.16406L4.2514 7.98871L4.19127 7.93102L4.20007 7.87017L4.24781 7.84766L4.30818 7.90031L4.31145 7.89746L4.36853 7.84766Z" fill="#00843D"/>
<path id="path305" d="M4.68007 7.84766L4.72781 7.87017L4.73661 7.93102L4.67649 7.98871L4.76382 8.08082H4.67979L4.6197 8.01774L4.55963 8.08082H4.47559L4.56293 7.98871L4.50281 7.93102L4.51161 7.87017L4.55935 7.84766L4.6197 7.90031L4.62297 7.89746L4.68007 7.84766Z" fill="#00843D"/>
<path id="path307" d="M4.87134 7.84766L4.8236 7.87017L4.8148 7.93102L4.87492 7.98871L4.7876 8.08082H4.87162L4.93171 8.01774L4.99179 8.08082H5.07581L4.98849 7.98871L5.04861 7.93102L5.03981 7.87017L4.99207 7.84766L4.93171 7.90031L4.92843 7.89746L4.87134 7.84766Z" fill="#00843D"/>
<path id="path309" d="M4.36853 7.00073L4.41629 6.97822L4.42507 6.91739L4.36495 6.85969L4.45228 6.76758H4.36825L4.30818 6.83065L4.24809 6.76758H4.16406L4.2514 6.85969L4.19127 6.91737L4.20007 6.97822L4.24781 7.00073L4.30818 6.94809L4.31145 6.95094L4.36853 7.00073Z" fill="#00843D"/>
<path id="path311" d="M4.68007 7.00073L4.72781 6.97822L4.73661 6.91739L4.67649 6.85969L4.76382 6.76758H4.67979L4.6197 6.83065L4.55963 6.76758H4.47559L4.56293 6.85969L4.50281 6.91737L4.51161 6.97822L4.55935 7.00073L4.6197 6.94809L4.62297 6.95094L4.68007 7.00073Z" fill="#00843D"/>
<path id="path313" d="M4.87134 7.00073L4.8236 6.97822L4.8148 6.91739L4.87492 6.85969L4.7876 6.76758H4.87162L4.93171 6.83065L4.99179 6.76758H5.07581L4.98849 6.85969L5.04861 6.91737L5.03981 6.97822L4.99207 7.00073L4.93171 6.94809L4.92843 6.95094L4.87134 7.00073Z" fill="#00843D"/>
<path id="path315" d="M5.42436 7.09773L5.3767 7.14078L5.42436 7.18382V7.2552L5.35106 7.1893C5.35106 7.1893 5.30176 7.23802 5.29845 7.2413C5.29423 7.24072 5.24673 7.23421 5.24204 7.23357C5.23994 7.22936 5.22512 7.19953 5.22217 7.19357C5.22708 7.18822 5.27071 7.14078 5.27071 7.14078C5.27071 7.14078 5.22708 7.09333 5.22217 7.08798C5.22512 7.08202 5.23994 7.05218 5.24204 7.04798C5.24673 7.04734 5.29423 7.04082 5.29845 7.04024C5.30176 7.04352 5.35106 7.09226 5.35106 7.09226L5.42436 7.02637V7.09773Z" fill="#00843D"/>
<path id="path317" d="M5.42436 7.38191L5.3767 7.42496L5.42436 7.46799V7.53938L5.35106 7.47347C5.35106 7.47347 5.30176 7.52219 5.29845 7.52547C5.29423 7.5249 5.24673 7.51837 5.24204 7.51775C5.23994 7.51354 5.22512 7.4837 5.22217 7.47775C5.22708 7.4724 5.27071 7.42496 5.27071 7.42496C5.27071 7.42496 5.22708 7.37749 5.22217 7.37215C5.22512 7.36619 5.23994 7.33636 5.24204 7.33215C5.24673 7.33152 5.29423 7.32499 5.29845 7.32442C5.30176 7.3277 5.35106 7.37642 5.35106 7.37642L5.42436 7.31055V7.38191Z" fill="#00843D"/>
<path id="path319" d="M5.42436 7.75122L5.3767 7.70817L5.42436 7.66513V7.59375L5.35106 7.65965C5.35106 7.65965 5.30176 7.61092 5.29845 7.60764C5.29423 7.60821 5.24673 7.61474 5.24204 7.61537C5.23994 7.61957 5.22512 7.64941 5.22217 7.65537C5.22708 7.66073 5.27071 7.70817 5.27071 7.70817C5.27071 7.70817 5.22708 7.75562 5.22217 7.76097C5.22512 7.76692 5.23994 7.79676 5.24204 7.80097C5.24673 7.80161 5.29423 7.80812 5.29845 7.80869C5.30176 7.80541 5.35106 7.75669 5.35106 7.75669L5.42436 7.82258V7.75122Z" fill="#00843D"/>
<path id="path321" d="M3.81543 7.09773L3.86308 7.14078L3.81543 7.18382V7.2552L3.88873 7.1893C3.88873 7.1893 3.93803 7.23802 3.94134 7.2413C3.94555 7.24072 3.99306 7.23421 3.99775 7.23357C3.99985 7.22936 4.01466 7.19953 4.01762 7.19357C4.01271 7.18822 3.96908 7.14078 3.96908 7.14078C3.96908 7.14078 4.01271 7.09333 4.01762 7.08798C4.01466 7.08202 3.99985 7.05218 3.99775 7.04798C3.99306 7.04734 3.94555 7.04082 3.94134 7.04024C3.93803 7.04352 3.88873 7.09226 3.88873 7.09226L3.81543 7.02637V7.09773Z" fill="#00843D"/>
<path id="path323" d="M3.81543 7.38191L3.86308 7.42496L3.81543 7.46799V7.53938L3.88873 7.47347C3.88873 7.47347 3.93803 7.52219 3.94134 7.52547C3.94555 7.5249 3.99306 7.51837 3.99775 7.51775C3.99985 7.51354 4.01466 7.4837 4.01762 7.47775C4.01271 7.4724 3.96908 7.42496 3.96908 7.42496C3.96908 7.42496 4.01271 7.37749 4.01762 7.37215C4.01466 7.36619 3.99985 7.33636 3.99775 7.33215C3.99306 7.33152 3.94555 7.32499 3.94134 7.32442C3.93803 7.3277 3.88873 7.37642 3.88873 7.37642L3.81543 7.31055V7.38191Z" fill="#00843D"/>
<path id="path325" d="M3.81543 7.75122L3.86308 7.70817L3.81543 7.66513V7.59375L3.88873 7.65965C3.88873 7.65965 3.93803 7.61092 3.94134 7.60764C3.94555 7.60821 3.99306 7.61474 3.99775 7.61537C3.99985 7.61957 4.01466 7.64941 4.01762 7.65537C4.01271 7.66073 3.96908 7.70817 3.96908 7.70817C3.96908 7.70817 4.01271 7.75562 4.01762 7.76097C4.01466 7.76692 3.99985 7.79676 3.99775 7.80097C3.99306 7.80161 3.94555 7.80812 3.94134 7.80869C3.93803 7.80541 3.88873 7.75669 3.88873 7.75669L3.81543 7.82258V7.75122Z" fill="#00843D"/>
</g>
<path id="path329" d="M4.08991 6.76661C4.08708 6.7692 3.83075 7.00331 3.81932 7.01379C3.84242 7.03468 3.86477 7.05653 3.88794 7.07735C3.8938 7.07156 3.93843 7.0279 3.93843 7.0279L4.00446 7.03779L4.03035 7.09005C4.03035 7.09005 3.99008 7.13402 3.98374 7.1409C3.99008 7.14776 4.03035 7.19174 4.03035 7.19174L4.00446 7.244L3.93843 7.25248C3.93843 7.25248 3.8938 7.21025 3.88793 7.20446L3.81543 7.27084V7.29344C3.83982 7.31546 3.86346 7.33782 3.88793 7.35982C3.8938 7.35405 3.93843 7.3118 3.93843 7.3118L4.00446 7.32027L4.03035 7.37253C4.03035 7.37253 3.99008 7.4165 3.98374 7.42338C3.99008 7.43025 4.03035 7.47423 4.03035 7.47423L4.00446 7.5279L3.93843 7.53638C3.93843 7.53638 3.8938 7.49273 3.88793 7.48694L3.81543 7.55332V7.57734L3.88793 7.64372C3.8938 7.63794 3.93843 7.59429 3.93843 7.59429L4.00446 7.60417L4.03035 7.65643C4.03035 7.65643 3.99008 7.7004 3.98374 7.70728C3.99008 7.71416 4.03035 7.75813 4.03035 7.75813L4.00446 7.81039L3.93843 7.82027C3.93843 7.82027 3.8938 7.77663 3.88793 7.77084C3.86486 7.79157 3.84233 7.81227 3.81931 7.83299C3.83075 7.84347 4.08708 8.07756 4.08991 8.08016H4.14947L4.23622 7.98835L4.18054 7.93468L4.1909 7.86123L4.24916 7.8344L4.30872 7.88525L4.36698 7.8344L4.42525 7.86123L4.4369 7.93468L4.37993 7.98835L4.46409 8.07592L4.54824 7.98835L4.49128 7.93468L4.50163 7.86123L4.56119 7.8344L4.61945 7.88525L4.67901 7.8344L4.73727 7.86123L4.74763 7.93468L4.69196 7.98835L4.77482 8.07734L4.85898 7.98835L4.80331 7.93468L4.81366 7.86123L4.87322 7.8344L4.93148 7.88525L4.98975 7.8344L5.0493 7.86123L5.05966 7.93468L5.00399 7.98835L5.09074 8.08016H5.149C5.15183 8.07756 5.40815 7.84347 5.4196 7.83299C5.39653 7.81227 5.37407 7.79161 5.35097 7.77084C5.34511 7.77663 5.30178 7.82027 5.30178 7.82027L5.23574 7.81039L5.20855 7.75813C5.20855 7.75813 5.24884 7.71416 5.25517 7.70728C5.24884 7.7004 5.20855 7.65643 5.20855 7.65643L5.23574 7.60417L5.30178 7.59429C5.30178 7.59429 5.34511 7.63794 5.35097 7.64372L5.42348 7.57734V7.55332L5.35097 7.48694C5.34511 7.49273 5.30178 7.53638 5.30178 7.53638L5.23574 7.5279L5.20855 7.47423C5.20855 7.47423 5.24884 7.43025 5.25517 7.42338C5.24884 7.4165 5.20855 7.37253 5.20855 7.37253L5.23574 7.32027L5.30178 7.3118C5.30178 7.3118 5.34511 7.35405 5.35097 7.35982C5.37529 7.33798 5.39922 7.31662 5.42348 7.29485V7.26943L5.35097 7.20446C5.34511 7.21025 5.30178 7.25248 5.30178 7.25248L5.23574 7.244L5.20855 7.19174C5.20855 7.19174 5.24884 7.14776 5.25517 7.1409C5.24884 7.13402 5.20855 7.09005 5.20855 7.09005L5.23574 7.03779L5.30178 7.0279C5.30178 7.0279 5.34511 7.07156 5.35097 7.07734C5.37418 7.05648 5.39769 7.03605 5.42089 7.01519C5.41198 7.00703 5.15184 6.7692 5.149 6.7666H5.09073L5.00399 6.85841L5.05966 6.91208L5.0493 6.98553L4.98975 7.01378L4.93148 6.96293L4.87322 7.01378L4.81366 6.98553L4.8033 6.91208L4.85898 6.85841L4.77612 6.77084L4.69196 6.85841L4.74763 6.91208L4.73727 6.98553L4.67901 7.01378L4.61945 6.96293L4.56119 7.01378L4.50163 6.98553L4.49128 6.91208L4.54824 6.85841L4.46409 6.77084L4.37993 6.85841L4.4369 6.91208L4.42524 6.98553L4.36698 7.01378L4.30872 6.96293L4.24916 7.01378L4.1909 6.98553L4.18054 6.91208L4.23621 6.85841L4.14817 6.7666L4.08991 6.76661ZM3.81543 7.39514V7.45305L3.84651 7.42339L3.81543 7.39514Z" fill="#D22630"/>
<g id="g355">
<path id="path331" d="M4.30851 8.0332L4.26318 8.0798H4.35251L4.30851 8.0332Z" fill="white"/>
<path id="path333" d="M4.61968 8.0332L4.57568 8.0798H4.66501L4.61968 8.0332Z" fill="white"/>
<path id="path335" d="M4.93151 8.0332L4.88623 8.0798H4.97684L4.93151 8.0332Z" fill="white"/>
<path id="path337" d="M4.26221 6.7666L4.30882 6.8146L4.35414 6.7666H4.26221Z" fill="white"/>
<path id="path339" d="M4.57422 6.7666L4.61954 6.8146L4.66615 6.7666H4.57422Z" fill="white"/>
<path id="path341" d="M4.88623 6.7666L4.93151 6.8146L4.97684 6.7666H4.88623Z" fill="white"/>
<path id="path343" d="M5.42365 7.1123L5.39258 7.14055L5.42365 7.1674V7.1123Z" fill="white"/>
<path id="path345" d="M5.42365 7.39551L5.39258 7.42376L5.42365 7.45201V7.39551Z" fill="white"/>
<path id="path347" d="M5.42365 7.67871L5.39258 7.70696L5.42365 7.73521V7.67871Z" fill="white"/>
<path id="path349" d="M3.81543 7.11133V7.16923L3.8465 7.14098L3.81543 7.11133Z" fill="white"/>
<path id="path351" d="M3.81543 7.39551V7.45341L3.8465 7.42376L3.81543 7.39551Z" fill="white"/>
<path id="path353" d="M3.81543 7.67773V7.73563L3.8465 7.70738L3.81543 7.67773Z" fill="white"/>
</g>
<g id="g375">
<path id="path357" d="M4.88669 7.32912V7.22802H4.79289V7.11719H4.44745V7.22802H4.35366V7.32912H4.22412V7.5184H4.35366V7.61949H4.44745V7.73034H4.79289V7.61949H4.88669V7.5184H5.01621V7.32912H4.88669Z" fill="#383739"/>
<path id="path359" d="M4.6147 7.12891V7.24316L4.46621 7.33524V7.41835H4.23438V7.34084H4.3639V7.23975H4.45769V7.12891H4.6147Z" fill="#FFC72C"/>
<path id="path361" d="M4.62549 7.71913V7.60487L4.77396 7.51278V7.42969H5.00581V7.50718H4.87629V7.60828H4.78249V7.71913H4.62549Z" fill="#FFC72C"/>
<path id="path363" d="M4.77396 7.41835V7.33524L4.62549 7.24316V7.12891H4.78249V7.23975H4.87629V7.34084H5.00581V7.41835H4.77396Z" fill="white"/>
<path id="path365" d="M4.23438 7.42969H4.46621V7.51278L4.6147 7.60487V7.71913H4.45769V7.60828H4.3639V7.50718H4.23438V7.42969Z" fill="white"/>
<path id="path367" d="M4.47705 7.42969V7.50671L4.61505 7.59231V7.42969H4.47705Z" fill="#D22630"/>
<path id="path369" d="M4.61505 7.25586L4.47705 7.34144V7.41847H4.61505V7.25586Z" fill="#00843D"/>
<path id="path371" d="M4.76349 7.41847V7.34144L4.62549 7.25586V7.41847H4.76349Z" fill="#D22630"/>
<path id="path373" d="M4.62549 7.59231L4.76349 7.50671V7.42969H4.62549V7.59231Z" fill="#00843D"/>
</g>
<path id="path378" d="M3.3645 9.43267V9.74512H3.09157V10.0285H2.81494V10.8354H3.09157V11.1188H3.3645V11.4312H4.35689L4.53141 11.5456L4.44755 11.6006H4.09368L4.06316 11.5631H4.38385L4.2935 11.4638H3.83477L4.04261 11.6999H4.47279L4.61973 11.6035L4.76668 11.6999H5.19688L5.40471 11.4638H4.94599L4.85563 11.5631H5.17633L5.1458 11.6006H4.79192L4.70806 11.5456L4.88259 11.4312H5.87498V11.1188H6.14791V10.8354H6.42453V10.0285H6.14791V9.74512H5.87498V9.43267H4.88259L4.70806 9.31829L4.79192 9.26331H5.1458L5.17633 9.30086H4.85563L4.94599 9.40011H5.40471L5.19688 9.16406H4.76668L4.61973 9.26038L4.47279 9.16406H4.04261L3.83477 9.40011H4.2935L4.38385 9.30086H4.06316L4.09368 9.26331H4.44755L4.53141 9.31829L4.35689 9.43267H3.3645Z" fill="#D22630"/>
<path id="path380" d="M4.87992 11.4192H5.86521V11.107H6.1371V10.8231H6.41417V10.0392H6.1371V9.75672H5.86521V9.44458H4.87992L4.47079 9.1748H4.04741L3.85968 9.38808H4.28953L4.35944 9.31181H4.03965L4.08885 9.25108H4.45137L4.91488 9.55616H5.76163V9.86831H6.03482V10.1522H6.31189V10.7115H6.03482V10.9954H5.76163V11.3076H4.91488L4.45137 11.6112H4.08885L4.03965 11.5519H4.35944L4.28953 11.4757H3.85968L4.04741 11.6889H4.47079L4.87992 11.4192ZM4.32449 11.3076H3.47774V10.9954H3.20584V10.7115H2.92877V10.1522H3.20584V9.86831H3.47774V9.55616H4.32449L4.7893 9.25108H5.15053L5.19973 9.31181H4.88122L4.95114 9.38808H5.38099L5.19325 9.1748H4.76987L4.36074 9.44458H3.37545V9.75673H3.10227V10.0392H2.8252V10.8231H3.10227V11.107H3.37545V11.4192H4.36074L4.76987 11.6889H5.19325L5.38099 11.4757H4.95114L4.88122 11.5519H5.19973L5.15053 11.6112H4.7893L4.32449 11.3076Z" fill="#FFC72C"/>
<path id="path384" d="M5.67936 10.9055V11.2179H4.89224L4.61982 11.3965L4.3474 11.2179H3.5603V10.9055H3.28736V10.6221H3.01074V10.2422H3.28736V9.95877H3.5603V9.64633H4.34595H4.3474L4.61982 9.46777L4.89224 9.64633H5.67936V9.95877H5.95229V10.2422H6.2289V10.6221H5.95229V10.9055H5.67936Z" fill="#00843D"/>
<g id="g402">
<path id="path386" d="M3.66357 10.7958V11.0982H4.09624L3.66357 10.7852V10.7958Z" fill="#383739"/>
<path id="path388" d="M3.66357 10.068V9.76562H4.09624L3.66357 10.0787V10.068Z" fill="#383739"/>
<path id="path390" d="M5.57671 10.7958V11.0982H5.14404L5.57671 10.7852V10.7958Z" fill="#383739"/>
<path id="path392" d="M5.57671 10.068V9.76562H5.14404L5.57671 10.0787V10.068Z" fill="#383739"/>
<path id="path394" d="M3.67383 10.8066L4.06126 11.087H3.67383V10.8066Z" fill="#D22630"/>
<path id="path396" d="M3.67383 10.0577C3.68889 10.0468 4.03486 9.79643 4.06126 9.77734H3.67383V10.0577Z" fill="#D22630"/>
<path id="path398" d="M5.56615 10.8066C5.55107 10.8176 5.2051 11.0679 5.17871 11.087H5.56615V10.8066Z" fill="#D22630"/>
<path id="path400" d="M5.56615 10.0577C5.55107 10.0468 5.2051 9.79645 5.17871 9.77734H5.56615V10.0577Z" fill="#D22630"/>
</g>
<g id="carp4y">
<path id="path404" d="M4.21513 10.3495V10.1951H4.16685L3.9352 10.0371L3.93243 10.039L3.70357 10.1951H3.65529V10.3495H3.54639V10.5154H3.65529V10.6698H3.70357L3.9352 10.8278L4.16685 10.6698H4.21513V10.5154H4.38091V10.3495H4.21513Z" fill="#383739"/>
<path id="path406" d="M3.935 10.0508L4.14689 10.1953H3.72314L3.935 10.0508ZM4.14686 10.67L3.935 10.8145L3.72316 10.67H4.14686Z" fill="#D22630"/>
<path id="path408" d="M4.09576 10.3613V10.5043H3.83154V10.3613H4.09576Z" fill="#D22630"/>
<g id="g422">
<path id="path410" d="M4.20465 10.5156V10.6586H3.94043V10.5156H4.20465Z" fill="#FFC72C"/>
<path id="path412" d="M3.92975 10.5156V10.6586H3.66553V10.5156H3.92975Z" fill="#FFC72C"/>
<path id="path414" d="M4.37018 10.3613V10.5043H4.10596V10.3613H4.37018Z" fill="#FFC72C"/>
<path id="path416" d="M3.82086 10.3613V10.5043H3.55664V10.3613H3.82086Z" fill="#FFC72C"/>
<path id="path418" d="M4.20465 10.207V10.35H3.94043V10.207H4.20465Z" fill="#FFC72C"/>
<path id="path420" d="M3.92975 10.207V10.35H3.66553V10.207H3.92975Z" fill="#FFC72C"/>
</g>
<g id="g438">
<path id="path424" d="M3.74857 10.3926V10.472H3.62988V10.3926H3.74857Z" fill="#383739"/>
<path id="path426" d="M3.85745 10.2383V10.3177H3.73877V10.2383H3.85745Z" fill="#383739"/>
<path id="path428" d="M4.13235 10.2383V10.3177H4.01367V10.2383H4.13235Z" fill="#383739"/>
<path id="path430" d="M4.02298 10.3926V10.472H3.9043V10.3926H4.02298Z" fill="#383739"/>
<path id="path432" d="M4.29788 10.3926V10.472H4.1792V10.3926H4.29788Z" fill="#383739"/>
<path id="path434" d="M4.13235 10.5469V10.6263H4.01367V10.5469H4.13235Z" fill="#383739"/>
<path id="path436" d="M3.85745 10.5469V10.6263H3.73877V10.5469H3.85745Z" fill="#383739"/>
</g>
<g id="g454">
<path id="path440" d="M3.73696 10.4053H3.64062V10.4603H3.73696V10.4053Z" fill="white"/>
<path id="path442" d="M3.84584 10.251H3.74951V10.306H3.84584V10.251Z" fill="white"/>
<path id="path444" d="M4.12074 10.251H4.02441V10.306H4.12074V10.251Z" fill="white"/>
<path id="path446" d="M4.01186 10.4053H3.91553V10.4603H4.01186V10.4053Z" fill="white"/>
<path id="path448" d="M4.28627 10.4053H4.18994V10.4603H4.28627V10.4053Z" fill="white"/>
<path id="path450" d="M4.12074 10.5596H4.02441V10.6146H4.12074V10.5596Z" fill="white"/>
<path id="path452" d="M3.84584 10.5596H3.74951V10.6146H3.84584V10.5596Z" fill="white"/>
</g>
</g>
<g id="use457">
<path id="path404_2" d="M5.02462 10.3495V10.1951H5.0729L5.30455 10.0371L5.30732 10.039L5.53618 10.1951H5.58446V10.3495H5.69336V10.5154H5.58446V10.6698H5.53618L5.30455 10.8278L5.0729 10.6698H5.02462V10.5154H4.85884V10.3495H5.02462Z" fill="#383739"/>
<path id="path406_2" d="M5.30474 10.0508L5.09285 10.1953H5.5166L5.30474 10.0508ZM5.09288 10.67L5.30474 10.8145L5.51659 10.67H5.09288Z" fill="#D22630"/>
<path id="path408_2" d="M5.14398 10.3613V10.5043H5.4082V10.3613H5.14398Z" fill="#D22630"/>
<g id="g422_2">
<path id="path410_2" d="M5.0351 10.5156V10.6586H5.29932V10.5156H5.0351Z" fill="#FFC72C"/>
<path id="path412_2" d="M5.31 10.5156V10.6586H5.57422V10.5156H5.31Z" fill="#FFC72C"/>
<path id="path414_2" d="M4.86957 10.3613V10.5043H5.13379V10.3613H4.86957Z" fill="#FFC72C"/>
<path id="path416_2" d="M5.41889 10.3613V10.5043H5.68311V10.3613H5.41889Z" fill="#FFC72C"/>
<path id="path418_2" d="M5.0351 10.207V10.35H5.29932V10.207H5.0351Z" fill="#FFC72C"/>
<path id="path420_2" d="M5.31 10.207V10.35H5.57422V10.207H5.31Z" fill="#FFC72C"/>
</g>
<g id="g438_2">
<path id="path424_2" d="M5.49118 10.3926V10.472H5.60986V10.3926H5.49118Z" fill="#383739"/>
<path id="path426_2" d="M5.38229 10.2383V10.3177H5.50098V10.2383H5.38229Z" fill="#383739"/>
<path id="path428_2" d="M5.10739 10.2383V10.3177H5.22607V10.2383H5.10739Z" fill="#383739"/>
<path id="path430_2" d="M5.21677 10.3926V10.472H5.33545V10.3926H5.21677Z" fill="#383739"/>
<path id="path432_2" d="M4.94186 10.3926V10.472H5.06055V10.3926H4.94186Z" fill="#383739"/>
<path id="path434_2" d="M5.10739 10.5469V10.6263H5.22607V10.5469H5.10739Z" fill="#383739"/>
<path id="path436_2" d="M5.38229 10.5469V10.6263H5.50098V10.5469H5.38229Z" fill="#383739"/>
</g>
<g id="g454_2">
<path id="path440_2" d="M5.50279 10.4053H5.59912V10.4603H5.50279V10.4053Z" fill="white"/>
<path id="path442_2" d="M5.3939 10.251H5.49023V10.306H5.3939V10.251Z" fill="white"/>
<path id="path444_2" d="M5.119 10.251H5.21533V10.306H5.119V10.251Z" fill="white"/>
<path id="path446_2" d="M5.22789 10.4053H5.32422V10.4603H5.22789V10.4053Z" fill="white"/>
<path id="path448_2" d="M4.95347 10.4053H5.0498V10.4603H4.95347V10.4053Z" fill="white"/>
<path id="path450_2" d="M5.119 10.5596H5.21533V10.6146H5.119V10.5596Z" fill="white"/>
<path id="path452_2" d="M5.3939 10.5596H5.49023V10.6146H5.3939V10.5596Z" fill="white"/>
</g>
</g>
<g id="carp4r">
<path id="path459" d="M4.89982 10.0916V10.246H4.85153L4.61989 10.404L4.61712 10.4021L4.38826 10.246H4.33998V10.0916H4.20264V9.92571H4.33998V9.7713H4.38826L4.61989 9.61328L4.85153 9.7713H4.89982V9.92571H5.03716V10.0916H4.89982Z" fill="#383739"/>
<path id="path461" d="M4.62006 10.3907L4.83194 10.2462H4.4082L4.62006 10.3907ZM4.83192 9.77148L4.62006 9.62695L4.40822 9.77148H4.83192Z" fill="#FFC72C"/>
<g id="g477">
<path id="path463" d="M4.88922 9.92522V9.78223H4.625V9.92522H4.88922Z" fill="#D22630"/>
<path id="path465" d="M4.61432 9.92522V9.78223H4.3501V9.92522H4.61432Z" fill="#D22630"/>
<path id="path467" d="M5.02643 10.0795V9.93652H4.76221V10.0795H5.02643Z" fill="#D22630"/>
<path id="path469" d="M4.75201 10.0795V9.93652H4.48779V10.0795H4.75201Z" fill="#D22630"/>
<path id="path471" d="M4.4771 10.0795V9.93652H4.21289V10.0795H4.4771Z" fill="#D22630"/>
<path id="path473" d="M4.88922 10.2338V10.0908H4.625V10.2338H4.88922Z" fill="#D22630"/>
<path id="path475" d="M4.61432 10.2338V10.0908H4.3501V10.2338H4.61432Z" fill="#D22630"/>
</g>
<g id="g493">
<path id="path479" d="M4.54153 9.81445V9.89391H4.42285V9.81445H4.54153Z" fill="#383739"/>
<path id="path481" d="M4.81644 9.81445V9.89391H4.69775V9.81445H4.81644Z" fill="#383739"/>
<path id="path483" d="M4.40433 9.96875V10.0482H4.28564V9.96875H4.40433Z" fill="#383739"/>
<path id="path485" d="M4.67923 9.96875V10.0482H4.56055V9.96875H4.67923Z" fill="#383739"/>
<path id="path487" d="M4.95364 9.96875V10.0482H4.83496V9.96875H4.95364Z" fill="#383739"/>
<path id="path489" d="M4.54153 10.123V10.2025H4.42285V10.123H4.54153Z" fill="#383739"/>
<path id="path491" d="M4.81644 10.123V10.2025H4.69775V10.123H4.81644Z" fill="#383739"/>
</g>
<g id="g509">
<path id="path495" d="M4.53041 9.82715H4.43408V9.88222H4.53041V9.82715Z" fill="white"/>
<path id="path497" d="M4.80532 9.82715H4.70898V9.88222H4.80532V9.82715Z" fill="white"/>
<path id="path499" d="M4.39321 9.98145H4.29688V10.0365H4.39321V9.98145Z" fill="white"/>
<path id="path501" d="M4.66811 9.98145H4.57178V10.0365H4.66811V9.98145Z" fill="white"/>
<path id="path503" d="M4.94252 9.98145H4.84619V10.0365H4.94252V9.98145Z" fill="white"/>
<path id="path505" d="M4.53041 10.1357H4.43408V10.1908H4.53041V10.1357Z" fill="white"/>
<path id="path507" d="M4.80532 10.1357H4.70898V10.1908H4.80532V10.1357Z" fill="white"/>
</g>
</g>
<g id="use512">
<path id="path459_2" d="M4.89982 10.9392V11.0936H4.85153L4.61989 11.2516L4.61712 11.2498L4.38826 11.0936H4.33998V10.9392H4.20264V10.7734H4.33998V10.619H4.38826L4.61989 10.4609L4.85153 10.619H4.89982V10.7734H5.03716V10.9392H4.89982Z" fill="#383739"/>
<path id="path461_2" d="M4.62006 11.2384L4.83194 11.0938H4.4082L4.62006 11.2384ZM4.83192 10.6191L4.62006 10.4746L4.40822 10.6191H4.83192Z" fill="#FFC72C"/>
<g id="g477_2">
<path id="path463_2" d="M4.88922 10.7729V10.6299H4.625V10.7729H4.88922Z" fill="#D22630"/>
<path id="path465_2" d="M4.61432 10.7729V10.6299H4.3501V10.7729H4.61432Z" fill="#D22630"/>
<path id="path467_2" d="M5.02643 10.9272V10.7842H4.76221V10.9272H5.02643Z" fill="#D22630"/>
<path id="path469_2" d="M4.75201 10.9272V10.7842H4.48779V10.9272H4.75201Z" fill="#D22630"/>
<path id="path471_2" d="M4.4771 10.9272V10.7842H4.21289V10.9272H4.4771Z" fill="#D22630"/>
<path id="path473_2" d="M4.88922 11.0815V10.9385H4.625V11.0815H4.88922Z" fill="#D22630"/>
<path id="path475_2" d="M4.61432 11.0815V10.9385H4.3501V11.0815H4.61432Z" fill="#D22630"/>
</g>
<g id="g493_2">
<path id="path479_2" d="M4.54153 10.6621V10.7416H4.42285V10.6621H4.54153Z" fill="#383739"/>
<path id="path481_2" d="M4.81644 10.6621V10.7416H4.69775V10.6621H4.81644Z" fill="#383739"/>
<path id="path483_2" d="M4.40433 10.8164V10.8959H4.28564V10.8164H4.40433Z" fill="#383739"/>
<path id="path485_2" d="M4.67923 10.8164V10.8959H4.56055V10.8164H4.67923Z" fill="#383739"/>
<path id="path487_2" d="M4.95364 10.8164V10.8959H4.83496V10.8164H4.95364Z" fill="#383739"/>
<path id="path489_2" d="M4.54153 10.9707V11.0502H4.42285V10.9707H4.54153Z" fill="#383739"/>
<path id="path491_2" d="M4.81644 10.9707V11.0502H4.69775V10.9707H4.81644Z" fill="#383739"/>
</g>
<g id="g509_2">
<path id="path495_2" d="M4.53041 10.6748H4.43408V10.7299H4.53041V10.6748Z" fill="white"/>
<path id="path497_2" d="M4.80532 10.6748H4.70898V10.7299H4.80532V10.6748Z" fill="white"/>
<path id="path499_2" d="M4.39321 10.8291H4.29688V10.8842H4.39321V10.8291Z" fill="white"/>
<path id="path501_2" d="M4.66811 10.8291H4.57178V10.8842H4.66811V10.8291Z" fill="white"/>
<path id="path503_2" d="M4.94252 10.8291H4.84619V10.8842H4.94252V10.8291Z" fill="white"/>
<path id="path505_2" d="M4.53041 10.9834H4.43408V11.0385H4.53041V10.9834Z" fill="white"/>
<path id="path507_2" d="M4.80532 10.9834H4.70898V11.0385H4.80532V10.9834Z" fill="white"/>
</g>
</g>
<path id="path515" d="M3.12109 12.7832L4.14902 12.1797H4.15034H5.09109L6.11902 12.7832V13.7776L5.09109 14.3811H4.14902L3.12109 13.7776V12.7832Z" fill="#383739"/>
<path id="path517" d="M4.15209 12.1904L3.13184 12.7893V13.7695L4.15209 14.3684H5.08814L6.10843 13.7695V12.7893L5.08814 12.1904H4.15209ZM4.17019 12.2709H5.07004L6.03593 12.8373V13.7229L5.07004 14.2893H4.16965L3.2038 13.7229V12.8373L4.17019 12.2709Z" fill="#00843D"/>
<path id="path519" d="M4.62497 13.2745V14.2783H5.0673L6.0251 13.7159V13.286L4.61449 13.286V12.2822H4.17218L3.21436 12.8445V13.2745L4.62497 13.2745Z" fill="#FFC72C"/>
<path id="path521" d="M4.61449 13.2745V14.2783H4.17218L3.21436 13.7159V13.286L4.62497 13.286V12.2822H5.0673L6.02511 12.8445V13.2745L4.61449 13.2745Z" fill="white"/>
<path id="path523" d="M4.70601 14.2215V13.9314L4.62003 13.9909L4.53404 13.9314V14.2215H4.26658L4.44705 14.0771V13.8712L4.17182 13.6807H3.97949V12.8787H4.17182L4.44705 12.6882V12.4823L4.26658 12.3379H4.28258H4.53404V12.628L4.62003 12.5685L4.70601 12.628V12.3379H4.97348L4.79299 12.4823V12.6882L5.06823 12.8787H5.26055V13.6807H5.06823L4.79299 13.8712V14.0771L4.97348 14.2215H4.70601Z" fill="#383739"/>
<path id="path525" d="M4.71659 12.3506V12.65L4.62465 12.5865V12.6712L5.04543 12.9636H5.18397V13.2743H5.25002V12.8902H5.06486L4.78263 12.6952V12.4777L4.94185 12.3506H4.71659ZM3.99024 13.2856V13.6698H4.17409L4.45764 13.8661V14.0836L4.29838 14.2107H4.52368V13.9113L4.61429 13.9749V13.8873L4.19352 13.5978H4.05626V13.2856L3.99024 13.2856Z" fill="#FFC72C"/>
<path id="path527" d="M4.29838 12.3506L4.45764 12.4777V12.6952L4.17409 12.8902H3.99023V13.2743H4.05626V12.9636H4.19352L4.61429 12.6726V12.5865L4.52368 12.65V12.3506L4.29838 12.3506ZM5.18397 13.2856V13.5978H5.04543L4.62465 13.8873V13.9749L4.71658 13.9113V14.2107H4.94185L4.78263 14.0836V13.8661L5.06486 13.6698H5.25001V13.2856L5.18397 13.2856Z" fill="white"/>
<path id="path529" d="M4.06641 13.5856H4.19688L4.61996 13.8784L5.04302 13.5856H5.1735V12.9745H5.04454H5.04302L4.61996 12.6816L4.19688 12.9745H4.06641V13.5856Z" fill="#D22630"/>
<path id="path531" d="M4.91299 13.425H5.00332V13.3784H4.93537V13.2936H5.0806V13.5098H4.94137L4.94139 13.6572H4.65479V13.4453H4.78092V13.5301H4.73206V13.5725H4.86411V13.4914L4.32728 13.1346H4.23695V13.1812H4.30491V13.2659H4.15967V13.0498H4.2989V12.9023H4.30413H4.58549V13.1142H4.45935V13.0295H4.50821V12.9871H4.37618V13.0681L4.91299 13.425ZM4.86411 13.0681V12.9871H4.73206V13.0295H4.78092V13.1142H4.65479V12.9023H4.94139V13.0498H5.0806V13.2659H4.93537V13.1812H5.00334V13.1346H4.91299L4.37618 13.4914V13.5724H4.50821V13.5301H4.45935V13.4453H4.58549V13.6572H4.2989V13.5097H4.15967V13.2936H4.30491V13.3784H4.23695V13.425H4.32728L4.86411 13.0681Z" fill="#383739"/>
<path id="path533" d="M4.87435 13.4853V13.5842H4.72134V13.519H4.77021V13.4571H4.66502V13.6461H4.93067V13.4986H5.0699V13.3053H4.94561V13.3672H5.01356V13.4367H4.90983L4.36546 13.0748V12.976H4.51846V13.0412H4.46961V13.1031H4.57478V12.9141H4.30914V13.0615H4.16992V13.2548H4.29419V13.1929H4.22624V13.1234H4.32998L4.87435 13.4853ZM4.90983 13.1234H5.01358V13.1929H4.94561V13.2548H5.0699V13.0615H4.93068V12.9141H4.66504V13.1031H4.77021V13.0412H4.72136V12.976H4.87435V13.0748L4.32998 13.4367H4.22624V13.3672H4.29419V13.3053H4.16992V13.4986H4.30914V13.6461H4.57478V13.457H4.46961V13.5189H4.51846V13.5842H4.36546V13.4853L4.90983 13.1234Z" fill="white"/>
<g id="g559">
<path id="path535" d="M5.8192 13.3311V13.6447H5.69685V13.5339H5.57352V13.6447H5.45117V13.3311H5.57352V13.4418H5.69685V13.3311H5.8192Z" fill="#383739"/>
<path id="path537" d="M5.38121 13.7471V14.0607H5.25886V13.9499H5.13553V14.0607H5.01318V13.7471H5.13553V13.8579H5.25886V13.7471H5.38121Z" fill="#383739"/>
<path id="path539" d="M5.8192 13.2297V12.916H5.69685V13.0268H5.57352V12.916H5.45117V13.2297H5.57352V13.1189H5.69685V13.2297H5.8192Z" fill="#383739"/>
<path id="path541" d="M3.42139 13.3311V13.6447H3.54374V13.5339H3.66707V13.6447H3.78942V13.3311H3.66707V13.4418H3.54374V13.3311H3.42139Z" fill="#383739"/>
<path id="path543" d="M3.42139 13.2297V12.916H3.54374V13.0268H3.66707V12.916H3.78942V13.2297H3.66707V13.1189H3.54374V13.2297H3.42139Z" fill="#383739"/>
<path id="path545" d="M5.38121 12.8136V12.5H5.25886V12.6108H5.13553V12.5H5.01318V12.8136H5.13553V12.7029H5.25886V12.8136H5.38121Z" fill="#383739"/>
<path id="path547" d="M3.85889 13.7471V14.0607H3.98124V13.9499H4.10457V14.0607H4.22692V13.7471H4.10457V13.8579H3.98124V13.7471H3.85889Z" fill="#383739"/>
<path id="path549" d="M3.85889 12.8136V12.5H3.98124V12.6108H4.10457V12.5H4.22692V12.8136H4.10457V12.7029H3.98124V12.8136H3.85889Z" fill="#383739"/>
<path id="path551" d="M5.4541 12.5938V12.8319H5.85981L5.4541 12.5938Z" fill="#383739"/>
<path id="path553" d="M3.78608 13.9667V13.7285H3.38037L3.78608 13.9667Z" fill="#383739"/>
<path id="path555" d="M3.78608 12.5938V12.8319H3.38037L3.78608 12.5938Z" fill="#383739"/>
<path id="path557" d="M5.4541 13.9667V13.7285H5.85981L5.4541 13.9667Z" fill="#383739"/>
</g>
<g id="g577">
<path id="path561" d="M5.70711 13.5218V13.6326H5.80851V13.3418H5.70711V13.4526H5.56282V13.3418H5.46143V13.6326H5.56282V13.5218H5.70711Z" fill="#D22630"/>
<path id="path563" d="M5.26912 13.9378V14.0486H5.37051V13.7578H5.26912V13.8686H5.12483V13.7578H5.02344V14.0486H5.12483V13.9378H5.26912Z" fill="#D22630"/>
<path id="path565" d="M5.70711 13.0375V12.9268H5.80851V13.2175H5.70711V13.1068H5.56282V13.2175H5.46143V12.9268H5.56282V13.0375H5.70711Z" fill="#D22630"/>
<path id="path567" d="M3.53303 13.5218V13.6326H3.43164V13.3418H3.53303V13.4526H3.67732V13.3418H3.77871V13.6326H3.67732V13.5218H3.53303Z" fill="#D22630"/>
<path id="path569" d="M3.53303 13.0375V12.9268H3.43164V13.2175H3.53303V13.1068H3.67732V13.2175H3.77871V12.9268H3.67732V13.0375H3.53303Z" fill="#D22630"/>
<path id="path571" d="M5.26912 12.6215V12.5107H5.37051V12.8015H5.26912V12.6908H5.12483V12.8015H5.02344V12.5107H5.12483V12.6215H5.26912Z" fill="#D22630"/>
<path id="path573" d="M3.97102 13.9378V14.0486H3.86963V13.7578H3.97102V13.8686H4.11531V13.7578H4.21672V14.0486H4.11531V13.9378H3.97102Z" fill="#D22630"/>
<path id="path575" d="M3.97102 12.6215V12.5107H3.86963V12.8015H3.97102V12.6908H4.11531V12.8015H4.21672V12.5107H4.11531V12.6215H3.97102Z" fill="#D22630"/>
</g>
<path id="path579" d="M5.46496 12.6133V12.8209H5.81845L5.46496 12.6133ZM3.42189 13.7404L3.77535 13.9481V13.7404H3.42189Z" fill="#FFC72C"/>
<path id="path581" d="M3.77533 12.6133L3.42188 12.8209H3.77533V12.6133ZM5.46494 13.7404V13.9481L5.81843 13.7404H5.46494Z" fill="white"/>
<path id="path1986" d="M6.2799 14.1553C6.26036 14.2462 6.19414 14.3147 6.17836 14.409C6.14677 14.3107 6.11764 14.2284 6.13939 14.1209C6.15495 14.044 6.21423 13.9892 6.2211 13.9102C6.28573 13.9735 6.29965 14.0635 6.2799 14.1553ZM6.29628 14.536C6.24146 14.618 6.16525 14.6809 6.08109 14.7228C6.09766 14.651 6.06657 14.5969 6.03206 14.5399C5.99048 14.4713 5.97021 14.4039 6.00411 14.3248C6.0199 14.3659 6.04112 14.4 6.06603 14.4352C6.10286 14.49 6.12707 14.5387 6.13275 14.609C6.17534 14.5746 6.19405 14.5232 6.21683 14.4734C6.25155 14.4021 6.30757 14.3425 6.37193 14.3036C6.35483 14.3835 6.34166 14.4681 6.29628 14.536ZM5.98881 14.7804C6.00053 14.826 6.01063 14.8711 6.00837 14.9187C6.0446 14.8761 6.09271 14.8441 6.13562 14.8098C6.19407 14.7582 6.2622 14.7219 6.30998 14.6562C6.30285 14.7528 6.26494 14.8316 6.19295 14.8904C6.11686 14.9525 6.02509 14.9859 5.95015 15.0512C5.96137 14.9633 5.93177 14.8929 5.90653 14.8121C5.8855 14.7349 5.90585 14.6565 5.95384 14.5977C5.95312 14.6629 5.97199 14.7189 5.98881 14.7804ZM5.81804 15.0773C5.80228 15.144 5.75848 15.1982 5.72858 15.2577C5.80922 15.2304 5.88036 15.1827 5.95326 15.1378C6.04008 15.0862 6.13436 15.0534 6.21296 14.9853C6.17384 15.1433 6.0769 15.2349 5.93507 15.2816C5.83809 15.3135 5.75637 15.2976 5.6387 15.3495C5.65219 15.2626 5.67597 15.1688 5.71363 15.0904C5.74286 15.0338 5.77528 14.9779 5.79333 14.9155C5.81948 14.9667 5.83186 15.0189 5.81804 15.0773ZM5.52132 15.3191C5.49356 15.3709 5.45691 15.4146 5.41146 15.4491C5.52593 15.457 5.61805 15.3779 5.72965 15.3744C5.79858 15.3723 5.86402 15.3957 5.93432 15.3887C5.8509 15.4501 5.76356 15.5037 5.66199 15.518C5.52996 15.5366 5.4082 15.5004 5.26254 15.5146C5.33061 15.4622 5.36467 15.392 5.4071 15.3166C5.46235 15.2224 5.51449 15.1553 5.62195 15.1401C5.57882 15.193 5.55371 15.2585 5.52132 15.3191ZM5.11478 15.5263C5.31645 15.5637 5.50969 15.6121 5.71566 15.6143C5.48511 15.702 5.26788 15.7179 5.03923 15.6274C4.91566 15.5784 4.82092 15.5522 4.72759 15.5595C4.59121 15.5702 4.42546 15.6289 4.24202 15.84L4.16992 15.777C4.43283 15.5215 4.77682 15.4636 5.11477 15.5263L5.11478 15.5263Z" fill="#FFC72C"/>
</g>
</g>
<defs>
<clipPath id="clip0_3425_3407">
<rect width="22" height="16" rx="4" fill="white"/>
</clipPath>
</defs>
</svg>
