<svg width="16" height="16" viewBox="0 0 16 16" fill="none" xmlns="http://www.w3.org/2000/svg">
<path d="M7.33331 11.3335H8.66665V7.3335H7.33331V11.3335ZM7.99998 6.00016C8.18887 6.00016 8.3472 5.93627 8.47498 5.8085C8.60276 5.68072 8.66665 5.52239 8.66665 5.3335C8.66665 5.14461 8.60276 4.98627 8.47498 4.8585C8.3472 4.73072 8.18887 4.66683 7.99998 4.66683C7.81109 4.66683 7.65276 4.73072 7.52498 4.8585C7.3972 4.98627 7.33331 5.14461 7.33331 5.3335C7.33331 5.52239 7.3972 5.68072 7.52498 5.8085C7.65276 5.93627 7.81109 6.00016 7.99998 6.00016ZM7.99998 14.6668C7.07776 14.6668 6.21109 14.4918 5.39998 14.1418C4.58887 13.7918 3.88331 13.3168 3.28331 12.7168C2.68331 12.1168 2.20831 11.4113 1.85831 10.6002C1.50831 9.78905 1.33331 8.92239 1.33331 8.00016C1.33331 7.07794 1.50831 6.21127 1.85831 5.40016C2.20831 4.58905 2.68331 3.8835 3.28331 3.2835C3.88331 2.6835 4.58887 2.2085 5.39998 1.8585C6.21109 1.5085 7.07776 1.3335 7.99998 1.3335C8.9222 1.3335 9.78887 1.5085 10.6 1.8585C11.4111 2.2085 12.1166 2.6835 12.7166 3.2835C13.3166 3.8835 13.7916 4.58905 14.1416 5.40016C14.4916 6.21127 14.6666 7.07794 14.6666 8.00016C14.6666 8.92239 14.4916 9.78905 14.1416 10.6002C13.7916 11.4113 13.3166 12.1168 12.7166 12.7168C12.1166 13.3168 11.4111 13.7918 10.6 14.1418C9.78887 14.4918 8.9222 14.6668 7.99998 14.6668Z" fill="#9DACD4"/>
</svg>
