<svg width="21" height="24" viewBox="0 0 21 24" fill="none" xmlns="http://www.w3.org/2000/svg">
<g clip-path="url(#clip0_2238_15840)">
<path d="M4.10181 0.500682L4.34788 3.08857L5.04514 10.4345C5.05241 10.6043 5.07994 10.7724 5.12713 10.9354C5.38186 12.1161 6.02461 13.1732 6.94928 13.932C7.87395 14.6909 9.02526 15.1062 10.2132 15.1094C11.4845 15.1136 12.7121 14.6377 13.6583 13.7737C14.4856 13.0273 15.0598 12.0339 15.299 10.9354C15.34 10.7686 15.34 10.6016 15.3811 10.4345L16.0782 3.08857L16.3245 0.458984H4.10181V0.500682Z" fill="#E7EFFF"/>
<path d="M1.27168 16.1523C1.42582 16.1523 1.5765 16.1988 1.70467 16.286C1.83284 16.3731 1.93274 16.4969 1.99174 16.6418C2.05074 16.7868 2.06619 16.9462 2.03613 17.1001C2.00608 17.2539 1.93187 17.3952 1.82289 17.5061C1.71391 17.6171 1.57505 17.6926 1.42388 17.7232C1.27271 17.7539 1.11601 17.7382 0.9736 17.6782C0.83119 17.6181 0.709465 17.5165 0.623818 17.3861C0.538171 17.2557 0.492448 17.1024 0.492432 16.9455C0.492336 16.8413 0.512425 16.7382 0.55155 16.6419C0.590675 16.5456 0.648069 16.4582 0.720446 16.3845C0.792823 16.3108 0.878762 16.2524 0.973349 16.2126C1.06794 16.1727 1.16932 16.1523 1.27168 16.1523Z" fill="white"/>
<path d="M19.7287 18.7823C19.8311 18.7822 19.9324 18.8027 20.027 18.8425C20.1216 18.8823 20.2075 18.9407 20.2799 19.0144C20.3523 19.088 20.4097 19.1755 20.4488 19.2717C20.4879 19.368 20.508 19.4711 20.508 19.5753C20.5073 19.6773 20.4863 19.7781 20.4464 19.8717C20.4065 19.9653 20.3484 20.0497 20.2756 20.1199C20.2028 20.1901 20.1169 20.2446 20.0229 20.2801C19.9289 20.3157 19.8289 20.3315 19.7287 20.3268C19.6263 20.3268 19.525 20.3063 19.4304 20.2665C19.3358 20.2266 19.2499 20.1682 19.1775 20.0945C19.1051 20.0209 19.0477 19.9334 19.0086 19.8372C18.9695 19.7409 18.9494 19.6377 18.9495 19.5336C18.958 19.3298 19.0441 19.1375 19.1895 18.9973C19.335 18.857 19.5284 18.7799 19.7287 18.7823Z" fill="white"/>
<path d="M18.2111 11.9785C18.4625 11.9785 18.7084 12.0544 18.9175 12.1966C19.1266 12.3388 19.2895 12.5409 19.3857 12.7774C19.482 13.0138 19.5071 13.274 19.458 13.525C19.4089 13.776 19.2878 14.0065 19.11 14.1875C18.9321 14.3684 18.7056 14.4917 18.4589 14.5416C18.2123 14.5915 17.9566 14.5658 17.7243 14.4679C17.4919 14.3699 17.2934 14.204 17.1537 13.9912C17.014 13.7784 16.9394 13.5283 16.9395 13.2723C16.9394 13.1024 16.9723 12.9341 17.0362 12.7772C17.1001 12.6202 17.1938 12.4775 17.3119 12.3574C17.43 12.2372 17.5702 12.1419 17.7244 12.0769C17.8787 12.0119 18.0441 11.9785 18.2111 11.9785Z" fill="white"/>
<path d="M19.4826 23.4571H1.02563C1.02741 23.1842 1.08273 22.9144 1.18836 22.6635C1.29399 22.4126 1.44779 22.1857 1.64075 21.9961C2.02175 21.6064 2.53624 21.3821 3.07628 21.3701H17.4728C18.0097 21.3805 18.5212 21.605 18.8971 21.9953C19.273 22.3857 19.4833 22.9106 19.4826 23.4571Z" fill="white"/>
<path d="M13.8223 19.2833C14.0905 19.2851 14.3556 19.3414 14.6021 19.449C14.8486 19.5565 15.0716 19.7131 15.2578 19.9095C15.6409 20.2971 15.8614 20.8207 15.8731 21.3703H4.59375C4.5955 21.0974 4.65084 20.8276 4.75651 20.5767C4.86217 20.3258 5.01604 20.099 5.20907 19.9095C5.58991 19.5197 6.10439 19.2952 6.64443 19.2833C6.77946 19.2847 6.9134 19.2586 7.03842 19.2067C7.16343 19.1547 7.27701 19.0779 7.37251 18.9808C7.468 18.8836 7.5435 18.768 7.59457 18.6408C7.64564 18.5136 7.67127 18.3773 7.66996 18.2399V17.1963H12.797V18.2399C12.8046 18.5165 12.9061 18.7819 13.084 18.9912C13.1784 19.0922 13.2935 19.1707 13.4211 19.2212C13.5487 19.2717 13.6857 19.2929 13.8223 19.2833Z" fill="#E7EFFF"/>
<path d="M13.5354 15.4015C13.6316 15.4999 13.7067 15.6173 13.7561 15.7466C13.8055 15.8759 13.8281 16.0142 13.8225 16.1528C13.8238 16.2902 13.7982 16.4265 13.7472 16.5537C13.6961 16.6809 13.6206 16.7965 13.5252 16.8937C13.4297 16.9908 13.3161 17.0676 13.1911 17.1196C13.0661 17.1715 12.9322 17.1976 12.7972 17.1962H7.67016C7.39833 17.1884 7.13751 17.0852 6.93191 16.9041C6.8357 16.8058 6.76052 16.6883 6.71108 16.559C6.66164 16.4297 6.63902 16.2914 6.64464 16.1528C6.64333 16.0154 6.66897 15.8791 6.72005 15.7519C6.77113 15.6247 6.84662 15.5092 6.94211 15.412C7.03761 15.3148 7.15118 15.238 7.27619 15.1861C7.4012 15.1341 7.53514 15.1081 7.67016 15.1094H12.8381C13.096 15.1253 13.3413 15.2281 13.5354 15.4015Z" fill="white"/>
<path d="M13.3301 7.30454L11.4026 8.72351L12.1405 10.9776L10.2539 9.6003L8.32639 10.9776L9.06433 8.72351L7.17773 7.30454H9.5156L10.2539 5.00879L10.9513 7.30454H13.3301Z" fill="white"/>
<path d="M19.4826 23.9996H1.02561C0.884979 23.9971 0.750795 23.9391 0.651336 23.8379C0.551877 23.7367 0.494908 23.6002 0.492432 23.457C0.500384 22.7717 0.76433 22.115 1.23069 21.6204C1.46819 21.3807 1.74982 21.1909 2.05947 21.062C2.36912 20.9331 2.7007 20.8675 3.03526 20.8692H4.59391C4.66432 20.8685 4.73415 20.8821 4.79938 20.9091C4.8646 20.9361 4.92392 20.976 4.97393 21.0264C5.02393 21.0768 5.06362 21.1369 5.09071 21.203C5.11779 21.2691 5.13174 21.3401 5.13174 21.4117C5.13174 21.4834 5.11779 21.5543 5.09071 21.6205C5.06362 21.6866 5.02393 21.7466 4.97393 21.7971C4.92392 21.8475 4.8646 21.8874 4.79938 21.9144C4.73415 21.9413 4.66432 21.9549 4.59391 21.9543H3.03526C2.62294 21.9621 2.22824 22.1258 1.92795 22.4134C1.76775 22.5812 1.64221 22.7799 1.55875 22.9979H18.8263C18.7257 22.6922 18.5327 22.4266 18.2749 22.2392C18.017 22.0518 17.7076 21.952 17.3908 21.9543H15.8321C15.6915 21.953 15.5571 21.8953 15.4581 21.7937C15.3591 21.6921 15.3036 21.5548 15.3036 21.4117C15.3036 21.2686 15.3591 21.1314 15.4581 21.0297C15.5571 20.9281 15.6915 20.8704 15.8321 20.8692H17.3908C18.0748 20.8733 18.7297 21.1517 19.2134 21.644C19.6971 22.1362 19.9707 22.8026 19.9748 23.4988C19.9731 23.6311 19.9207 23.7574 19.8287 23.851C19.7368 23.9445 19.6126 23.9979 19.4826 23.9996Z" fill="#F00A0A"/>
<path d="M15.8733 21.9123H4.59392C4.45331 21.9098 4.31915 21.8518 4.21971 21.7506C4.12026 21.6494 4.06329 21.5129 4.06079 21.3698C4.06874 20.6844 4.33269 20.0278 4.79905 19.5332C5.03655 19.2934 5.31818 19.1036 5.62783 18.9747C5.93747 18.8458 6.26906 18.7803 6.60361 18.7819C6.74426 18.7794 6.87847 18.7214 6.97795 18.6202C7.07744 18.519 7.13444 18.3825 7.13695 18.2394V17.1958C7.13634 17.1241 7.14967 17.053 7.17619 16.9867C7.20271 16.9203 7.24189 16.8599 7.29146 16.809C7.34102 16.7581 7.40001 16.7178 7.465 16.6902C7.52999 16.6626 7.5997 16.6484 7.67011 16.6484C7.74052 16.6484 7.81023 16.6626 7.87522 16.6902C7.94021 16.7178 7.99919 16.7581 8.04876 16.809C8.09833 16.8599 8.13751 16.9203 8.16402 16.9867C8.19054 17.053 8.20388 17.1241 8.20326 17.1958V18.2394C8.20334 18.4477 8.16307 18.654 8.08477 18.8464C8.00646 19.0389 7.89165 19.2138 7.7469 19.361C7.60215 19.5083 7.43029 19.6251 7.24115 19.7048C7.05201 19.7845 6.8493 19.8254 6.64461 19.8253C6.23229 19.8331 5.83759 19.9968 5.5373 20.2845C5.37714 20.4523 5.25161 20.651 5.16809 20.8689H15.258C15.1745 20.6509 15.049 20.4522 14.8888 20.2845C14.5927 19.9901 14.1953 19.8254 13.7815 19.8253C13.3691 19.8176 12.9743 19.654 12.674 19.3664C12.3848 19.065 12.2228 18.6606 12.2228 18.2394V17.1958C12.2232 17.0521 12.2795 16.9144 12.3795 16.813C12.4794 16.7116 12.6149 16.6546 12.756 16.6546C12.8972 16.6546 13.0326 16.7116 13.1326 16.813C13.2325 16.9144 13.2889 17.0521 13.2893 17.1958V18.2394C13.2895 18.3101 13.3042 18.38 13.3324 18.4447C13.3606 18.5093 13.4018 18.5673 13.4532 18.6149C13.5007 18.6664 13.5578 18.7077 13.6212 18.7364C13.6846 18.7651 13.753 18.7806 13.8224 18.7819C14.4959 18.79 15.1412 19.0586 15.6272 19.5332C15.8628 19.7749 16.0493 20.0615 16.176 20.3767C16.3027 20.6918 16.3671 21.0293 16.3654 21.3698C16.3724 21.4392 16.3647 21.5094 16.343 21.5756C16.3213 21.6418 16.286 21.7026 16.2394 21.7539C16.1929 21.8052 16.1362 21.8458 16.0731 21.8731C16.01 21.9004 15.9419 21.9138 15.8733 21.9123Z" fill="#F00A0A"/>
<path d="M12.797 17.7385H7.67003C7.25765 17.7307 6.86288 17.567 6.56252 17.2794C6.27328 16.9781 6.11134 16.5736 6.11133 16.1524C6.11124 15.9441 6.15149 15.7378 6.2298 15.5453C6.3081 15.3528 6.42291 15.1779 6.56767 15.0306C6.71243 14.8834 6.8843 14.7665 7.07345 14.6869C7.2626 14.6072 7.46532 14.5663 7.67003 14.5664H12.797C13.2094 14.5742 13.6041 14.7378 13.9043 15.0256C14.0552 15.1689 14.1737 15.3439 14.2516 15.5385C14.3295 15.7331 14.365 15.9425 14.3555 16.1524C14.3556 16.3607 14.3154 16.567 14.2371 16.7595C14.1588 16.9519 14.044 17.1268 13.8993 17.2741C13.7545 17.4214 13.5827 17.5383 13.3936 17.618C13.2044 17.6976 13.0017 17.7386 12.797 17.7385ZM7.67002 15.6515C7.52939 15.6541 7.39523 15.712 7.29577 15.8133C7.19632 15.9145 7.13934 16.051 7.13684 16.1941C7.13707 16.2649 7.15176 16.3348 7.17998 16.3995C7.2082 16.4642 7.24934 16.5222 7.30077 16.5698C7.34828 16.6213 7.40541 16.6626 7.46882 16.6913C7.53223 16.72 7.60064 16.7355 7.67002 16.7369H12.797C12.9377 16.7343 13.0718 16.6762 13.1713 16.575C13.2707 16.4738 13.3277 16.3372 13.3302 16.1941C13.33 16.1233 13.3153 16.0534 13.287 15.9887C13.2587 15.9241 13.2175 15.8661 13.1661 15.8186C13.0652 15.7219 12.9351 15.6629 12.797 15.6515H7.67002Z" fill="#F00A0A"/>
<path d="M10.254 15.6517C8.94356 15.6524 7.67216 15.1976 6.6503 14.3626C5.62844 13.5277 4.91739 12.3627 4.63485 11.0605C4.5906 10.8827 4.56316 10.701 4.55291 10.5179L3.56854 0.583854C3.56522 0.43505 3.60827 0.288995 3.69152 0.166611C3.73574 0.111102 3.79225 0.0670327 3.85642 0.0380042C3.92059 0.00897576 3.9906 -0.00418607 4.06072 -0.000407116H16.3654C16.4359 -0.00844054 16.5073 0.00279364 16.5722 0.032149C16.637 0.0615045 16.693 0.107919 16.7344 0.166611C16.7843 0.222354 16.8213 0.288779 16.8426 0.360991C16.8639 0.433203 16.869 0.509361 16.8576 0.583854L15.9552 10.5179C15.9142 10.6847 15.9142 10.8517 15.8732 11.0605C15.6114 12.2716 14.9797 13.3674 14.0685 14.1909C13.0058 15.1199 11.6549 15.6372 10.254 15.6517ZM5.57823 10.3926C5.58571 10.535 5.61331 10.6756 5.66017 10.81C5.89631 11.8722 6.47893 12.8217 7.31312 13.5039C8.14731 14.186 9.18391 14.5606 10.254 14.5666C11.4049 14.5719 12.5164 14.1404 13.3712 13.3562C14.1214 12.6754 14.6387 11.7689 14.8477 10.7683C14.8887 10.643 14.8887 10.476 14.9299 10.3509L15.832 1.00129H4.67584L5.57823 10.3926Z" fill="#F00A0A"/>
<path d="M5.12703 11.4783H5.0041C3.84295 11.1341 2.80205 10.4607 2.0031 9.53682C1.20415 8.61289 0.680152 7.47662 0.492374 6.26082L0.041181 3.21379C0.0198651 3.13959 0.0201358 3.06069 0.0419605 2.98664C0.0637853 2.91259 0.106229 2.84657 0.164156 2.79655C0.208384 2.74104 0.264895 2.69698 0.329064 2.66795C0.393234 2.63892 0.463242 2.62576 0.533367 2.62954H4.1427C4.2841 2.62954 4.41972 2.6867 4.5197 2.78845C4.61969 2.8902 4.67586 3.0282 4.67586 3.1721C4.67586 3.31599 4.61969 3.45399 4.5197 3.55574C4.41972 3.65749 4.2841 3.71465 4.1427 3.71465H1.14849L1.51769 6.13571C1.67584 7.15426 2.11418 8.10642 2.78197 8.882C3.44976 9.65759 4.31972 10.2249 5.29116 10.5183C5.41767 10.558 5.52531 10.6438 5.59342 10.7594C5.66153 10.8749 5.6853 11.0119 5.66017 11.1442C5.60026 11.2358 5.52159 11.313 5.42956 11.3707C5.33753 11.4283 5.23432 11.465 5.12703 11.4783Z" fill="#F00A0A"/>
<path d="M1.27164 18.2402C1.02015 18.2403 0.774297 18.1644 0.56518 18.0222C0.356062 17.88 0.193069 17.678 0.0968152 17.4415C0.000561136 17.2051 -0.0246308 16.9449 0.0244237 16.6939C0.0734781 16.4429 0.194575 16.2123 0.372402 16.0313C0.55023 15.8504 0.776801 15.7271 1.02346 15.6772C1.27012 15.6273 1.52578 15.6529 1.75813 15.7508C1.99047 15.8488 2.18906 16.0147 2.32877 16.2275C2.46848 16.4403 2.54304 16.6904 2.54303 16.9464C2.54129 17.289 2.40678 17.617 2.16873 17.8593C1.93067 18.1016 1.6083 18.2385 1.27164 18.2402ZM1.27164 16.6957C1.22296 16.6957 1.17538 16.7104 1.13491 16.7379C1.09443 16.7654 1.06288 16.8045 1.04424 16.8503C1.02561 16.896 1.02071 16.9464 1.03019 16.995C1.03967 17.0436 1.06309 17.0882 1.09749 17.1232C1.1319 17.1583 1.17573 17.1821 1.22347 17.1918C1.2712 17.2015 1.32068 17.1966 1.36566 17.1776C1.41063 17.1587 1.44908 17.1266 1.47615 17.0855C1.50321 17.0443 1.51767 16.9959 1.51771 16.9464C1.51341 16.8814 1.48611 16.8202 1.44087 16.7741C1.39562 16.728 1.3355 16.7002 1.27164 16.6957Z" fill="#F00A0A"/>
<path d="M19.7287 20.8691C19.4772 20.8692 19.2313 20.7933 19.0222 20.6511C18.8131 20.509 18.6501 20.3069 18.5539 20.0705C18.4576 19.834 18.4324 19.5739 18.4814 19.3229C18.5305 19.0719 18.6516 18.8413 18.8294 18.6603C19.0072 18.4793 19.2337 18.3561 19.4804 18.3061C19.727 18.2562 19.9827 18.2818 20.215 18.3797C20.4474 18.4776 20.646 18.6435 20.7857 18.8562C20.9255 19.069 21 19.3192 21.0001 19.5751C20.9915 19.9155 20.8548 20.2396 20.6182 20.4804C20.3816 20.7212 20.0632 20.8604 19.7287 20.8691ZM19.7287 19.283C19.68 19.283 19.6324 19.2977 19.5919 19.3252C19.5514 19.3527 19.5199 19.3918 19.5013 19.4376C19.4826 19.4833 19.4777 19.5337 19.4872 19.5823C19.4967 19.6309 19.5202 19.6755 19.5546 19.7105C19.589 19.7456 19.6329 19.7694 19.6806 19.7791C19.7284 19.7887 19.7779 19.7838 19.8228 19.7648C19.8678 19.7459 19.9062 19.7137 19.9333 19.6726C19.9603 19.6314 19.9747 19.5829 19.9747 19.5334C19.9704 19.4684 19.9431 19.4073 19.8978 19.3612C19.8526 19.3152 19.7925 19.2874 19.7287 19.283Z" fill="#F00A0A"/>
<path d="M18.2111 15.1096C17.8541 15.1096 17.5052 15.0019 17.2084 14.8001C16.9116 14.5983 16.6803 14.3115 16.5437 13.976C16.4071 13.6404 16.3713 13.2711 16.4409 12.9149C16.5105 12.5586 16.6824 12.2314 16.9348 11.9745C17.1871 11.7176 17.5087 11.5427 17.8588 11.4718C18.2088 11.4009 18.5717 11.4373 18.9015 11.5763C19.2313 11.7153 19.5131 11.9507 19.7114 12.2527C19.9098 12.5547 20.0156 12.9097 20.0156 13.273C20.0115 13.7587 19.82 14.2234 19.4825 14.5669C19.145 14.9104 18.6884 15.1053 18.2111 15.1096ZM18.2111 12.5217C18.1087 12.5216 18.0073 12.5421 17.9127 12.5819C17.8181 12.6217 17.7322 12.6801 17.6598 12.7537C17.5874 12.8274 17.53 12.9149 17.4908 13.0111C17.4517 13.1074 17.4316 13.2105 17.4316 13.3147C17.4281 13.4198 17.4459 13.5245 17.4838 13.6224C17.5218 13.7202 17.5791 13.8091 17.6521 13.8834C17.7252 13.9578 17.8126 14.0161 17.9087 14.0547C18.0049 14.0933 18.1078 14.1114 18.2111 14.1078C18.4178 14.1078 18.616 14.0243 18.7621 13.8756C18.9083 13.7268 18.9904 13.5251 18.9904 13.3148C18.9904 13.1044 18.9083 12.9027 18.7621 12.754C18.616 12.6052 18.4178 12.5217 18.2111 12.5217Z" fill="#F00A0A"/>
<path d="M8.32634 11.52C8.22516 11.5175 8.12628 11.4888 8.03907 11.4365C7.95695 11.3664 7.89467 11.2753 7.85866 11.1726C7.82264 11.0699 7.81418 10.9592 7.83415 10.8521L8.44927 8.93207L6.84962 7.76335C6.7675 7.69329 6.70522 7.60223 6.66917 7.49954C6.63312 7.39685 6.62462 7.28624 6.64454 7.17909C6.678 7.07213 6.74342 6.97844 6.83167 6.91109C6.91992 6.84375 7.02661 6.80608 7.13689 6.80335H9.10559L9.72091 4.88335C9.75431 4.7764 9.81969 4.68273 9.90791 4.61541C9.99614 4.54809 10.1028 4.51047 10.2131 4.50781C10.3239 4.50826 10.4316 4.54503 10.5202 4.61268C10.6089 4.68032 10.6738 4.77524 10.7052 4.88335L11.3204 6.80335H13.2893C13.4001 6.80385 13.5078 6.84066 13.5964 6.90834C13.6851 6.97601 13.75 7.07096 13.7814 7.17909C13.8207 7.28542 13.8217 7.4025 13.7841 7.50949C13.7466 7.61648 13.6729 7.70644 13.5763 7.76335L11.9767 8.93207L12.592 10.8521C12.6313 10.9584 12.6322 11.0755 12.5947 11.1826C12.5571 11.2896 12.4835 11.3796 12.3869 11.4365C12.2956 11.4979 12.1886 11.5306 12.0792 11.5306C11.9698 11.5306 11.8628 11.4979 11.7716 11.4365L10.1719 10.2678L8.65442 11.4365C8.55072 11.4837 8.43967 11.512 8.32634 11.52ZM10.254 9.05738C10.3551 9.05983 10.454 9.08853 10.5411 9.14077L11.1564 9.59992L10.9103 8.84864C10.871 8.7423 10.87 8.62521 10.9075 8.51819C10.945 8.41117 11.0186 8.32116 11.1152 8.26418L11.7306 7.80505H10.9513C10.8405 7.80462 10.7328 7.76787 10.6441 7.70022C10.5555 7.63257 10.4906 7.53764 10.4591 7.42951L10.2131 6.67823L9.96698 7.42951C9.93355 7.53645 9.86816 7.63011 9.77993 7.69742C9.69171 7.76474 9.58504 7.80236 9.4748 7.80505H8.69538L9.31067 8.26418C9.39282 8.33425 9.45513 8.42535 9.49119 8.52808C9.52724 8.63081 9.53573 8.74146 9.51579 8.84864L9.26972 9.59992L9.88482 9.14077C10.004 9.09749 10.128 9.06948 10.254 9.05738Z" fill="#F00A0A"/>
<path d="M13.8224 19.8253H10.2131C10.0717 19.8253 9.93607 19.7682 9.83609 19.6664C9.7361 19.5647 9.67993 19.4267 9.67993 19.2828C9.67993 19.1389 9.7361 19.0009 9.83609 18.8991C9.93607 18.7974 10.0717 18.7402 10.2131 18.7402H13.8224C13.9638 18.7402 14.0994 18.7974 14.1994 18.8991C14.2994 19.0009 14.3555 19.1389 14.3555 19.2828C14.3555 19.4267 14.2994 19.5647 14.1994 19.6664C14.0994 19.7682 13.9638 19.8253 13.8224 19.8253Z" fill="#F00A0A"/>
<path d="M20.3848 2.75471C20.2683 2.65729 20.125 2.599 19.9746 2.58789H16.078V3.63131H19.3593L18.9903 6.05216C18.8322 7.07072 18.3938 8.0229 17.726 8.79849C17.0582 9.57408 16.1883 10.1414 15.2168 10.4347C15.0903 10.4745 14.9827 10.5604 14.9145 10.676C14.8464 10.7915 14.8226 10.9286 14.8476 11.0609C14.8862 11.1646 14.953 11.2549 15.0401 11.3214C15.1272 11.3879 15.2312 11.4279 15.3398 11.4366H15.4629C16.624 11.0925 17.6649 10.4191 18.4639 9.49516C19.2628 8.57124 19.7868 7.43497 19.9746 6.21918L20.4258 3.17216C20.4594 3.10602 20.4735 3.03135 20.4662 2.95724C20.4589 2.88313 20.4307 2.81277 20.3848 2.75471Z" fill="#F00A0A"/>
</g>
<defs>
<clipPath id="clip0_2238_15840">
<rect width="21" height="24" fill="white"/>
</clipPath>
</defs>
</svg>
