<svg width="26" height="26" viewBox="0 0 26 26" fill="none" xmlns="http://www.w3.org/2000/svg">
<path d="M9.75004 14.0837H11.9167V11.1045H14.0834V14.0837H16.25V8.93783L13 6.77116L9.75004 8.93783V14.0837ZM13 20.9628C15.2028 18.9406 16.8368 17.1035 17.9021 15.4514C18.9674 13.7993 19.5 12.3323 19.5 11.0503C19.5 9.08227 18.8726 7.47081 17.6177 6.21595C16.3629 4.96109 14.8237 4.33366 13 4.33366C11.1764 4.33366 9.63719 4.96109 8.38233 6.21595C7.12747 7.47081 6.50004 9.08227 6.50004 11.0503C6.50004 12.3323 7.03268 13.7993 8.09796 15.4514C9.16323 17.1035 10.7973 18.9406 13 20.9628ZM13 23.8337C10.0931 21.36 7.92192 19.0625 6.4865 16.941C5.05108 14.8194 4.33337 12.8559 4.33337 11.0503C4.33337 8.34199 5.20455 6.18435 6.94692 4.57741C8.68928 2.97046 10.707 2.16699 13 2.16699C15.2931 2.16699 17.3108 2.97046 19.0532 4.57741C20.7955 6.18435 21.6667 8.34199 21.6667 11.0503C21.6667 12.8559 20.949 14.8194 19.5136 16.941C18.0782 19.0625 15.907 21.36 13 23.8337Z" fill="#F00A0A"/>
</svg>
