<svg width="16" height="16" viewBox="0 0 16 16" fill="none" xmlns="http://www.w3.org/2000/svg">
<path d="M5.99996 8.66683H7.33329V6.8335H8.66663V8.66683H9.99996V5.50016L7.99996 4.16683L5.99996 5.50016V8.66683ZM7.99996 14.6668C6.21107 13.1446 4.87496 11.7307 3.99163 10.4252C3.10829 9.11961 2.66663 7.91127 2.66663 6.80016C2.66663 5.1335 3.20274 3.80572 4.27496 2.81683C5.34718 1.82794 6.58885 1.3335 7.99996 1.3335C9.41107 1.3335 10.6527 1.82794 11.725 2.81683C12.7972 3.80572 13.3333 5.1335 13.3333 6.80016C13.3333 7.91127 12.8916 9.11961 12.0083 10.4252C11.125 11.7307 9.78885 13.1446 7.99996 14.6668Z" fill="#9DACD4"/>
</svg>
