<svg width="16" height="16" viewBox="0 0 16 16" fill="none" xmlns="http://www.w3.org/2000/svg">
<path d="M5.99996 8.66634H7.33329V6.83301H8.66663V8.66634H9.99996V5.49967L7.99996 4.16634L5.99996 5.49967V8.66634ZM7.99996 14.6663C6.21107 13.1441 4.87496 11.7302 3.99163 10.4247C3.10829 9.11912 2.66663 7.91079 2.66663 6.79967C2.66663 5.13301 3.20274 3.80523 4.27496 2.81634C5.34718 1.82745 6.58885 1.33301 7.99996 1.33301C9.41107 1.33301 10.6527 1.82745 11.725 2.81634C12.7972 3.80523 13.3333 5.13301 13.3333 6.79967C13.3333 7.91079 12.8916 9.11912 12.0083 10.4247C11.125 11.7302 9.78885 13.1441 7.99996 14.6663Z" fill="#9DACD4"/>
</svg>
