<svg width="16" height="16" viewBox="0 0 16 16" fill="none" xmlns="http://www.w3.org/2000/svg">
<path d="M6.44984 9.13325L7.03317 7.23325L5.49984 5.99992H7.39984L7.99984 4.13325L8.59984 5.99992H10.4998L8.94984 7.23325L9.53317 9.13325L7.99984 7.94992L6.44984 9.13325ZM3.99984 15.3333V10.1833C3.57761 9.71659 3.24984 9.18325 3.0165 8.58325C2.78317 7.98325 2.6665 7.34436 2.6665 6.66659C2.6665 5.1777 3.18317 3.91659 4.2165 2.88325C5.24984 1.84992 6.51095 1.33325 7.99984 1.33325C9.48873 1.33325 10.7498 1.84992 11.7832 2.88325C12.8165 3.91659 13.3332 5.1777 13.3332 6.66659C13.3332 7.34436 13.2165 7.98325 12.9832 8.58325C12.7498 9.18325 12.4221 9.71659 11.9998 10.1833V15.3333L7.99984 13.9999L3.99984 15.3333ZM7.99984 10.6666C9.11095 10.6666 10.0554 10.2777 10.8332 9.49992C11.6109 8.72214 11.9998 7.7777 11.9998 6.66659C11.9998 5.55547 11.6109 4.61103 10.8332 3.83325C10.0554 3.05547 9.11095 2.66659 7.99984 2.66659C6.88873 2.66659 5.94428 3.05547 5.1665 3.83325C4.38873 4.61103 3.99984 5.55547 3.99984 6.66659C3.99984 7.7777 4.38873 8.72214 5.1665 9.49992C5.94428 10.2777 6.88873 10.6666 7.99984 10.6666ZM5.33317 13.3499L7.99984 12.6666L10.6665 13.3499V11.2833C10.2776 11.5055 9.85817 11.6805 9.40817 11.8083C8.95817 11.936 8.48873 11.9999 7.99984 11.9999C7.51095 11.9999 7.0415 11.936 6.5915 11.8083C6.1415 11.6805 5.72206 11.5055 5.33317 11.2833V13.3499Z" fill="#258D00"/>
</svg>
