<svg width="94" height="95" viewBox="0 0 94 95" fill="none" xmlns="http://www.w3.org/2000/svg">
<g clip-path="url(#clip0_2105_9614)">
<path d="M86.9677 34.1327C87.0761 35.4981 86.8919 36.7102 86.7085 37.9555C86.6502 38.3527 86.576 38.745 86.4857 39.1326C86.446 39.3069 86.4063 39.4781 86.3642 39.6513C85.8425 41.8657 84.8281 43.8807 83.3607 45.5166C83.3139 45.5698 83.2666 45.6216 83.219 45.6722C81.8103 47.172 80.2754 48.5166 78.4213 49.5229C76.589 50.6289 74.6169 51.5486 72.5663 52.4591C72.3039 52.5757 72.0462 52.7013 71.7929 52.8342C70.9814 53.2603 70.2238 53.6653 69.5298 54.174C66.6807 56.0613 65.1002 58.879 64.1064 62.0427C63.6097 63.6247 63.2564 65.2906 62.955 66.9652C62.9276 80.1294 50.6976 89.7588 37.3467 87.0943C36.8198 86.969 36.3867 86.7543 35.8777 86.5716C34.2499 85.9176 32.7666 85.0027 31.448 83.7706C29.2195 81.6559 27.9355 79.1175 26.9946 76.4095C26.6809 75.5069 26.4054 74.5857 26.1457 73.6564C25.3914 70.8789 24.7688 67.9108 22.6447 65.7279C19.4582 62.4525 15.3394 60.9103 11.5359 58.2434C5.51098 54.0288 5.92587 46.0548 10.2257 42.0042C10.9006 41.3223 11.578 40.7381 12.2728 40.0961C15.871 37.0398 20.7799 36.7577 25.4513 35.7311C28.2174 35.0612 30.6873 33.622 31.7796 30.9259C34.1347 25.4122 35.6919 19.7879 39.4593 15.3586C39.9802 14.6899 40.5273 14.0439 41.1006 13.4278C42.8201 11.5792 44.7767 10 46.9814 8.87922C47.8686 8.42737 48.7942 8.05603 49.7471 7.76961C60.1187 4.21851 73.62 7.91165 80.5755 18.6383C81.8405 20.5887 83.0288 22.5713 83.9876 24.6505C84.7606 26.361 85.4741 28.0468 86.0387 29.8953C86.1931 30.4759 86.3654 30.9994 86.5103 31.5783C86.7537 32.5187 86.9078 33.3774 86.9677 34.1327Z" fill="#9DACD4"/>
<path d="M31.3608 23.8856C30.3285 25.3894 28.9905 26.4241 27.647 26.8861C26.3035 27.3481 24.9472 27.242 23.8752 26.4647C22.8033 25.6875 22.2212 24.3876 22.1569 22.9081C22.0926 21.4286 22.5539 19.7664 23.5802 18.2641C24.6066 16.7619 26.0001 15.7021 27.4163 15.2098C28.8325 14.7174 30.2539 14.7972 31.3255 15.5749C32.3971 16.3525 32.9243 17.678 32.9207 19.1862C32.9172 20.6944 32.3911 22.3838 31.3608 23.8856Z" fill="#9DACD4"/>
<path d="M77.8715 60.442C79.1289 62.9445 77.4467 66.0563 74.7957 67.3714C73.3918 68.0772 71.8974 68.238 70.5944 67.9527C69.2913 67.6674 68.1757 66.9405 67.548 65.838C66.9203 64.7356 66.8976 63.4632 67.3689 62.3005C68.4409 59.7006 71.6731 58.2175 74.6179 58.514C76.0372 58.6708 77.2486 59.3108 77.8715 60.442Z" fill="#9DACD4"/>
<mask id="mask0_2105_9614" style="mask-type:luminance" maskUnits="userSpaceOnUse" x="-2" y="-3" width="117" height="119">
<path d="M114.953 37.8099C115.111 39.8068 114.842 41.5796 114.574 43.4008C114.488 43.9816 114.38 44.5555 114.248 45.1223C114.19 45.3773 114.132 45.6276 114.07 45.8809C113.307 49.1195 111.824 52.0664 109.678 54.4589C109.609 54.5367 109.54 54.6125 109.47 54.6865C107.41 56.88 105.165 58.8465 102.454 60.3182C99.7738 61.9358 96.8897 63.2808 93.8906 64.6125C93.5068 64.7829 93.13 64.9667 92.7595 65.161C91.5727 65.7842 90.4648 66.3765 89.4498 67.1205C85.283 69.8806 82.9714 74.0016 81.518 78.6285C80.7916 80.9422 80.2748 83.3785 79.8341 85.8276C79.7941 105.08 61.9075 119.163 42.3818 115.267C41.6113 115.083 40.9778 114.769 40.2334 114.502C37.8527 113.546 35.6833 112.208 33.755 110.406C30.4958 107.313 28.6179 103.6 27.2418 99.6399C26.783 98.32 26.3801 96.9726 26.0003 95.6135C24.8971 91.5515 23.9866 87.2106 20.8801 84.018C16.2198 79.2278 10.196 76.9724 4.63334 73.072C-4.17811 66.9081 -3.57133 55.2461 2.71718 49.322C3.70429 48.3247 4.69489 47.4704 5.71104 46.5315C10.9735 42.0616 18.1528 41.649 24.9848 40.1476C29.0302 39.1678 32.6425 37.063 34.2398 33.12C37.6843 25.0561 39.9616 16.8305 45.4715 10.3527C46.2333 9.37467 47.0334 8.42992 47.8719 7.52893C50.3867 4.8254 53.2482 2.51575 56.4726 0.876589C57.7701 0.215766 59.1238 -0.327319 60.5174 -0.746221C75.6859 -5.93972 95.4317 -0.538487 105.604 15.1494C107.454 18.0017 109.192 20.9013 110.594 23.9421C111.725 26.4438 112.768 28.9092 113.594 31.6128C113.82 32.4618 114.072 33.2274 114.284 34.0741C114.64 35.4495 114.865 36.7053 114.953 37.8099ZM35.9069 15.9535C35.9121 13.7477 35.1416 11.8104 33.5738 10.6719C32.0061 9.53339 29.9279 9.41786 27.8567 10.1379C25.7855 10.858 23.7439 12.4079 22.2464 14.6049C20.7489 16.8019 20.0707 19.233 20.1647 21.3967C20.2588 23.5605 21.1106 25.4622 22.6778 26.5984C24.245 27.7345 26.2308 27.8904 28.194 27.2146C30.1572 26.5389 32.1187 25.0258 33.6255 22.8264C35.1323 20.6271 35.9017 18.1587 35.9069 15.9535ZM96.8909 73.4671C92.5842 73.0335 87.8599 75.2025 86.2893 79.0048C85.6 80.7053 85.6326 82.5644 86.5511 84.1785C87.4697 85.7926 89.1026 86.8546 91.0065 87.2713C92.9105 87.6879 95.0978 87.4533 97.151 86.4211C101.028 84.4954 103.488 79.9467 101.649 76.2867C100.738 74.6336 98.9667 73.6976 96.8909 73.4671Z" fill="white"/>
</mask>
<g mask="url(#mask0_2105_9614)">
<g style="mix-blend-mode:multiply" opacity="0.19">
<path d="M72.9273 15.1543H31.7029C28.3405 15.1543 25.6147 17.8936 25.6147 21.2728V71.9206C25.6147 75.2997 28.3405 78.039 31.7029 78.039H72.9273C76.2897 78.039 79.0155 75.2997 79.0155 71.9206V21.2728C79.0155 17.8936 76.2897 15.1543 72.9273 15.1543Z" fill="#3636CF"/>
</g>
</g>
<path d="M68.7864 11.0776H27.5621C24.1996 11.0776 21.4738 13.817 21.4738 17.1961V67.8439C21.4738 71.223 24.1996 73.9624 27.5621 73.9624H68.7864C72.1489 73.9624 74.8747 71.223 74.8747 67.8439V17.1961C74.8747 13.817 72.1489 11.0776 68.7864 11.0776Z" fill="#F5F5F5"/>
<path d="M51.3675 26.4324L40.4946 31.8804L52.3845 55.8463L63.2575 50.3983L51.3675 26.4324Z" fill="#B5D99A"/>
<g style="mix-blend-mode:multiply">
<path d="M63.2445 50.4115L52.3712 55.8588L40.7557 32.442L47.4111 28.4209L63.2445 50.4115Z" fill="#B5D99A"/>
</g>
<path d="M62.5868 50.0932L52.5151 55.1405L41.1418 32.2127L51.2134 27.1675L62.5868 50.0932ZM52.627 54.8025L62.2518 49.9808L51.1015 27.502L41.4767 32.3237L52.627 54.8025Z" fill="#8BA979"/>
<path d="M46.7341 28.3152L37.2682 35.9692L53.9727 56.8337L63.4386 49.1797L46.7341 28.3152Z" fill="#B5D99A"/>
<path d="M62.734 48.9994L53.9661 56.0893L37.9861 36.1306L46.754 29.04L62.734 48.9994ZM54.0043 55.737L62.3835 48.961L46.7151 29.393L38.3359 36.1683L54.0043 55.737Z" fill="#8BA979"/>
<g style="mix-blend-mode:multiply">
<path d="M62.8729 49.1327L53.9803 56.8239L37.2751 35.96L43.6806 30.7803L62.8729 49.1327Z" fill="#B5D99A"/>
</g>
<path d="M43.0274 30.8469L34.7632 39.7969L54.2962 58.0126L62.5603 49.0626L43.0274 30.8469Z" fill="#B5D99A"/>
<path d="M61.8319 48.9975L54.1772 57.2873L35.4913 39.8616L43.1459 31.5718L61.8319 48.9975ZM54.1652 56.9329L61.4799 49.0104L43.1601 31.9298L35.8447 39.8516L54.1652 56.9329Z" fill="#8BA979"/>
<path d="M48.5053 22.3633C37.7411 22.3633 29.0099 31.1349 29.0099 41.9547C29.0099 52.7746 37.7354 61.5448 48.5053 61.5448C59.2753 61.5448 68 52.7732 68 41.9526C68 31.132 59.2717 22.3633 48.5053 22.3633ZM48.5053 58.7307C39.287 58.7307 31.8143 51.221 31.8143 41.9569C31.8143 32.6928 39.287 25.1837 48.5053 25.1837C57.7237 25.1837 65.1956 32.6935 65.1956 41.9569C65.1956 51.2203 57.723 58.7286 48.5053 58.7286V58.7307Z" fill="#F00A0A"/>
<path d="M34.5621 54.2816L61.4488 27.8813L63.1484 30.5829L36.9402 56.5761L34.5621 54.2816Z" fill="#F00A0A"/>
</g>
<defs>
<clipPath id="clip0_2105_9614">
<rect width="94" height="94" fill="white" transform="translate(0 0.5)"/>
</clipPath>
</defs>
</svg>
