<svg width="170" height="127" viewBox="0 0 170 127" fill="none" xmlns="http://www.w3.org/2000/svg">
<path d="M170 111.605H0V111.691H170V111.605Z" fill="#9DACD4"/>
<path d="M58.8949 113.78H51.0137V113.865H58.8949V113.78Z" fill="#EBEBEB"/>
<path d="M155.982 115.607H136.714V115.693H155.982V115.607Z" fill="#EBEBEB"/>
<path d="M33.7927 115.607H14.5249V115.693H33.7927V115.607Z" fill="#9DACD4"/>
<path d="M107.124 84.5483H99.2732V111.79H107.124V84.5483Z" fill="#7091E8"/>
<path d="M101.565 84.5483H93.7144V111.79H101.565V84.5483Z" fill="#7091E8"/>
<path d="M100.075 111.79H101.565V107.536H98.5085L100.075 111.79Z" fill="#F0F0F0"/>
<path d="M62.1024 84.5483H54.2515V111.79H62.1024V84.5483Z" fill="#E6E6E6"/>
<path d="M101.565 84.5483H60.8005V109.696H101.565V84.5483Z" fill="#E7EFFF"/>
<path d="M99.0274 104.038H83.0613C82.6497 104.037 82.2552 103.873 81.9641 103.581C81.6731 103.289 81.5092 102.894 81.5083 102.481V87.1723C81.5092 86.7596 81.6731 86.364 81.9641 86.0722C82.2552 85.7804 82.6497 85.6161 83.0613 85.6152H99.0241C99.4358 85.6161 99.8303 85.7804 100.121 86.0722C100.412 86.364 100.576 86.7596 100.577 87.1723V102.481C100.576 102.893 100.413 103.288 100.122 103.58C99.8322 103.872 99.4385 104.036 99.0274 104.038ZM83.0613 85.9631C82.7411 85.9631 82.434 86.0904 82.2073 86.317C81.9806 86.5437 81.8528 86.8513 81.8519 87.1723V102.481C81.8484 102.803 81.9725 103.112 82.1968 103.342C82.4211 103.572 82.7273 103.703 83.048 103.707L83.0613 103.707H99.0241C99.3449 103.709 99.6535 103.584 99.8822 103.359C100.111 103.133 100.241 102.826 100.243 102.504C100.244 102.496 100.244 102.489 100.243 102.481V87.1723C100.243 86.8513 100.115 86.5437 99.888 86.317C99.6613 86.0903 99.3542 85.9631 99.034 85.9631H83.0613Z" fill="#E0E0E0"/>
<path d="M79.301 104.038H63.3381C62.9265 104.037 62.532 103.873 62.241 103.581C61.9499 103.289 61.786 102.894 61.7852 102.481V87.1723C61.786 86.7596 61.9499 86.364 62.241 86.0722C62.532 85.7804 62.9265 85.6161 63.3381 85.6152H79.301C79.5049 85.6152 79.7069 85.6555 79.8953 85.7337C80.0837 85.812 80.2549 85.9267 80.3991 86.0712C80.5433 86.2158 80.6577 86.3875 80.7358 86.5764C80.8138 86.7653 80.854 86.9678 80.854 87.1722V102.481C80.854 102.894 80.6904 103.29 80.3992 103.582C80.1079 103.874 79.7129 104.038 79.301 104.038ZM63.3381 85.9631C63.0183 85.9631 62.7115 86.0905 62.4853 86.3172C62.2592 86.544 62.1321 86.8516 62.1321 87.1723V102.481C62.1321 102.802 62.2592 103.109 62.4853 103.336C62.7115 103.563 63.0183 103.69 63.3381 103.69H79.301C79.6212 103.69 79.9283 103.563 80.155 103.336C80.3817 103.109 80.5095 102.802 80.5103 102.481V87.1723C80.5095 86.8513 80.3817 86.5437 80.155 86.317C79.9283 86.0903 79.6212 85.9631 79.301 85.9631H63.3381Z" fill="#E0E0E0"/>
<path d="M77.8208 90.4553C77.5241 90.456 77.2339 90.3684 76.9868 90.2037C76.7398 90.039 76.547 89.8045 76.4328 89.5299C76.3187 89.2553 76.2883 88.953 76.3456 88.6611C76.4028 88.3692 76.5451 88.1009 76.7544 87.8901C76.9638 87.6793 77.2308 87.5355 77.5216 87.4768C77.8125 87.4181 78.1142 87.4473 78.3885 87.5605C78.6629 87.6737 78.8976 87.866 79.063 88.1129C79.2284 88.3599 79.317 88.6505 79.3176 88.948V88.9546C79.3168 89.3523 79.1588 89.7336 78.8783 90.0148C78.5977 90.2961 78.2175 90.4544 77.8208 90.4553Z" fill="#FAFAFA"/>
<path d="M84.5449 90.4553C84.2482 90.4572 83.9576 90.371 83.7098 90.2073C83.462 90.0437 83.2682 89.8101 83.1529 89.536C83.0376 89.2619 83.0059 88.9597 83.0618 88.6676C83.1178 88.3754 83.2589 88.1065 83.4673 87.8948C83.6758 87.6831 83.9421 87.5381 84.2327 87.4781C84.5233 87.4182 84.8251 87.446 85.1 87.558C85.3748 87.67 85.6104 87.8612 85.7768 88.1075C85.9433 88.3537 86.0332 88.6439 86.0351 88.9414C86.0352 88.9491 86.0352 88.9568 86.0351 88.9645C86.0325 89.3596 85.8745 89.7378 85.5955 90.0169C85.3165 90.296 84.939 90.4535 84.5449 90.4553Z" fill="#FAFAFA"/>
<path d="M62.2908 111.79H60.8005V107.536H63.8571L62.2908 111.79Z" fill="#F0F0F0"/>
<path d="M59.6011 84.5483H51.7502V111.79H59.6011V84.5483Z" fill="#E6E6E6"/>
<path d="M58.1107 111.79H59.6009V107.536H56.5447L58.1107 111.79Z" fill="#F0F0F0"/>
<path d="M59.601 84.5483H18.8364V109.696H59.601V84.5483Z" fill="#E7EFFF"/>
<path d="M57.0635 104.038H41.0973C40.6851 104.038 40.2898 103.874 39.998 103.582C39.7062 103.29 39.5419 102.894 39.541 102.481V87.1723C39.5419 86.759 39.7062 86.363 39.998 86.0711C40.2898 85.7792 40.6851 85.6152 41.0973 85.6152H57.0602C57.4718 85.6161 57.8663 85.7804 58.1573 86.0722C58.4484 86.364 58.6123 86.7596 58.6131 87.1723V102.481C58.6123 102.893 58.4489 103.288 58.1585 103.58C57.8682 103.872 57.4745 104.036 57.0635 104.038ZM41.0973 85.9631C40.7771 85.9631 40.47 86.0904 40.2433 86.317C40.0166 86.5437 39.8888 86.8513 39.888 87.1723V102.481C39.8862 102.64 39.9158 102.798 39.9749 102.946C40.0341 103.094 40.1217 103.228 40.2328 103.342C40.3438 103.456 40.4762 103.547 40.6222 103.609C40.7683 103.672 40.9252 103.705 41.084 103.707L41.0973 103.707H57.0602C57.3809 103.709 57.6895 103.584 57.9182 103.359C58.1469 103.133 58.2768 102.826 58.2795 102.504C58.2795 102.496 58.2795 102.489 58.2794 102.481V87.1723C58.2786 86.8518 58.1512 86.5448 57.9252 86.3182C57.6992 86.0916 57.393 85.9639 57.0734 85.9631H41.0973Z" fill="#E0E0E0"/>
<path d="M37.3371 104.038H21.3743C20.9624 104.038 20.5674 103.874 20.2761 103.582C19.9849 103.29 19.8213 102.894 19.8213 102.481V87.1723C19.8213 86.9678 19.8615 86.7653 19.9395 86.5764C20.0175 86.3875 20.1319 86.2159 20.2761 86.0713C20.4204 85.9267 20.5916 85.812 20.78 85.7337C20.9684 85.6555 21.1703 85.6152 21.3743 85.6152H37.3371C37.7487 85.6161 38.1433 85.7804 38.4343 86.0722C38.7254 86.364 38.8893 86.7596 38.8901 87.1723V102.481C38.8892 102.894 38.7254 103.289 38.4343 103.581C38.1433 103.873 37.7488 104.037 37.3371 104.038ZM21.3743 85.9631C21.0541 85.9631 20.747 86.0904 20.5203 86.317C20.2936 86.5437 20.1658 86.8513 20.1649 87.1723V102.481C20.1632 102.64 20.1927 102.798 20.2519 102.946C20.3111 103.094 20.3987 103.228 20.5098 103.342C20.6208 103.456 20.7532 103.547 20.8992 103.609C21.0453 103.672 21.2022 103.705 21.361 103.707L21.3743 103.707H37.3371C37.6573 103.707 37.9644 103.579 38.1911 103.353C38.4178 103.126 38.5456 102.819 38.5465 102.498V87.1723C38.5456 86.8513 38.4178 86.5437 38.1911 86.317C37.9644 86.0903 37.6573 85.9631 37.3371 85.9631H21.3743Z" fill="#E0E0E0"/>
<path d="M35.8567 90.4553C35.56 90.456 35.2698 90.3684 35.0227 90.2037C34.7757 90.039 34.5829 89.8045 34.4687 89.5299C34.3546 89.2553 34.3242 88.953 34.3815 88.6611C34.4387 88.3692 34.581 88.1009 34.7903 87.8901C34.9997 87.6793 35.2666 87.5355 35.5575 87.4768C35.8484 87.4181 36.1501 87.4473 36.4244 87.5605C36.6988 87.6737 36.9335 87.866 37.0989 88.1129C37.2643 88.3599 37.3529 88.6505 37.3535 88.948V88.9546C37.3535 89.1517 37.3148 89.3468 37.2396 89.5289C37.1644 89.711 37.0541 89.8764 36.9151 90.0158C36.7761 90.1551 36.6111 90.2657 36.4295 90.3411C36.2479 90.4165 36.0533 90.4553 35.8567 90.4553Z" fill="#FAFAFA"/>
<path d="M42.581 90.4553C42.2843 90.4572 41.9937 90.371 41.746 90.2073C41.4982 90.0437 41.3044 89.8101 41.189 89.536C41.0737 89.2619 41.042 88.9597 41.098 88.6676C41.1539 88.3755 41.2951 88.1065 41.5035 87.8948C41.7119 87.6831 41.9782 87.5381 42.2688 87.4781C42.5594 87.4182 42.8612 87.446 43.1361 87.558C43.4109 87.67 43.6465 87.8612 43.813 88.1075C43.9794 88.3537 44.0693 88.6439 44.0713 88.9414C44.0713 88.9491 44.0713 88.9568 44.0712 88.9645C44.0686 89.3597 43.9107 89.7378 43.6317 90.0169C43.3527 90.296 42.9751 90.4536 42.581 90.4553Z" fill="#FAFAFA"/>
<path d="M20.3269 111.79H18.8367V107.536H21.8895L20.3269 111.79Z" fill="#F0F0F0"/>
<path d="M90.8772 9.04004H76.2693V23.6859H90.8772V9.04004Z" fill="#E7EFFF"/>
<path d="M91.5246 9.04248H90.8772V23.6885H91.5246V9.04248Z" fill="#B0C2F1"/>
<path d="M88.899 11.0259H78.25V21.7026H88.899V11.0259Z" fill="white"/>
<path d="M85.3559 18.1503C84.8833 18.6242 84.2423 18.8904 83.5739 18.8904C82.9055 18.8904 82.2645 18.6242 81.7919 18.1503C81.5578 17.9157 81.3722 17.6371 81.2456 17.3306C81.1189 17.024 81.0537 16.6955 81.0537 16.3636C81.0537 16.0318 81.1189 15.7033 81.2456 15.3967C81.3722 15.0901 81.5578 14.8116 81.7919 14.577C82.2645 14.1031 82.9055 13.8369 83.5739 13.8369C84.2423 13.8369 84.8833 14.1031 85.3559 14.577C85.8286 15.0508 86.0941 15.6935 86.0941 16.3637C86.0941 17.0338 85.8286 17.6765 85.3559 18.1503Z" fill="#F5F5F5"/>
<path d="M153.169 22.3496H143.897V24.5213H153.169V22.3496Z" fill="#E7EFFF"/>
<path d="M143.897 22.3496H105.519V24.5213H143.897V22.3496Z" fill="#F4F7FF"/>
<path d="M127.327 10.8184H116.523V22.3494H127.327V10.8184Z" fill="#E0E0E0"/>
<path d="M116.523 10.8184H113.755V22.3494H116.523V10.8184Z" fill="#9DACD4"/>
<path d="M130.16 9.04004H122.044V22.3493H130.16V9.04004Z" fill="#E7EFFF"/>
<path d="M122.047 9.04004H119.701V22.3493H122.047V9.04004Z" fill="#9DACD4"/>
<path d="M131.278 10.8184H124.435V22.3494H131.278V10.8184Z" fill="#9DACD4"/>
<path d="M124.435 10.8184H122.872V22.3494H124.435V10.8184Z" fill="#FAFAFA"/>
<path d="M139.011 12.7695H130.036V22.3493H139.011V12.7695Z" fill="#E7EFFF"/>
<path d="M130.036 12.7695H127.738V22.3493H130.036V12.7695Z" fill="#FAFAFA"/>
<path d="M141.364 11.2925H134.622V22.3496H141.364V11.2925Z" fill="#E7EFFF"/>
<path d="M134.625 11.2925H132.676V22.3496H134.625V11.2925Z" fill="#9DACD4"/>
<path d="M143.159 12.7695H136.609V22.3493H143.159V12.7695Z" fill="#9DACD4"/>
<path d="M136.606 12.7695H135.308V22.3493H136.606V12.7695Z" fill="#FAFAFA"/>
<path d="M138.411 86.729C141.315 82.9226 148.228 81.508 150.617 79.1095C153.746 75.9623 153.729 71.2415 151.066 69.5386C148.753 68.0578 141.084 78.0692 140.221 79.1857C137.248 83.0319 136.389 85.8876 135.83 88.6505C135.893 86.3017 135.956 84.1417 136.005 82.4787C136.167 77.0456 136.369 75.2997 136.461 74.763C136.792 74.498 137.162 74.1932 137.38 74.0309C139.237 72.6428 143.351 70.9897 145.409 68.9755C148.413 66.0304 147.927 62.5055 145.819 61.1936C143.618 59.8221 139.723 63.0653 137.654 66.2788C135.586 69.4923 136.471 72.5732 135.893 75.2235C135.771 75.7469 135.645 77.7347 135.529 80.4943C135.041 77.7768 133.542 75.3463 131.336 73.693C128.488 71.4137 126.03 68.6409 123.684 68.9987C121.338 69.3565 122.613 73.0271 124.457 75.6045C126.109 77.9003 134.267 80.1895 135.467 82.0347C135.325 85.7716 135.199 90.5057 135.11 94.9151C134.465 92.6392 134.908 92.447 132.275 88.9519C130.709 86.8781 124.285 84.314 123.522 85.7451C122.759 87.1763 123.918 89.863 126.344 91.748C128.3 93.2686 132.622 93.2653 133.643 94.2094C133.877 94.4281 134.651 95.2729 135.093 95.7599C134.988 101.14 134.941 105.891 134.994 107.511L135.414 107.527C135.394 107.11 135.444 104.373 135.526 100.749C136.58 98.8209 143.674 97.6946 145.865 95.6903C148.158 93.5933 149.804 91.1451 148.822 89.5052C148.003 88.137 141.553 89.9955 138.91 92.2615C137.162 93.7689 136.094 95.3789 135.605 97.5422C135.665 95.0741 135.734 92.4238 135.8 89.9226C136.326 89.3064 137.538 87.8687 138.411 86.729Z" fill="#F00A0A"/>
<path d="M139.029 111.718H131.664C131.261 111.718 130.914 111.194 130.834 110.462L130.312 105.685H140.38L139.858 110.462C139.776 111.194 139.432 111.718 139.029 111.718Z" fill="#BAD1FF"/>
<path d="M140.592 107.537H130.101C129.849 107.537 129.638 107.189 129.612 106.725L129.397 103.194C129.364 102.65 129.592 102.177 129.886 102.177H140.806C141.1 102.177 141.328 102.65 141.295 103.194L141.081 106.725C141.054 107.189 140.843 107.537 140.592 107.537Z" fill="#BAD1FF"/>
<path d="M85 127C121.408 127 150.923 125.272 150.923 123.141C150.923 121.01 121.408 119.282 85 119.282C48.5919 119.282 19.0774 121.01 19.0774 123.141C19.0774 125.272 48.5919 127 85 127Z" fill="#E7EFFF"/>
<path d="M72.9273 34.3212C72.1747 36.1505 67.7526 36.0279 63.1161 34.1105C58.4798 32.193 55.3314 29.1555 56.0841 27.3262C56.2585 26.9021 56.7452 25.3186 57.2666 25.0981C58.9945 24.3675 62.2802 26.0128 65.8418 27.4857C69.1567 28.8567 72.9455 29.7379 73.5338 31.5435C73.8905 32.6386 73.1418 33.7998 72.9273 34.3212Z" fill="#9DACD4"/>
<path opacity="0.2" d="M73.5352 31.5432C73.8167 32.9787 73.1964 33.6659 72.9269 34.3207C72.6497 34.996 71.8741 35.4041 70.7754 35.5558C70.643 35.5777 70.5042 35.5908 70.3612 35.6018C69.5184 35.6522 68.6726 35.608 67.8396 35.4699C67.7203 35.4552 67.6022 35.4329 67.4808 35.4116C66.5018 35.2358 65.5373 34.9871 64.5952 34.6673C64.4869 34.6311 64.3774 34.5916 64.268 34.5522C63.8882 34.4183 63.5009 34.2726 63.1159 34.1117C62.732 33.9541 62.3588 33.7859 61.9943 33.6111C61.8893 33.563 61.7863 33.5107 61.6845 33.4615C60.8264 33.0375 60 32.5518 59.2118 32.0083C59.1155 31.943 59.0256 31.8756 58.9335 31.8126C58.2448 31.3231 57.6132 30.7577 57.0504 30.1269C56.966 30.0326 56.8892 29.9394 56.8155 29.8452C56.0836 28.9157 55.7955 28.0311 56.0847 27.3268C56.2725 26.8709 56.683 25.32 57.265 25.0972C57.9844 24.8914 58.7468 24.8901 59.467 25.0935C59.5787 25.1179 59.6946 25.1445 59.8116 25.1743C61.5271 25.6096 63.6533 26.5809 65.8401 27.4859C68.4194 28.5528 71.4694 29.6592 72.9626 30.9382C73.0521 31.0134 73.1377 31.0931 73.2192 31.177C73.334 31.2905 73.4397 31.413 73.5352 31.5432Z" fill="black"/>
<g opacity="0.2">
<path d="M59.9691 24.8892L59.8115 25.1739L57.0503 30.1265C56.9659 30.0322 56.889 29.939 56.8154 29.8448L59.4668 25.0931L59.6723 24.7246L59.9691 24.8892Z" fill="black"/>
</g>
<g opacity="0.2">
<path d="M62.0567 26.9062L59.2117 32.0081C59.1153 31.9428 59.0255 31.8755 58.9333 31.8124L61.762 26.7373L62.0567 26.9062Z" fill="black"/>
</g>
<g opacity="0.2">
<path d="M67.2891 29.8373L64.5953 34.6674C64.4869 34.6311 64.3775 34.5917 64.2681 34.5522L66.9913 29.6694L67.2891 29.8373Z" fill="black"/>
</g>
<g opacity="0.2">
<path d="M64.8567 28.4745L61.9944 33.6108C61.8893 33.5627 61.7864 33.5103 61.6846 33.4612L64.5589 28.3066L64.8567 28.4745Z" fill="black"/>
</g>
<g opacity="0.2">
<path d="M70.4616 30.7709L67.8395 35.4699C67.7202 35.4552 67.6021 35.4329 67.4807 35.4117L70.1637 30.603L70.4616 30.7709Z" fill="black"/>
</g>
<path d="M73.5147 32.7123C72.7621 34.5417 68.3934 34.4703 63.7571 32.5528C59.1207 30.6353 55.9723 27.5979 56.7249 25.7686C57.4776 23.9392 61.8463 24.0106 66.4827 25.9281C71.119 27.8455 74.2674 30.8829 73.5147 32.7123Z" fill="#9DACD4"/>
<path opacity="0.2" d="M71.9384 32.0605C71.4066 33.353 68.0011 33.1707 64.332 31.6533C60.6629 30.1358 58.1196 27.8579 58.6513 26.5653C59.1831 25.2728 62.5886 25.4551 66.2578 26.9726C69.9269 28.49 72.4702 30.7679 71.9384 32.0605Z" fill="white"/>
<path d="M96.3604 17.775C97.5689 19.3396 95.2633 23.1249 91.2981 26.2038C87.3329 29.2827 83.1387 30.5103 81.9301 28.9457C81.65 28.583 80.5218 27.3721 80.5904 26.8089C80.8177 24.9427 83.8756 22.9032 86.9216 20.538C89.7567 18.3366 92.4037 15.4795 94.2586 15.866C95.3836 16.1003 96.016 17.3291 96.3604 17.775Z" fill="#F00A0A"/>
<path opacity="0.2" d="M94.2591 15.8647C95.6412 16.3338 95.9273 17.2152 96.3598 17.7754C96.8062 18.3524 96.7736 19.2299 96.3584 20.261C96.3114 20.387 96.2538 20.5143 96.1921 20.6441C95.8166 21.4023 95.3576 22.1159 94.8238 22.7718C94.7517 22.8682 94.6736 22.9599 94.5949 23.0549C93.9559 23.8189 93.2608 24.5341 92.5156 25.1945C92.4304 25.2707 92.3418 25.3463 92.2532 25.4218C91.9485 25.6856 91.6297 25.9499 91.2991 26.2048C90.9717 26.4603 90.6405 26.7012 90.3081 26.9313C90.2142 26.9988 90.1177 27.0622 90.0245 27.1264C89.2308 27.6618 88.3995 28.139 87.5372 28.5542C87.4328 28.6056 87.3297 28.6503 87.2294 28.699C86.4633 29.0545 85.6598 29.3227 84.8341 29.4985C84.7105 29.5249 84.5917 29.5454 84.4736 29.5625C83.3053 29.7369 82.3965 29.5475 81.931 28.9456C81.6299 28.5555 80.4921 27.4271 80.5888 26.8101C80.7686 26.0819 81.1467 25.4182 81.6808 24.893C81.7575 24.808 81.8382 24.7203 81.9222 24.6334C83.1521 23.3578 85.0502 21.9916 86.9209 20.5397C89.127 18.8269 91.6014 16.7244 93.4508 16.0618C93.5603 16.0214 93.6719 15.9865 93.785 15.9574C93.9403 15.914 94.0989 15.883 94.2591 15.8647Z" fill="black"/>
<g opacity="0.2">
<path d="M81.7542 24.3545L81.9221 24.6332L84.834 29.4983C84.7104 29.5248 84.5916 29.5452 84.4735 29.5624L81.6807 24.8928L81.4641 24.5308L81.7542 24.3545Z" fill="black"/>
</g>
<g opacity="0.2">
<path d="M84.5376 23.542L87.5371 28.5541C87.4327 28.6055 87.3296 28.6501 87.2292 28.6989L84.2449 23.7142L84.5376 23.542Z" fill="black"/>
</g>
<g opacity="0.2">
<path d="M89.6759 20.4487L92.5154 25.1943C92.4302 25.2705 92.3416 25.3461 92.2529 25.4216L89.3826 20.6244L89.6759 20.4487Z" fill="black"/>
</g>
<g opacity="0.2">
<path d="M87.2872 21.8867L90.3079 26.9311C90.214 26.9986 90.1175 27.062 90.0243 27.1262L86.9939 22.0623L87.2872 21.8867Z" fill="black"/>
</g>
<g opacity="0.2">
<path d="M92.0619 18.1538L94.8237 22.7717C94.7516 22.8681 94.6736 22.9598 94.5948 23.0548L91.7686 18.3294L92.0619 18.1538Z" fill="black"/>
</g>
<path d="M90.2688 24.8716C94.234 21.7927 96.4688 18.0285 95.2602 16.464C94.0517 14.8994 89.8575 16.127 85.8923 19.2059C81.9271 22.2848 79.6924 26.0491 80.9009 27.6136C82.1094 29.1782 86.3036 27.9505 90.2688 24.8716Z" fill="#F00A0A"/>
<path opacity="0.2" d="M89.7765 23.9239C92.9145 21.4873 94.7662 18.6159 93.9123 17.5105C93.0584 16.4051 89.8223 17.4841 86.6843 19.9207C83.5463 22.3573 81.6947 25.2287 82.5486 26.3341C83.4025 27.4395 86.6385 26.3605 89.7765 23.9239Z" fill="white"/>
<path d="M79.946 10.4443C79.5477 12.6878 74.5427 13.6396 68.8567 12.6249C63.1707 11.6102 58.8842 8.96887 59.2825 6.72533C59.3748 6.20525 59.5341 4.30383 60.0667 3.92728C61.8314 2.67968 65.9312 3.72091 70.2991 4.50035C74.3645 5.22588 78.843 5.2836 79.9474 7.16999C80.6172 8.31399 80.0595 9.80489 79.946 10.4443Z" fill="#F00A0A"/>
<path opacity="0.2" d="M79.9489 7.16933C80.6175 8.71487 80.0881 9.64077 79.9454 10.4439C79.799 11.2719 79.0266 11.9221 77.8277 12.3636C77.6841 12.4208 77.5312 12.4698 77.3729 12.5173C76.4371 12.7818 75.4748 12.9404 74.5038 12.9903C74.366 13.0031 74.2276 13.0071 74.0859 13.0132C72.9414 13.0567 71.7953 13.0144 70.6571 12.8869C70.5263 12.8728 70.3935 12.8554 70.2607 12.8379C69.8007 12.781 69.3293 12.7124 68.8567 12.6264C68.3861 12.5436 67.9251 12.4463 67.4722 12.3396C67.3422 12.3113 67.2136 12.2778 67.087 12.2476C66.0177 11.982 64.9689 11.6393 63.9489 11.222C63.8246 11.1723 63.7069 11.1187 63.5878 11.0704C62.6931 10.6895 61.8438 10.209 61.056 9.63798C60.938 9.55269 60.8287 9.46682 60.7228 9.37894C59.6716 8.51371 59.1306 7.58947 59.2833 6.72584C59.3827 6.16665 59.4644 4.32076 60.0645 3.9267C60.6666 3.53604 61.5181 3.38544 62.5409 3.37988C62.6725 3.37985 62.8095 3.38118 62.9484 3.38585C64.985 3.45283 67.6151 4.02173 70.2972 4.50092C73.4605 5.06556 77.163 5.55872 79.1563 6.62971C79.2755 6.69221 79.3914 6.76077 79.5035 6.83513C79.6606 6.9345 79.8095 7.04626 79.9489 7.16933Z" fill="black"/>
<g opacity="0.2">
<path d="M63.0561 3.02705L62.9485 3.38617L61.0561 9.63831C60.9381 9.55302 60.8288 9.46715 60.7229 9.37927L62.5409 3.38021L62.6817 2.91504L63.0561 3.02705Z" fill="black"/>
</g>
<g opacity="0.2">
<path d="M65.8989 4.7815L63.949 11.2222C63.8246 11.1725 63.707 11.1189 63.5879 11.0706L65.5261 4.66406L65.8989 4.7815Z" fill="black"/>
</g>
<g opacity="0.2">
<path d="M72.5037 6.78925L70.6571 12.887C70.5263 12.8729 70.3935 12.8555 70.2607 12.838L72.1274 6.67383L72.5037 6.78925Z" fill="black"/>
</g>
<g opacity="0.2">
<path d="M69.4334 5.85615L67.4724 12.3399C67.3424 12.3117 67.2138 12.2781 67.0872 12.2479L69.0572 5.74072L69.4334 5.85615Z" fill="black"/>
</g>
<g opacity="0.2">
<path d="M76.3017 7.05777L74.5038 12.9904C74.366 13.0032 74.2277 13.0072 74.0859 13.0133L75.9255 6.94238L76.3017 7.05777Z" fill="black"/>
</g>
<path d="M80.2124 8.48972C80.6107 6.2462 76.3242 3.6049 70.6382 2.5902C64.9521 1.57551 60.0199 2.57167 59.6216 4.81519C59.2233 7.05871 63.5098 9.70001 69.1958 10.7147C74.8818 11.7294 79.8141 10.7332 80.2124 8.48972Z" fill="#F00A0A"/>
<path opacity="0.2" d="M78.2795 8.14468C78.5609 6.55952 75.1413 4.62353 70.6415 3.82053C66.1417 3.01753 62.2658 3.65159 61.9844 5.23675C61.703 6.82191 65.1226 8.7579 69.6224 9.5609C74.1222 10.3639 77.9981 9.72984 78.2795 8.14468Z" fill="white"/>
<path d="M109.63 67.7092L74.6407 69.7501C73.4003 69.8225 72.1834 70.1204 71.0493 70.6292L33.0436 87.6865C32.3772 87.9809 31.8316 88.4955 31.4979 89.1445C31.1642 89.7934 31.0625 90.5375 31.2099 91.2525L37.4978 121.026C37.604 121.505 37.8182 121.954 38.124 122.338C38.4298 122.722 38.8192 123.03 39.2623 123.24C39.7053 123.45 40.1904 123.555 40.6803 123.548C41.1702 123.541 41.652 123.422 42.0889 123.199L79.6012 104.424L114.238 103.25C114.665 103.238 115.084 103.136 115.468 102.95C115.851 102.763 116.191 102.497 116.465 102.169C116.738 101.841 116.938 101.458 117.053 101.046C117.167 100.634 117.192 100.202 117.127 99.7797L112.491 71.2682C112.252 69.7958 111.137 67.6646 109.63 67.7092Z" fill="#9DACD4"/>
<path opacity="0.1" d="M109.63 67.7092L74.6407 69.7501C73.4003 69.8225 72.1834 70.1204 71.0493 70.6292L33.0436 87.6865C32.3772 87.9809 31.8316 88.4955 31.4979 89.1445C31.1642 89.7934 31.0625 90.5375 31.2099 91.2525L37.4978 121.026C37.604 121.505 37.8182 121.954 38.124 122.338C38.4298 122.722 38.8192 123.03 39.2623 123.24C39.7053 123.45 40.1904 123.555 40.6803 123.548C41.1702 123.541 41.652 123.422 42.0889 123.199L79.6012 104.424L114.238 103.25C114.665 103.238 115.084 103.136 115.468 102.95C115.851 102.763 116.191 102.497 116.465 102.169C116.738 101.841 116.938 101.458 117.053 101.046C117.167 100.634 117.192 100.202 117.127 99.7797L112.491 71.2682C112.252 69.7958 111.137 67.6646 109.63 67.7092Z" fill="black"/>
<path d="M39.397 48.3246L21.0347 65.2939L53.9837 101.134L72.3461 84.1642L39.397 48.3246Z" fill="#F00A0A"/>
<path opacity="0.5" d="M72.3451 84.1655L53.9828 101.134L21.0354 65.2958L33.0853 54.1588L39.3978 48.3242L40.4504 49.4686L72.3451 84.1655Z" fill="#FAFAFA"/>
<path d="M39.5167 50.5159L23.3132 65.4902L54.1348 99.0156L70.3383 84.0413L39.5167 50.5159Z" stroke="#F00A0A" stroke-miterlimit="10"/>
<path d="M50.4703 78.7301C52.3281 77.0132 52.0931 73.7277 49.9455 71.3917C47.7979 69.0556 44.5508 68.5538 42.693 70.2707C40.8352 71.9876 41.0701 75.2731 43.2177 77.6091C45.3654 79.9451 48.6124 80.447 50.4703 78.7301Z" fill="#F00A0A"/>
<path opacity="0.1" d="M53.7867 86.5899L47.2624 88.8496L33.0854 54.1588L39.3979 48.3242L40.4505 49.4686L53.7867 86.5899Z" fill="black"/>
<path d="M55.0562 34.2831L31.5786 42.8169L48.1485 88.6403L71.6261 80.1065L55.0562 34.2831Z" fill="#F00A0A"/>
<path opacity="0.5" d="M55.0562 34.2831L31.5786 42.8169L48.1485 88.6403L71.6261 80.1065L55.0562 34.2831Z" fill="#FAFAFA"/>
<path d="M54.3218 36.3503L33.6045 43.8809L49.1045 86.7454L69.8218 79.2149L54.3218 36.3503Z" stroke="#F00A0A" stroke-miterlimit="10"/>
<path d="M53.5458 66.6165C55.9212 65.753 56.9713 62.6319 55.8913 59.6451C54.8112 56.6583 52.0101 54.937 49.6347 55.8004C47.2594 56.6638 46.2093 59.785 47.2893 62.7718C48.3693 65.7586 51.1705 67.4799 53.5458 66.6165Z" fill="#F00A0A"/>
<path d="M109.858 68.9195L75.3478 70.8687C74.1244 70.9378 72.9241 71.2325 71.8073 71.738L34.3599 88.6882C33.7 88.9868 33.1618 89.5026 32.8345 90.15C32.5072 90.7975 32.4104 91.5376 32.5601 92.2477L38.8398 122.023C38.9404 122.499 39.1488 122.947 39.4489 123.33C39.7491 123.713 40.133 124.022 40.5711 124.233C41.0092 124.444 41.4898 124.551 41.9758 124.547C42.4619 124.542 42.9403 124.426 43.3744 124.207L80.3307 105.538L114.496 104.454C114.919 104.441 115.334 104.337 115.714 104.15C116.094 103.963 116.429 103.697 116.698 103.369C116.967 103.041 117.163 102.66 117.273 102.25C117.384 101.841 117.405 101.412 117.337 100.994L112.69 72.4843C112.45 71.0119 111.345 68.8789 109.858 68.9195Z" fill="#9DACD4"/>
<path opacity="0.2" d="M76.7517 76.0855L106.361 74.2568" stroke="black" stroke-width="2" stroke-linecap="round" stroke-linejoin="round"/>
<path opacity="0.2" d="M73.2043 76.8535L78.6151 101.765" stroke="black" stroke-width="2" stroke-linecap="round" stroke-linejoin="round"/>
<path opacity="0.2" d="M37.1384 99.3438L40.9529 118.507C40.9529 118.507 43.8772 110.903 37.1384 99.3438Z" fill="#FAFAFA"/>
<path opacity="0.2" d="M37.6387 99.569C37.7694 99.9185 71.5211 85.3892 71.5211 85.3892C71.6124 88.6813 70.7913 91.9344 69.1489 94.7867C67.5066 97.639 65.1074 99.9787 62.2181 101.546C52.0609 107.258 37.6387 99.569 37.6387 99.569Z" fill="#FAFAFA"/>
<path d="M60.0582 100.134C60.8656 100.134 61.5201 99.4774 61.5201 98.6679C61.5201 97.8584 60.8656 97.2021 60.0582 97.2021C59.2507 97.2021 58.5962 97.8584 58.5962 98.6679C58.5962 99.4774 59.2507 100.134 60.0582 100.134Z" fill="#9DACD4"/>
<path opacity="0.2" d="M71.5386 85.3892C71.5386 85.3892 75.7247 91.7034 74.7121 102.464L71.5386 85.3892Z" fill="black"/>
<g opacity="0.2">
<path d="M35.5234 91.8171L36.3009 91.4727" stroke="#FAFAFA" stroke-linecap="round" stroke-linejoin="round"/>
<path d="M37.9172 90.7565L69.4353 76.7891" stroke="#FAFAFA" stroke-linecap="round" stroke-linejoin="round" stroke-dasharray="5.2 5.2"/>
<path d="M70.2434 76.4308L71.0208 76.0864" stroke="#FAFAFA" stroke-linecap="round" stroke-linejoin="round"/>
</g>
<path opacity="0.2" d="M77.7446 81.6851L107.354 79.8564" stroke="black" stroke-width="2" stroke-linecap="round" stroke-linejoin="round"/>
<path opacity="0.2" d="M79.0774 88.6689L108.687 86.8403" stroke="black" stroke-width="2" stroke-linecap="round" stroke-linejoin="round"/>
<path d="M104.145 45.6537L96.9663 70.6976C96.8095 71.2491 96.5455 71.7641 96.1897 72.2131C95.8339 72.6621 95.3931 73.0363 94.8927 73.3141C94.3923 73.5919 93.8421 73.768 93.2737 73.8321C92.7053 73.8963 92.1298 73.8473 91.5804 73.688L77.8421 69.7298C76.7329 69.4094 75.7958 68.6608 75.2366 67.6484C74.6774 66.6359 74.5417 65.4424 74.8594 64.3298L82.0405 39.2818C82.3603 38.1698 83.1072 37.2306 84.1173 36.6705C85.1274 36.1103 86.3179 35.9752 87.4273 36.2947L101.165 40.2496C102.275 40.5703 103.212 41.3197 103.771 42.3331C104.33 43.3465 104.464 44.5409 104.145 45.6537Z" fill="#9DACD4"/>
<path opacity="0.2" d="M104.145 45.6537L96.9663 70.6976C96.8095 71.2491 96.5455 71.7641 96.1897 72.2131C95.8339 72.6621 95.3931 73.0363 94.8927 73.3141C94.3923 73.5919 93.8421 73.768 93.2737 73.8321C92.7053 73.8963 92.1298 73.8473 91.5804 73.688L77.8421 69.7298C76.7329 69.4094 75.7958 68.6608 75.2366 67.6484C74.6774 66.6359 74.5417 65.4424 74.8594 64.3298L82.0405 39.2818C82.3603 38.1698 83.1072 37.2306 84.1173 36.6705C85.1274 36.1103 86.3179 35.9752 87.4273 36.2947L101.165 40.2496C102.275 40.5703 103.212 41.3197 103.771 42.3331C104.33 43.3465 104.464 44.5409 104.145 45.6537Z" fill="black"/>
<path d="M102.951 45.9517L95.7719 70.9955C95.5901 71.6329 95.2657 72.2203 94.8232 72.7129C94.3807 73.2055 93.832 73.5903 93.2187 73.8381C92.668 73.8919 92.1122 73.841 91.5804 73.6881L77.8421 69.7299C76.7329 69.4095 75.7958 68.6609 75.2366 67.6485C74.6774 66.6361 74.5417 65.4425 74.8594 64.3299L82.0405 39.282C82.2228 38.6451 82.5475 38.0583 82.9901 37.5662C83.4327 37.0742 83.9815 36.6899 84.5946 36.4427C85.1452 36.3888 85.7011 36.4397 86.2329 36.5927L99.9704 40.5476C101.08 40.8682 102.018 41.6176 102.576 42.631C103.135 43.6444 103.27 44.8388 102.951 45.9517Z" fill="#9DACD4"/>
<path opacity="0.5" d="M102.951 45.9517L95.7719 70.9955C95.5901 71.6329 95.2657 72.2203 94.8232 72.7129C94.3807 73.2055 93.832 73.5903 93.2187 73.8381C92.668 73.8919 92.1122 73.841 91.5804 73.6881L77.8421 69.7299C76.7329 69.4095 75.7958 68.6609 75.2366 67.6485C74.6774 66.6361 74.5417 65.4425 74.8594 64.3299L82.0405 39.282C82.2228 38.6451 82.5475 38.0583 82.9901 37.5662C83.4327 37.0742 83.9815 36.6899 84.5946 36.4427C85.1452 36.3888 85.7011 36.4397 86.2329 36.5927L99.9704 40.5476C101.08 40.8682 102.018 41.6176 102.576 42.631C103.135 43.6444 103.27 44.8388 102.951 45.9517Z" fill="#FAFAFA"/>
<path d="M83.6498 48.077L82.1797 47.6616L76.8924 66.4741L78.3625 66.8895L83.6498 48.077Z" fill="#FAFAFA"/>
<path d="M80.4667 67.4901L78.9985 67.0671L84.2842 48.2588L85.7523 48.6818L80.4667 67.4901Z" fill="#FAFAFA"/>
<path d="M82.6025 68.1059L81.1348 67.6828L86.4204 48.8745L87.8885 49.2975L82.6025 68.1059Z" fill="#FAFAFA"/>
<path opacity="0.5" d="M96.4472 51.7625L94.9771 51.3472L89.6898 70.1597L91.1599 70.575L96.4472 51.7625Z" fill="black"/>
<path d="M96.254 46.4454L95.523 48.9986L94.6526 48.7532C94.2315 48.6336 93.8748 48.3515 93.6607 47.9688C93.4466 47.5861 93.3925 47.1339 93.5102 46.7113L93.9862 45.0171L95.744 45.5216C95.9333 45.577 96.0932 45.7052 96.1887 45.8782C96.2842 46.0512 96.3077 46.2551 96.254 46.4454Z" fill="#FAFAFA"/>
<path d="M95.8359 45.1947L94.0781 44.6901L94.6051 42.8221C94.7241 42.3997 95.0053 42.0418 95.3871 41.8271C95.769 41.6123 96.2202 41.5583 96.6417 41.6767L97.5461 41.9324L96.7573 44.6833C96.7309 44.7779 96.686 44.8663 96.6253 44.9434C96.5645 45.0205 96.489 45.0847 96.4033 45.1322C96.3176 45.1798 96.2233 45.2098 96.1259 45.2205C96.0285 45.2313 95.9299 45.2225 95.8359 45.1947Z" fill="#FAFAFA"/>
<path d="M97.5018 46.0295L99.2698 46.5374L98.8006 48.2044C98.7424 48.4136 98.6436 48.6093 98.5098 48.7802C98.3761 48.951 98.21 49.0938 98.0211 49.2002C97.8322 49.3066 97.6242 49.3746 97.4091 49.4002C97.194 49.4259 96.9759 49.4087 96.7674 49.3497L95.8494 49.0907L96.5804 46.5408C96.6349 46.3506 96.7627 46.1898 96.9354 46.0939C97.1082 45.998 97.3119 45.9748 97.5018 46.0295Z" fill="#FAFAFA"/>
<path d="M99.8955 44.3152L99.3617 46.2105L97.5937 45.7026C97.4043 45.6472 97.2445 45.519 97.1489 45.346C97.0534 45.1729 97.03 44.9691 97.0837 44.7788L97.8725 42.0278L98.7531 42.2767C99.1742 42.3951 99.5311 42.6764 99.7453 43.0587C99.9596 43.441 100.014 43.893 99.8955 44.3152Z" fill="#FAFAFA"/>
</svg>
