<svg width="94" height="94" viewBox="0 0 94 94" fill="none" xmlns="http://www.w3.org/2000/svg">
<g clip-path="url(#clip0_2259_23184)">
<path d="M86.9677 33.6332C87.0761 34.9986 86.8918 36.2107 86.7084 37.456C86.6502 37.8531 86.5759 38.2455 86.4857 38.6331C86.446 38.8074 86.4063 38.9786 86.3642 39.1518C85.8425 41.3662 84.8281 43.3811 83.3607 45.017C83.3138 45.0702 83.2666 45.1221 83.2189 45.1726C81.8103 46.6725 80.2754 48.0171 78.4212 49.0234C76.589 50.1294 74.6169 51.0491 72.5663 51.9596C72.3038 52.0761 72.0462 52.2018 71.7929 52.3347C70.9813 52.7608 70.2238 53.1658 69.5298 53.6745C66.6807 55.5618 65.1001 58.3795 64.1064 61.5432C63.6097 63.1252 63.2563 64.7911 62.955 66.4657C62.9276 79.6299 50.6975 89.2593 37.3467 86.5948C36.8198 86.4695 36.3867 86.2548 35.8777 86.0721C34.2498 85.4181 32.7665 84.5032 31.448 83.2711C29.2195 81.1564 27.9355 78.618 26.9945 75.91C26.6809 75.0074 26.4054 74.0861 26.1457 73.1569C25.3913 70.3794 24.7688 67.4113 22.6447 65.2284C19.4582 61.953 15.3394 60.4108 11.5359 57.7439C5.51095 53.5293 5.92584 45.5553 10.2257 41.5047C10.9006 40.8228 11.5779 40.2386 12.2727 39.5966C15.871 36.5403 20.7799 36.2582 25.4513 35.2316C28.2174 34.5617 30.6873 33.1225 31.7795 30.4264C34.1347 24.9126 35.6919 19.2884 39.4593 14.8591C39.9802 14.1903 40.5273 13.5444 41.1006 12.9283C42.8201 11.0797 44.7767 9.50049 46.9814 8.3797C47.8686 7.92786 48.7941 7.55652 49.7471 7.27009C60.1186 3.719 73.62 7.41214 80.5755 18.1388C81.8405 20.0891 83.0288 22.0718 83.9876 24.151C84.7606 25.8615 85.4741 27.5473 86.0386 29.3958C86.1931 29.9764 86.3654 30.4998 86.5103 31.0788C86.7537 32.0192 86.9077 32.8779 86.9677 33.6332Z" fill="#9DACD4"/>
<path d="M31.3608 23.3864C30.3285 24.8902 28.9905 25.9248 27.647 26.3868C26.3034 26.8489 24.9472 26.7427 23.8752 25.9655C22.8032 25.1882 22.2212 23.8883 22.1569 22.4088C22.0925 20.9293 22.5539 19.2671 23.5802 17.7649C24.6065 16.2626 26.0001 15.2029 27.4163 14.7105C28.8325 14.2181 30.2539 14.2979 31.3254 15.0756C32.397 15.8532 32.9243 17.1787 32.9207 18.6869C32.9171 20.1952 32.3911 21.8845 31.3608 23.3864Z" fill="#9DACD4"/>
<path d="M77.8715 59.9425C79.1289 62.445 77.4467 65.5568 74.7957 66.8719C73.3918 67.5777 71.8974 67.7385 70.5943 67.4532C69.2913 67.1679 68.1756 66.441 67.5479 65.3385C66.9202 64.2361 66.8976 62.9637 67.3689 61.801C68.4409 59.2011 71.6731 57.718 74.6178 58.0145C76.0372 58.1713 77.2485 58.8113 77.8715 59.9425Z" fill="#9DACD4"/>
<mask id="mask0_2259_23184" style="mask-type:luminance" maskUnits="userSpaceOnUse" x="-2" y="-4" width="117" height="120">
<path d="M114.953 37.3102C115.111 39.307 114.842 41.0798 114.574 42.9011C114.488 43.4819 114.38 44.0557 114.248 44.6225C114.19 44.8775 114.132 45.1279 114.07 45.3811C113.307 48.6197 111.824 51.5666 109.677 53.9591C109.609 54.0369 109.54 54.1128 109.47 54.1867C107.41 56.3802 105.165 58.3467 102.454 59.8184C99.7738 61.436 96.8897 62.7811 93.8906 64.1127C93.5068 64.2831 93.13 64.4669 92.7595 64.6612C91.5726 65.2844 90.4648 65.8767 89.4498 66.6208C85.283 69.3809 82.9714 73.5018 81.518 78.1287C80.7916 80.4424 80.2748 82.8787 79.8341 85.3278C79.794 104.581 61.9075 118.664 42.3818 114.767C41.6113 114.584 40.9778 114.27 40.2334 114.002C37.8527 113.046 35.6833 111.708 33.755 109.906C30.4958 106.813 28.6179 103.101 27.2418 99.1402C26.783 97.8202 26.3801 96.4728 26.0003 95.1138C24.8971 91.0518 23.9866 86.7108 20.8801 83.5183C16.2197 78.728 10.196 76.4726 4.63333 72.5722C-4.17813 66.4083 -3.57134 54.7463 2.71716 48.8222C3.70428 47.825 4.69488 46.9707 5.71102 46.0317C10.9735 41.5618 18.1527 41.1493 24.9847 39.6478C29.0302 38.6681 32.6424 36.5632 34.2398 32.6203C37.6843 24.5563 39.9616 16.3308 45.4715 9.85293C46.2333 8.87492 47.0334 7.93016 47.8719 7.02918C50.3867 4.32564 53.2482 2.01599 56.4726 0.376833C57.7701 -0.283989 59.1238 -0.827075 60.5174 -1.24598C75.6859 -6.43947 95.4317 -1.03824 105.604 14.6496C107.454 17.502 109.192 20.4016 110.594 23.4424C111.725 25.944 112.768 28.4095 113.594 31.113C113.82 31.9621 114.072 32.7276 114.284 33.5744C114.64 34.9498 114.865 36.2055 114.953 37.3102ZM35.9069 15.4537C35.9121 13.248 35.1416 11.3106 33.5738 10.1721C32.006 9.03364 29.9279 8.9181 27.8567 9.63819C25.7855 10.3583 23.7439 11.9081 22.2464 14.1052C20.7489 16.3022 20.0706 18.7332 20.1647 20.897C20.2588 23.0607 21.1106 24.9625 22.6778 26.0986C24.245 27.2348 26.2308 27.3906 28.194 26.7149C30.1572 26.0391 32.1187 24.526 33.6255 22.3267C35.1323 20.1273 35.9017 17.6589 35.9069 15.4537ZM96.8909 72.9673C92.5841 72.5337 87.8599 74.7027 86.2893 78.5051C85.6 80.2055 85.6325 82.0647 86.5511 83.6787C87.4697 85.2928 89.1025 86.3549 91.0065 86.7715C92.9105 87.1881 95.0978 86.9536 97.151 85.9213C101.028 83.9956 103.488 79.4469 101.649 75.787C100.738 74.1338 98.9667 73.1978 96.8909 72.9673Z" fill="white"/>
</mask>
<g mask="url(#mask0_2259_23184)">
<g style="mix-blend-mode:multiply" opacity="0.19">
<path d="M72.9273 14.6548H31.7029C28.3405 14.6548 25.6147 17.3941 25.6147 20.7733V71.4211C25.6147 74.8002 28.3405 77.5395 31.7029 77.5395H72.9273C76.2897 77.5395 79.0155 74.8002 79.0155 71.4211V20.7733C79.0155 17.3941 76.2897 14.6548 72.9273 14.6548Z" fill="#3636CF"/>
</g>
</g>
<path d="M68.7864 10.5776H27.5621C24.1996 10.5776 21.4738 13.317 21.4738 16.6961V67.3439C21.4738 70.723 24.1996 73.4624 27.5621 73.4624H68.7864C72.1489 73.4624 74.8747 70.723 74.8747 67.3439V16.6961C74.8747 13.317 72.1489 10.5776 68.7864 10.5776Z" fill="#F5F5F5"/>
<path d="M41.3131 49.1451L41.6667 49.4987L42.0202 49.1451L47.5 43.6654L52.9798 49.1451L53.3333 49.4987L53.6869 49.1451L55.1452 47.6868L55.4988 47.3333L55.1452 46.9797L49.6655 41.4999L55.1452 36.0201L55.4988 35.6666L55.1452 35.313L53.6869 33.8547L53.3333 33.5011L52.9798 33.8547L47.5 39.3345L42.0202 33.8547L41.6667 33.5011L41.3131 33.8547L39.8548 35.313L39.5012 35.6666L39.8548 36.0201L45.3346 41.4999L39.8548 46.9797L39.5012 47.3333L39.8548 47.6868L41.3131 49.1451Z" fill="#F00A0A" stroke="#F00A0A"/>
<path d="M47.5 60C57.7173 60 66 51.7173 66 41.5C66 31.2827 57.7173 23 47.5 23C37.2827 23 29 31.2827 29 41.5C29 51.7173 37.2827 60 47.5 60Z" stroke="#1F55BC" stroke-width="4" stroke-miterlimit="10" stroke-linecap="round"/>
</g>
<defs>
<clipPath id="clip0_2259_23184">
<rect width="94" height="94" fill="white"/>
</clipPath>
</defs>
</svg>
