<svg width="94" height="94" viewBox="0 0 94 94" fill="none" xmlns="http://www.w3.org/2000/svg">
<g clip-path="url(#clip0_2105_18904)">
<path d="M86.9675 33.6327C87.0759 34.9981 86.8916 36.2102 86.7082 37.4555C86.65 37.8527 86.5757 38.245 86.4855 38.6326C86.4458 38.8069 86.4061 38.9781 86.364 39.1513C85.8423 41.3657 84.8279 43.3807 83.3605 45.0166C83.3136 45.0698 83.2664 45.1216 83.2187 45.1722C81.8101 46.672 80.2752 48.0166 78.421 49.0229C76.5887 50.1289 74.6167 51.0486 72.566 51.9591C72.3036 52.0757 72.0459 52.2013 71.7926 52.3342C70.9811 52.7603 70.2236 53.1653 69.5296 53.674C66.6805 55.5613 65.0999 58.379 64.1062 61.5427C63.6095 63.1247 63.2561 64.7906 62.9548 66.4652C62.9274 79.6294 50.6973 89.2588 37.3465 86.5943C36.8196 86.469 36.3864 86.2543 35.8774 86.0716C34.2496 85.4176 32.7663 84.5027 31.4478 83.2706C29.2193 81.1559 27.9353 78.6175 26.9943 75.9095C26.6807 75.0069 26.4051 74.0857 26.1455 73.1564C25.3911 70.3789 24.7686 67.4108 22.6445 65.2279C19.4579 61.9525 15.3392 60.4103 11.5356 57.7434C5.51073 53.5288 5.92563 45.5548 10.2254 41.5042C10.9004 40.8223 11.5777 40.2381 12.2725 39.5961C15.8708 36.5398 20.7796 36.2577 25.4511 35.2311C28.2172 34.5612 30.6871 33.122 31.7793 30.4259C34.1345 24.9122 35.6916 19.2879 39.459 14.8586C39.9799 14.1899 40.5271 13.5439 41.1004 12.9278C42.8199 11.0792 44.7764 9.50001 46.9811 8.37922C47.8684 7.92737 48.7939 7.55603 49.7468 7.26961C60.1184 3.71851 73.6198 7.41165 80.5753 18.1383C81.8402 20.0887 83.0285 22.0713 83.9874 24.1505C84.7604 25.861 85.4738 27.5468 86.0384 29.3953C86.1929 29.9759 86.3652 30.4994 86.5101 31.0783C86.7535 32.0187 86.9075 32.8774 86.9675 33.6327Z" fill="#9DACD4"/>
<path d="M31.3607 23.3856C30.3284 24.8894 28.9904 25.9241 27.6469 26.3861C26.3033 26.8481 24.9471 26.742 23.8751 25.9647C22.8031 25.1875 22.2211 23.8876 22.1568 22.4081C22.0925 20.9286 22.5538 19.2664 23.5801 17.7641C24.6064 16.2619 26 15.2021 27.4162 14.7098C28.8324 14.2174 30.2538 14.2972 31.3253 15.0749C32.3969 15.8525 32.9242 17.178 32.9206 18.6862C32.917 20.1944 32.391 21.8838 31.3607 23.3856Z" fill="#9DACD4"/>
<path d="M77.8711 59.942C79.1285 62.4445 77.4463 65.5563 74.7954 66.8714C73.3915 67.5772 71.8971 67.738 70.594 67.4527C69.291 67.1674 68.1753 66.4405 67.5476 65.338C66.9199 64.2356 66.8973 62.9632 67.3685 61.8005C68.4405 59.2006 71.6727 57.7175 74.6175 58.014C76.0369 58.1708 77.2482 58.8108 77.8711 59.942Z" fill="#9DACD4"/>
<mask id="mask0_2105_18904" style="mask-type:luminance" maskUnits="userSpaceOnUse" x="-2" y="-4" width="117" height="120">
<path d="M114.953 37.3099C115.111 39.3068 114.842 41.0796 114.573 42.9008C114.488 43.4816 114.38 44.0555 114.248 44.6223C114.19 44.8773 114.132 45.1276 114.07 45.3809C113.307 48.6195 111.823 51.5664 109.677 53.9589C109.609 54.0367 109.54 54.1125 109.47 54.1865C107.41 56.38 105.165 58.3465 102.453 59.8182C99.7737 61.4358 96.8896 62.7808 93.8905 64.1125C93.5067 64.2829 93.1298 64.4667 92.7594 64.661C91.5725 65.2842 90.4646 65.8765 89.4496 66.6205C85.2829 69.3806 82.9713 73.5016 81.5179 78.1285C80.7915 80.4422 80.2747 82.8785 79.834 85.3276C79.7939 104.58 61.9074 118.663 42.3817 114.767C41.6111 114.583 40.9776 114.269 40.2332 114.002C37.8525 113.046 35.6832 111.708 33.7549 109.906C30.4956 106.813 28.6178 103.1 27.2416 99.1399C26.7829 97.82 26.3799 96.4726 26.0002 95.1135C24.8969 91.0515 23.9865 86.7106 20.88 83.518C16.2196 78.7278 10.1959 76.4724 4.6332 72.572C-4.17825 66.4081 -3.57147 54.7461 2.71704 48.822C3.70415 47.8247 4.69475 46.9704 5.7109 46.0315C10.9734 41.5616 18.1526 41.149 24.9846 39.6476C29.0301 38.6678 32.6423 36.563 34.2397 32.62C37.6842 24.5561 39.9615 16.3305 45.4713 9.85268C46.2332 8.87467 47.0333 7.92992 47.8718 7.02893C50.3866 4.3254 53.2481 2.01575 56.4724 0.376589C57.77 -0.284234 59.1236 -0.827319 60.5173 -1.24622C75.6858 -6.43972 95.4316 -1.03849 105.604 14.6494C107.454 17.5017 109.192 20.4013 110.594 23.4421C111.725 25.9438 112.768 28.4092 113.594 31.1128C113.82 31.9618 114.072 32.7274 114.284 33.5741C114.64 34.9495 114.865 36.2053 114.953 37.3099ZM35.9068 15.4535C35.912 13.2477 35.1415 11.3104 33.5737 10.1719C32.0059 9.03339 29.9277 8.91786 27.8565 9.63795C25.7853 10.358 23.7438 11.9079 22.2462 14.1049C20.7487 16.3019 20.0705 18.733 20.1646 20.8967C20.2587 23.0605 21.1105 24.9622 22.6777 26.0984C24.2449 27.2345 26.2307 27.3904 28.1939 26.7146C30.1571 26.0389 32.1186 24.5258 33.6254 22.3264C35.1322 20.1271 35.9015 17.6587 35.9068 15.4535ZM96.8908 72.9671C92.584 72.5335 87.8598 74.7025 86.2891 78.5048C85.5999 80.2053 85.6324 82.0644 86.551 83.6785C87.4696 85.2926 89.1024 86.3546 91.0064 86.7713C92.9104 87.1879 95.0977 86.9533 97.1509 85.9211C101.028 83.9954 103.488 79.4467 101.649 75.7867C100.738 74.1336 98.9666 73.1976 96.8908 72.9671Z" fill="white"/>
</mask>
<g mask="url(#mask0_2105_18904)">
<g style="mix-blend-mode:multiply" opacity="0.19">
<path d="M72.9273 14.6543H31.703C28.3405 14.6543 25.6147 17.3936 25.6147 20.7728V71.4206C25.6147 74.7997 28.3405 77.539 31.703 77.539H72.9273C76.2898 77.539 79.0156 74.7997 79.0156 71.4206V20.7728C79.0156 17.3936 76.2898 14.6543 72.9273 14.6543Z" fill="#3636CF"/>
</g>
</g>
<path d="M68.7862 10.5771H27.5619C24.1994 10.5771 21.4736 13.3165 21.4736 16.6956V67.3434C21.4736 70.7226 24.1994 73.4619 27.5619 73.4619H68.7862C72.1487 73.4619 74.8745 70.7226 74.8745 67.3434V16.6956C74.8745 13.3165 72.1487 10.5771 68.7862 10.5771Z" fill="#F5F5F5"/>
<g clip-path="url(#clip1_2105_18904)">
<path d="M29.3216 23.3746C28.9607 23.4066 28.6247 23.5759 28.38 23.8491C28.1353 24.1223 27.9997 24.4794 28 24.8499V58.7603C27.9995 59.1085 28.119 59.4457 28.3377 59.7126C28.5563 59.9795 28.86 60.1589 29.1952 60.2192L44.3267 62.9764C44.5352 63.0143 44.7492 63.0051 44.9538 62.9494C45.1583 62.8937 45.3485 62.7927 45.5108 62.6537C45.6731 62.5147 45.8037 62.341 45.8933 62.1448C45.9829 61.9486 46.0294 61.7347 46.0295 61.5182V23.4817C46.0298 23.276 45.9882 23.0724 45.9073 22.884C45.8264 22.6957 45.7081 22.5266 45.5597 22.3877C45.4114 22.2487 45.2364 22.1429 45.0458 22.077C44.8553 22.0111 44.6534 21.9866 44.4531 22.0049L29.3216 23.3746ZM42.0662 44.5262C41.4434 44.5262 40.938 43.6171 40.938 42.4989C40.938 41.3806 41.4378 40.473 42.0662 40.473C42.6945 40.473 43.195 41.3792 43.195 42.4989C43.195 43.6186 42.6868 44.5262 42.0662 44.5262Z" fill="#637381"/>
<path d="M68.0008 41.7063L56.1736 32.7236V37.3838H46.9854V45.9723H56.1736V50.6311L68.0008 41.7063Z" fill="#F00A0A"/>
<path d="M55.1445 36.0626V24.4699C55.1445 24.1638 55.0258 23.8702 54.8144 23.6536C54.603 23.437 54.3162 23.315 54.017 23.3145H46.9854V25.6231H52.8874V36.0626H55.1445Z" fill="#637381"/>
<path d="M46.9854 59.3769V61.6863H54.017C54.3161 61.6853 54.6027 61.5632 54.814 61.3467C55.0253 61.1302 55.1442 60.8368 55.1445 60.5309V47.2236H52.8874V59.3769H46.9854Z" fill="#637381"/>
</g>
</g>
<defs>
<clipPath id="clip0_2105_18904">
<rect width="94" height="94" fill="white"/>
</clipPath>
<clipPath id="clip1_2105_18904">
<rect width="40" height="41" fill="white" transform="translate(28 22)"/>
</clipPath>
</defs>
</svg>
