<svg width="94" height="94" viewBox="0 0 94 94" fill="none" xmlns="http://www.w3.org/2000/svg">
<g clip-path="url(#clip0_2105_9597)">
<path d="M86.968 33.6326C87.076 34.9984 86.8918 36.2106 86.7088 37.456C86.65 37.8531 86.5756 38.2455 86.4856 38.6331C86.4459 38.8074 86.4062 38.9786 86.3665 39.1518C85.8444 41.3663 84.8303 43.3813 83.3625 45.0173C83.316 45.0692 83.2684 45.121 83.2207 45.1729C81.8124 46.6728 80.2771 48.0175 78.4233 49.0234C76.5909 50.1298 74.6184 51.0492 72.5681 51.9601C72.3058 52.0766 72.0478 52.2017 71.7942 52.3352C70.9831 52.7609 70.2251 53.166 69.5311 53.6747C66.6819 55.5624 65.1009 58.3799 64.1071 61.5441C63.6104 63.1261 63.257 64.792 62.9557 66.4667C62.9279 79.6314 50.6974 89.2612 37.3464 86.5966C36.8195 86.4713 36.3863 86.2562 35.8773 86.0739C34.2494 85.4195 32.7665 84.5049 31.4479 83.2728C29.2193 81.158 27.9353 78.6191 26.9939 75.9114C26.6802 75.0088 26.4047 74.0875 26.145 73.1582C25.3886 70.3806 24.7684 67.4124 22.6439 65.2293C19.4572 61.9534 15.3383 60.4113 11.5346 57.7442C5.50947 53.5299 5.92478 45.5555 10.2244 41.5044C10.8993 40.8224 11.5771 40.2383 12.2715 39.5959C15.8699 36.5398 20.779 36.2577 25.4506 35.2311C28.2168 34.5611 30.6868 33.1219 31.779 30.4257C34.1343 24.9117 35.6919 19.2872 39.459 14.8578C39.9804 14.189 40.5271 13.543 41.1004 12.9266C42.8204 11.0783 44.7766 9.49862 46.9814 8.37979C47.8695 7.92712 48.796 7.55509 49.75 7.26813C60.122 3.71691 73.6234 7.41058 80.5796 18.1373C81.8442 20.0877 83.0325 22.0704 83.9918 24.1496C84.7644 25.8606 85.4783 27.5464 86.0425 29.3947C86.1974 29.9752 86.3693 30.4987 86.5146 31.0781C86.7544 32.0186 86.9081 32.8773 86.968 33.6326Z" fill="#9DACD4"/>
<path d="M31.3588 23.3884C30.3265 24.8919 28.9885 25.9265 27.6445 26.389C26.3005 26.8514 24.9446 26.7445 23.8726 25.9676C22.8006 25.1907 22.2189 23.8904 22.1546 22.4108C22.0903 20.9313 22.5516 19.2686 23.5776 17.7663C24.6035 16.264 25.9995 15.2046 27.4142 14.7122C28.8289 14.2198 30.2515 14.2996 31.3235 15.0773C32.3955 15.855 32.922 17.1805 32.9184 18.6884C32.9148 20.1963 32.3888 21.8841 31.3588 23.3884Z" fill="#9DACD4"/>
<path d="M77.8709 59.9435C79.1287 62.4461 77.4464 65.558 74.7954 66.8736C73.391 67.5794 71.897 67.7402 70.5939 67.4545C69.2908 67.1688 68.1751 66.4426 67.547 65.3398C66.9189 64.2369 66.897 62.9648 67.3683 61.8017C68.4403 59.2021 71.6723 57.719 74.6171 58.0155C76.0366 58.1727 77.2487 58.8127 77.8709 59.9435Z" fill="#9DACD4"/>
<mask id="mask0_2105_9597" style="mask-type:luminance" maskUnits="userSpaceOnUse" x="-1" y="-3" width="119" height="122">
<path d="M117.952 39.0149C118.113 41.0466 117.839 42.8497 117.567 44.7022C117.479 45.2929 117.369 45.8766 117.235 46.4531C117.176 46.7125 117.117 46.9671 117.057 47.2247C116.281 50.5188 114.772 53.5162 112.589 55.9496C112.52 56.0268 112.449 56.104 112.378 56.1811C110.283 58.4122 107.999 60.4124 105.242 61.9087C102.516 63.5546 99.5821 64.9221 96.5323 66.2771C96.1421 66.4505 95.7584 66.6364 95.3812 66.8351C94.1746 67.4684 93.0471 68.0708 92.0147 68.8276C87.7766 71.6356 85.4248 75.8265 83.9465 80.5332C83.2077 82.8866 82.6821 85.3646 82.2338 87.8557C82.1924 107.438 63.9995 121.763 44.1399 117.799C43.3562 117.613 42.7118 117.293 41.9547 117.021C39.5332 116.048 37.3273 114.688 35.3659 112.855C32.0509 109.709 30.1409 105.932 28.7405 101.905C28.274 100.562 27.8641 99.1916 27.4778 97.8093C26.3527 93.6777 25.4302 89.2624 22.2699 86.0151C17.5297 81.1422 11.4028 78.8482 5.74484 74.881C-3.21755 68.6121 -2.59978 56.7503 3.79585 50.7242C4.79988 49.7098 5.80804 48.8409 6.841 47.8853C12.1936 43.3394 19.4958 42.9198 26.4449 41.3926C30.5596 40.3961 34.2337 38.2552 35.8585 34.2447C39.3619 26.0426 41.6789 17.6762 47.2825 11.0873C48.058 10.0926 48.8712 9.13164 49.7241 8.21463C52.2825 5.46537 55.1925 3.11557 58.4721 1.4513C59.7931 0.77795 61.1713 0.224555 62.5903 -0.202288C78.0186 -5.48475 98.1021 0.00960517 108.449 15.9656C110.331 18.8668 112.098 21.8161 113.525 24.909C114.674 27.454 115.736 29.9617 116.576 32.711C116.806 33.5746 117.062 34.3533 117.278 35.2151C117.634 36.6141 117.863 37.8914 117.952 39.0149ZM37.5517 16.7841C37.5571 14.5411 36.7739 12.57 35.1793 11.4126C33.5847 10.2552 31.4703 10.1365 29.3642 10.8695C27.2581 11.6025 25.181 13.1784 23.6572 15.4124C22.1335 17.6465 21.4448 20.1197 21.5405 22.3212C21.6362 24.5226 22.5026 26.4563 24.096 27.6119C25.6895 28.7675 27.7099 28.926 29.7068 28.2387C31.7036 27.5514 33.6992 26.0118 35.2319 23.7753C36.7645 21.5389 37.5488 19.0282 37.5517 16.7841ZM99.5804 75.2834C95.1999 74.8424 90.3947 77.0486 88.7977 80.9155C88.0967 82.6456 88.1298 84.536 89.0635 86.1784C89.9973 87.8207 91.6592 88.8997 93.5958 89.3241C95.5324 89.7485 97.7566 89.5099 99.8455 88.4599C103.789 86.5012 106.291 81.8717 104.42 78.1514C103.495 76.4699 101.692 75.5179 99.5804 75.2834Z" fill="white"/>
</mask>
<g mask="url(#mask0_2105_9597)">
<g style="mix-blend-mode:multiply" opacity="0.19">
<path d="M72.9695 15.4395H32.2703C28.9507 15.4395 26.2596 18.1439 26.2596 21.48V71.4826C26.2596 74.8187 28.9507 77.5232 32.2703 77.5232H72.9695C76.2892 77.5232 78.9802 74.8187 78.9802 71.4826V21.48C78.9802 18.1439 76.2892 15.4395 72.9695 15.4395Z" fill="#3636CF"/>
</g>
</g>
<path d="M68.8814 11.4155H28.1822C24.8626 11.4155 22.1715 14.12 22.1715 17.4561V67.4587C22.1715 70.7948 24.8626 73.4992 28.1822 73.4992H68.8814C72.2011 73.4992 74.8921 70.7948 74.8921 67.4587V17.4561C74.8921 14.12 72.2011 11.4155 68.8814 11.4155Z" fill="#F5F5F5"/>
<path d="M63.0266 55.9426C70.8177 48.1128 70.6598 35.2595 62.6739 27.234C54.688 19.2084 41.8982 19.0497 34.1071 26.8795C26.3159 34.7093 26.4738 47.5626 34.4597 55.5882C42.4456 63.6137 55.2354 63.7724 63.0266 55.9426Z" fill="#637381"/>
<path d="M48.5 49C52.6421 49 56 44.299 56 38.5C56 32.701 52.6421 28 48.5 28C44.3579 28 41 32.701 41 38.5C41 44.299 44.3579 49 48.5 49Z" fill="white"/>
<path d="M48.4142 49C41.8179 49 35.9219 50.6262 32 53.1844C35.669 58.5156 41.6673 62 48.5 62C55.2837 62 61.8234 58.7681 65.5 53.5C61.5822 50.878 55.1097 49 48.4142 49Z" fill="white"/>
<path d="M52.2913 41H44.7087C44.3173 41 44 41.3 44 41.6701V53.3299C44 53.7 44.3173 54 44.7087 54H52.2913C52.6827 54 53 53.7 53 53.3299V41.6701C53 41.3 52.6827 41 52.2913 41Z" fill="white"/>
<path d="M41.9239 38.792C42.1837 40.4444 41.7565 41.8781 40.9702 41.9927C40.1839 42.1073 39.3369 40.8611 39.0764 39.208C38.8158 37.5549 39.2438 36.1219 40.0301 36.0073C40.8164 35.8927 41.6648 37.1389 41.9239 38.792Z" fill="white"/>
<path d="M55.0757 38.792C54.8166 40.4444 55.2439 41.8781 56.0296 41.9927C56.8152 42.1073 57.663 40.8611 57.9237 39.208C58.1843 37.5549 57.7555 36.1219 56.9698 36.0073C56.1841 35.8927 55.3356 37.1389 55.0757 38.792Z" fill="white"/>
<path d="M40.9107 38.2351C40.6412 36.5067 40.3722 34.7782 40.1036 33.0497C40.0064 32.422 39.912 31.7602 40.147 31.168C40.382 30.5757 41.0709 30.1043 41.6807 30.3267C41.4366 29.1232 42.7997 28.2348 43.9887 27.8357C45.9806 27.1663 48.1151 26.8259 50.2063 27.0892C52.2974 27.3526 54.3361 28.2546 55.7447 29.7829C56.1909 30.2667 56.5749 30.8159 56.7875 31.4327C57.1959 32.6199 56.9358 33.9149 56.6721 35.1403C56.4632 36.1132 56.2534 37.0866 56.0426 38.0605C55.9951 38.2829 55.9419 38.5163 55.786 38.6848C55.5384 38.9543 55.1202 38.9741 54.7495 38.9754L42.8543 39C42.1087 39 41.1359 38.8226 41.0359 38.1014" fill="white"/>
</g>
<defs>
<clipPath id="clip0_2105_9597">
<rect width="94" height="94" fill="white"/>
</clipPath>
</defs>
</svg>
