<svg width="24" height="28" viewBox="0 0 24 28" fill="none" xmlns="http://www.w3.org/2000/svg">
<g clip-path="url(#clip0_4331_27397)">
<path d="M21.9101 28C23.0491 28 23.9582 27.05 23.9081 25.9121L23.776 22.9085C23.7315 22.1086 23.4187 21.3483 22.8897 20.754C22.3607 20.1597 21.6472 19.7671 20.868 19.6416L15.7682 18.8709C15.625 18.8492 15.4772 18.8539 15.3365 18.8197C15.2633 18.8019 15.1928 18.7726 15.1278 18.7323C14.8967 18.589 14.6643 18.3969 14.3924 18.3969H9.58587C9.33249 18.3969 9.1057 18.5402 8.89167 18.6758C8.77768 18.748 8.65049 18.7961 8.51775 18.8173L3.26996 19.6416C1.79911 19.9181 0.45027 20.8048 0.282039 22.8377L0.11523 25.8909C0.0526334 27.0366 0.964807 28 2.11225 28H21.9101Z" fill="white"/>
<path d="M15.6787 18.8683L15.4831 18.8383C15.2439 18.7824 15.0304 18.6457 14.8776 18.4505C14.7248 18.2554 14.6416 18.0135 14.6418 17.7642L14.5254 15.404H9.42657L9.3072 17.8637C9.29565 18.0971 9.20524 18.3194 9.05119 18.4931C8.89713 18.6668 8.68885 18.7813 8.46139 18.8173L8.33801 18.8368C8.538 19.6699 9.00684 20.411 9.66981 20.9421C10.3328 21.4732 11.1517 21.7637 11.9962 21.7674C12.8406 21.771 13.662 21.4875 14.3294 20.9621C14.9967 20.4367 15.4717 19.6997 15.6787 18.8683Z" fill="#FFE1CC"/>
<path d="M14.2871 17.2738L14.6012 16.9411L14.5254 15.404H9.42654L9.35645 16.8457L9.76173 17.2748C9.94064 17.4632 10.1551 17.6132 10.3923 17.7157C10.6294 17.8182 10.8845 17.8711 11.1423 17.8714H12.0414V17.8703H12.9065C13.1643 17.87 13.4194 17.817 13.6565 17.7146C13.8937 17.6121 14.1082 17.4621 14.2871 17.2738Z" fill="#E8C5AC"/>
<path d="M15.8971 9.54358L16.1958 9.56283C16.4633 9.62592 16.697 9.79025 16.8493 10.0223C17.0016 10.2544 17.0609 10.5367 17.0152 10.8116C16.9125 11.4418 16.8628 11.4957 16.7367 12.2775C16.5579 13.3832 15.6667 13.0228 15.6667 13.0228L15.8971 9.54358Z" fill="#E8C5AC"/>
<path d="M8.05788 9.54358L7.75918 9.56283C7.49177 9.62606 7.25816 9.79043 7.10593 10.0225C6.95371 10.2545 6.89433 10.5367 6.93989 10.8116C7.04293 11.4418 7.09221 11.4957 7.21913 12.2775C7.39709 13.3832 8.28873 13.0228 8.28873 13.0228L8.05788 9.54358Z" fill="#E8C5AC"/>
<path d="M11.9376 5.80298V5.80426L7.88 5.82171V13.6668C7.88021 14.1978 8.08237 14.7081 8.44429 15.0914L9.69223 16.411C9.871 16.5996 10.0854 16.7497 10.3226 16.8523C10.5598 16.9549 10.815 17.0079 11.0728 17.0081H11.9714V17.0068H12.8367C13.0945 17.0065 13.3496 16.9535 13.5868 16.8509C13.824 16.7483 14.0384 16.5983 14.2172 16.4097L15.4646 15.0906C15.8263 14.707 16.0285 14.1966 16.029 13.6656V5.82068L11.9376 5.80298Z" fill="#FFE1CC"/>
<path d="M7.87646 10.598V7.86128C7.8641 6.9123 8.51123 5.95458 9.53981 5.93919H11.5164C12.0406 6.13436 11.5248 7.31086 12.045 7.10773L15.1599 5.91148C15.7189 5.78914 16.0399 6.28186 16.0399 6.73917V10.5649C16.0399 10.7237 16.6435 10.3005 16.8528 9.39867L17.2267 4.02682C17.2404 3.29765 17.032 2.57922 16.029 2.57922L13.7679 2.58051H10.701C8.17692 2.53536 6.27564 3.78574 6.70025 6.54038L7.18308 9.59384C7.27074 10.3005 7.87646 10.7383 7.87646 10.598Z" fill="#633A11"/>
<path d="M11.9547 2.30988e-10C11.1822 -6.89798e-06 10.4172 0.154493 9.70349 0.454676C8.98977 0.75486 8.34126 1.19485 7.795 1.74952C7.24874 2.3042 6.81543 2.96269 6.5198 3.68741C6.22417 4.41212 6.07201 5.18887 6.07202 5.9733V7.08259C6.07211 7.197 6.11694 7.30669 6.19667 7.38754C6.27639 7.4684 6.38447 7.51379 6.49715 7.51374H17.4118C17.4676 7.51381 17.5229 7.5027 17.5745 7.48107C17.6261 7.45943 17.6729 7.42769 17.7125 7.38765C17.752 7.34761 17.7833 7.30006 17.8047 7.24772C17.8261 7.19538 17.8372 7.13927 17.8373 7.08259V5.9733C17.8373 5.18888 17.6851 4.41214 17.3895 3.68742C17.0939 2.96271 16.6606 2.30421 16.1143 1.74954C15.5681 1.19486 14.9196 0.754871 14.2059 0.454684C13.4922 0.154498 12.7272 -3.10424e-06 11.9547 2.30988e-10Z" fill="#FF9D27"/>
<path d="M16.5748 6.99308C16.5745 6.80216 16.4997 6.61914 16.3667 6.48416C16.2338 6.34919 16.0535 6.2733 15.8655 6.27313H8.01385C7.82577 6.27313 7.64539 6.34899 7.5124 6.48404C7.3794 6.61908 7.30469 6.80224 7.30469 6.99321C7.30469 7.18419 7.3794 7.36734 7.5124 7.50239C7.64539 7.63743 7.82577 7.7133 8.01385 7.7133H15.8655C16.0536 7.7132 16.2339 7.63729 16.3669 7.50224C16.4999 7.3672 16.5747 7.18406 16.5748 6.99308Z" fill="#FCAC54"/>
<path d="M17.7808 27.9999V19.1738L15.7209 18.8369L15.7315 26.2599H12.0567H12.056H8.32691L8.33804 18.8369L6.24731 19.1738V27.9999H17.7808Z" fill="#3983C6"/>
<path d="M12.1522 3.84241L12.2463 0.0148641C12.149 0.0105043 12.0531 0 11.9547 0C11.8316 0 11.7113 0.0112926 11.5902 0.0189879L11.6925 3.84241C11.6925 3.90432 11.7167 3.96368 11.7598 4.00746C11.8029 4.05123 11.8614 4.07582 11.9224 4.07582C11.9833 4.07582 12.0418 4.05123 12.0849 4.00746C12.128 3.96368 12.1522 3.90432 12.1522 3.84241Z" fill="#E07F17"/>
<path d="M10.4591 3.87447C10.5155 4.12608 10.7533 4.0912 10.7974 4.00962C10.8734 3.86932 10.2144 1.33295 9.95753 0.360596C9.76253 0.432244 9.57139 0.514264 9.38489 0.606321C9.55754 1.10185 10.348 3.37994 10.4591 3.87447Z" fill="#E07F17"/>
<path d="M13.3942 3.87449C13.5072 3.37101 14.3241 1.02006 14.4766 0.582995C14.289 0.492214 14.0967 0.411741 13.9005 0.341919C13.6473 1.3009 12.9794 3.86832 13.0559 4.00965C13.0999 4.09122 13.3379 4.1261 13.3942 3.87449Z" fill="#E07F17"/>
</g>
<defs>
<clipPath id="clip0_4331_27397">
<rect width="24" height="28" fill="white"/>
</clipPath>
</defs>
</svg>
