<svg width="26" height="28" viewBox="0 0 26 28" fill="none" xmlns="http://www.w3.org/2000/svg">
<g clip-path="url(#clip0_4331_27412)">
<path d="M4.45218 27.9798H25.6427L25.3341 22.0793C25.1727 21.3321 24.7939 20.6506 24.2462 20.1221C23.6986 19.5936 23.0071 19.2421 22.2603 19.1128L16.6432 18.2675C16.39 18.2084 16.1642 18.0644 16.0027 17.859C15.8411 17.6537 15.7534 17.3991 15.7537 17.1368L15.6302 14.6535H10.2313L10.1056 17.2418C10.0932 17.4875 9.99735 17.7213 9.83421 17.9041C9.67106 18.0868 9.45056 18.2073 9.20976 18.2453L3.66328 19.1128C2.91658 19.2423 2.22519 19.5937 1.67765 20.1222C1.13012 20.6507 0.75138 21.3322 0.589969 22.0793L0.281372 27.9798H4.45218Z" fill="#FFE1CC"/>
<path d="M15.3777 16.6211L15.7104 16.2707L15.6302 14.6535H10.2314L10.1581 16.1706L10.587 16.6221C10.7764 16.8204 11.0033 16.9782 11.2544 17.0861C11.5054 17.1939 11.7754 17.2497 12.0483 17.2499H12.9998V17.2488H13.916C14.1889 17.2486 14.459 17.1929 14.7101 17.085C14.9613 16.9771 15.1883 16.8194 15.3777 16.6211Z" fill="#E8C5AC"/>
<path d="M17.239 8.38775L17.4406 8.10623C18.1868 7.51976 18.6029 8.48761 18.481 9.23253C18.3697 9.90891 18.3162 9.96639 18.1793 10.8061C17.9868 11.9933 17.0245 11.6063 17.0245 11.6063L17.239 8.38775Z" fill="#E8C5AC"/>
<path d="M8.81608 8.38775L8.61444 8.10623C7.86832 7.51976 7.45218 8.48761 7.57468 9.23253C7.68591 9.90891 7.73943 9.96639 7.8758 10.8061C8.06834 11.9933 9.03056 11.6063 9.03056 11.6063L8.81608 8.38775Z" fill="#E8C5AC"/>
<path d="M13.0211 4.32007V4.32087L8.63794 5.71978V12.1345C8.63794 12.704 9.14177 13.5285 9.52849 14.0896L10.5955 15.7079C10.7887 15.9103 11.0203 16.0714 11.2765 16.1815C11.5327 16.2916 11.8083 16.3486 12.0867 16.349H13.058V16.3476H13.9919C14.2704 16.3473 14.546 16.2904 14.8023 16.1803C15.0586 16.0702 15.2903 15.9092 15.4836 15.7069L16.6688 13.908C17.0496 13.2397 17.4406 12.7031 17.4406 12.1334L17.4294 5.8979L13.0211 4.32007Z" fill="#FFE1CC"/>
<path d="M17.4294 5.89793C17.4299 6.48081 17.3165 7.05807 17.0958 7.59672C16.8751 8.13536 16.5514 8.62484 16.1432 9.03716C15.7349 9.44948 15.2502 9.77657 14.7166 9.99974C14.1831 10.2229 13.6112 10.3378 13.0337 10.3378C12.4561 10.3378 11.8842 10.2229 11.3507 9.99974C10.8172 9.77657 10.3324 9.44948 9.92419 9.03716C9.51596 8.62484 9.19224 8.13536 8.97154 7.59672C8.75084 7.05807 8.63748 6.48081 8.63794 5.89793C8.63794 3.44724 10.6025 1.77441 13.0297 1.77441C15.4574 1.77441 17.4294 3.44724 17.4294 5.89793Z" fill="#FFE1CC"/>
<path d="M9.41356 2.77139L9.40878 1.82916C9.40878 1.82916 7.17519 1.8945 7.35009 3.92277C7.44049 4.97295 7.67261 6.99882 7.81542 8.21176C7.89485 8.14979 7.99058 8.11275 8.0907 8.10523C8.19083 8.09772 8.29093 8.12006 8.37858 8.1695C8.46622 8.21893 8.53753 8.29326 8.58366 8.38326C8.62979 8.47326 8.6487 8.57496 8.63803 8.67571C8.64124 9.44006 8.63803 9.48434 8.63803 9.48434C8.74035 9.48777 8.8423 9.47021 8.9377 9.43274C9.03311 9.39526 9.11998 9.33865 9.19308 9.26631C9.26618 9.19397 9.32398 9.10743 9.36298 9.0119C9.40199 8.91637 9.42139 8.81385 9.42001 8.71054V4.06854C9.46825 3.92652 9.53535 3.79178 9.6195 3.66798C10.0276 3.09635 9.54352 2.82968 9.41356 2.77139Z" fill="#BFBEBE"/>
<path d="M16.5876 2.77139L16.5919 1.82916C16.5919 1.82916 18.8255 1.8945 18.6511 3.92277C18.5607 4.97295 18.3339 6.95024 18.1911 8.16262C18.0173 7.97344 17.4407 7.96587 17.4402 8.61173C17.4236 9.35369 17.4402 9.48622 17.4402 9.48622H17.4108C17.1988 9.49437 16.9924 9.41723 16.8368 9.27176C16.6812 9.1263 16.5893 8.92442 16.5812 8.71054V4.06854C16.5325 3.92671 16.4654 3.79202 16.3817 3.66798C15.9731 3.09635 16.4576 2.82968 16.5876 2.77139Z" fill="#BFBEBE"/>
<path d="M10.9635 0.000626065C10.9635 0.000626065 14.9626 0.0373289 16.2083 0.000626065C17.2475 -0.0301347 18.4494 1.0743 17.7631 2.94846C16.9518 5.16678 14.1946 5.06477 11.5534 4.3201C9.40117 3.71284 9.35036 6.12277 9.39634 7.79667C9.40223 8.01584 9.11661 8.12028 9.02036 7.92325C8.42363 6.73218 7.93285 5.49 7.55378 4.21134C7.06813 2.39491 7.34518 0.000626065 10.9635 0.000626065Z" fill="#DBDBDB"/>
<path d="M26 27.9798L25.8523 22.5963C25.8523 20.524 24.6714 19.4353 22.7208 19.021L17.8707 18.4698L14.6262 27.9798H26Z" fill="#0F0F0F"/>
<path d="M0 27.9798L0.147638 22.5963C0.147638 20.524 1.3286 19.4353 3.27922 19.021L8.12933 18.4698L11.3738 27.9798H0Z" fill="#0F0F0F"/>
<path d="M14.7813 28L17.677 18.3495L16.8116 18.2453C16.5709 18.2075 16.3504 18.087 16.1874 17.9042C16.0244 17.7214 15.9288 17.4874 15.9168 17.2418L12.9617 20.1503L10.0072 17.2418C9.99515 17.4874 9.89957 17.7214 9.73657 17.9042C9.57357 18.087 9.35309 18.2075 9.11233 18.2453L8.33411 18.3905L11.1999 27.9798L14.7813 28Z" fill="#EAEAEA"/>
<path d="M10.1446 16.8677C9.91729 16.6022 9.81192 16.5317 9.65361 16.8499L8.82886 18.1959L11.3737 22.5356C11.5497 22.8371 11.6893 22.8185 11.8476 22.5178L12.9708 20.1621L10.1446 16.8677Z" fill="white"/>
<path d="M15.7788 16.8677C16.0072 16.6022 16.112 16.5317 16.2703 16.8499L17.0945 18.1959L14.5502 22.5356C14.3748 22.8371 14.2347 22.8185 14.0763 22.5178L12.9531 20.1621L15.7788 16.8677Z" fill="white"/>
<path d="M10.9534 19.9813C10.9534 19.927 10.9693 19.874 10.9991 19.8289C11.029 19.7839 11.0714 19.7487 11.1211 19.728C11.1708 19.7073 11.2254 19.7019 11.2781 19.7125C11.3308 19.7232 11.3791 19.7493 11.4171 19.7877L12.9232 21.3081L11.4171 22.8284C11.3791 22.8667 11.3307 22.8928 11.278 22.9033C11.2253 22.9138 11.1708 22.9084 11.1212 22.8877C11.0716 22.8669 11.0291 22.8318 10.9993 22.7868C10.9694 22.7418 10.9534 22.6888 10.9534 22.6346V19.9813Z" fill="#0F0F0F"/>
<path d="M13.0002 21.3081L14.5069 19.7877C14.5448 19.7494 14.5932 19.7232 14.6458 19.7126C14.6985 19.702 14.7531 19.7074 14.8027 19.7281C14.8523 19.7488 14.8947 19.7839 14.9245 19.829C14.9543 19.8741 14.9702 19.9271 14.9701 19.9812V22.6346C14.9701 22.6888 14.9542 22.7417 14.9243 22.7867C14.8945 22.8317 14.8522 22.8668 14.8026 22.8876C14.7531 22.9083 14.6985 22.9137 14.6459 22.9032C14.5933 22.8927 14.5449 22.8667 14.5069 22.8284L13.0002 21.3081Z" fill="#0F0F0F"/>
<path d="M13.526 21.3081C13.526 21.4284 13.4905 21.546 13.4243 21.646C13.358 21.746 13.2639 21.8239 13.1537 21.8699C13.0436 21.9159 12.9224 21.9279 12.8055 21.9044C12.6886 21.8809 12.5812 21.823 12.4969 21.7379C12.4126 21.6528 12.3552 21.5444 12.332 21.4264C12.3088 21.3084 12.3207 21.1861 12.3663 21.075C12.412 20.9638 12.4892 20.8688 12.5883 20.802C12.6875 20.7351 12.804 20.6995 12.9232 20.6995C13.0024 20.6995 13.0808 20.7152 13.1539 20.7458C13.2271 20.7764 13.2935 20.8212 13.3495 20.8777C13.4055 20.9343 13.4499 21.0014 13.4802 21.0752C13.5105 21.149 13.526 21.2282 13.526 21.3081Z" fill="#0F0F0F"/>
<path d="M7.20827 22.1383L9.21773 22.1367L7.32539 23.9181C6.89323 24.4255 7.12589 24.6462 7.38369 24.9801L9.68254 27.9798H11.5214L8.85297 18.1959L7.50777 18.4002C7.50777 18.4002 7.34733 18.4135 7.30456 18.519C7.29093 18.5683 7.28126 18.6187 7.27566 18.6696L6.70764 21.5313C6.70764 22.0539 6.7654 22.1383 7.20827 22.1383Z" fill="#7A797A"/>
<path d="M16.2715 27.9798L18.5227 24.9801C18.7805 24.6462 19.0137 24.4255 18.581 23.9181L16.6881 22.1367L18.6976 22.1383C19.1415 22.1383 19.1993 22.0539 19.1993 21.5313L18.6355 18.6075C18.6247 18.5578 18.6063 18.5101 18.581 18.4661C18.5435 18.4367 18.5016 18.4136 18.4569 18.3975L17.0427 18.1109L14.4519 27.9798H16.2715Z" fill="#7A797A"/>
</g>
<defs>
<clipPath id="clip0_4331_27412">
<rect width="26" height="28" rx="2" fill="white"/>
</clipPath>
</defs>
</svg>
