<svg width="16" height="16" viewBox="0 0 16 16" fill="none" xmlns="http://www.w3.org/2000/svg">
<path d="M9.33329 8.6665C8.77774 8.6665 8.30551 8.47206 7.91663 8.08317C7.52774 7.69428 7.33329 7.22206 7.33329 6.6665C7.33329 6.11095 7.52774 5.63873 7.91663 5.24984C8.30551 4.86095 8.77774 4.6665 9.33329 4.6665C9.88885 4.6665 10.3611 4.86095 10.75 5.24984C11.1388 5.63873 11.3333 6.11095 11.3333 6.6665C11.3333 7.22206 11.1388 7.69428 10.75 8.08317C10.3611 8.47206 9.88885 8.6665 9.33329 8.6665ZM4.66663 10.6665C4.29996 10.6665 3.98607 10.5359 3.72496 10.2748C3.46385 10.0137 3.33329 9.69984 3.33329 9.33317V3.99984C3.33329 3.63317 3.46385 3.31928 3.72496 3.05817C3.98607 2.79706 4.29996 2.6665 4.66663 2.6665H14C14.3666 2.6665 14.6805 2.79706 14.9416 3.05817C15.2027 3.31928 15.3333 3.63317 15.3333 3.99984V9.33317C15.3333 9.69984 15.2027 10.0137 14.9416 10.2748C14.6805 10.5359 14.3666 10.6665 14 10.6665H4.66663ZM5.99996 9.33317H12.6666C12.6666 8.9665 12.7972 8.65261 13.0583 8.3915C13.3194 8.13039 13.6333 7.99984 14 7.99984V5.33317C13.6333 5.33317 13.3194 5.20261 13.0583 4.9415C12.7972 4.68039 12.6666 4.3665 12.6666 3.99984H5.99996C5.99996 4.3665 5.8694 4.68039 5.60829 4.9415C5.34718 5.20261 5.03329 5.33317 4.66663 5.33317V7.99984C5.03329 7.99984 5.34718 8.13039 5.60829 8.3915C5.8694 8.65261 5.99996 8.9665 5.99996 9.33317ZM13.3333 13.3332H1.99996C1.63329 13.3332 1.3194 13.2026 1.05829 12.9415C0.797182 12.6804 0.666626 12.3665 0.666626 11.9998V4.6665H1.99996V11.9998H13.3333V13.3332Z" fill="#9DACD4"/>
</svg>
