<svg width="34" height="34" viewBox="0 0 34 34" fill="none" xmlns="http://www.w3.org/2000/svg">
<rect width="34" height="34" rx="11" fill="#E7EFFF"/>
<g clip-path="url(#clip0_4136_8949)">
<path d="M8.45218 30.9798H29.6427L29.3341 25.0793C29.1727 24.3321 28.7939 23.6506 28.2462 23.1221C27.6986 22.5936 27.0071 22.2421 26.2603 22.1128L20.6432 21.2675C20.39 21.2084 20.1642 21.0644 20.0027 20.859C19.8411 20.6537 19.7534 20.3991 19.7537 20.1368L19.6302 17.6535H14.2313L14.1056 20.2418C14.0932 20.4875 13.9974 20.7213 13.8342 20.9041C13.6711 21.0868 13.4506 21.2073 13.2098 21.2453L7.66328 22.1128C6.91658 22.2423 6.22519 22.5937 5.67765 23.1222C5.13012 23.6507 4.75138 24.3322 4.58997 25.0793L4.28137 30.9798H8.45218Z" fill="#FFE1CC"/>
<path d="M19.3777 19.6211L19.7104 19.2707L19.6302 17.6535H14.2314L14.1581 19.1706L14.587 19.6221C14.7764 19.8204 15.0033 19.9782 15.2544 20.0861C15.5054 20.1939 15.7754 20.2497 16.0483 20.2499H16.9998V20.2488H17.916C18.1889 20.2486 18.459 20.1929 18.7101 20.085C18.9613 19.9771 19.1883 19.8194 19.3777 19.6211Z" fill="#E8C5AC"/>
<path d="M21.239 11.3878L21.4406 11.1062C22.1868 10.5198 22.6029 11.4876 22.481 12.2325C22.3697 12.9089 22.3162 12.9664 22.1793 13.8061C21.9868 14.9933 21.0245 14.6063 21.0245 14.6063L21.239 11.3878Z" fill="#E8C5AC"/>
<path d="M12.8161 11.3878L12.6144 11.1062C11.8683 10.5198 11.4522 11.4876 11.5747 12.2325C11.6859 12.9089 11.7394 12.9664 11.8758 13.8061C12.0683 14.9933 13.0306 14.6063 13.0306 14.6063L12.8161 11.3878Z" fill="#E8C5AC"/>
<path d="M17.0211 7.32007V7.32087L12.6379 8.71978V15.1345C12.6379 15.704 13.1418 16.5285 13.5285 17.0896L14.5955 18.7079C14.7887 18.9103 15.0203 19.0714 15.2765 19.1815C15.5327 19.2916 15.8083 19.3486 16.0867 19.349H17.058V19.3476H17.9919C18.2704 19.3473 18.546 19.2904 18.8023 19.1803C19.0586 19.0702 19.2903 18.9092 19.4836 18.7069L20.6688 16.908C21.0496 16.2397 21.4406 15.7031 21.4406 15.1334L21.4294 8.8979L17.0211 7.32007Z" fill="#FFE1CC"/>
<path d="M21.4294 8.89793C21.4299 9.48081 21.3165 10.0581 21.0958 10.5967C20.8751 11.1354 20.5514 11.6248 20.1432 12.0372C19.7349 12.4495 19.2502 12.7766 18.7166 12.9997C18.1831 13.2229 17.6112 13.3378 17.0337 13.3378C16.4561 13.3378 15.8842 13.2229 15.3507 12.9997C14.8172 12.7766 14.3324 12.4495 13.9242 12.0372C13.516 11.6248 13.1922 11.1354 12.9715 10.5967C12.7508 10.0581 12.6375 9.48081 12.6379 8.89793C12.6379 6.44724 14.6025 4.77441 17.0297 4.77441C19.4574 4.77441 21.4294 6.44724 21.4294 8.89793Z" fill="#FFE1CC"/>
<path d="M13.4136 5.77139L13.4088 4.82916C13.4088 4.82916 11.1752 4.8945 11.3501 6.92277C11.4405 7.97295 11.6726 9.99882 11.8154 11.2118C11.8949 11.1498 11.9906 11.1127 12.0907 11.1052C12.1908 11.0977 12.2909 11.1201 12.3786 11.1695C12.4662 11.2189 12.5375 11.2933 12.5837 11.3833C12.6298 11.4733 12.6487 11.575 12.638 11.6757C12.6412 12.4401 12.638 12.4843 12.638 12.4843C12.7404 12.4878 12.8423 12.4702 12.9377 12.4327C13.0331 12.3953 13.12 12.3386 13.1931 12.2663C13.2662 12.194 13.324 12.1074 13.363 12.0119C13.402 11.9164 13.4214 11.8138 13.42 11.7105V7.06854C13.4682 6.92652 13.5354 6.79178 13.6195 6.66798C14.0276 6.09635 13.5435 5.82968 13.4136 5.77139Z" fill="#BFBEBE"/>
<path d="M20.5876 5.77139L20.5919 4.82916C20.5919 4.82916 22.8255 4.8945 22.6511 6.92277C22.5607 7.97295 22.3339 9.95024 22.1911 11.1626C22.0173 10.9734 21.4407 10.9659 21.4402 11.6117C21.4236 12.3537 21.4402 12.4862 21.4402 12.4862H21.4108C21.1988 12.4944 20.9924 12.4172 20.8368 12.2718C20.6812 12.1263 20.5893 11.9244 20.5812 11.7105V7.06854C20.5325 6.92671 20.4654 6.79202 20.3817 6.66798C19.9731 6.09635 20.4576 5.82968 20.5876 5.77139Z" fill="#BFBEBE"/>
<path d="M14.9635 3.00063C14.9635 3.00063 18.9626 3.03733 20.2083 3.00063C21.2475 2.96987 22.4494 4.0743 21.7631 5.94846C20.9518 8.16678 18.1946 8.06477 15.5534 7.3201C13.4012 6.71284 13.3504 9.12277 13.3963 10.7967C13.4022 11.0158 13.1166 11.1203 13.0204 10.9233C12.4236 9.73218 11.9328 8.49 11.5538 7.21134C11.0681 5.39491 11.3452 3.00063 14.9635 3.00063Z" fill="#DBDBDB"/>
<path d="M30 30.9798L29.8523 25.5963C29.8523 23.524 28.6714 22.4353 26.7208 22.021L21.8707 21.4698L18.6262 30.9798H30Z" fill="#0F0F0F"/>
<path d="M4 30.9798L4.14764 25.5963C4.14764 23.524 5.3286 22.4353 7.27922 22.021L12.1293 21.4698L15.3738 30.9798H4Z" fill="#0F0F0F"/>
<path d="M18.7813 31L21.677 21.3495L20.8116 21.2453C20.5709 21.2075 20.3504 21.087 20.1874 20.9042C20.0244 20.7214 19.9288 20.4874 19.9168 20.2418L16.9617 23.1503L14.0072 20.2418C13.9951 20.4874 13.8996 20.7214 13.7366 20.9042C13.5736 21.087 13.3531 21.2075 13.1123 21.2453L12.3341 21.3905L15.1999 30.9798L18.7813 31Z" fill="#EAEAEA"/>
<path d="M14.1446 19.8677C13.9173 19.6022 13.8119 19.5317 13.6536 19.8499L12.8289 21.1959L15.3737 25.5356C15.5497 25.8371 15.6893 25.8185 15.8476 25.5178L16.9708 23.1621L14.1446 19.8677Z" fill="white"/>
<path d="M19.7788 19.8677C20.0072 19.6022 20.112 19.5317 20.2703 19.8499L21.0945 21.1959L18.5502 25.5356C18.3748 25.8371 18.2347 25.8185 18.0763 25.5178L16.9531 23.1621L19.7788 19.8677Z" fill="white"/>
<path d="M14.9534 22.9813C14.9534 22.927 14.9693 22.874 14.9991 22.8289C15.029 22.7839 15.0714 22.7487 15.1211 22.728C15.1708 22.7073 15.2254 22.7019 15.2781 22.7125C15.3308 22.7232 15.3791 22.7493 15.4171 22.7877L16.9232 24.3081L15.4171 25.8284C15.3791 25.8667 15.3307 25.8928 15.278 25.9033C15.2253 25.9138 15.1708 25.9084 15.1212 25.8877C15.0716 25.8669 15.0291 25.8318 14.9993 25.7868C14.9694 25.7418 14.9534 25.6888 14.9534 25.6346V22.9813Z" fill="#0F0F0F"/>
<path d="M17.0002 24.3081L18.5069 22.7877C18.5448 22.7494 18.5932 22.7232 18.6458 22.7126C18.6985 22.702 18.7531 22.7074 18.8027 22.7281C18.8523 22.7488 18.8947 22.7839 18.9245 22.829C18.9543 22.8741 18.9702 22.9271 18.9701 22.9812V25.6346C18.9701 25.6888 18.9542 25.7417 18.9243 25.7867C18.8945 25.8317 18.8522 25.8668 18.8026 25.8876C18.7531 25.9083 18.6985 25.9137 18.6459 25.9032C18.5933 25.8927 18.5449 25.8667 18.5069 25.8284L17.0002 24.3081Z" fill="#0F0F0F"/>
<path d="M17.526 24.3081C17.526 24.4284 17.4905 24.546 17.4243 24.646C17.358 24.746 17.2639 24.8239 17.1537 24.8699C17.0436 24.9159 16.9224 24.9279 16.8055 24.9044C16.6886 24.8809 16.5812 24.823 16.4969 24.7379C16.4126 24.6528 16.3552 24.5444 16.332 24.4264C16.3088 24.3084 16.3207 24.1861 16.3663 24.075C16.412 23.9638 16.4892 23.8688 16.5883 23.802C16.6875 23.7351 16.804 23.6995 16.9232 23.6995C17.0024 23.6995 17.0808 23.7152 17.1539 23.7458C17.2271 23.7764 17.2935 23.8212 17.3495 23.8777C17.4055 23.9343 17.4499 24.0014 17.4802 24.0752C17.5105 24.149 17.526 24.2282 17.526 24.3081Z" fill="#0F0F0F"/>
<path d="M11.2083 25.1383L13.2177 25.1367L11.3254 26.9181C10.8932 27.4255 11.1259 27.6462 11.3837 27.9801L13.6825 30.9798H15.5214L12.853 21.1959L11.5078 21.4002C11.5078 21.4002 11.3473 21.4135 11.3046 21.519C11.2909 21.5683 11.2813 21.6187 11.2757 21.6696L10.7076 24.5313C10.7076 25.0539 10.7654 25.1383 11.2083 25.1383Z" fill="#7A797A"/>
<path d="M20.2715 30.9798L22.5227 27.9801C22.7805 27.6462 23.0137 27.4255 22.581 26.9181L20.6881 25.1367L22.6976 25.1383C23.1415 25.1383 23.1993 25.0539 23.1993 24.5313L22.6355 21.6075C22.6247 21.5578 22.6063 21.5101 22.581 21.4661C22.5435 21.4367 22.5016 21.4136 22.4569 21.3975L21.0427 21.1109L18.4519 30.9798H20.2715Z" fill="#7A797A"/>
</g>
<defs>
<clipPath id="clip0_4136_8949">
<rect x="4" y="3" width="26" height="28" rx="2" fill="white"/>
</clipPath>
</defs>
</svg>
