<svg width="46" height="51" viewBox="0 0 46 51" fill="none" xmlns="http://www.w3.org/2000/svg">
<path d="M39.7096 44.9284C35.1075 48.7277 29.3082 50.9997 23.0003 50.9997C16.6924 50.9997 10.8938 48.7277 6.2911 44.9284C4.05007 43.0788 2.09061 40.8706 0.5 38.3787C2.68922 36.3581 6.97493 34.8222 9.18324 33.7875C10.5591 33.1423 12.1156 32.7528 12.9392 32.0976L16.6945 28.2926L14.8168 22.7984C12.5274 22.1117 11.4638 16.4586 12.9392 16.3175C12.4654 13.6023 12.0058 9.96264 12.539 7.33405C13.1015 3.3278 17.5631 0.208008 22.986 0.208008C28.1758 0.208008 32.484 3.06573 33.3376 6.82208C34.0528 9.4743 33.5646 13.4211 33.0587 16.3168C34.5341 16.4578 33.5094 22.096 31.2186 22.7834L29.3035 28.2911L33.0601 32.0962C33.8823 32.7514 35.4389 33.1416 36.8154 33.786C39.0251 34.8207 43.3108 36.3574 45.5 38.378C43.9094 40.8713 41.9499 43.0795 39.7096 44.9284Z" fill="#9DACD4"/>
</svg>
