<svg width="34" height="34" viewBox="0 0 34 34" fill="none" xmlns="http://www.w3.org/2000/svg">
<rect width="34" height="34" rx="11" fill="#E7EFFF"/>
<g clip-path="url(#clip0_4136_8953)">
<path d="M26.9101 31C28.0491 31 28.9582 30.05 28.9081 28.9121L28.776 25.9085C28.7315 25.1086 28.4187 24.3483 27.8897 23.754C27.3607 23.1597 26.6472 22.7671 25.868 22.6416L20.7682 21.8709C20.625 21.8492 20.4772 21.8539 20.3365 21.8197C20.2633 21.8019 20.1928 21.7726 20.1278 21.7323C19.8967 21.589 19.6643 21.3969 19.3924 21.3969H14.5859C14.3325 21.3969 14.1057 21.5402 13.8917 21.6758C13.7777 21.748 13.6505 21.7961 13.5177 21.8173L8.26996 22.6416C6.79911 22.9181 5.45027 23.8048 5.28204 25.8377L5.11523 28.8909C5.05263 30.0366 5.96481 31 7.11225 31H26.9101Z" fill="white"/>
<path d="M20.6787 21.8683L20.4831 21.8383C20.2439 21.7824 20.0304 21.6457 19.8776 21.4505C19.7248 21.2554 19.6416 21.0135 19.6418 20.7642L19.5254 18.404H14.4266L14.3072 20.8637C14.2957 21.0971 14.2052 21.3194 14.0512 21.4931C13.8971 21.6668 13.6888 21.7813 13.4614 21.8173L13.338 21.8368C13.538 22.6699 14.0068 23.411 14.6698 23.9421C15.3328 24.4732 16.1517 24.7637 16.9962 24.7674C17.8406 24.771 18.662 24.4875 19.3294 23.9621C19.9967 23.4367 20.4717 22.6997 20.6787 21.8683Z" fill="#FFE1CC"/>
<path d="M19.2871 20.2738L19.6012 19.9411L19.5254 18.404H14.4265L14.3564 19.8457L14.7617 20.2748C14.9406 20.4632 15.1551 20.6132 15.3923 20.7157C15.6294 20.8182 15.8845 20.8711 16.1423 20.8714H17.0414V20.8703H17.9065C18.1643 20.87 18.4194 20.817 18.6565 20.7146C18.8937 20.6121 19.1082 20.4621 19.2871 20.2738Z" fill="#E8C5AC"/>
<path d="M20.8971 12.5436L21.1958 12.5628C21.4633 12.6259 21.697 12.7902 21.8493 13.0223C22.0016 13.2544 22.0609 13.5367 22.0152 13.8116C21.9125 14.4418 21.8628 14.4957 21.7367 15.2775C21.5579 16.3832 20.6667 16.0228 20.6667 16.0228L20.8971 12.5436Z" fill="#E8C5AC"/>
<path d="M13.0579 12.5436L12.7592 12.5628C12.4918 12.6261 12.2582 12.7904 12.1059 13.0225C11.9537 13.2545 11.8943 13.5367 11.9399 13.8116C12.0429 14.4418 12.0922 14.4957 12.2191 15.2775C12.3971 16.3832 13.2887 16.0228 13.2887 16.0228L13.0579 12.5436Z" fill="#E8C5AC"/>
<path d="M16.9376 8.80298V8.80426L12.88 8.82171V16.6668C12.8802 17.1978 13.0824 17.7081 13.4443 18.0914L14.6922 19.411C14.871 19.5996 15.0854 19.7497 15.3226 19.8523C15.5598 19.9549 15.815 20.0079 16.0728 20.0081H16.9714V20.0068H17.8367C18.0945 20.0065 18.3496 19.9535 18.5868 19.8509C18.824 19.7483 19.0384 19.5983 19.2172 19.4097L20.4646 18.0906C20.8263 17.707 21.0285 17.1966 21.029 16.6656V8.82068L16.9376 8.80298Z" fill="#FFE1CC"/>
<path d="M12.8765 13.598V10.8613C12.8641 9.9123 13.5112 8.95458 14.5398 8.93919H16.5164C17.0406 9.13436 16.5248 10.3109 17.045 10.1077L20.1599 8.91148C20.7189 8.78914 21.0399 9.28186 21.0399 9.73917V13.5649C21.0399 13.7237 21.6435 13.3005 21.8528 12.3987L22.2267 7.02682C22.2404 6.29765 22.032 5.57922 21.029 5.57922L18.7679 5.58051H15.701C13.1769 5.53536 11.2756 6.78574 11.7002 9.54038L12.1831 12.5938C12.2707 13.3005 12.8765 13.7383 12.8765 13.598Z" fill="#633A11"/>
<path d="M16.9547 3C16.1822 2.99999 15.4172 3.15449 14.7035 3.45468C13.9898 3.75486 13.3413 4.19485 12.795 4.74952C12.2487 5.3042 11.8154 5.96269 11.5198 6.68741C11.2242 7.41212 11.072 8.18887 11.072 8.9733V10.0826C11.0721 10.197 11.1169 10.3067 11.1967 10.3875C11.2764 10.4684 11.3845 10.5138 11.4971 10.5137H22.4118C22.4676 10.5138 22.5229 10.5027 22.5745 10.4811C22.6261 10.4594 22.6729 10.4277 22.7125 10.3876C22.752 10.3476 22.7833 10.3001 22.8047 10.2477C22.8261 10.1954 22.8372 10.1393 22.8373 10.0826V8.9733C22.8373 8.18888 22.6851 7.41214 22.3895 6.68742C22.0939 5.96271 21.6606 5.30421 21.1143 4.74954C20.5681 4.19486 19.9196 3.75487 19.2059 3.45468C18.4922 3.1545 17.7272 3 16.9547 3Z" fill="#FF9D27"/>
<path d="M21.5748 9.99308C21.5745 9.80216 21.4997 9.61914 21.3667 9.48416C21.2338 9.34919 21.0535 9.2733 20.8655 9.27313H13.0138C12.8258 9.27313 12.6454 9.34899 12.5124 9.48404C12.3794 9.61908 12.3047 9.80224 12.3047 9.99321C12.3047 10.1842 12.3794 10.3673 12.5124 10.5024C12.6454 10.6374 12.8258 10.7133 13.0138 10.7133H20.8655C21.0536 10.7132 21.2339 10.6373 21.3669 10.5022C21.4999 10.3672 21.5747 10.1841 21.5748 9.99308Z" fill="#FCAC54"/>
<path d="M22.7808 30.9999V22.1738L20.7209 21.8369L20.7315 29.2599H17.0567H17.056H13.3269L13.338 21.8369L11.2473 22.1738V30.9999H22.7808Z" fill="#3983C6"/>
<path d="M17.1522 6.84241L17.2463 3.01486C17.149 3.0105 17.0531 3 16.9547 3C16.8316 3 16.7113 3.01129 16.5902 3.01899L16.6925 6.84241C16.6925 6.90432 16.7167 6.96368 16.7598 7.00746C16.8029 7.05123 16.8614 7.07582 16.9224 7.07582C16.9833 7.07582 17.0418 7.05123 17.0849 7.00746C17.128 6.96368 17.1522 6.90432 17.1522 6.84241Z" fill="#E07F17"/>
<path d="M15.4591 6.87447C15.5155 7.12608 15.7533 7.0912 15.7974 7.00962C15.8734 6.86932 15.2144 4.33295 14.9575 3.3606C14.7625 3.43224 14.5714 3.51426 14.3849 3.60632C14.5575 4.10185 15.348 6.37994 15.4591 6.87447Z" fill="#E07F17"/>
<path d="M18.3942 6.87449C18.5072 6.37101 19.3241 4.02006 19.4766 3.583C19.289 3.49221 19.0967 3.41174 18.9005 3.34192C18.6473 4.3009 17.9794 6.86832 18.0559 7.00965C18.0999 7.09122 18.3379 7.1261 18.3942 6.87449Z" fill="#E07F17"/>
</g>
<defs>
<clipPath id="clip0_4136_8953">
<rect width="24" height="28" fill="white" transform="translate(5 3)"/>
</clipPath>
</defs>
</svg>
