<svg width="94" height="94" viewBox="0 0 94 94" fill="none" xmlns="http://www.w3.org/2000/svg">
<g clip-path="url(#clip0_2105_9759)">
<path d="M86.9677 33.6327C87.0761 34.9981 86.8919 36.2102 86.7084 37.4555C86.6502 37.8527 86.576 38.245 86.4857 38.6326C86.446 38.8069 86.4063 38.9781 86.3642 39.1513C85.8425 41.3657 84.8281 43.3807 83.3607 45.0166C83.3138 45.0698 83.2666 45.1216 83.2189 45.1722C81.8103 46.672 80.2754 48.0166 78.4213 49.0229C76.589 50.1289 74.6169 51.0486 72.5663 51.9591C72.3038 52.0757 72.0462 52.2013 71.7929 52.3342C70.9813 52.7603 70.2238 53.1653 69.5298 53.674C66.6807 55.5613 65.1002 58.379 64.1064 61.5427C63.6097 63.1247 63.2564 64.7906 62.955 66.4652C62.9276 79.6294 50.6976 89.2588 37.3467 86.5943C36.8198 86.469 36.3867 86.2543 35.8777 86.0716C34.2499 85.4176 32.7666 84.5027 31.448 83.2706C29.2195 81.1559 27.9355 78.6175 26.9946 75.9095C26.6809 75.0069 26.4054 74.0857 26.1457 73.1564C25.3914 70.3789 24.7688 67.4108 22.6447 65.2279C19.4582 61.9525 15.3394 60.4103 11.5359 57.7434C5.51097 53.5288 5.92586 45.5548 10.2257 41.5042C10.9006 40.8223 11.578 40.2381 12.2728 39.5961C15.871 36.5398 20.7799 36.2577 25.4513 35.2311C28.2174 34.5612 30.6873 33.122 31.7796 30.4259C34.1347 24.9122 35.6919 19.2879 39.4593 14.8586C39.9802 14.1899 40.5273 13.5439 41.1006 12.9278C42.8201 11.0792 44.7767 9.50001 46.9814 8.37922C47.8686 7.92737 48.7942 7.55603 49.7471 7.26961C60.1186 3.71851 73.62 7.41165 80.5755 18.1383C81.8405 20.0887 83.0288 22.0713 83.9876 24.1505C84.7606 25.861 85.4741 27.5468 86.0387 29.3953C86.1931 29.9759 86.3654 30.4994 86.5103 31.0783C86.7537 32.0187 86.9077 32.8774 86.9677 33.6327Z" fill="#9DACD4"/>
<path d="M31.3608 23.3856C30.3285 24.8894 28.9905 25.9241 27.647 26.3861C26.3035 26.8481 24.9472 26.742 23.8752 25.9647C22.8033 25.1875 22.2212 23.8876 22.1569 22.4081C22.0926 20.9286 22.5539 19.2664 23.5802 17.7641C24.6066 16.2619 26.0001 15.2021 27.4163 14.7098C28.8325 14.2174 30.2539 14.2972 31.3255 15.0749C32.3971 15.8525 32.9243 17.178 32.9207 18.6862C32.9172 20.1944 32.3911 21.8838 31.3608 23.3856Z" fill="#9DACD4"/>
<path d="M77.8715 59.942C79.1289 62.4445 77.4467 65.5563 74.7957 66.8714C73.3918 67.5772 71.8974 67.738 70.5944 67.4527C69.2913 67.1674 68.1757 66.4405 67.548 65.338C66.9203 64.2356 66.8976 62.9632 67.3689 61.8005C68.4409 59.2006 71.6731 57.7175 74.6179 58.014C76.0372 58.1708 77.2486 58.8108 77.8715 59.942Z" fill="#9DACD4"/>
<mask id="mask0_2105_9759" style="mask-type:luminance" maskUnits="userSpaceOnUse" x="-2" y="-4" width="117" height="120">
<path d="M114.953 37.3099C115.111 39.3068 114.842 41.0796 114.574 42.9008C114.488 43.4816 114.38 44.0555 114.248 44.6223C114.19 44.8773 114.132 45.1276 114.07 45.3809C113.307 48.6195 111.824 51.5664 109.678 53.9589C109.609 54.0367 109.54 54.1125 109.47 54.1865C107.41 56.38 105.165 58.3465 102.454 59.8182C99.7738 61.4358 96.8897 62.7808 93.8906 64.1125C93.5068 64.2829 93.13 64.4667 92.7595 64.661C91.5727 65.2842 90.4648 65.8765 89.4498 66.6205C85.283 69.3806 82.9714 73.5016 81.518 78.1285C80.7916 80.4422 80.2748 82.8785 79.8341 85.3276C79.7941 104.58 61.9075 118.663 42.3818 114.767C41.6113 114.583 40.9778 114.269 40.2334 114.002C37.8527 113.046 35.6833 111.708 33.755 109.906C30.4958 106.813 28.6179 103.1 27.2418 99.1399C26.783 97.82 26.3801 96.4726 26.0003 95.1135C24.8971 91.0515 23.9866 86.7106 20.8801 83.518C16.2198 78.7278 10.196 76.4724 4.63334 72.572C-4.17811 66.4081 -3.57133 54.7461 2.71718 48.822C3.70429 47.8247 4.69489 46.9704 5.71104 46.0315C10.9735 41.5616 18.1528 41.149 24.9848 39.6476C29.0302 38.6678 32.6425 36.563 34.2398 32.62C37.6843 24.5561 39.9616 16.3305 45.4715 9.85268C46.2333 8.87467 47.0334 7.92992 47.8719 7.02893C50.3867 4.3254 53.2482 2.01575 56.4726 0.376589C57.7701 -0.284234 59.1238 -0.827319 60.5174 -1.24622C75.6859 -6.43972 95.4317 -1.03849 105.604 14.6494C107.454 17.5017 109.192 20.4013 110.594 23.4421C111.725 25.9438 112.768 28.4092 113.594 31.1128C113.82 31.9618 114.072 32.7274 114.284 33.5741C114.64 34.9495 114.865 36.2053 114.953 37.3099ZM35.9069 15.4535C35.9121 13.2477 35.1416 11.3104 33.5738 10.1719C32.0061 9.03339 29.9279 8.91786 27.8567 9.63795C25.7855 10.358 23.7439 11.9079 22.2464 14.1049C20.7489 16.3019 20.0707 18.733 20.1647 20.8967C20.2588 23.0605 21.1106 24.9622 22.6778 26.0984C24.245 27.2345 26.2308 27.3904 28.194 26.7146C30.1572 26.0389 32.1187 24.5258 33.6255 22.3264C35.1323 20.1271 35.9017 17.6587 35.9069 15.4535ZM96.8909 72.9671C92.5842 72.5335 87.8599 74.7025 86.2893 78.5048C85.6 80.2053 85.6326 82.0644 86.5511 83.6785C87.4697 85.2926 89.1026 86.3546 91.0065 86.7713C92.9105 87.1879 95.0978 86.9533 97.151 85.9211C101.028 83.9954 103.488 79.4467 101.649 75.7867C100.738 74.1336 98.9667 73.1976 96.8909 72.9671Z" fill="white"/>
</mask>
<g mask="url(#mask0_2105_9759)">
<g style="mix-blend-mode:multiply" opacity="0.19">
<path d="M72.9273 14.6543H31.703C28.3405 14.6543 25.6147 17.3936 25.6147 20.7728V71.4206C25.6147 74.7997 28.3405 77.539 31.703 77.539H72.9273C76.2897 77.539 79.0156 74.7997 79.0156 71.4206V20.7728C79.0156 17.3936 76.2897 14.6543 72.9273 14.6543Z" fill="#3636CF"/>
</g>
</g>
<path d="M68.7864 10.5771H27.5621C24.1996 10.5771 21.4738 13.3165 21.4738 16.6956V67.3434C21.4738 70.7226 24.1996 73.4619 27.5621 73.4619H68.7864C72.1489 73.4619 74.8747 70.7226 74.8747 67.3434V16.6956C74.8747 13.3165 72.1489 10.5771 68.7864 10.5771Z" fill="#F5F5F5"/>
<path d="M46 44C50.4183 44 54 39.0751 54 33C54 26.9249 50.4183 22 46 22C41.5817 22 38 26.9249 38 33C38 39.0751 41.5817 44 46 44Z" fill="#637381"/>
<path d="M46.0814 43C39.6558 43 36.8204 44.8406 33 47.2434C36.574 52.2571 39.8445 57 46.5004 57C53.1085 57 56.4186 51.9923 60 47.0387C56.181 44.5759 52.6009 43 46.0814 43Z" fill="#637381"/>
<path d="M49.3701 35H42.63C42.282 35 42 35.3 42 35.6701V47.3299C42 47.7 42.282 48 42.63 48H49.3701C49.718 48 50 47.7 50 47.3299V35.6701C50 35.3 49.718 35 49.3701 35Z" fill="#637381"/>
<path d="M39.9239 33.792C40.1838 35.4444 39.7565 36.8781 38.9702 36.9927C38.1839 37.1073 37.337 35.8611 37.0764 34.208C36.8158 32.5549 37.2438 31.1219 38.0301 31.0073C38.8164 30.8927 39.6649 32.1389 39.9239 33.792Z" fill="#637381"/>
<path d="M52.0757 33.792C51.8166 35.4444 52.2439 36.8781 53.0296 36.9927C53.8153 37.1073 54.6631 35.8611 54.9237 34.208C55.1843 32.5549 54.7555 31.1219 53.9698 31.0073C53.1842 30.8927 52.3349 32.1389 52.0757 33.792Z" fill="#637381"/>
<path d="M38.8571 32.2351C38.6035 30.5067 38.3503 28.7782 38.0975 27.0497C38.006 26.422 37.9172 25.7602 38.1384 25.168C38.3595 24.5757 39.0079 24.1043 39.5819 24.3267C39.3522 23.1232 40.6351 22.2348 41.7541 21.8357C43.6288 21.1663 45.6378 20.8259 47.6059 21.0892C49.5741 21.3526 51.4896 22.2546 52.8186 23.7829C53.2385 24.2667 53.5999 24.8159 53.8 25.4327C54.1844 26.6199 53.9396 27.9149 53.6914 29.1403C53.4944 30.1132 53.2969 31.0866 53.099 32.0605C53.0542 32.2829 53.0042 32.5163 52.8574 32.6848C52.6244 32.9543 52.2307 32.9741 51.8819 32.9754L40.6864 33C39.9847 33 39.0691 32.8226 38.975 32.1014" fill="#637381"/>
<path d="M34 48.2319L47.0273 60L67 38" stroke="#F5F5F5" stroke-width="4" stroke-miterlimit="10" stroke-linecap="square"/>
<path d="M56.8333 65.5C56.375 65.5 55.9827 65.3368 55.6563 65.0104C55.3299 64.684 55.1667 64.2917 55.1667 63.8333V53H54.3333V51.3333H58.5V50.5H63.5V51.3333H67.6667V53H66.8333V63.8333C66.8333 64.2917 66.6702 64.684 66.3438 65.0104C66.0174 65.3368 65.625 65.5 65.1667 65.5H56.8333ZM65.1667 53H56.8333V63.8333H65.1667V53ZM58.5 62.1667H60.1667V54.6667H58.5V62.1667ZM61.8333 62.1667H63.5V54.6667H61.8333V62.1667Z" fill="#F00A0A"/>
</g>
<defs>
<clipPath id="clip0_2105_9759">
<rect width="94" height="94" fill="white"/>
</clipPath>
</defs>
</svg>
