<svg width="24" height="24" viewBox="0 0 24 24" fill="none" xmlns="http://www.w3.org/2000/svg">
<path d="M12 20C11.0278 20 10.1171 19.8077 9.26806 19.4232C8.41898 19.0387 7.68009 18.5192 7.05139 17.8649C6.42269 17.2105 5.92361 16.4415 5.55417 15.5577C5.18472 14.674 5 13.7262 5 12.7143H6.55556C6.55556 14.2929 7.0838 15.6319 8.14028 16.7315C9.19676 17.8312 10.4833 18.381 12 18.381C13.5167 18.381 14.8032 17.8312 15.8597 16.7315C16.9162 15.6319 17.4444 14.2929 17.4444 12.7143C17.4444 11.1357 16.9162 9.79663 15.8597 8.69702C14.8032 7.59742 13.5167 7.04762 12 7.04762H11.8833L13.0889 8.30238L12 9.47619L8.88889 6.2381L12 3L13.0889 4.17381L11.8833 5.42857H12C12.9722 5.42857 13.8829 5.62083 14.7319 6.00536C15.581 6.38988 16.3199 6.90933 16.9486 7.56369C17.5773 8.21806 18.0764 8.9871 18.4458 9.87083C18.8153 10.7546 19 11.7024 19 12.7143C19 13.7262 18.8153 14.674 18.4458 15.5577C18.0764 16.4415 17.5773 17.2105 16.9486 17.8649C16.3199 18.5192 15.581 19.0387 14.7319 19.4232C13.8829 19.8077 12.9722 20 12 20Z" fill="#0B1527"/>
</svg>
