<svg width="26" height="25" viewBox="0 0 26 25" fill="none" xmlns="http://www.w3.org/2000/svg">
<g clip-path="url(#clip0_2238_15863)">
<path d="M19.6299 3.74126C19.8239 3.73965 20.0162 3.77594 20.1957 3.84802C20.3752 3.92009 20.5383 4.02651 20.6754 4.16107C20.8126 4.29563 20.921 4.45565 20.9945 4.63176C21.0679 4.80788 21.1049 4.99658 21.1033 5.18686V23.0012C21.1049 23.1915 21.0679 23.3802 20.9945 23.5563C20.921 23.7324 20.8126 23.8924 20.6754 24.027C20.5383 24.1615 20.3752 24.268 20.1957 24.34C20.0162 24.4121 19.8239 24.4484 19.6299 24.4468H6.36994C6.17601 24.4484 5.9837 24.4121 5.80422 24.34C5.62474 24.2679 5.46169 24.1615 5.32457 24.0269C5.18745 23.8924 5.079 23.7324 5.00555 23.5563C4.93211 23.3802 4.89513 23.1915 4.89678 23.0012V5.18686C4.89513 4.99659 4.93211 4.80789 5.00555 4.63179C5.079 4.45568 5.18745 4.29569 5.32457 4.16113C5.46169 4.02658 5.62474 3.92014 5.80422 3.84806C5.9837 3.77597 6.17601 3.73967 6.36994 3.74126H19.6299Z" fill="none"/>
<path d="M1.64654 21.2588C1.86082 21.2588 2.0703 21.3211 2.24847 21.4379C2.42665 21.5547 2.56552 21.7207 2.64753 21.915C2.72954 22.1092 2.751 22.3229 2.7092 22.5291C2.66741 22.7353 2.56423 22.9248 2.41271 23.0734C2.26119 23.2221 2.06814 23.3233 1.85798 23.3643C1.64782 23.4053 1.42998 23.3843 1.23202 23.3038C1.03405 23.2233 0.864853 23.0871 0.745819 22.9123C0.626785 22.7374 0.563262 22.5319 0.563283 22.3217C0.561893 22.1817 0.588963 22.0429 0.64291 21.9133C0.696856 21.7838 0.776597 21.6661 0.877465 21.5671C0.978333 21.4681 1.0983 21.3899 1.23036 21.337C1.36241 21.284 1.5039 21.2575 1.64654 21.2588Z" fill="none"/>
<path d="M2.42669 5.86719C2.64506 5.86719 2.85449 5.95231 3.0089 6.10381C3.16331 6.25531 3.25006 6.46079 3.25006 6.67505C3.25006 6.8893 3.16331 7.09478 3.0089 7.24628C2.85449 7.39778 2.64506 7.48289 2.42669 7.48289C2.31757 7.48653 2.20884 7.46813 2.10727 7.42883C2.0057 7.38953 1.91344 7.33016 1.83622 7.25442C1.75901 7.17867 1.69848 7.08816 1.65841 6.98851C1.61833 6.88886 1.59955 6.78219 1.60324 6.67512C1.60317 6.56901 1.62442 6.46392 1.66578 6.36587C1.70714 6.26781 1.76779 6.17872 1.84427 6.10368C1.92075 6.02864 2.01155 5.96914 2.11149 5.92856C2.21143 5.88798 2.31853 5.86712 2.42669 5.86719Z" fill="none"/>
<path d="M24.0932 1.61523C24.3589 1.61521 24.6187 1.69249 24.8396 1.83731C25.0605 1.98213 25.2328 2.18797 25.3344 2.42881C25.4361 2.66966 25.4628 2.93468 25.4109 3.19037C25.3591 3.44606 25.2312 3.68093 25.0433 3.86527C24.8554 4.04961 24.616 4.17514 24.3554 4.226C24.0948 4.27686 23.8247 4.25076 23.5792 4.15099C23.3338 4.05122 23.124 3.88226 22.9764 3.6655C22.8288 3.44873 22.75 3.19389 22.75 2.9332C22.7518 2.58422 22.894 2.25005 23.1455 2.00327C23.397 1.7565 23.7376 1.61705 24.0932 1.61523Z" fill="none"/>
<path d="M17.4201 2.59351C17.5748 2.74312 17.6968 2.92206 17.7787 3.11942C17.8606 3.31678 17.9007 3.52845 17.8966 3.74151C17.8967 3.9537 17.8542 4.16381 17.7715 4.35986C17.6888 4.55591 17.5675 4.73405 17.4146 4.88409C17.2617 5.03413 17.0801 5.15313 16.8803 5.23428C16.6805 5.31543 16.4663 5.35714 16.2501 5.35704H9.75005C9.31273 5.35712 8.89275 5.18925 8.58 4.88934C8.42531 4.73977 8.30326 4.56087 8.22131 4.36353C8.13936 4.16619 8.09921 3.95457 8.10331 3.74151C8.10321 3.52931 8.14574 3.31916 8.22846 3.12309C8.31118 2.92702 8.43247 2.74886 8.5854 2.59881C8.73834 2.44876 8.91991 2.32976 9.11975 2.2486C9.31959 2.16744 9.53377 2.12571 9.75005 2.12581H11.3966C11.3973 1.69775 11.5711 1.28746 11.8799 0.985015C12.1886 0.682573 12.6071 0.512695 13.0434 0.512695C13.4796 0.512695 13.8981 0.682573 14.2069 0.985015C14.5156 1.28746 14.6894 1.69775 14.6901 2.12581H16.2501C16.6874 2.12586 17.1073 2.29372 17.4201 2.59351Z" fill="none"/>
<path d="M14.6465 13.2654V9.05606C14.6479 8.9161 14.6209 8.77727 14.567 8.6477C14.513 8.51812 14.4333 8.40039 14.3324 8.30142C14.2315 8.20245 14.1115 8.12421 13.9795 8.07129C13.8474 8.01837 13.7059 7.99183 13.5633 7.99322H8.14654C8.0039 7.99184 7.86241 8.01839 7.73035 8.07132C7.59829 8.12424 7.47831 8.20249 7.37744 8.30146C7.27657 8.40043 7.19683 8.51814 7.14289 8.64771C7.08895 8.77728 7.06188 8.91611 7.06328 9.05606V13.2654C7.06188 13.4053 7.08895 13.5442 7.14289 13.6737C7.19683 13.8033 7.27657 13.921 7.37744 14.02C7.47831 14.1189 7.59829 14.1972 7.73035 14.2501C7.86241 14.303 8.0039 14.3296 8.14654 14.3282H13.52C13.6659 14.334 13.8114 14.3108 13.9479 14.26C14.0844 14.2092 14.2091 14.1318 14.3143 14.0325C14.4195 13.9333 14.5032 13.8141 14.5603 13.6823C14.6174 13.5504 14.6467 13.4086 14.6465 13.2654Z" fill="none"/>
<path d="M14.6465 9.05614V13.2654C14.6479 13.4054 14.6209 13.5442 14.567 13.6738C14.513 13.8034 14.4333 13.9211 14.3324 14.0201C14.2315 14.119 14.1115 14.1973 13.9795 14.2502C13.8474 14.3031 13.7059 14.3297 13.5633 14.3283H8.14654C8.0039 14.3297 7.86241 14.3031 7.73035 14.2502C7.59829 14.1973 7.47831 14.119 7.37744 14.02C7.27657 13.9211 7.19683 13.8034 7.14289 13.6738C7.08895 13.5442 7.06188 13.4054 7.06328 13.2654V9.05614C7.06188 8.91618 7.08895 8.77735 7.14289 8.64778C7.19683 8.51821 7.27657 8.4005 7.37744 8.30153C7.47831 8.20256 7.59829 8.12432 7.73035 8.07139C7.86241 8.01846 8.0039 7.99191 8.14654 7.99329H13.52C13.8126 7.98895 14.0952 8.09819 14.3062 8.29724C14.5172 8.49629 14.6395 8.76904 14.6465 9.05614Z" fill="none"/>
<path d="M19.6299 25.0002H6.36989C6.10234 25.0005 5.83736 24.949 5.59011 24.8487C5.34287 24.7484 5.11823 24.6011 4.92905 24.4155C4.73987 24.2299 4.58987 24.0095 4.48763 23.7669C4.3854 23.5243 4.33293 23.2643 4.33325 23.0018V5.18744C4.33293 4.92493 4.3854 4.66493 4.48763 4.42234C4.58987 4.17975 4.73987 3.95932 4.92905 3.77368C5.11823 3.58805 5.34287 3.44086 5.59011 3.34052C5.83736 3.24019 6.10234 3.18869 6.36989 3.18898H8.14655C8.29597 3.18898 8.43927 3.24721 8.54493 3.35087C8.65059 3.45454 8.70995 3.59514 8.70995 3.74175C8.70995 3.88835 8.65059 4.02895 8.54493 4.13262C8.43927 4.23628 8.29597 4.29453 8.14655 4.29453H6.36989C6.11775 4.29671 5.87657 4.39596 5.69829 4.57092C5.52001 4.74588 5.4189 4.98254 5.41673 5.22993V23.0443C5.41886 23.2917 5.51996 23.5283 5.69825 23.7033C5.87654 23.8783 6.11774 23.9775 6.36989 23.9797H19.6299C19.8821 23.9775 20.1233 23.8783 20.3016 23.7033C20.4799 23.5284 20.5811 23.2917 20.5833 23.0443V5.18744C20.581 4.94003 20.4799 4.70337 20.3016 4.52842C20.1233 4.35346 19.8821 4.25421 19.6299 4.25203H17.8532C17.7038 4.25203 17.5605 4.19379 17.4549 4.09013C17.3492 3.98646 17.2899 3.84586 17.2899 3.69925C17.2899 3.55265 17.3492 3.41205 17.4549 3.30838C17.5605 3.20472 17.7038 3.14649 17.8532 3.14649H19.6299C19.8974 3.14617 20.1624 3.19764 20.4097 3.29795C20.6569 3.39826 20.8816 3.54543 21.0708 3.73105C21.26 3.91666 21.41 4.13707 21.5123 4.37966C21.6145 4.62224 21.667 4.88223 21.6667 5.14474V22.9593C21.6715 23.2251 21.6224 23.4891 21.5222 23.736C21.4221 23.983 21.2729 24.2079 21.0834 24.3978C20.8939 24.5877 20.6678 24.7387 20.4183 24.8422C20.1688 24.9456 19.9008 24.9993 19.6299 25.0002Z" fill="#F00A0A"/>
<path d="M16.2501 5.86733H9.75009C9.46591 5.87096 9.18411 5.81609 8.92288 5.70627C8.66164 5.59644 8.42678 5.43409 8.23345 5.2297C7.82878 4.83481 7.59578 4.30146 7.58336 3.74161C7.58055 3.46166 7.63467 3.18398 7.74256 2.92481C7.85046 2.66564 8.00995 2.43018 8.21171 2.23222C8.41348 2.03426 8.65345 1.87776 8.9176 1.77191C9.18175 1.66605 9.46477 1.61295 9.75009 1.61571H10.92C11.0362 1.15886 11.3034 0.752611 11.6796 0.46034C12.0559 0.168069 12.5202 0.00620678 13.0001 2.30871e-07C13.4817 -0.000221487 13.9492 0.159258 14.3268 0.452555C14.7043 0.745852 14.9698 1.15575 15.08 1.61571H16.2501C16.5343 1.61208 16.8161 1.66698 17.0774 1.77684C17.3386 1.88671 17.5734 2.04909 17.7668 2.25354C18.1715 2.64837 18.4045 3.18175 18.4168 3.74161C18.4151 4.3049 18.1863 4.84464 17.7803 5.24294C17.3743 5.64123 16.8242 5.86571 16.2501 5.86733ZM9.75009 2.67854C9.60742 2.67716 9.46591 2.70372 9.33383 2.75665C9.20175 2.80959 9.08177 2.88784 8.98089 2.98684C8.88002 3.08583 8.80028 3.20358 8.74636 3.33317C8.69243 3.46277 8.66539 3.60163 8.66683 3.74161C8.67493 4.02338 8.78208 4.29375 8.97011 4.50688C9.07218 4.60658 9.19416 4.68447 9.32839 4.73568C9.46262 4.78689 9.60619 4.8103 9.75009 4.80444H16.2501C16.3927 4.80582 16.5342 4.77927 16.6663 4.72634C16.7984 4.67342 16.9183 4.59518 17.0192 4.49621C17.1201 4.39724 17.1998 4.27953 17.2538 4.14996C17.3077 4.02039 17.3348 3.88156 17.3334 3.74161C17.3253 3.45982 17.2181 3.18945 17.0301 2.97633C16.928 2.87661 16.806 2.79868 16.6718 2.74743C16.5376 2.69619 16.394 2.67273 16.2501 2.67854H14.6033C14.4548 2.67594 14.3131 2.61689 14.208 2.51381C14.1029 2.41073 14.0427 2.27166 14.0401 2.1259C14.0401 1.84399 13.9259 1.57363 13.7228 1.37429C13.5196 1.17495 13.244 1.06295 12.9567 1.06295C12.6694 1.06295 12.3938 1.17495 12.1907 1.37429C11.9875 1.57363 11.8733 1.84399 11.8733 2.1259C11.8707 2.27167 11.8105 2.41074 11.7054 2.51382C11.6004 2.61691 11.4586 2.67595 11.31 2.67854H9.75009Z" fill="#F00A0A"/>
<path d="M1.64653 23.9373C1.32086 23.9373 1.00251 23.8425 0.731737 23.6649C0.460965 23.4874 0.24993 23.2351 0.125316 22.9399C0.000702497 22.6447 -0.0318941 22.3198 0.0316499 22.0064C0.0951939 21.693 0.252027 21.4052 0.482311 21.1792C0.712596 20.9533 1.00599 20.7994 1.3254 20.7371C1.64481 20.6748 1.97589 20.7068 2.27677 20.829C2.57765 20.9513 2.83482 21.1584 3.01576 21.424C3.1967 21.6897 3.29329 22.0021 3.2933 22.3216C3.27895 22.7456 3.10084 23.1485 2.79506 23.4485C2.48929 23.7485 2.07871 23.9232 1.64653 23.9373ZM1.64653 21.8114C1.53511 21.8114 1.4262 21.8438 1.33357 21.9046C1.24094 21.9653 1.16875 22.0517 1.12612 22.1527C1.0835 22.2537 1.07235 22.3648 1.0941 22.472C1.11584 22.5793 1.16949 22.6777 1.24828 22.755C1.32706 22.8323 1.42744 22.885 1.53671 22.9063C1.64599 22.9276 1.75925 22.9167 1.86219 22.8749C1.96513 22.8331 2.05312 22.7622 2.11504 22.6713C2.17696 22.5805 2.21002 22.4736 2.21004 22.3643C2.20015 22.2208 2.1376 22.0858 2.03399 21.9841C1.93038 21.8825 1.79272 21.8211 1.64653 21.8114Z" fill="#F00A0A"/>
<path d="M2.4267 7.99352C2.161 7.99354 1.90127 7.91625 1.68034 7.77143C1.45941 7.62661 1.28721 7.42075 1.18553 7.1799C1.08384 6.93906 1.05723 6.67404 1.10906 6.41836C1.16089 6.16268 1.28884 5.92781 1.47672 5.74347C1.66459 5.55913 1.90397 5.4336 2.16456 5.38274C2.42516 5.33189 2.69527 5.35801 2.94074 5.45778C3.18621 5.55755 3.39602 5.72649 3.54362 5.94326C3.69123 6.16002 3.77 6.41486 3.76998 6.67555C3.76818 7.02455 3.62608 7.35876 3.37455 7.60555C3.12303 7.85233 2.78241 7.99175 2.4267 7.99352ZM2.4267 6.37778C2.37527 6.37773 2.32499 6.39265 2.2822 6.42066C2.23942 6.44866 2.20606 6.48848 2.18634 6.53508C2.16662 6.58168 2.16143 6.63298 2.17143 6.68248C2.18142 6.73198 2.20615 6.77745 2.24249 6.81316C2.27883 6.84886 2.32515 6.87319 2.37558 6.88307C2.42601 6.89295 2.4783 6.88795 2.52583 6.86867C2.57336 6.84939 2.61399 6.81672 2.64259 6.77478C2.67119 6.73284 2.68647 6.68352 2.68651 6.63306C2.68798 6.59918 2.68226 6.56538 2.66973 6.53378C2.6572 6.50218 2.63812 6.47348 2.6137 6.44949C2.58928 6.42549 2.56006 6.40673 2.52787 6.39439C2.49568 6.38204 2.46123 6.37639 2.4267 6.37778Z" fill="#F00A0A"/>
<path d="M24.0933 4.80486C23.7162 4.80484 23.3476 4.6951 23.034 4.48954C22.7205 4.28397 22.4762 3.99181 22.3319 3.64998C22.1876 3.30816 22.1498 2.93203 22.2234 2.56917C22.297 2.2063 22.4786 1.87299 22.7452 1.61138C23.0119 1.34977 23.3516 1.17161 23.7214 1.09943C24.0913 1.02724 24.4746 1.06428 24.823 1.20586C25.1714 1.34744 25.4692 1.5872 25.6787 1.89482C25.8882 2.20244 26 2.56411 26 2.93409C25.9957 3.42893 25.7934 3.90228 25.4367 4.2522C25.0801 4.60211 24.5976 4.80058 24.0933 4.80486ZM24.0933 2.12632C23.9304 2.12635 23.7712 2.17375 23.6359 2.26254C23.5005 2.35132 23.395 2.4775 23.3327 2.62513C23.2704 2.77275 23.2541 2.93518 23.2859 3.09188C23.3177 3.24858 23.3961 3.39252 23.5113 3.50548C23.6264 3.61844 23.7731 3.69537 23.9329 3.72652C24.0926 3.75767 24.2581 3.74165 24.4086 3.68048C24.559 3.61932 24.6876 3.51577 24.7781 3.38291C24.8685 3.25005 24.9168 3.09387 24.9168 2.93409C24.9204 2.82702 24.9017 2.72034 24.8616 2.62069C24.8215 2.52104 24.761 2.43053 24.6838 2.35478C24.6065 2.27904 24.5143 2.21969 24.4127 2.18038C24.3111 2.14108 24.2024 2.12268 24.0933 2.12632Z" fill="#F00A0A"/>
<path d="M13.52 14.8808H8.14656C7.93031 14.8809 7.71616 14.8392 7.51635 14.758C7.31654 14.6768 7.13499 14.5578 6.98208 14.4078C6.82916 14.2578 6.70788 14.0797 6.62516 13.8836C6.54244 13.6876 6.49992 13.4775 6.5 13.2653V9.05597C6.49991 8.84379 6.54244 8.63366 6.62516 8.43762C6.70787 8.24157 6.82915 8.06345 6.98207 7.91342C7.13498 7.76338 7.31654 7.64439 7.51635 7.56323C7.71616 7.48207 7.93031 7.44034 8.14656 7.44043H13.52C13.7363 7.44032 13.9504 7.48204 14.1503 7.56319C14.3501 7.64434 14.5317 7.76333 14.6846 7.91337C14.8375 8.0634 14.9588 8.24154 15.0416 8.43759C15.1243 8.63365 15.1668 8.84378 15.1667 9.05597V13.2653C15.1668 13.4775 15.1243 13.6876 15.0415 13.8836C14.9588 14.0797 14.8375 14.2578 14.6846 14.4079C14.5317 14.5579 14.3501 14.6769 14.1503 14.758C13.9504 14.8392 13.7363 14.8809 13.52 14.8808ZM8.14656 8.50328C7.99799 8.50588 7.85625 8.56494 7.75118 8.66803C7.64611 8.77112 7.58591 8.9102 7.58326 9.05597V13.2653C7.58591 13.411 7.64611 13.5501 7.75118 13.6532C7.85626 13.7563 7.998 13.8153 8.14656 13.8179H13.52C13.6686 13.8153 13.8103 13.7563 13.9154 13.6532C14.0204 13.5501 14.0806 13.411 14.0833 13.2653V9.05597C14.0806 8.9102 14.0204 8.77113 13.9154 8.66803C13.8103 8.56494 13.6686 8.50587 13.52 8.50328H8.14656Z" fill="#F00A0A"/>
<path d="M18.98 8.50378H16.25C16.1015 8.50251 15.9595 8.44372 15.8549 8.34022C15.7503 8.23671 15.6917 8.09686 15.6917 7.95111C15.6917 7.80537 15.7503 7.66552 15.8549 7.56201C15.9595 7.45851 16.1015 7.39971 16.25 7.39844H18.98C19.1286 7.40103 19.2704 7.4601 19.3754 7.56319C19.4805 7.66629 19.5407 7.80536 19.5433 7.95113C19.5335 8.09452 19.4709 8.22954 19.3674 8.33116C19.2638 8.43278 19.1262 8.49411 18.98 8.50378Z" fill="#F00A0A"/>
<path d="M18.9799 10.1192H16.2499C16.1005 10.1192 15.9572 10.061 15.8515 9.95731C15.7459 9.85365 15.6865 9.71304 15.6865 9.56644C15.6865 9.41983 15.7459 9.27924 15.8515 9.17558C15.9572 9.07191 16.1005 9.01367 16.2499 9.01367H18.9799C19.1285 9.01627 19.2703 9.07536 19.3754 9.17849C19.4804 9.28162 19.5406 9.42073 19.5432 9.56653C19.5333 9.70992 19.4708 9.84495 19.3672 9.94658C19.2637 10.0482 19.1261 10.1095 18.9799 10.1192Z" fill="#F00A0A"/>
<path d="M18.98 11.6922H16.25C16.1761 11.6922 16.1028 11.6779 16.0345 11.6501C15.9661 11.6224 15.904 11.5817 15.8517 11.5303C15.7994 11.479 15.7579 11.4181 15.7296 11.351C15.7013 11.284 15.6868 11.2121 15.6868 11.1396C15.6868 11.067 15.7013 10.9951 15.7296 10.9281C15.7579 10.861 15.7994 10.8001 15.8517 10.7488C15.904 10.6975 15.9661 10.6568 16.0345 10.629C16.1028 10.6012 16.1761 10.5869 16.25 10.5869H18.98C19.1286 10.5895 19.2703 10.6486 19.3754 10.7517C19.4805 10.8547 19.5407 10.9938 19.5433 11.1396C19.5334 11.283 19.4709 11.418 19.3674 11.5196C19.2638 11.6212 19.1262 11.6825 18.98 11.6922Z" fill="#F00A0A"/>
<path d="M18.9799 13.3077H16.2499C16.1005 13.3077 15.9572 13.2495 15.8515 13.1458C15.7459 13.0421 15.6865 12.9015 15.6865 12.7549C15.6865 12.6083 15.7459 12.4677 15.8515 12.364C15.9572 12.2604 16.1005 12.2021 16.2499 12.2021H18.9799C19.1285 12.2047 19.2702 12.2638 19.3753 12.3669C19.4804 12.47 19.5406 12.6091 19.5432 12.7548C19.5264 12.8957 19.4616 13.0269 19.3594 13.1272C19.2572 13.2275 19.1235 13.2911 18.9799 13.3077Z" fill="#F00A0A"/>
<path d="M18.98 14.8807H16.25C16.1015 14.8794 15.9595 14.8207 15.8549 14.7172C15.7503 14.6136 15.6917 14.4738 15.6917 14.3281C15.6917 14.1823 15.7503 14.0425 15.8549 13.939C15.9595 13.8354 16.1015 13.7767 16.25 13.7754H18.98C19.1286 13.778 19.2703 13.837 19.3754 13.9401C19.4805 14.0432 19.5407 14.1823 19.5433 14.328C19.5335 14.4714 19.4709 14.6064 19.3674 14.7081C19.2638 14.8097 19.1262 14.871 18.98 14.8807Z" fill="#F00A0A"/>
<path d="M18.9801 16.4962H7.06339C6.91397 16.4962 6.77067 16.4379 6.66501 16.3343C6.55936 16.2306 6.5 16.09 6.5 15.9434C6.5 15.7968 6.55936 15.6562 6.66501 15.5525C6.77067 15.4489 6.91397 15.3906 7.06339 15.3906H18.9801C19.1287 15.3932 19.2704 15.4523 19.3755 15.5554C19.4806 15.6585 19.5408 15.7975 19.5434 15.9433C19.5336 16.0867 19.4711 16.2218 19.3675 16.3235C19.2639 16.4251 19.1263 16.4865 18.9801 16.4962Z" fill="#F00A0A"/>
<path d="M18.9801 18.0692H7.06333C6.98895 18.0699 6.91517 18.056 6.84626 18.0285C6.77735 18.0011 6.71467 17.9604 6.66184 17.9091C6.60902 17.8577 6.56708 17.7965 6.53847 17.7292C6.50985 17.6618 6.49512 17.5896 6.49512 17.5166C6.49512 17.4436 6.50985 17.3713 6.53847 17.3039C6.56708 17.2366 6.60902 17.1754 6.66184 17.1241C6.71467 17.0727 6.77735 17.0321 6.84626 17.0046C6.91517 16.9771 6.98895 16.9633 7.06333 16.9639H18.9801C19.1286 16.9665 19.2704 17.0255 19.3754 17.1286C19.4805 17.2317 19.5407 17.3708 19.5433 17.5165C19.5335 17.6599 19.471 17.7949 19.3674 17.8966C19.2638 17.9982 19.1262 18.0595 18.9801 18.0692Z" fill="#F00A0A"/>
<path d="M18.9801 19.6856H7.06339C6.91397 19.6856 6.77067 19.6274 6.66501 19.5237C6.55936 19.4201 6.5 19.2794 6.5 19.1328C6.5 18.9862 6.55936 18.8456 6.66501 18.742C6.77067 18.6383 6.91397 18.5801 7.06339 18.5801H18.9801C19.1287 18.5827 19.2704 18.6417 19.3755 18.7448C19.4806 18.8479 19.5408 18.987 19.5434 19.1328C19.5266 19.2736 19.4618 19.4048 19.3596 19.5052C19.2574 19.6055 19.1237 19.6691 18.9801 19.6856Z" fill="#F00A0A"/>
<path d="M18.9801 21.2587H7.06333C6.98895 21.2593 6.91517 21.2455 6.84626 21.218C6.77735 21.1905 6.71467 21.1499 6.66184 21.0985C6.60902 21.0471 6.56708 20.986 6.53847 20.9186C6.50985 20.8513 6.49512 20.779 6.49512 20.706C6.49512 20.633 6.50985 20.5608 6.53847 20.4934C6.56708 20.426 6.60902 20.3649 6.66184 20.3135C6.71467 20.2621 6.77735 20.2215 6.84626 20.194C6.91517 20.1665 6.98895 20.1527 7.06333 20.1533H18.9801C19.1286 20.1559 19.2704 20.215 19.3754 20.3181C19.4805 20.4212 19.5407 20.5602 19.5433 20.706C19.534 20.8496 19.4717 20.9849 19.368 21.0866C19.2643 21.1884 19.1264 21.2495 18.9801 21.2587Z" fill="#F00A0A"/>
<path d="M18.9801 22.8741H7.06337C6.91395 22.8741 6.77066 22.8158 6.66501 22.7122C6.55936 22.6085 6.5 22.4679 6.5 22.3213C6.5 22.1747 6.55936 22.0341 6.66501 21.9305C6.77066 21.8268 6.91395 21.7686 7.06337 21.7686H18.9801C19.1286 21.7712 19.2704 21.8302 19.3755 21.9333C19.4805 22.0364 19.5407 22.1754 19.5434 22.3212C19.5265 22.4621 19.4618 22.5933 19.3596 22.6936C19.2574 22.7939 19.1237 22.8575 18.9801 22.8741Z" fill="#F00A0A"/>
</g>
<defs>
<clipPath id="clip0_2238_15863">
<rect width="26" height="25" fill="none"/>
</clipPath>
</defs>
</svg>
