<svg width="21" height="22" viewBox="0 0 21 22" fill="none" xmlns="http://www.w3.org/2000/svg">
<path d="M3.86842 9.9L9.94737 0L16.0263 9.9H3.86842ZM16.0263 22C14.6447 22 13.4704 21.5187 12.5033 20.5562C11.5362 19.5938 11.0526 18.425 11.0526 17.05C11.0526 15.675 11.5362 14.5063 12.5033 13.5437C13.4704 12.5813 14.6447 12.1 16.0263 12.1C17.4079 12.1 18.5822 12.5813 19.5493 13.5437C20.5164 14.5063 21 15.675 21 17.05C21 18.425 20.5164 19.5938 19.5493 20.5562C18.5822 21.5187 17.4079 22 16.0263 22ZM0 21.45V12.65H8.8421V21.45H0Z" fill="#F00A0A"/>
</svg>
