<svg width="16" height="16" viewBox="0 0 16 16" fill="none" xmlns="http://www.w3.org/2000/svg">
<path d="M12 9.33366V7.33366H10V6.00033H12V4.00033H13.3334V6.00033H15.3334V7.33366H13.3334V9.33366H12ZM6.00002 8.00033C5.26669 8.00033 4.63891 7.73921 4.11669 7.21699C3.59446 6.69477 3.33335 6.06699 3.33335 5.33366C3.33335 4.60033 3.59446 3.97255 4.11669 3.45033C4.63891 2.9281 5.26669 2.66699 6.00002 2.66699C6.73335 2.66699 7.36113 2.9281 7.88335 3.45033C8.40558 3.97255 8.66669 4.60033 8.66669 5.33366C8.66669 6.06699 8.40558 6.69477 7.88335 7.21699C7.36113 7.73921 6.73335 8.00033 6.00002 8.00033ZM0.666687 13.3337V11.467C0.666687 11.0892 0.763909 10.742 0.958354 10.4253C1.1528 10.1087 1.41113 9.86699 1.73335 9.70033C2.42224 9.35588 3.12224 9.09755 3.83335 8.92532C4.54446 8.7531 5.26669 8.66699 6.00002 8.66699C6.73335 8.66699 7.45558 8.7531 8.16669 8.92532C8.8778 9.09755 9.5778 9.35588 10.2667 9.70033C10.5889 9.86699 10.8472 10.1087 11.0417 10.4253C11.2361 10.742 11.3334 11.0892 11.3334 11.467V13.3337H0.666687ZM2.00002 12.0003H10V11.467C10 11.3448 9.96946 11.2337 9.90835 11.1337C9.84724 11.0337 9.76669 10.9559 9.66669 10.9003C9.06669 10.6003 8.46113 10.3753 7.85002 10.2253C7.23891 10.0753 6.62224 10.0003 6.00002 10.0003C5.3778 10.0003 4.76113 10.0753 4.15002 10.2253C3.53891 10.3753 2.93335 10.6003 2.33335 10.9003C2.23335 10.9559 2.1528 11.0337 2.09169 11.1337C2.03058 11.2337 2.00002 11.3448 2.00002 11.467V12.0003ZM6.00002 6.66699C6.36669 6.66699 6.68058 6.53644 6.94169 6.27533C7.2028 6.01421 7.33335 5.70033 7.33335 5.33366C7.33335 4.96699 7.2028 4.6531 6.94169 4.39199C6.68058 4.13088 6.36669 4.00033 6.00002 4.00033C5.63335 4.00033 5.31946 4.13088 5.05835 4.39199C4.79724 4.6531 4.66669 4.96699 4.66669 5.33366C4.66669 5.70033 4.79724 6.01421 5.05835 6.27533C5.31946 6.53644 5.63335 6.66699 6.00002 6.66699Z" fill="#0B1527"/>
</svg>
