<svg width="94" height="94" viewBox="0 0 94 94" fill="none" xmlns="http://www.w3.org/2000/svg">
<g clip-path="url(#clip0_2105_9563)">
<path d="M86.9677 33.633C87.0761 34.9988 86.8919 36.211 86.7085 37.4563C86.6502 37.8534 86.576 38.2457 86.4857 38.6333C86.446 38.8077 86.4063 38.9788 86.3642 39.152C85.8425 41.3665 84.8281 43.3814 83.3607 45.0173C83.3139 45.0705 83.2666 45.1224 83.219 45.1729C81.8103 46.6727 80.2754 48.0174 78.4213 49.0233C76.589 50.1297 74.6169 51.049 72.5663 51.9599C72.304 52.0764 72.0462 52.2014 71.7929 52.3349C70.9814 52.7607 70.2238 53.1657 69.5298 53.6744C66.6807 55.5621 65.1002 58.3794 64.1064 61.5435C63.6097 63.1255 63.2564 64.7913 62.955 66.4659C62.9276 79.6301 50.6976 89.2596 37.3467 86.595C36.8198 86.4698 36.3867 86.2547 35.8777 86.0723C34.2499 85.418 32.7666 84.5035 31.448 83.2714C29.2195 81.1567 27.9355 78.6178 26.9946 75.9102C26.6809 75.0077 26.4054 74.0864 26.1457 73.1571C25.3914 70.3797 24.7688 67.4115 22.6447 65.2286C19.4582 61.9528 15.3394 60.4107 11.5359 57.7438C5.51098 53.5296 5.92587 45.5555 10.2257 41.5045C10.9006 40.8226 11.578 40.2385 12.2728 39.5961C15.871 36.5402 20.7799 36.2581 25.4513 35.2314C28.2174 34.5615 30.6873 33.1223 31.7796 30.4263C34.1347 24.9125 35.6919 19.2882 39.4593 14.8589C39.9802 14.1902 40.5273 13.5442 41.1006 12.9278C42.8201 11.0796 44.7767 9.49996 46.9814 8.38116C47.8694 7.92849 48.7959 7.55648 49.7499 7.26955C60.1214 3.71846 73.6228 7.41199 80.5783 18.1383C81.8433 20.0886 83.0316 22.0712 83.9904 24.1504C84.7634 25.8613 85.4769 27.5471 86.0414 29.3953C86.1959 29.9758 86.3682 30.4993 86.5131 31.0786C86.7537 32.0191 86.9078 32.8777 86.9677 33.633Z" fill="#9DACD4"/>
<path d="M31.361 23.3884C30.3287 24.8918 28.9908 25.9264 27.6472 26.3888C26.3037 26.8513 24.9474 26.7444 23.8755 25.9675C22.8035 25.1907 22.2206 23.8895 22.1559 22.41C22.0912 20.9305 22.5529 19.2679 23.5793 17.7657C24.6056 16.2634 25.9992 15.2041 27.4154 14.7117C28.8316 14.2194 30.2529 14.2992 31.3245 15.0768C32.3961 15.8545 32.9233 17.1799 32.9198 18.6878C32.9162 20.1956 32.3913 21.8841 31.361 23.3884Z" fill="#9DACD4"/>
<path d="M77.8717 59.942C79.1291 62.4445 77.4469 65.5563 74.7959 66.8718C73.392 67.5776 71.8976 67.7384 70.5946 67.4527C69.2915 67.167 68.1759 66.4409 67.5482 65.338C66.9205 64.2352 66.8978 62.9632 67.3691 61.8001C68.4411 59.2006 71.6733 57.7175 74.618 58.014C76.0374 58.1712 77.2487 58.8112 77.8717 59.942Z" fill="#9DACD4"/>
<mask id="mask0_2105_9563" style="mask-type:luminance" maskUnits="userSpaceOnUse" x="-2" y="-3" width="115" height="117">
<path d="M112.954 36.7795C113.109 38.7428 112.845 40.4854 112.581 42.2755C112.497 42.8464 112.39 43.4104 112.261 43.9675C112.204 44.2182 112.147 44.4642 112.086 44.7132C111.336 47.8965 109.878 50.7931 107.768 53.1447C107.701 53.2212 107.633 53.2957 107.565 53.3684C105.54 55.5245 103.333 57.4574 100.668 58.9034C98.0338 60.4939 95.199 61.8154 92.2511 63.1249C91.874 63.2924 91.5034 63.4721 91.1393 63.664C89.9727 64.2761 88.8837 64.8582 87.8861 65.5895C83.7904 68.3031 81.5183 72.3531 80.0898 76.9016C79.3758 79.1758 78.8678 81.5705 78.4346 83.9777C78.3952 102.902 60.8141 116.744 41.6218 112.914C40.8645 112.734 40.2418 112.425 39.5101 112.163C37.1701 111.222 35.0378 109.907 33.1424 108.136C29.9388 105.096 28.093 101.447 26.7404 97.5542C26.2895 96.2568 25.8934 94.9324 25.5201 93.5966C24.4357 89.6039 23.5408 85.3371 20.4873 82.1991C15.9066 77.4901 9.98571 75.2732 4.51801 71.4394C-4.14297 65.3813 -3.54655 53.9185 2.63457 48.095C3.60483 47.1147 4.57851 46.275 5.57731 45.3516C10.7499 40.9586 17.8066 40.553 24.5219 39.0772C28.4982 38.1142 32.0488 36.0453 33.6189 32.1697C37.0046 24.2435 39.243 16.1584 44.6588 9.79112C45.4076 8.82981 46.1941 7.9012 47.0182 7.01502C49.4901 4.35823 52.3027 2.08745 55.472 0.479148C56.7486 -0.171578 58.0805 -0.706362 59.4518 -1.11883C74.3612 -6.22364 93.7698 -0.914061 103.769 14.5053C105.587 17.309 107.295 20.159 108.674 23.1479C109.785 25.6074 110.81 28.0308 111.622 30.6876C111.844 31.5221 112.092 32.2746 112.3 33.1075C112.646 34.4594 112.867 35.6937 112.954 36.7795ZM35.2575 15.2963C35.2627 13.1287 34.5053 11.2239 32.9643 10.1054C31.4233 8.98697 29.3806 8.87226 27.3448 9.58062C25.3089 10.289 23.3022 11.8118 21.8303 13.9708C20.3583 16.1297 19.6917 18.5198 19.7842 20.6472C19.8766 22.7745 20.7139 24.6432 22.2543 25.76C23.7948 26.8767 25.7467 27.0299 27.6764 26.3657C29.6061 25.7015 31.534 24.2136 33.0151 22.0524C34.4962 19.8912 35.2524 17.465 35.2575 15.2963ZM95.2001 71.8283C90.9669 71.4021 86.3234 73.5341 84.7795 77.2709C84.1021 78.9429 84.134 80.7697 85.0369 82.3568C85.9398 83.9439 87.5448 84.9867 89.4162 85.3968C91.2877 85.8069 93.4377 85.5763 95.4558 84.5616C99.2666 82.6689 101.685 78.195 99.8773 74.5998C98.9818 72.9749 97.2405 72.0549 95.2001 71.8283Z" fill="white"/>
</mask>
<g mask="url(#mask0_2105_9563)">
<g opacity="0.19" style="mix-blend-mode:multiply">
<path d="M72.9259 14.8154H31.7014C28.339 14.8154 25.6132 17.5548 25.6132 20.9339V71.5819C25.6132 74.9611 28.339 77.7004 31.7014 77.7004H72.9259C76.2884 77.7004 79.0142 74.9611 79.0142 71.5819V20.9339C79.0142 17.5548 76.2884 14.8154 72.9259 14.8154Z" fill="#3636CF"/>
</g>
</g>
<path d="M68.7851 10.7383H27.5606C24.1982 10.7383 21.4724 13.4776 21.4724 16.8568V67.5047C21.4724 70.8839 24.1982 73.6232 27.5606 73.6232H68.7851C72.1476 73.6232 74.8734 70.8839 74.8734 67.5047V16.8568C74.8734 13.4776 72.1476 10.7383 68.7851 10.7383Z" fill="#F5F5F5"/>
<path d="M47.5 60C57.7173 60 66 51.7173 66 41.5C66 31.2827 57.7173 23 47.5 23C37.2827 23 29 31.2827 29 41.5C29 51.7173 37.2827 60 47.5 60Z" stroke="#1F55BC" stroke-width="4" stroke-miterlimit="10" stroke-linecap="round"/>
<path d="M40 41.6774L46.3089 48L70 23" stroke="#258D00" stroke-width="4" stroke-miterlimit="10" stroke-linecap="square"/>
</g>
<defs>
<clipPath id="clip0_2105_9563">
<rect width="94" height="94" fill="white"/>
</clipPath>
</defs>
</svg>
