<svg width="170" height="127" viewBox="0 0 170 127" fill="none" xmlns="http://www.w3.org/2000/svg">
<g clip-path="url(#clip0_646_21983)">
<path d="M170 111.605H0V111.691H170V111.605Z" fill="#9DACD4"/>
<path d="M58.8948 113.78H51.0136V113.865H58.8948V113.78Z" fill="#EBEBEB"/>
<path d="M155.982 115.607H136.714V115.693H155.982V115.607Z" fill="#EBEBEB"/>
<path d="M33.7926 115.607H14.5248V115.693H33.7926V115.607Z" fill="#9DACD4"/>
<path d="M80.58 96.4022H14.9294C14.4151 96.4013 13.9222 96.1958 13.5588 95.8309C13.1955 95.466 12.9914 94.9714 12.9914 94.4557V1.92941C12.9959 1.41673 13.2019 0.926517 13.5648 0.565261C13.9276 0.204005 14.418 0.000878251 14.9294 0H80.58C81.0949 0 81.5887 0.205072 81.9528 0.570103C82.3169 0.935133 82.5214 1.43022 82.5214 1.94645V94.4557C82.5214 94.972 82.3168 95.4671 81.9528 95.8321C81.5887 96.1971 81.0949 96.4022 80.58 96.4022ZM14.9294 0.0681772C14.4376 0.0690802 13.9663 0.265571 13.6189 0.614522C13.2715 0.963473 13.0764 1.43637 13.0764 1.92941V94.4557C13.0764 94.9488 13.2715 95.4217 13.6189 95.7706C13.9663 96.1196 14.4376 96.3161 14.9294 96.317H80.58C81.0721 96.3161 81.5437 96.1197 81.8917 95.7708C82.2396 95.422 82.4355 94.9491 82.4364 94.4557V1.92941C82.4355 1.43606 82.2396 0.963167 81.8917 0.614314C81.5437 0.265461 81.0721 0.0690783 80.58 0.0681772H14.9294Z" fill="#9DACD4"/>
<path d="M154.125 96.4022H88.4714C87.9568 96.4013 87.4635 96.1959 87.0996 95.8311C86.7357 95.4663 86.5309 94.9717 86.53 94.4557V1.92941C86.5354 1.41641 86.7422 0.92621 87.1056 0.565048C87.469 0.203886 87.9597 0.000868673 88.4714 0H154.125C154.636 0.00177413 155.126 0.205298 155.488 0.566458C155.85 0.927618 156.056 1.41731 156.06 1.92941V94.4557C156.06 94.9708 155.856 95.4649 155.494 95.8297C155.131 96.1945 154.639 96.4004 154.125 96.4022ZM88.4714 0.0681772C87.9794 0.0690783 87.5077 0.265461 87.1597 0.614314C86.8118 0.963167 86.6159 1.43606 86.615 1.92941V94.4557C86.6159 94.9491 86.8118 95.422 87.1597 95.7708C87.5077 96.1197 87.9794 96.3161 88.4714 96.317H154.125C154.618 96.3161 155.089 96.1197 155.437 95.7708C155.785 95.422 155.981 94.9491 155.982 94.4557V1.92941C155.981 1.43606 155.785 0.963167 155.437 0.614314C155.089 0.265461 154.618 0.0690783 154.125 0.0681772H88.4714Z" fill="#9DACD4"/>
<path d="M107.124 84.5483H99.2733V111.79H107.124V84.5483Z" fill="#7091E8"/>
<path d="M101.565 84.5483H93.7142V111.79H101.565V84.5483Z" fill="#7091E8"/>
<path d="M100.075 111.79H101.565V107.536H98.5085L100.075 111.79Z" fill="#F0F0F0"/>
<path d="M62.1024 84.5483H54.2515V111.79H62.1024V84.5483Z" fill="#E6E6E6"/>
<path d="M101.565 84.5483H60.8005V109.696H101.565V84.5483Z" fill="#E7EFFF"/>
<path d="M99.0274 104.038H83.0613C82.6497 104.037 82.2552 103.873 81.9641 103.581C81.6731 103.289 81.5092 102.894 81.5083 102.481V87.1723C81.5092 86.7596 81.6731 86.364 81.9641 86.0722C82.2552 85.7804 82.6497 85.6161 83.0613 85.6152H99.0241C99.4358 85.6161 99.8303 85.7804 100.121 86.0722C100.412 86.364 100.576 86.7596 100.577 87.1723V102.481C100.576 102.893 100.413 103.288 100.122 103.58C99.8322 103.872 99.4385 104.036 99.0274 104.038ZM83.0613 85.9631C82.7411 85.9631 82.434 86.0904 82.2073 86.317C81.9806 86.5437 81.8528 86.8513 81.8519 87.1723V102.481C81.8484 102.803 81.9725 103.112 82.1968 103.342C82.4211 103.572 82.7273 103.703 83.048 103.707L83.0613 103.707H99.0241C99.3449 103.709 99.6535 103.584 99.8822 103.359C100.111 103.133 100.241 102.826 100.243 102.504C100.244 102.496 100.244 102.489 100.243 102.481V87.1723C100.243 86.8513 100.115 86.5437 99.888 86.317C99.6613 86.0903 99.3542 85.9631 99.034 85.9631H83.0613Z" fill="#E0E0E0"/>
<path d="M79.3011 104.038H63.3382C62.9266 104.037 62.5321 103.873 62.241 103.581C61.95 103.289 61.7861 102.894 61.7852 102.481V87.1723C61.7861 86.7596 61.95 86.364 62.241 86.0722C62.5321 85.7804 62.9266 85.6161 63.3382 85.6152H79.3011C79.505 85.6152 79.7069 85.6555 79.8954 85.7337C80.0838 85.812 80.255 85.9267 80.3992 86.0712C80.5434 86.2158 80.6578 86.3875 80.7358 86.5764C80.8139 86.7653 80.854 86.9678 80.854 87.1722V102.481C80.8541 102.894 80.6904 103.29 80.3992 103.582C80.108 103.874 79.7129 104.038 79.3011 104.038ZM63.3382 85.9631C63.0183 85.9631 62.7116 86.0905 62.4854 86.3172C62.2592 86.544 62.1322 86.8516 62.1322 87.1723V102.481C62.1322 102.802 62.2592 103.109 62.4854 103.336C62.7116 103.563 63.0183 103.69 63.3382 103.69H79.3011C79.6212 103.69 79.9283 103.563 80.155 103.336C80.3817 103.109 80.5095 102.802 80.5104 102.481V87.1723C80.5095 86.8513 80.3818 86.5437 80.155 86.317C79.9283 86.0903 79.6212 85.9631 79.3011 85.9631H63.3382Z" fill="#E0E0E0"/>
<path d="M77.8207 90.4553C77.524 90.456 77.2338 90.3684 76.9868 90.2037C76.7397 90.039 76.5469 89.8045 76.4328 89.5299C76.3186 89.2553 76.2883 88.953 76.3455 88.6611C76.4028 88.3692 76.545 88.1009 76.7544 87.8901C76.9637 87.6793 77.2307 87.5355 77.5216 87.4768C77.8124 87.4181 78.1141 87.4473 78.3885 87.5605C78.6628 87.6737 78.8975 87.866 79.0629 88.1129C79.2283 88.3599 79.3169 88.6505 79.3176 88.948V88.9546C79.3167 89.3523 79.1587 89.7336 78.8782 90.0148C78.5977 90.2961 78.2175 90.4544 77.8207 90.4553Z" fill="#FAFAFA"/>
<path d="M84.5449 90.4553C84.2483 90.4572 83.9576 90.371 83.7099 90.2073C83.4621 90.0437 83.2683 89.8101 83.153 89.536C83.0376 89.2619 83.0059 88.9597 83.0619 88.6676C83.1179 88.3754 83.259 88.1065 83.4674 87.8948C83.6758 87.6831 83.9422 87.5381 84.2328 87.4781C84.5234 87.4182 84.8252 87.446 85.1 87.558C85.3749 87.67 85.6104 87.8612 85.7769 88.1075C85.9434 88.3537 86.0332 88.6439 86.0352 88.9414C86.0353 88.9491 86.0352 88.9568 86.0352 88.9645C86.0325 89.3596 85.8746 89.7378 85.5956 90.0169C85.3166 90.296 84.9391 90.4535 84.5449 90.4553Z" fill="#FAFAFA"/>
<path d="M62.2907 111.79H60.8005V107.536H63.8571L62.2907 111.79Z" fill="#F0F0F0"/>
<path d="M59.6011 84.5483H51.7502V111.79H59.6011V84.5483Z" fill="#E6E6E6"/>
<path d="M58.1108 111.79H59.601V107.536H56.5447L58.1108 111.79Z" fill="#F0F0F0"/>
<path d="M59.6011 84.5483H18.8365V109.696H59.6011V84.5483Z" fill="#E7EFFF"/>
<path d="M57.0635 104.038H41.0973C40.6851 104.038 40.2898 103.874 39.998 103.582C39.7062 103.29 39.5419 102.894 39.541 102.481V87.1723C39.5419 86.759 39.7062 86.363 39.998 86.0711C40.2898 85.7792 40.6851 85.6152 41.0973 85.6152H57.0602C57.4718 85.6161 57.8663 85.7804 58.1573 86.0722C58.4484 86.364 58.6123 86.7596 58.6131 87.1723V102.481C58.6123 102.893 58.4489 103.288 58.1585 103.58C57.8682 103.872 57.4745 104.036 57.0635 104.038ZM41.0973 85.9631C40.7771 85.9631 40.47 86.0904 40.2433 86.317C40.0166 86.5437 39.8888 86.8513 39.888 87.1723V102.481C39.8862 102.64 39.9158 102.798 39.9749 102.946C40.0341 103.094 40.1217 103.228 40.2328 103.342C40.3438 103.456 40.4762 103.547 40.6222 103.609C40.7683 103.672 40.9252 103.705 41.084 103.707L41.0973 103.707H57.0602C57.3809 103.709 57.6895 103.584 57.9182 103.359C58.1469 103.133 58.2768 102.826 58.2795 102.504C58.2795 102.496 58.2795 102.489 58.2794 102.481V87.1723C58.2786 86.8518 58.1512 86.5448 57.9252 86.3182C57.6992 86.0916 57.393 85.9639 57.0734 85.9631H41.0973Z" fill="#E0E0E0"/>
<path d="M37.3371 104.038H21.3742C20.9623 104.038 20.5673 103.874 20.2761 103.582C19.9848 103.29 19.8212 102.894 19.8212 102.481V87.1723C19.8212 86.9678 19.8614 86.7653 19.9394 86.5764C20.0175 86.3875 20.1319 86.2159 20.2761 86.0713C20.4203 85.9267 20.5915 85.812 20.7799 85.7337C20.9683 85.6555 21.1703 85.6152 21.3742 85.6152H37.3371C37.7487 85.6161 38.1432 85.7804 38.4342 86.0722C38.7253 86.364 38.8892 86.7596 38.8901 87.1723V102.481C38.8892 102.894 38.7253 103.289 38.4342 103.581C38.1432 103.873 37.7487 104.037 37.3371 104.038ZM21.3742 85.9631C21.054 85.9631 20.7469 86.0904 20.5202 86.317C20.2935 86.5437 20.1657 86.8513 20.1649 87.1723V102.481C20.1631 102.64 20.1927 102.798 20.2519 102.946C20.311 103.094 20.3986 103.228 20.5097 103.342C20.6208 103.456 20.7531 103.547 20.8992 103.609C21.0452 103.672 21.2021 103.705 21.361 103.707L21.3742 103.707H37.3371C37.6572 103.707 37.9644 103.579 38.1911 103.353C38.4178 103.126 38.5456 102.819 38.5464 102.498V87.1723C38.5456 86.8513 38.4178 86.5437 38.1911 86.317C37.9644 86.0903 37.6572 85.9631 37.3371 85.9631H21.3742Z" fill="#E0E0E0"/>
<path d="M35.8567 90.4553C35.5601 90.456 35.2698 90.3684 35.0228 90.2037C34.7757 90.039 34.5829 89.8045 34.4688 89.5299C34.3546 89.2553 34.3243 88.953 34.3815 88.6611C34.4388 88.3692 34.581 88.1009 34.7904 87.8901C34.9997 87.6793 35.2667 87.5355 35.5576 87.4768C35.8484 87.4181 36.1501 87.4473 36.4245 87.5605C36.6988 87.6737 36.9336 87.866 37.0989 88.1129C37.2643 88.3599 37.3529 88.6505 37.3536 88.948V88.9546C37.3536 89.1517 37.3149 89.3468 37.2397 89.5289C37.1644 89.711 37.0542 89.8764 36.9152 90.0158C36.7762 90.1551 36.6112 90.2657 36.4296 90.3411C36.248 90.4165 36.0533 90.4553 35.8567 90.4553Z" fill="#FAFAFA"/>
<path d="M42.5809 90.4553C42.2842 90.4572 41.9936 90.371 41.7458 90.2073C41.4981 90.0437 41.3043 89.8101 41.1889 89.536C41.0736 89.2619 41.0419 88.9597 41.0979 88.6676C41.1538 88.3755 41.2949 88.1065 41.5033 87.8948C41.7117 87.6831 41.9781 87.5381 42.2687 87.4781C42.5593 87.4182 42.8611 87.446 43.136 87.558C43.4108 87.67 43.6464 87.8612 43.8128 88.1075C43.9793 88.3537 44.0692 88.6439 44.0711 88.9414C44.0712 88.9491 44.0712 88.9568 44.0711 88.9645C44.0685 89.3597 43.9106 89.7378 43.6316 90.0169C43.3526 90.296 42.975 90.4536 42.5809 90.4553Z" fill="#FAFAFA"/>
<path d="M20.3269 111.79H18.8367V107.536H21.8895L20.3269 111.79Z" fill="#F0F0F0"/>
<path d="M90.8772 9.04004H76.2693V23.6859H90.8772V9.04004Z" fill="#E7EFFF"/>
<path d="M91.5246 9.04248H90.8772V23.6885H91.5246V9.04248Z" fill="#B0C2F1"/>
<path d="M88.8989 11.0259H78.2499V21.7026H88.8989V11.0259Z" fill="white"/>
<path d="M85.3558 18.1503C84.8832 18.6242 84.2422 18.8904 83.5738 18.8904C82.9054 18.8904 82.2644 18.6242 81.7917 18.1503C81.5577 17.9157 81.3721 17.6371 81.2454 17.3306C81.1188 17.024 81.0536 16.6955 81.0536 16.3636C81.0536 16.0318 81.1188 15.7033 81.2454 15.3967C81.3721 15.0901 81.5577 14.8116 81.7917 14.577C82.2644 14.1031 82.9054 13.8369 83.5738 13.8369C84.2422 13.8369 84.8832 14.1031 85.3558 14.577C85.8284 15.0508 86.0939 15.6935 86.0939 16.3637C86.0939 17.0338 85.8284 17.6765 85.3558 18.1503Z" fill="#F5F5F5"/>
<path d="M76.5672 27.8701H59.4408V45.0411H76.5672V27.8701Z" fill="#E7EFFF"/>
<path d="M77.3262 27.873H76.5672V45.044H77.3262V27.873Z" fill="#B0C2F1"/>
<path d="M74.2479 30.1982H61.7629V42.7157H74.2479V30.1982Z" fill="white"/>
<path d="M70.6662 33.7861H65.3417V39.1246H70.6662V33.7861Z" fill="#F5F5F5"/>
<path d="M153.169 22.3496H143.897V24.5213H153.169V22.3496Z" fill="#E7EFFF"/>
<path d="M143.897 22.3496H105.519V24.5213H143.897V22.3496Z" fill="#F4F7FF"/>
<path d="M127.327 10.8184H116.523V22.3494H127.327V10.8184Z" fill="#E0E0E0"/>
<path d="M116.523 10.8184H113.755V22.3494H116.523V10.8184Z" fill="#9DACD4"/>
<path d="M130.16 9.04004H122.044V22.3493H130.16V9.04004Z" fill="#E7EFFF"/>
<path d="M122.047 9.04004H119.701V22.3493H122.047V9.04004Z" fill="#9DACD4"/>
<path d="M131.278 10.8184H124.435V22.3494H131.278V10.8184Z" fill="#9DACD4"/>
<path d="M124.435 10.8184H122.872V22.3494H124.435V10.8184Z" fill="#FAFAFA"/>
<path d="M139.011 12.7695H130.036V22.3493H139.011V12.7695Z" fill="#E7EFFF"/>
<path d="M130.036 12.7695H127.738V22.3493H130.036V12.7695Z" fill="#FAFAFA"/>
<path d="M141.364 11.2925H134.622V22.3496H141.364V11.2925Z" fill="#E7EFFF"/>
<path d="M134.625 11.2925H132.675V22.3496H134.625V11.2925Z" fill="#9DACD4"/>
<path d="M143.159 12.7695H136.609V22.3493H143.159V12.7695Z" fill="#9DACD4"/>
<path d="M136.606 12.7695H135.308V22.3493H136.606V12.7695Z" fill="#FAFAFA"/>
<path d="M138.411 86.729C141.315 82.9226 148.228 81.508 150.617 79.1095C153.746 75.9623 153.729 71.2415 151.066 69.5386C148.753 68.0578 141.084 78.0692 140.222 79.1857C137.248 83.0319 136.389 85.8876 135.83 88.6505C135.893 86.3017 135.956 84.1417 136.005 82.4787C136.167 77.0456 136.369 75.2997 136.461 74.763C136.792 74.498 137.162 74.1932 137.38 74.0309C139.237 72.6428 143.351 70.9897 145.409 68.9755C148.413 66.0304 147.927 62.5055 145.819 61.1936C143.618 59.8221 139.723 63.0653 137.654 66.2788C135.586 69.4923 136.471 72.5732 135.893 75.2235C135.771 75.7469 135.645 77.7347 135.53 80.4943C135.041 77.7768 133.542 75.3463 131.336 73.693C128.488 71.4137 126.03 68.6409 123.684 68.9987C121.338 69.3565 122.613 73.0271 124.457 75.6045C126.109 77.9003 134.267 80.1895 135.467 82.0347C135.325 85.7716 135.199 90.5057 135.11 94.9151C134.466 92.6392 134.908 92.447 132.275 88.9519C130.709 86.8781 124.285 84.314 123.522 85.7451C122.759 87.1763 123.918 89.863 126.344 91.748C128.3 93.2686 132.622 93.2653 133.643 94.2094C133.877 94.4281 134.651 95.2729 135.093 95.7599C134.988 101.14 134.941 105.891 134.994 107.511L135.414 107.527C135.394 107.11 135.444 104.373 135.526 100.749C136.58 98.8209 143.675 97.6946 145.865 95.6903C148.158 93.5933 149.804 91.1451 148.823 89.5052C148.003 88.137 141.553 89.9955 138.91 92.2615C137.162 93.7689 136.095 95.3789 135.606 97.5422C135.665 95.0741 135.734 92.4238 135.801 89.9226C136.326 89.3064 137.539 87.8687 138.411 86.729Z" fill="#F00A0A"/>
<path d="M139.029 111.718H131.664C131.26 111.718 130.913 111.194 130.834 110.462L130.312 105.685H140.38L139.858 110.462C139.775 111.194 139.432 111.718 139.029 111.718Z" fill="#BAD1FF"/>
<path d="M140.592 107.537H130.101C129.85 107.537 129.638 107.189 129.612 106.725L129.397 103.194C129.364 102.65 129.592 102.177 129.886 102.177H140.806C141.101 102.177 141.329 102.65 141.295 103.194L141.081 106.725C141.054 107.189 140.843 107.537 140.592 107.537Z" fill="#BAD1FF"/>
<path d="M85 127C121.408 127 150.923 125.272 150.923 123.141C150.923 121.01 121.408 119.282 85 119.282C48.5919 119.282 19.0774 121.01 19.0774 123.141C19.0774 125.272 48.5919 127 85 127Z" fill="#E7EFFF"/>
<path d="M72.9273 34.3212C72.1746 36.1505 67.7525 36.0279 63.1161 34.1105C58.4797 32.193 55.3313 29.1555 56.084 27.3262C56.2585 26.9021 56.7451 25.3186 57.2666 25.0981C58.9944 24.3675 62.2802 26.0128 65.8417 27.4857C69.1567 28.8567 72.9454 29.7379 73.5337 31.5435C73.8905 32.6386 73.1418 33.7998 72.9273 34.3212Z" fill="#9DACD4"/>
<path opacity="0.2" d="M73.5352 31.5432C73.8167 32.9787 73.1964 33.6659 72.9268 34.3207C72.6496 34.996 71.874 35.4041 70.7753 35.5558C70.6429 35.5777 70.5042 35.5908 70.3611 35.6018C69.5183 35.6522 68.6725 35.608 67.8395 35.4699C67.7202 35.4552 67.6021 35.4329 67.4807 35.4116C66.5018 35.2358 65.5372 34.9871 64.5952 34.6673C64.4868 34.6311 64.3774 34.5916 64.2679 34.5522C63.8881 34.4183 63.5009 34.2726 63.1159 34.1117C62.7319 33.9541 62.3588 33.7859 61.9943 33.6111C61.8892 33.563 61.7863 33.5107 61.6845 33.4615C60.8264 33.0375 60 32.5518 59.2118 32.0083C59.1154 31.943 59.0255 31.8756 58.9334 31.8126C58.2447 31.3231 57.6131 30.7577 57.0503 30.1269C56.9659 30.0326 56.8891 29.9394 56.8155 29.8452C56.0836 28.9157 55.7954 28.0311 56.0847 27.3268C56.2724 26.8709 56.6829 25.32 57.2649 25.0972C57.9844 24.8914 58.7467 24.8901 59.4669 25.0935C59.5786 25.1179 59.6945 25.1445 59.8116 25.1743C61.5271 25.6096 63.6532 26.5809 65.84 27.4859C68.4193 28.5528 71.4694 29.6592 72.9625 30.9382C73.052 31.0134 73.1377 31.0931 73.2191 31.177C73.334 31.2905 73.4396 31.413 73.5352 31.5432Z" fill="black"/>
<g opacity="0.2">
<path d="M59.9692 24.8892L59.8116 25.1739L57.0503 30.1265C56.9659 30.0322 56.8891 29.939 56.8155 29.8448L59.4669 25.0931L59.6724 24.7246L59.9692 24.8892Z" fill="black"/>
</g>
<g opacity="0.2">
<path d="M62.0567 26.9062L59.2118 32.0081C59.1154 31.9428 59.0255 31.8755 58.9334 31.8124L61.7621 26.7373L62.0567 26.9062Z" fill="black"/>
</g>
<g opacity="0.2">
<path d="M67.289 29.8373L64.5952 34.6674C64.4868 34.6311 64.3774 34.5917 64.2679 34.5522L66.9911 29.6694L67.289 29.8373Z" fill="black"/>
</g>
<g opacity="0.2">
<path d="M64.8566 28.4745L61.9943 33.6108C61.8892 33.5627 61.7863 33.5103 61.6844 33.4612L64.5587 28.3066L64.8566 28.4745Z" fill="black"/>
</g>
<g opacity="0.2">
<path d="M70.4616 30.7709L67.8395 35.4699C67.7203 35.4552 67.6022 35.4329 67.4808 35.4117L70.1637 30.603L70.4616 30.7709Z" fill="black"/>
</g>
<path d="M73.5147 32.7123C72.762 34.5417 68.3934 34.4703 63.757 32.5528C59.1206 30.6353 55.9723 27.5979 56.7249 25.7686C57.4776 23.9392 61.8462 24.0106 66.4826 25.9281C71.119 27.8455 74.2673 30.8829 73.5147 32.7123Z" fill="#9DACD4"/>
<path opacity="0.2" d="M71.9385 32.0605C71.4067 33.353 68.0012 33.1707 64.3321 31.6533C60.6629 30.1358 58.1196 27.8579 58.6514 26.5653C59.1832 25.2728 62.5887 25.4551 66.2578 26.9726C69.927 28.49 72.4703 30.7679 71.9385 32.0605Z" fill="white"/>
<path d="M96.3603 17.775C97.5688 19.3396 95.2632 23.1249 91.298 26.2038C87.3328 29.2827 83.1386 30.5103 81.93 28.9457C81.6499 28.583 80.5217 27.3721 80.5903 26.8089C80.8176 24.9427 83.8755 22.9032 86.9214 20.538C89.7566 18.3366 92.4036 15.4795 94.2585 15.866C95.3835 16.1003 96.0158 17.3291 96.3603 17.775Z" fill="#F00A0A"/>
<path opacity="0.2" d="M94.259 15.8647C95.6411 16.3338 95.9272 17.2152 96.3597 17.7754C96.8061 18.3524 96.7735 19.2299 96.3583 20.261C96.3113 20.387 96.2537 20.5143 96.192 20.6441C95.8164 21.4023 95.3575 22.1159 94.8237 22.7718C94.7516 22.8682 94.6735 22.9599 94.5948 23.0549C93.9557 23.8189 93.2607 24.5341 92.5155 25.1945C92.4303 25.2707 92.3416 25.3463 92.253 25.4218C91.9484 25.6856 91.6296 25.9499 91.299 26.2048C90.9716 26.4603 90.6404 26.7012 90.3079 26.9313C90.2141 26.9988 90.1175 27.0622 90.0244 27.1264C89.2307 27.6618 88.3994 28.139 87.537 28.5542C87.4327 28.6056 87.3296 28.6503 87.2292 28.699C86.4632 29.0545 85.6597 29.3227 84.834 29.4985C84.7104 29.5249 84.5916 29.5454 84.4734 29.5625C83.3052 29.7369 82.3964 29.5475 81.9308 28.9456C81.6297 28.5555 80.492 27.4271 80.5887 26.8101C80.7685 26.0819 81.1465 25.4182 81.6807 24.893C81.7574 24.808 81.8381 24.7203 81.9221 24.6334C83.152 23.3578 85.05 21.9916 86.9208 20.5397C89.1268 18.8269 91.6013 16.7244 93.4506 16.0618C93.5602 16.0214 93.6718 15.9865 93.7849 15.9574C93.9402 15.914 94.0988 15.883 94.259 15.8647Z" fill="black"/>
<g opacity="0.2">
<path d="M81.7542 24.3545L81.9221 24.6332L84.834 29.4983C84.7104 29.5248 84.5916 29.5452 84.4735 29.5624L81.6807 24.8928L81.4641 24.5308L81.7542 24.3545Z" fill="black"/>
</g>
<g opacity="0.2">
<path d="M84.5376 23.542L87.5371 28.5541C87.4327 28.6055 87.3296 28.6501 87.2292 28.6989L84.2449 23.7142L84.5376 23.542Z" fill="black"/>
</g>
<g opacity="0.2">
<path d="M89.6761 20.4487L92.5156 25.1943C92.4303 25.2705 92.3417 25.3461 92.2531 25.4216L89.3827 20.6244L89.6761 20.4487Z" fill="black"/>
</g>
<g opacity="0.2">
<path d="M87.2873 21.8867L90.3079 26.9311C90.2141 26.9986 90.1175 27.062 90.0244 27.1262L86.994 22.0623L87.2873 21.8867Z" fill="black"/>
</g>
<g opacity="0.2">
<path d="M92.0619 18.1538L94.8236 22.7717C94.7516 22.8681 94.6735 22.9598 94.5948 23.0548L91.7685 18.3294L92.0619 18.1538Z" fill="black"/>
</g>
<path d="M90.2689 24.8716C94.2342 21.7927 96.4689 18.0285 95.2604 16.464C94.0518 14.8994 89.8577 16.127 85.8924 19.2059C81.9272 22.2848 79.6925 26.0491 80.901 27.6136C82.1095 29.1782 86.3037 27.9505 90.2689 24.8716Z" fill="#F00A0A"/>
<path opacity="0.2" d="M89.7766 23.9239C92.9146 21.4873 94.7662 18.6159 93.9123 17.5105C93.0584 16.4051 89.8224 17.4841 86.6844 19.9207C83.5464 22.3573 81.6947 25.2287 82.5486 26.3341C83.4025 27.4395 86.6386 26.3605 89.7766 23.9239Z" fill="white"/>
<path d="M79.9461 10.4443C79.5478 12.6878 74.5428 13.6396 68.8568 12.6249C63.1708 11.6102 58.8842 8.96887 59.2826 6.72533C59.3749 6.20525 59.5342 4.30383 60.0667 3.92728C61.8315 2.67968 65.9313 3.72091 70.2991 4.50035C74.3646 5.22588 78.8431 5.2836 79.9474 7.16999C80.6172 8.31399 80.0596 9.80489 79.9461 10.4443Z" fill="#F00A0A"/>
<path opacity="0.2" d="M79.949 7.16933C80.6176 8.71487 80.0882 9.64077 79.9455 10.4439C79.7991 11.2719 79.0267 11.9221 77.8278 12.3636C77.6842 12.4208 77.5313 12.4698 77.3731 12.5173C76.4373 12.7818 75.4749 12.9404 74.5039 12.9903C74.3661 13.0031 74.2278 13.0071 74.086 13.0132C72.9416 13.0567 71.7955 13.0144 70.6573 12.8869C70.5265 12.8728 70.3937 12.8554 70.2608 12.8379C69.8008 12.781 69.3294 12.7124 68.8568 12.6264C68.3862 12.5436 67.9252 12.4463 67.4723 12.3396C67.3423 12.3113 67.2137 12.2778 67.0871 12.2476C66.0178 11.982 64.969 11.6393 63.9491 11.222C63.8247 11.1723 63.707 11.1187 63.5879 11.0704C62.6932 10.6895 61.8439 10.209 61.0562 9.63798C60.9381 9.55269 60.8288 9.46682 60.723 9.37894C59.6717 8.51371 59.1307 7.58947 59.2834 6.72584C59.3829 6.16665 59.4645 4.32076 60.0646 3.9267C60.6667 3.53604 61.5183 3.38544 62.541 3.37988C62.6726 3.37985 62.8096 3.38118 62.9485 3.38585C64.9852 3.45283 67.6153 4.02173 70.2973 4.50092C73.4606 5.06556 77.1631 5.55872 79.1564 6.62971C79.2756 6.69221 79.3915 6.76077 79.5036 6.83513C79.6607 6.9345 79.8096 7.04626 79.949 7.16933Z" fill="black"/>
<g opacity="0.2">
<path d="M63.0561 3.02705L62.9485 3.38617L61.0562 9.63831C60.9381 9.55302 60.8288 9.46715 60.723 9.37927L62.541 3.38021L62.6818 2.91504L63.0561 3.02705Z" fill="black"/>
</g>
<g opacity="0.2">
<path d="M65.8989 4.7815L63.949 11.2222C63.8246 11.1725 63.707 11.1189 63.5879 11.0706L65.5261 4.66406L65.8989 4.7815Z" fill="black"/>
</g>
<g opacity="0.2">
<path d="M72.5037 6.78925L70.6572 12.887C70.5264 12.8729 70.3936 12.8555 70.2608 12.838L72.1275 6.67383L72.5037 6.78925Z" fill="black"/>
</g>
<g opacity="0.2">
<path d="M69.4333 5.85615L67.4723 12.3399C67.3422 12.3117 67.2137 12.2781 67.087 12.2479L69.0571 5.74072L69.4333 5.85615Z" fill="black"/>
</g>
<g opacity="0.2">
<path d="M76.3018 7.05777L74.5039 12.9904C74.3661 13.0032 74.2277 13.0072 74.086 13.0133L75.9256 6.94238L76.3018 7.05777Z" fill="black"/>
</g>
<path d="M80.2125 8.48972C80.6108 6.2462 76.3243 3.6049 70.6383 2.5902C64.9523 1.57551 60.02 2.57167 59.6217 4.81519C59.2234 7.05871 63.5099 9.70001 69.1959 10.7147C74.8819 11.7294 79.8142 10.7332 80.2125 8.48972Z" fill="#F00A0A"/>
<path opacity="0.2" d="M78.2795 8.14468C78.5609 6.55952 75.1412 4.62353 70.6414 3.82053C66.1417 3.01753 62.2657 3.65159 61.9843 5.23675C61.7029 6.82191 65.1226 8.7579 69.6224 9.5609C74.1221 10.3639 77.9981 9.72984 78.2795 8.14468Z" fill="white"/>
<path d="M109.629 67.7092L74.6407 69.7501C73.4002 69.8225 72.1833 70.1204 71.0492 70.6292L33.0436 87.6865C32.3771 87.9809 31.8316 88.4955 31.4979 89.1445C31.1641 89.7934 31.0625 90.5375 31.2098 91.2525L37.4977 121.026C37.6039 121.505 37.8181 121.954 38.1239 122.338C38.4298 122.722 38.8191 123.03 39.2622 123.24C39.7053 123.45 40.1903 123.555 40.6802 123.548C41.1702 123.541 41.652 123.422 42.0888 123.199L79.6012 104.424L114.238 103.25C114.665 103.238 115.084 103.136 115.467 102.95C115.851 102.763 116.191 102.497 116.464 102.169C116.738 101.841 116.938 101.458 117.052 101.046C117.167 100.634 117.192 100.202 117.127 99.7797L112.491 71.2682C112.252 69.7958 111.137 67.6646 109.629 67.7092Z" fill="#9DACD4"/>
<path opacity="0.1" d="M109.629 67.7092L74.6407 69.7501C73.4002 69.8225 72.1833 70.1204 71.0492 70.6292L33.0436 87.6865C32.3771 87.9809 31.8316 88.4955 31.4979 89.1445C31.1641 89.7934 31.0625 90.5375 31.2098 91.2525L37.4977 121.026C37.6039 121.505 37.8181 121.954 38.1239 122.338C38.4298 122.722 38.8191 123.03 39.2622 123.24C39.7053 123.45 40.1903 123.555 40.6802 123.548C41.1702 123.541 41.652 123.422 42.0888 123.199L79.6012 104.424L114.238 103.25C114.665 103.238 115.084 103.136 115.467 102.95C115.851 102.763 116.191 102.497 116.464 102.169C116.738 101.841 116.938 101.458 117.052 101.046C117.167 100.634 117.192 100.202 117.127 99.7797L112.491 71.2682C112.252 69.7958 111.137 67.6646 109.629 67.7092Z" fill="black"/>
<path d="M39.3969 48.3246L21.0345 65.2939L53.9836 101.134L72.346 84.1642L39.3969 48.3246Z" fill="#F00A0A"/>
<path opacity="0.5" d="M72.3452 84.1655L53.9828 101.134L21.0355 65.2958L33.0854 54.1588L39.3978 48.3242L40.4505 49.4686L72.3452 84.1655Z" fill="#FAFAFA"/>
<path d="M39.5167 50.5159L23.3132 65.4902L54.1348 99.0156L70.3383 84.0413L39.5167 50.5159Z" stroke="#F00A0A" stroke-miterlimit="10"/>
<path d="M50.4703 78.7301C52.3281 77.0132 52.0931 73.7277 49.9455 71.3917C47.7979 69.0556 44.5508 68.5538 42.693 70.2707C40.8352 71.9876 41.0701 75.2731 43.2177 77.6091C45.3654 79.9451 48.6124 80.447 50.4703 78.7301Z" fill="#F00A0A"/>
<path opacity="0.1" d="M53.7866 86.5899L47.2624 88.8496L33.0854 54.1588L39.3978 48.3242L40.4505 49.4686L53.7866 86.5899Z" fill="black"/>
<path d="M55.0561 34.2831L31.5786 42.8169L48.1485 88.6403L71.626 80.1065L55.0561 34.2831Z" fill="#F00A0A"/>
<path opacity="0.5" d="M55.0561 34.2831L31.5786 42.8169L48.1485 88.6403L71.626 80.1065L55.0561 34.2831Z" fill="#FAFAFA"/>
<path d="M54.3218 36.3503L33.6045 43.8809L49.1045 86.7454L69.8218 79.2149L54.3218 36.3503Z" stroke="#F00A0A" stroke-miterlimit="10"/>
<path d="M53.5459 66.6165C55.9213 65.753 56.9713 62.6319 55.8913 59.6451C54.8113 56.6583 52.0101 54.937 49.6348 55.8004C47.2594 56.6638 46.2093 59.785 47.2894 62.7718C48.3694 65.7586 51.1705 67.4799 53.5459 66.6165Z" fill="#F00A0A"/>
<path d="M109.858 68.9195L75.3477 70.8687C74.1242 70.9378 72.924 71.2325 71.8071 71.738L34.3597 88.6882C33.6999 88.9868 33.1617 89.5026 32.8344 90.15C32.5071 90.7975 32.4102 91.5376 32.56 92.2477L38.8397 122.023C38.9402 122.499 39.1486 122.947 39.4488 123.33C39.749 123.713 40.1329 124.022 40.571 124.233C41.0091 124.444 41.4897 124.551 41.9757 124.547C42.4617 124.542 42.9402 124.426 43.3743 124.207L80.3306 105.538L114.496 104.454C114.919 104.441 115.334 104.337 115.714 104.15C116.094 103.963 116.429 103.697 116.698 103.369C116.967 103.041 117.163 102.66 117.273 102.25C117.383 101.841 117.405 101.412 117.337 100.994L112.69 72.4843C112.45 71.0119 111.345 68.8789 109.858 68.9195Z" fill="#9DACD4"/>
<path opacity="0.2" d="M76.7518 76.0855L106.361 74.2568" stroke="black" stroke-width="2" stroke-linecap="round" stroke-linejoin="round"/>
<path opacity="0.2" d="M73.2045 76.8535L78.6153 101.765" stroke="black" stroke-width="2" stroke-linecap="round" stroke-linejoin="round"/>
<path opacity="0.2" d="M37.1383 99.3438L40.9527 118.507C40.9527 118.507 43.8771 110.903 37.1383 99.3438Z" fill="#FAFAFA"/>
<path opacity="0.2" d="M37.6386 99.569C37.7694 99.9185 71.521 85.3892 71.521 85.3892C71.6124 88.6813 70.7912 91.9344 69.1489 94.7867C67.5065 97.639 65.1073 99.9787 62.218 101.546C52.0609 107.258 37.6386 99.569 37.6386 99.569Z" fill="#FAFAFA"/>
<path d="M60.0582 100.134C60.8656 100.134 61.5201 99.4774 61.5201 98.6679C61.5201 97.8584 60.8656 97.2021 60.0582 97.2021C59.2507 97.2021 58.5962 97.8584 58.5962 98.6679C58.5962 99.4774 59.2507 100.134 60.0582 100.134Z" fill="#9DACD4"/>
<path opacity="0.2" d="M71.5387 85.3892C71.5387 85.3892 75.7248 91.7034 74.7123 102.464L71.5387 85.3892Z" fill="black"/>
<g opacity="0.2">
<path d="M35.5233 91.8171L36.3008 91.4727" stroke="#FAFAFA" stroke-linecap="round" stroke-linejoin="round"/>
<path d="M37.9171 90.7565L69.4351 76.7891" stroke="#FAFAFA" stroke-linecap="round" stroke-linejoin="round" stroke-dasharray="5.2 5.2"/>
<path d="M70.2433 76.4308L71.0207 76.0864" stroke="#FAFAFA" stroke-linecap="round" stroke-linejoin="round"/>
</g>
<path opacity="0.2" d="M77.7447 81.6851L107.354 79.8564" stroke="black" stroke-width="2" stroke-linecap="round" stroke-linejoin="round"/>
<path opacity="0.2" d="M79.0773 88.6689L108.687 86.8403" stroke="black" stroke-width="2" stroke-linecap="round" stroke-linejoin="round"/>
<path d="M104.145 45.6537L96.9663 70.6976C96.8094 71.2491 96.5455 71.7641 96.1896 72.2131C95.8338 72.6621 95.393 73.0363 94.8926 73.3141C94.3922 73.5919 93.8421 73.768 93.2737 73.8321C92.7052 73.8963 92.1298 73.8473 91.5803 73.688L77.842 69.7298C76.7328 69.4094 75.7957 68.6608 75.2365 67.6484C74.6773 66.6359 74.5417 65.4424 74.8594 64.3298L82.0405 39.2818C82.3602 38.1698 83.1072 37.2306 84.1172 36.6705C85.1273 36.1103 86.3179 35.9752 87.4273 36.2947L101.165 40.2496C102.275 40.5703 103.212 41.3197 103.771 42.3331C104.33 43.3465 104.464 44.5409 104.145 45.6537Z" fill="#9DACD4"/>
<path opacity="0.2" d="M104.145 45.6537L96.9663 70.6976C96.8094 71.2491 96.5455 71.7641 96.1896 72.2131C95.8338 72.6621 95.393 73.0363 94.8926 73.3141C94.3922 73.5919 93.8421 73.768 93.2737 73.8321C92.7052 73.8963 92.1298 73.8473 91.5803 73.688L77.842 69.7298C76.7328 69.4094 75.7957 68.6608 75.2365 67.6484C74.6773 66.6359 74.5417 65.4424 74.8594 64.3298L82.0405 39.2818C82.3602 38.1698 83.1072 37.2306 84.1172 36.6705C85.1273 36.1103 86.3179 35.9752 87.4273 36.2947L101.165 40.2496C102.275 40.5703 103.212 41.3197 103.771 42.3331C104.33 43.3465 104.464 44.5409 104.145 45.6537Z" fill="black"/>
<path d="M102.95 45.9517L95.7719 70.9955C95.5901 71.6329 95.2656 72.2203 94.8231 72.7129C94.3807 73.2055 93.8319 73.5903 93.2186 73.8381C92.668 73.8919 92.1121 73.841 91.5803 73.6881L77.842 69.7299C76.7328 69.4095 75.7957 68.6609 75.2365 67.6485C74.6773 66.6361 74.5417 65.4425 74.8594 64.3299L82.0405 39.282C82.2227 38.6451 82.5475 38.0583 82.9901 37.5662C83.4327 37.0742 83.9814 36.6899 84.5945 36.4427C85.1452 36.3888 85.701 36.4397 86.2329 36.5927L99.9703 40.5476C101.08 40.8682 102.017 41.6176 102.576 42.631C103.135 43.6444 103.27 44.8388 102.95 45.9517Z" fill="#9DACD4"/>
<path opacity="0.5" d="M102.95 45.9517L95.7719 70.9955C95.5901 71.6329 95.2656 72.2203 94.8231 72.7129C94.3807 73.2055 93.8319 73.5903 93.2186 73.8381C92.668 73.8919 92.1121 73.841 91.5803 73.6881L77.842 69.7299C76.7328 69.4095 75.7957 68.6609 75.2365 67.6485C74.6773 66.6361 74.5417 65.4425 74.8594 64.3299L82.0405 39.282C82.2227 38.6451 82.5475 38.0583 82.9901 37.5662C83.4327 37.0742 83.9814 36.6899 84.5945 36.4427C85.1452 36.3888 85.701 36.4397 86.2329 36.5927L99.9703 40.5476C101.08 40.8682 102.017 41.6176 102.576 42.631C103.135 43.6444 103.27 44.8388 102.95 45.9517Z" fill="#FAFAFA"/>
<path d="M83.6497 48.077L82.1796 47.6616L76.8923 66.4741L78.3624 66.8895L83.6497 48.077Z" fill="#FAFAFA"/>
<path d="M80.4668 67.4901L78.9987 67.0671L84.2843 48.2588L85.7524 48.6818L80.4668 67.4901Z" fill="#FAFAFA"/>
<path d="M82.6027 68.1059L81.1349 67.6828L86.4205 48.8745L87.8886 49.2975L82.6027 68.1059Z" fill="#FAFAFA"/>
<path opacity="0.5" d="M96.4471 51.7625L94.977 51.3472L89.6897 70.1597L91.1598 70.575L96.4471 51.7625Z" fill="black"/>
<path d="M96.254 46.4454L95.523 48.9986L94.6526 48.7532C94.2315 48.6336 93.8748 48.3515 93.6607 47.9688C93.4466 47.5861 93.3925 47.1339 93.5102 46.7113L93.9862 45.0171L95.744 45.5216C95.9333 45.577 96.0932 45.7052 96.1887 45.8782C96.2842 46.0512 96.3077 46.2551 96.254 46.4454Z" fill="#FAFAFA"/>
<path d="M95.8358 45.1947L94.078 44.6901L94.605 42.8221C94.7239 42.3997 95.0052 42.0418 95.387 41.8271C95.7688 41.6123 96.22 41.5583 96.6416 41.6767L97.546 41.9324L96.7572 44.6833C96.7308 44.7779 96.6859 44.8663 96.6251 44.9434C96.5644 45.0205 96.4889 45.0847 96.4032 45.1322C96.3175 45.1798 96.2231 45.2098 96.1257 45.2205C96.0283 45.2313 95.9298 45.2225 95.8358 45.1947Z" fill="#FAFAFA"/>
<path d="M97.5018 46.0295L99.2698 46.5374L98.8006 48.2044C98.7424 48.4136 98.6436 48.6093 98.5098 48.7802C98.3761 48.951 98.21 49.0938 98.0211 49.2002C97.8322 49.3066 97.6242 49.3746 97.4091 49.4002C97.194 49.4259 96.9759 49.4087 96.7674 49.3497L95.8494 49.0907L96.5804 46.5408C96.6349 46.3506 96.7627 46.1898 96.9354 46.0939C97.1082 45.998 97.3119 45.9748 97.5018 46.0295Z" fill="#FAFAFA"/>
<path d="M99.8954 44.3152L99.3616 46.2105L97.5936 45.7026C97.4043 45.6472 97.2444 45.519 97.1489 45.346C97.0534 45.1729 97.0299 44.9691 97.0836 44.7788L97.8724 42.0278L98.753 42.2767C99.1741 42.3951 99.531 42.6764 99.7453 43.0587C99.9595 43.441 100.014 43.893 99.8954 44.3152Z" fill="#FAFAFA"/>
</g>
<defs>
<clipPath id="clip0_646_21983">
<rect width="170" height="127" fill="white"/>
</clipPath>
</defs>
</svg>
