<svg width="16" height="16" viewBox="0 0 16 16" fill="none" xmlns="http://www.w3.org/2000/svg">
<path d="M8.00002 10.667C8.83335 10.667 9.54169 10.3753 10.125 9.79199C10.7084 9.20866 11 8.50033 11 7.66699C11 6.83366 10.7084 6.12533 10.125 5.54199C9.54169 4.95866 8.83335 4.66699 8.00002 4.66699C7.16669 4.66699 6.45835 4.95866 5.87502 5.54199C5.29169 6.12533 5.00002 6.83366 5.00002 7.66699C5.00002 8.50033 5.29169 9.20866 5.87502 9.79199C6.45835 10.3753 7.16669 10.667 8.00002 10.667ZM8.00002 9.46699C7.50002 9.46699 7.07502 9.29199 6.72502 8.94199C6.37502 8.59199 6.20002 8.16699 6.20002 7.66699C6.20002 7.16699 6.37502 6.74199 6.72502 6.39199C7.07502 6.04199 7.50002 5.86699 8.00002 5.86699C8.50002 5.86699 8.92502 6.04199 9.27502 6.39199C9.62502 6.74199 9.80002 7.16699 9.80002 7.66699C9.80002 8.16699 9.62502 8.59199 9.27502 8.94199C8.92502 9.29199 8.50002 9.46699 8.00002 9.46699ZM8.00002 12.667C6.3778 12.667 4.90002 12.2142 3.56669 11.3087C2.23335 10.4031 1.26669 9.18921 0.666687 7.66699C1.26669 6.14477 2.23335 4.93088 3.56669 4.02533C4.90002 3.11977 6.3778 2.66699 8.00002 2.66699C9.62224 2.66699 11.1 3.11977 12.4334 4.02533C13.7667 4.93088 14.7334 6.14477 15.3334 7.66699C14.7334 9.18921 13.7667 10.4031 12.4334 11.3087C11.1 12.2142 9.62224 12.667 8.00002 12.667Z" fill="#9DACD4"/>
</svg>
